G75*
G70*
%OFA0B0*%
%FSLAX24Y24*%
%IPPOS*%
%LPD*%
%AMOC8*
5,1,8,0,0,1.08239X$1,22.5*
%
%ADD10C,0.0080*%
%ADD11C,0.0000*%
%ADD12R,0.1299X0.0827*%
%ADD13C,0.0394*%
%ADD14R,0.0260X0.0800*%
%ADD15R,0.0394X0.0433*%
%ADD16R,0.0630X0.0709*%
%ADD17R,0.0520X0.0661*%
%ADD18R,0.0728X0.0661*%
%ADD19R,0.0394X0.0591*%
%ADD20R,0.0394X0.0787*%
%ADD21C,0.0866*%
%ADD22R,0.0394X0.0630*%
%ADD23R,0.2126X0.2441*%
%ADD24R,0.0240X0.0700*%
%ADD25R,0.1260X0.0709*%
%ADD26R,0.0787X0.0945*%
%ADD27R,0.0650X0.0650*%
%ADD28R,0.0002X0.0062*%
%ADD29R,0.0002X0.0105*%
%ADD30R,0.0002X0.0133*%
%ADD31R,0.0002X0.0159*%
%ADD32R,0.0002X0.0179*%
%ADD33R,0.0002X0.0199*%
%ADD34R,0.0002X0.0215*%
%ADD35R,0.0002X0.0229*%
%ADD36R,0.0002X0.0246*%
%ADD37R,0.0002X0.0258*%
%ADD38R,0.0002X0.0272*%
%ADD39R,0.0002X0.0284*%
%ADD40R,0.0002X0.0296*%
%ADD41R,0.0002X0.0308*%
%ADD42R,0.0002X0.0320*%
%ADD43R,0.0002X0.0330*%
%ADD44R,0.0002X0.0340*%
%ADD45R,0.0002X0.0346*%
%ADD46R,0.0002X0.0350*%
%ADD47R,0.0002X0.0350*%
%ADD48R,0.0002X0.0354*%
%ADD49R,0.0002X0.0358*%
%ADD50R,0.0002X0.0360*%
%ADD51R,0.0002X0.0362*%
%ADD52R,0.0002X0.0366*%
%ADD53R,0.0002X0.0368*%
%ADD54R,0.0002X0.0368*%
%ADD55R,0.0002X0.0372*%
%ADD56R,0.0002X0.0374*%
%ADD57R,0.0002X0.0378*%
%ADD58R,0.0002X0.0378*%
%ADD59R,0.0002X0.0380*%
%ADD60R,0.0002X0.0382*%
%ADD61R,0.0002X0.0386*%
%ADD62R,0.0002X0.0386*%
%ADD63R,0.0002X0.0388*%
%ADD64R,0.0002X0.0390*%
%ADD65R,0.0002X0.0392*%
%ADD66R,0.0002X0.0392*%
%ADD67R,0.0002X0.0395*%
%ADD68R,0.0002X0.0397*%
%ADD69R,0.0002X0.0399*%
%ADD70R,0.0002X0.0399*%
%ADD71R,0.0002X0.0401*%
%ADD72R,0.0002X0.0403*%
%ADD73R,0.0002X0.0405*%
%ADD74R,0.0002X0.0405*%
%ADD75R,0.0002X0.0407*%
%ADD76R,0.0002X0.0409*%
%ADD77R,0.0002X0.0409*%
%ADD78R,0.0002X0.0411*%
%ADD79R,0.0002X0.0137*%
%ADD80R,0.0002X0.0213*%
%ADD81R,0.0002X0.0119*%
%ADD82R,0.0002X0.0197*%
%ADD83R,0.0002X0.0105*%
%ADD84R,0.0002X0.0189*%
%ADD85R,0.0002X0.0093*%
%ADD86R,0.0002X0.0181*%
%ADD87R,0.0002X0.0085*%
%ADD88R,0.0002X0.0175*%
%ADD89R,0.0002X0.0074*%
%ADD90R,0.0002X0.0167*%
%ADD91R,0.0002X0.0064*%
%ADD92R,0.0002X0.0163*%
%ADD93R,0.0002X0.0056*%
%ADD94R,0.0002X0.0159*%
%ADD95R,0.0002X0.0048*%
%ADD96R,0.0002X0.0155*%
%ADD97R,0.0002X0.0040*%
%ADD98R,0.0002X0.0151*%
%ADD99R,0.0002X0.0030*%
%ADD100R,0.0002X0.0149*%
%ADD101R,0.0002X0.0022*%
%ADD102R,0.0002X0.0145*%
%ADD103R,0.0002X0.0014*%
%ADD104R,0.0002X0.0143*%
%ADD105R,0.0002X0.0006*%
%ADD106R,0.0002X0.0139*%
%ADD107R,0.0002X0.0137*%
%ADD108R,0.0002X0.0133*%
%ADD109R,0.0002X0.0133*%
%ADD110R,0.0002X0.0129*%
%ADD111R,0.0002X0.0129*%
%ADD112R,0.0002X0.0127*%
%ADD113R,0.0002X0.0127*%
%ADD114R,0.0002X0.0125*%
%ADD115R,0.0002X0.0125*%
%ADD116R,0.0002X0.0123*%
%ADD117R,0.0002X0.0123*%
%ADD118R,0.0002X0.0121*%
%ADD119R,0.0002X0.0121*%
%ADD120R,0.0002X0.0119*%
%ADD121R,0.0002X0.0117*%
%ADD122R,0.0002X0.0115*%
%ADD123R,0.0002X0.0117*%
%ADD124R,0.0002X0.0115*%
%ADD125R,0.0002X0.0115*%
%ADD126R,0.0002X0.0113*%
%ADD127R,0.0002X0.0113*%
%ADD128R,0.0002X0.0113*%
%ADD129R,0.0002X0.0111*%
%ADD130R,0.0002X0.0111*%
%ADD131R,0.0002X0.0109*%
%ADD132R,0.0002X0.0109*%
%ADD133R,0.0002X0.0109*%
%ADD134R,0.0002X0.0107*%
%ADD135R,0.0002X0.0107*%
%ADD136R,0.0002X0.0107*%
%ADD137R,0.0002X0.0107*%
%ADD138R,0.0002X0.0105*%
%ADD139R,0.0002X0.0105*%
%ADD140R,0.0002X0.0105*%
%ADD141R,0.0002X0.0054*%
%ADD142R,0.0002X0.0062*%
%ADD143R,0.0002X0.0062*%
%ADD144R,0.0002X0.0085*%
%ADD145R,0.0002X0.0097*%
%ADD146R,0.0002X0.0093*%
%ADD147R,0.0002X0.0095*%
%ADD148R,0.0002X0.0020*%
%ADD149R,0.0002X0.0125*%
%ADD150R,0.0002X0.0107*%
%ADD151R,0.0002X0.0141*%
%ADD152R,0.0002X0.0133*%
%ADD153R,0.0002X0.0038*%
%ADD154R,0.0002X0.0137*%
%ADD155R,0.0002X0.0141*%
%ADD156R,0.0002X0.0157*%
%ADD157R,0.0002X0.0147*%
%ADD158R,0.0002X0.0050*%
%ADD159R,0.0002X0.0153*%
%ADD160R,0.0002X0.0173*%
%ADD161R,0.0002X0.0169*%
%ADD162R,0.0002X0.0169*%
%ADD163R,0.0002X0.0171*%
%ADD164R,0.0002X0.0185*%
%ADD165R,0.0002X0.0326*%
%ADD166R,0.0002X0.0171*%
%ADD167R,0.0002X0.0070*%
%ADD168R,0.0002X0.0131*%
%ADD169R,0.0002X0.0183*%
%ADD170R,0.0002X0.0183*%
%ADD171R,0.0002X0.0183*%
%ADD172R,0.0002X0.0199*%
%ADD173R,0.0002X0.0181*%
%ADD174R,0.0002X0.0074*%
%ADD175R,0.0002X0.0145*%
%ADD176R,0.0002X0.0195*%
%ADD177R,0.0002X0.0195*%
%ADD178R,0.0002X0.0193*%
%ADD179R,0.0002X0.0211*%
%ADD180R,0.0002X0.0352*%
%ADD181R,0.0002X0.0193*%
%ADD182R,0.0002X0.0083*%
%ADD183R,0.0002X0.0157*%
%ADD184R,0.0002X0.0207*%
%ADD185R,0.0002X0.0205*%
%ADD186R,0.0002X0.0201*%
%ADD187R,0.0002X0.0221*%
%ADD188R,0.0002X0.0360*%
%ADD189R,0.0002X0.0203*%
%ADD190R,0.0002X0.0087*%
%ADD191R,0.0002X0.0165*%
%ADD192R,0.0002X0.0217*%
%ADD193R,0.0002X0.0217*%
%ADD194R,0.0002X0.0207*%
%ADD195R,0.0002X0.0231*%
%ADD196R,0.0002X0.0366*%
%ADD197R,0.0002X0.0091*%
%ADD198R,0.0002X0.0175*%
%ADD199R,0.0002X0.0229*%
%ADD200R,0.0002X0.0225*%
%ADD201R,0.0002X0.0213*%
%ADD202R,0.0002X0.0242*%
%ADD203R,0.0002X0.0372*%
%ADD204R,0.0002X0.0221*%
%ADD205R,0.0002X0.0097*%
%ADD206R,0.0002X0.0238*%
%ADD207R,0.0002X0.0237*%
%ADD208R,0.0002X0.0252*%
%ADD209R,0.0002X0.0378*%
%ADD210R,0.0002X0.0101*%
%ADD211R,0.0002X0.0187*%
%ADD212R,0.0002X0.0248*%
%ADD213R,0.0002X0.0246*%
%ADD214R,0.0002X0.0223*%
%ADD215R,0.0002X0.0260*%
%ADD216R,0.0002X0.0384*%
%ADD217R,0.0002X0.0238*%
%ADD218R,0.0002X0.0254*%
%ADD219R,0.0002X0.0227*%
%ADD220R,0.0002X0.0270*%
%ADD221R,0.0002X0.0246*%
%ADD222R,0.0002X0.0266*%
%ADD223R,0.0002X0.0262*%
%ADD224R,0.0002X0.0231*%
%ADD225R,0.0002X0.0280*%
%ADD226R,0.0002X0.0252*%
%ADD227R,0.0002X0.0205*%
%ADD228R,0.0002X0.0274*%
%ADD229R,0.0002X0.0270*%
%ADD230R,0.0002X0.0235*%
%ADD231R,0.0002X0.0288*%
%ADD232R,0.0002X0.0399*%
%ADD233R,0.0002X0.0260*%
%ADD234R,0.0002X0.0282*%
%ADD235R,0.0002X0.0278*%
%ADD236R,0.0002X0.0296*%
%ADD237R,0.0002X0.0215*%
%ADD238R,0.0002X0.0290*%
%ADD239R,0.0002X0.0286*%
%ADD240R,0.0002X0.0241*%
%ADD241R,0.0002X0.0300*%
%ADD242R,0.0002X0.0405*%
%ADD243R,0.0002X0.0272*%
%ADD244R,0.0002X0.0121*%
%ADD245R,0.0002X0.0221*%
%ADD246R,0.0002X0.0298*%
%ADD247R,0.0002X0.0292*%
%ADD248R,0.0002X0.0244*%
%ADD249R,0.0002X0.0308*%
%ADD250R,0.0002X0.0123*%
%ADD251R,0.0002X0.0304*%
%ADD252R,0.0002X0.0294*%
%ADD253R,0.0002X0.0316*%
%ADD254R,0.0002X0.0411*%
%ADD255R,0.0002X0.0312*%
%ADD256R,0.0002X0.0250*%
%ADD257R,0.0002X0.0324*%
%ADD258R,0.0002X0.0415*%
%ADD259R,0.0002X0.0292*%
%ADD260R,0.0002X0.0233*%
%ADD261R,0.0002X0.0318*%
%ADD262R,0.0002X0.0302*%
%ADD263R,0.0002X0.0328*%
%ADD264R,0.0002X0.0417*%
%ADD265R,0.0002X0.0324*%
%ADD266R,0.0002X0.0256*%
%ADD267R,0.0002X0.0336*%
%ADD268R,0.0002X0.0421*%
%ADD269R,0.0002X0.0131*%
%ADD270R,0.0002X0.0330*%
%ADD271R,0.0002X0.0258*%
%ADD272R,0.0002X0.0340*%
%ADD273R,0.0002X0.0423*%
%ADD274R,0.0002X0.0135*%
%ADD275R,0.0002X0.0338*%
%ADD276R,0.0002X0.0310*%
%ADD277R,0.0002X0.0348*%
%ADD278R,0.0002X0.0425*%
%ADD279R,0.0002X0.0342*%
%ADD280R,0.0002X0.0314*%
%ADD281R,0.0002X0.0262*%
%ADD282R,0.0002X0.0429*%
%ADD283R,0.0002X0.0320*%
%ADD284R,0.0002X0.0316*%
%ADD285R,0.0002X0.0264*%
%ADD286R,0.0002X0.0360*%
%ADD287R,0.0002X0.0431*%
%ADD288R,0.0002X0.0324*%
%ADD289R,0.0002X0.0139*%
%ADD290R,0.0002X0.0256*%
%ADD291R,0.0002X0.0318*%
%ADD292R,0.0002X0.0266*%
%ADD293R,0.0002X0.0364*%
%ADD294R,0.0002X0.0433*%
%ADD295R,0.0002X0.0139*%
%ADD296R,0.0002X0.0360*%
%ADD297R,0.0002X0.0322*%
%ADD298R,0.0002X0.0268*%
%ADD299R,0.0002X0.0370*%
%ADD300R,0.0002X0.0435*%
%ADD301R,0.0002X0.0330*%
%ADD302R,0.0002X0.0376*%
%ADD303R,0.0002X0.0437*%
%ADD304R,0.0002X0.0332*%
%ADD305R,0.0002X0.0141*%
%ADD306R,0.0002X0.0326*%
%ADD307R,0.0002X0.0272*%
%ADD308R,0.0002X0.0380*%
%ADD309R,0.0002X0.0439*%
%ADD310R,0.0002X0.0334*%
%ADD311R,0.0002X0.0143*%
%ADD312R,0.0002X0.0268*%
%ADD313R,0.0002X0.0376*%
%ADD314R,0.0002X0.0274*%
%ADD315R,0.0002X0.0441*%
%ADD316R,0.0002X0.0382*%
%ADD317R,0.0002X0.0276*%
%ADD318R,0.0002X0.0391*%
%ADD319R,0.0002X0.0443*%
%ADD320R,0.0002X0.0340*%
%ADD321R,0.0002X0.0274*%
%ADD322R,0.0002X0.0334*%
%ADD323R,0.0002X0.0445*%
%ADD324R,0.0002X0.0342*%
%ADD325R,0.0002X0.0278*%
%ADD326R,0.0002X0.0401*%
%ADD327R,0.0002X0.0445*%
%ADD328R,0.0002X0.0344*%
%ADD329R,0.0002X0.0395*%
%ADD330R,0.0002X0.0280*%
%ADD331R,0.0002X0.0447*%
%ADD332R,0.0002X0.0409*%
%ADD333R,0.0002X0.0449*%
%ADD334R,0.0002X0.0348*%
%ADD335R,0.0002X0.0407*%
%ADD336R,0.0002X0.0344*%
%ADD337R,0.0002X0.0415*%
%ADD338R,0.0002X0.0451*%
%ADD339R,0.0002X0.0350*%
%ADD340R,0.0002X0.0411*%
%ADD341R,0.0002X0.0346*%
%ADD342R,0.0002X0.0284*%
%ADD343R,0.0002X0.0419*%
%ADD344R,0.0002X0.0451*%
%ADD345R,0.0002X0.0352*%
%ADD346R,0.0002X0.0290*%
%ADD347R,0.0002X0.0415*%
%ADD348R,0.0002X0.0286*%
%ADD349R,0.0002X0.0423*%
%ADD350R,0.0002X0.0453*%
%ADD351R,0.0002X0.0354*%
%ADD352R,0.0002X0.0292*%
%ADD353R,0.0002X0.0419*%
%ADD354R,0.0002X0.0427*%
%ADD355R,0.0002X0.0455*%
%ADD356R,0.0002X0.0356*%
%ADD357R,0.0002X0.0288*%
%ADD358R,0.0002X0.0431*%
%ADD359R,0.0002X0.0358*%
%ADD360R,0.0002X0.0296*%
%ADD361R,0.0002X0.0290*%
%ADD362R,0.0002X0.0435*%
%ADD363R,0.0002X0.0457*%
%ADD364R,0.0002X0.0300*%
%ADD365R,0.0002X0.0356*%
%ADD366R,0.0002X0.0290*%
%ADD367R,0.0002X0.0439*%
%ADD368R,0.0002X0.0457*%
%ADD369R,0.0002X0.0362*%
%ADD370R,0.0002X0.0302*%
%ADD371R,0.0002X0.0443*%
%ADD372R,0.0002X0.0459*%
%ADD373R,0.0002X0.0304*%
%ADD374R,0.0002X0.0447*%
%ADD375R,0.0002X0.0461*%
%ADD376R,0.0002X0.0306*%
%ADD377R,0.0002X0.0360*%
%ADD378R,0.0002X0.0294*%
%ADD379R,0.0002X0.0461*%
%ADD380R,0.0002X0.0368*%
%ADD381R,0.0002X0.0447*%
%ADD382R,0.0002X0.0463*%
%ADD383R,0.0002X0.0368*%
%ADD384R,0.0002X0.0457*%
%ADD385R,0.0002X0.0455*%
%ADD386R,0.0002X0.0372*%
%ADD387R,0.0002X0.0314*%
%ADD388R,0.0002X0.0203*%
%ADD389R,0.0002X0.0298*%
%ADD390R,0.0002X0.0201*%
%ADD391R,0.0002X0.0201*%
%ADD392R,0.0002X0.0465*%
%ADD393R,0.0002X0.0121*%
%ADD394R,0.0002X0.0316*%
%ADD395R,0.0002X0.0191*%
%ADD396R,0.0002X0.0298*%
%ADD397R,0.0002X0.0189*%
%ADD398R,0.0002X0.0465*%
%ADD399R,0.0002X0.0300*%
%ADD400R,0.0002X0.0181*%
%ADD401R,0.0002X0.0467*%
%ADD402R,0.0002X0.0103*%
%ADD403R,0.0002X0.0320*%
%ADD404R,0.0002X0.0177*%
%ADD405R,0.0002X0.0171*%
%ADD406R,0.0002X0.0079*%
%ADD407R,0.0002X0.0173*%
%ADD408R,0.0002X0.0169*%
%ADD409R,0.0002X0.0467*%
%ADD410R,0.0002X0.0171*%
%ADD411R,0.0002X0.0091*%
%ADD412R,0.0002X0.0324*%
%ADD413R,0.0002X0.0173*%
%ADD414R,0.0002X0.0072*%
%ADD415R,0.0002X0.0469*%
%ADD416R,0.0002X0.0163*%
%ADD417R,0.0002X0.0066*%
%ADD418R,0.0002X0.0165*%
%ADD419R,0.0002X0.0161*%
%ADD420R,0.0002X0.0149*%
%ADD421R,0.0002X0.0163*%
%ADD422R,0.0002X0.0081*%
%ADD423R,0.0002X0.0139*%
%ADD424R,0.0002X0.0076*%
%ADD425R,0.0002X0.0157*%
%ADD426R,0.0002X0.0058*%
%ADD427R,0.0002X0.0159*%
%ADD428R,0.0002X0.0155*%
%ADD429R,0.0002X0.0137*%
%ADD430R,0.0002X0.0159*%
%ADD431R,0.0002X0.0072*%
%ADD432R,0.0002X0.0195*%
%ADD433R,0.0002X0.0052*%
%ADD434R,0.0002X0.0127*%
%ADD435R,0.0002X0.0153*%
%ADD436R,0.0002X0.0155*%
%ADD437R,0.0002X0.0068*%
%ADD438R,0.0002X0.0189*%
%ADD439R,0.0002X0.0125*%
%ADD440R,0.0002X0.0151*%
%ADD441R,0.0002X0.0064*%
%ADD442R,0.0002X0.0044*%
%ADD443R,0.0002X0.0123*%
%ADD444R,0.0002X0.0103*%
%ADD445R,0.0002X0.0179*%
%ADD446R,0.0002X0.0147*%
%ADD447R,0.0002X0.0040*%
%ADD448R,0.0002X0.0151*%
%ADD449R,0.0002X0.0125*%
%ADD450R,0.0002X0.0099*%
%ADD451R,0.0002X0.0175*%
%ADD452R,0.0002X0.0145*%
%ADD453R,0.0002X0.0036*%
%ADD454R,0.0002X0.0056*%
%ADD455R,0.0002X0.0095*%
%ADD456R,0.0002X0.0032*%
%ADD457R,0.0002X0.0117*%
%ADD458R,0.0002X0.0052*%
%ADD459R,0.0002X0.0028*%
%ADD460R,0.0002X0.0115*%
%ADD461R,0.0002X0.0050*%
%ADD462R,0.0002X0.0141*%
%ADD463R,0.0002X0.0024*%
%ADD464R,0.0002X0.0117*%
%ADD465R,0.0002X0.0046*%
%ADD466R,0.0002X0.0119*%
%ADD467R,0.0002X0.0074*%
%ADD468R,0.0002X0.0143*%
%ADD469R,0.0002X0.0137*%
%ADD470R,0.0002X0.0016*%
%ADD471R,0.0002X0.0042*%
%ADD472R,0.0002X0.0135*%
%ADD473R,0.0002X0.0012*%
%ADD474R,0.0002X0.0038*%
%ADD475R,0.0002X0.0058*%
%ADD476R,0.0002X0.0010*%
%ADD477R,0.0002X0.0135*%
%ADD478R,0.0002X0.0115*%
%ADD479R,0.0002X0.0135*%
%ADD480R,0.0002X0.0036*%
%ADD481R,0.0002X0.0153*%
%ADD482R,0.0002X0.0034*%
%ADD483R,0.0002X0.0034*%
%ADD484R,0.0002X0.0002*%
%ADD485R,0.0002X0.0133*%
%ADD486R,0.0002X0.0030*%
%ADD487R,0.0002X0.0149*%
%ADD488R,0.0002X0.0129*%
%ADD489R,0.0002X0.0131*%
%ADD490R,0.0002X0.0028*%
%ADD491R,0.0002X0.0024*%
%ADD492R,0.0002X0.0022*%
%ADD493R,0.0002X0.0020*%
%ADD494R,0.0002X0.0018*%
%ADD495R,0.0002X0.0121*%
%ADD496R,0.0002X0.0012*%
%ADD497R,0.0002X0.0127*%
%ADD498R,0.0002X0.0010*%
%ADD499R,0.0002X0.0008*%
%ADD500R,0.0002X0.0006*%
%ADD501R,0.0002X0.0119*%
%ADD502R,0.0002X0.0004*%
%ADD503R,0.0002X0.0002*%
%ADD504R,0.0002X0.0117*%
%ADD505R,0.0002X0.0004*%
%ADD506R,0.0002X0.0111*%
%ADD507R,0.0002X0.0111*%
%ADD508R,0.0002X0.0018*%
%ADD509R,0.0002X0.0109*%
%ADD510R,0.0002X0.0022*%
%ADD511R,0.0002X0.0042*%
%ADD512R,0.0002X0.0046*%
%ADD513R,0.0002X0.0056*%
%ADD514R,0.0002X0.0161*%
%ADD515R,0.0002X0.0070*%
%ADD516R,0.0002X0.0109*%
%ADD517R,0.0002X0.0185*%
%ADD518R,0.0002X0.0089*%
%ADD519R,0.0002X0.0093*%
%ADD520R,0.0002X0.0099*%
%ADD521R,0.0002X0.0211*%
%ADD522R,0.0002X0.0231*%
%ADD523R,0.0002X0.0240*%
%ADD524R,0.0002X0.0149*%
%ADD525R,0.0002X0.0264*%
%ADD526R,0.0002X0.0268*%
%ADD527R,0.0002X0.0272*%
%ADD528R,0.0002X0.0167*%
%ADD529R,0.0002X0.0068*%
%ADD530R,0.0002X0.0284*%
%ADD531R,0.0002X0.0018*%
%ADD532R,0.0002X0.0185*%
%ADD533R,0.0002X0.0002*%
%ADD534R,0.0002X0.0197*%
%ADD535R,0.0002X0.0197*%
%ADD536R,0.0002X0.0310*%
%ADD537R,0.0002X0.0199*%
%ADD538R,0.0002X0.0310*%
%ADD539R,0.0002X0.0312*%
%ADD540R,0.0002X0.0312*%
%ADD541R,0.0002X0.0310*%
%ADD542R,0.0002X0.0306*%
%ADD543R,0.0002X0.0199*%
%ADD544R,0.0002X0.0197*%
%ADD545R,0.0002X0.0296*%
%ADD546R,0.0002X0.0254*%
%ADD547R,0.0002X0.0225*%
%ADD548R,0.0002X0.0219*%
%ADD549R,0.0002X0.0157*%
%ADD550R,0.0002X0.0107*%
%ADD551R,0.0002X0.0117*%
%ADD552R,0.0002X0.0197*%
%ADD553R,0.0002X0.0141*%
%ADD554R,0.0002X0.0111*%
%ADD555R,0.0002X0.0119*%
%ADD556R,0.0002X0.0111*%
%ADD557R,0.0002X0.0123*%
%ADD558R,0.0002X0.0197*%
%ADD559R,0.0002X0.0121*%
%ADD560R,0.0002X0.0119*%
%ADD561R,0.0002X0.0127*%
%ADD562R,0.0002X0.0193*%
%ADD563R,0.0002X0.0187*%
%ADD564R,0.0002X0.0131*%
%ADD565R,0.0002X0.0125*%
%ADD566R,0.0002X0.0123*%
%ADD567R,0.0002X0.0177*%
%ADD568R,0.0002X0.0127*%
%ADD569R,0.0002X0.0163*%
%ADD570R,0.0002X0.0135*%
%ADD571R,0.0002X0.0129*%
%ADD572R,0.0002X0.0143*%
%ADD573R,0.0002X0.0139*%
%ADD574R,0.0002X0.0135*%
%ADD575R,0.0002X0.0115*%
%ADD576R,0.0002X0.0129*%
%ADD577R,0.0002X0.0137*%
%ADD578R,0.0002X0.0131*%
%ADD579R,0.0002X0.0141*%
%ADD580R,0.0002X0.0153*%
%ADD581R,0.0002X0.0151*%
%ADD582R,0.0002X0.0155*%
%ADD583R,0.0002X0.0159*%
%ADD584R,0.0002X0.0161*%
%ADD585R,0.0002X0.0143*%
%ADD586R,0.0002X0.0147*%
%ADD587R,0.0002X0.0165*%
%ADD588R,0.0002X0.0167*%
%ADD589R,0.0002X0.0167*%
%ADD590R,0.0002X0.0153*%
%ADD591R,0.0002X0.0175*%
%ADD592R,0.0002X0.0149*%
%ADD593R,0.0002X0.0179*%
%ADD594R,0.0002X0.0153*%
%ADD595R,0.0002X0.0191*%
%ADD596R,0.0002X0.0161*%
%ADD597R,0.0002X0.0195*%
%ADD598R,0.0002X0.0199*%
%ADD599R,0.0002X0.0163*%
%ADD600R,0.0002X0.0207*%
%ADD601R,0.0002X0.0167*%
%ADD602R,0.0002X0.0173*%
%ADD603R,0.0002X0.0316*%
%ADD604R,0.0002X0.0171*%
%ADD605R,0.0002X0.0441*%
%ADD606R,0.0002X0.0177*%
%ADD607R,0.0002X0.0322*%
%ADD608R,0.0002X0.0173*%
%ADD609R,0.0002X0.0229*%
%ADD610R,0.0002X0.0441*%
%ADD611R,0.0002X0.0185*%
%ADD612R,0.0002X0.0320*%
%ADD613R,0.0002X0.0147*%
%ADD614R,0.0002X0.0240*%
%ADD615R,0.0002X0.0179*%
%ADD616R,0.0002X0.0264*%
%ADD617R,0.0002X0.0199*%
%ADD618R,0.0002X0.0201*%
%ADD619R,0.0002X0.0439*%
%ADD620R,0.0002X0.0205*%
%ADD621R,0.0002X0.0211*%
%ADD622R,0.0002X0.0201*%
%ADD623R,0.0002X0.0165*%
%ADD624R,0.0002X0.0286*%
%ADD625R,0.0002X0.0449*%
%ADD626R,0.0002X0.0437*%
%ADD627R,0.0002X0.0473*%
%ADD628R,0.0002X0.0314*%
%ADD629R,0.0002X0.0455*%
%ADD630R,0.0002X0.0702*%
%ADD631R,0.0002X0.0700*%
%ADD632R,0.0002X0.0698*%
%ADD633R,0.0002X0.0445*%
%ADD634R,0.0002X0.0435*%
%ADD635R,0.0002X0.0463*%
%ADD636R,0.0002X0.0308*%
%ADD637R,0.0002X0.0447*%
%ADD638R,0.0002X0.0694*%
%ADD639R,0.0002X0.0433*%
%ADD640R,0.0002X0.0459*%
%ADD641R,0.0002X0.0443*%
%ADD642R,0.0002X0.0694*%
%ADD643R,0.0002X0.0431*%
%ADD644R,0.0002X0.0690*%
%ADD645R,0.0002X0.0427*%
%ADD646R,0.0002X0.0686*%
%ADD647R,0.0002X0.0423*%
%ADD648R,0.0002X0.0429*%
%ADD649R,0.0002X0.0431*%
%ADD650R,0.0002X0.0449*%
%ADD651R,0.0002X0.0298*%
%ADD652R,0.0002X0.0686*%
%ADD653R,0.0002X0.0425*%
%ADD654R,0.0002X0.0429*%
%ADD655R,0.0002X0.0427*%
%ADD656R,0.0002X0.0682*%
%ADD657R,0.0002X0.0421*%
%ADD658R,0.0002X0.0441*%
%ADD659R,0.0002X0.0678*%
%ADD660R,0.0002X0.0676*%
%ADD661R,0.0002X0.0407*%
%ADD662R,0.0002X0.0413*%
%ADD663R,0.0002X0.0425*%
%ADD664R,0.0002X0.0433*%
%ADD665R,0.0002X0.0290*%
%ADD666R,0.0002X0.0415*%
%ADD667R,0.0002X0.0336*%
%ADD668R,0.0002X0.0336*%
%ADD669R,0.0002X0.0403*%
%ADD670R,0.0002X0.0423*%
%ADD671R,0.0002X0.0429*%
%ADD672R,0.0002X0.0286*%
%ADD673R,0.0002X0.0411*%
%ADD674R,0.0002X0.0332*%
%ADD675R,0.0002X0.0399*%
%ADD676R,0.0002X0.0328*%
%ADD677R,0.0002X0.0394*%
%ADD678R,0.0002X0.0390*%
%ADD679R,0.0002X0.0397*%
%ADD680R,0.0002X0.0419*%
%ADD681R,0.0002X0.0417*%
%ADD682R,0.0002X0.0278*%
%ADD683R,0.0002X0.0395*%
%ADD684R,0.0002X0.0324*%
%ADD685R,0.0002X0.0386*%
%ADD686R,0.0002X0.0417*%
%ADD687R,0.0002X0.0413*%
%ADD688R,0.0002X0.0276*%
%ADD689R,0.0002X0.0391*%
%ADD690R,0.0002X0.0382*%
%ADD691R,0.0002X0.0316*%
%ADD692R,0.0002X0.0413*%
%ADD693R,0.0002X0.0372*%
%ADD694R,0.0002X0.0396*%
%ADD695R,0.0002X0.0268*%
%ADD696R,0.0002X0.0376*%
%ADD697R,0.0002X0.0370*%
%ADD698R,0.0002X0.0304*%
%ADD699R,0.0002X0.0380*%
%ADD700R,0.0002X0.0352*%
%ADD701R,0.0002X0.0356*%
%ADD702R,0.0002X0.0403*%
%ADD703R,0.0002X0.0376*%
%ADD704R,0.0002X0.0256*%
%ADD705R,0.0002X0.0354*%
%ADD706R,0.0002X0.0294*%
%ADD707R,0.0002X0.0292*%
%ADD708R,0.0002X0.0350*%
%ADD709R,0.0002X0.0350*%
%ADD710R,0.0002X0.0288*%
%ADD711R,0.0002X0.0346*%
%ADD712R,0.0002X0.0364*%
%ADD713R,0.0002X0.0334*%
%ADD714R,0.0002X0.0280*%
%ADD715R,0.0002X0.0328*%
%ADD716R,0.0002X0.0334*%
%ADD717R,0.0002X0.0242*%
%ADD718R,0.0002X0.0330*%
%ADD719R,0.0002X0.0274*%
%ADD720R,0.0002X0.0276*%
%ADD721R,0.0002X0.0388*%
%ADD722R,0.0002X0.0237*%
%ADD723R,0.0002X0.0270*%
%ADD724R,0.0002X0.0270*%
%ADD725R,0.0002X0.0264*%
%ADD726R,0.0002X0.0304*%
%ADD727R,0.0002X0.0380*%
%ADD728R,0.0002X0.0326*%
%ADD729R,0.0002X0.0225*%
%ADD730R,0.0002X0.0254*%
%ADD731R,0.0002X0.0300*%
%ADD732R,0.0002X0.0298*%
%ADD733R,0.0002X0.0250*%
%ADD734R,0.0002X0.0248*%
%ADD735R,0.0002X0.0244*%
%ADD736R,0.0002X0.0274*%
%ADD737R,0.0002X0.0362*%
%ADD738R,0.0002X0.0296*%
%ADD739R,0.0002X0.0205*%
%ADD740R,0.0002X0.0229*%
%ADD741R,0.0002X0.0231*%
%ADD742R,0.0002X0.0266*%
%ADD743R,0.0002X0.0358*%
%ADD744R,0.0002X0.0223*%
%ADD745R,0.0002X0.0215*%
%ADD746R,0.0002X0.0209*%
%ADD747R,0.0002X0.0240*%
%ADD748R,0.0002X0.0244*%
%ADD749R,0.0002X0.0340*%
%ADD750R,0.0002X0.0262*%
%ADD751R,0.0002X0.0238*%
%ADD752R,0.0002X0.0229*%
%ADD753R,0.0002X0.0231*%
%ADD754R,0.0002X0.0229*%
%ADD755R,0.0002X0.0219*%
%ADD756R,0.0002X0.0223*%
%ADD757R,0.0002X0.0183*%
%ADD758R,0.0002X0.0215*%
%ADD759R,0.0002X0.0195*%
%ADD760R,0.0002X0.0203*%
%ADD761R,0.0002X0.0187*%
%ADD762R,0.0002X0.0169*%
%ADD763R,0.0002X0.0143*%
%ADD764R,0.0002X0.0155*%
%ADD765R,0.0002X0.0095*%
%ADD766R,0.0002X0.0078*%
%ADD767R,0.0002X0.0081*%
%ADD768R,0.0002X0.0072*%
%ADD769R,0.0002X0.0020*%
%ADD770R,0.0002X0.0050*%
%ADD771R,0.0002X0.0060*%
%ADD772R,0.0002X0.0066*%
%ADD773R,0.0002X0.0079*%
%ADD774R,0.0002X0.0089*%
%ADD775R,0.0002X0.0091*%
%ADD776R,0.0002X0.0095*%
%ADD777R,0.0002X0.0099*%
%ADD778R,0.0002X0.0103*%
%ADD779R,0.0002X0.0101*%
%ADD780R,0.0002X0.0087*%
%ADD781R,0.0002X0.0074*%
%ADD782R,0.0002X0.0062*%
%ADD783R,0.0002X0.0054*%
%ADD784R,0.0002X0.0044*%
%ADD785R,0.0002X0.0030*%
%ADD786C,0.0675*%
%ADD787C,0.0760*%
%ADD788C,0.0140*%
%ADD789C,0.0100*%
%ADD790C,0.0200*%
%ADD791C,0.0700*%
%ADD792C,0.0400*%
D10*
X002906Y004484D02*
X018635Y004484D01*
X018583Y004423D02*
X017451Y003385D01*
X016134Y002538D01*
X015310Y002164D01*
X015180Y002230D01*
X015003Y002373D01*
X014930Y002463D01*
X014940Y002474D01*
X014973Y002564D01*
X014969Y002659D01*
X014579Y003495D01*
X014509Y003560D01*
X014419Y003592D01*
X014323Y003588D01*
X013089Y003012D01*
X009635Y003012D01*
X008683Y003811D01*
X008592Y003840D01*
X008497Y003831D01*
X008412Y003787D01*
X007820Y003081D01*
X007791Y002990D01*
X007799Y002895D01*
X007843Y002810D01*
X008732Y002064D01*
X008742Y002041D01*
X008916Y001867D01*
X009144Y001772D01*
X013555Y001772D01*
X013782Y001867D01*
X013801Y001885D01*
X013809Y001868D01*
X014117Y001487D01*
X014117Y001487D01*
X014117Y001487D01*
X014498Y001179D01*
X014754Y001049D01*
X014352Y000908D01*
X013159Y000635D01*
X011943Y000498D01*
X010719Y000498D01*
X009504Y000635D01*
X008311Y000908D01*
X007156Y001312D01*
X006053Y001843D01*
X005017Y002494D01*
X004061Y003257D01*
X003616Y003677D01*
X003616Y003677D01*
X003195Y004122D01*
X002432Y005078D01*
X001781Y006114D01*
X001251Y007217D01*
X000846Y008372D01*
X000574Y009565D01*
X000437Y010781D01*
X000437Y012004D01*
X000574Y013220D01*
X000846Y014413D01*
X001251Y015568D01*
X001781Y016670D01*
X002432Y017706D01*
X003195Y018663D01*
X003616Y019108D01*
X003655Y019147D01*
X003655Y019147D01*
X003655Y019147D01*
X003676Y019198D01*
X003698Y019250D01*
X003698Y019250D01*
X003698Y019250D01*
X003698Y019306D01*
X003698Y019984D01*
X004162Y020442D01*
X004628Y020442D01*
X004662Y020409D01*
X004934Y020296D01*
X005228Y020296D01*
X005500Y020409D01*
X005534Y020442D01*
X007091Y020442D01*
X007093Y020438D01*
X007428Y020102D01*
X007428Y019952D01*
X007522Y019725D01*
X008654Y018592D01*
X008829Y018418D01*
X009057Y018324D01*
X010311Y018324D01*
X010373Y018349D01*
X010865Y018349D01*
X010953Y018386D01*
X011021Y018453D01*
X011057Y018542D01*
X011057Y019346D01*
X011021Y019434D01*
X010953Y019501D01*
X010865Y019538D01*
X010373Y019538D01*
X010311Y019564D01*
X009437Y019564D01*
X008668Y020333D01*
X008668Y020437D01*
X008674Y020442D01*
X013814Y020442D01*
X013843Y020391D01*
X013843Y020181D01*
X013186Y019524D01*
X013153Y019538D01*
X011797Y019538D01*
X011709Y019501D01*
X011642Y019434D01*
X011605Y019346D01*
X011605Y018542D01*
X011642Y018453D01*
X011709Y018386D01*
X011797Y018349D01*
X012217Y018349D01*
X012403Y018272D01*
X013555Y018272D01*
X013782Y018367D01*
X013957Y018541D01*
X014989Y019573D01*
X015083Y019801D01*
X015083Y019955D01*
X015307Y020085D01*
X015365Y020160D01*
X015390Y020252D01*
X015378Y020347D01*
X015323Y020442D01*
X017128Y020442D01*
X017162Y020409D01*
X017434Y020296D01*
X017728Y020296D01*
X018000Y020409D01*
X018034Y020442D01*
X018111Y020442D01*
X018111Y019221D01*
X018103Y019126D01*
X018111Y019098D01*
X018111Y019069D01*
X018148Y018981D01*
X018176Y018890D01*
X018195Y018868D01*
X018206Y018841D01*
X018273Y018774D01*
X018751Y018200D01*
X019526Y017231D01*
X020186Y016194D01*
X020846Y014780D01*
X021223Y013368D01*
X021411Y012048D01*
X021411Y010840D01*
X021222Y009609D01*
X020939Y008381D01*
X020274Y006768D01*
X019623Y005652D01*
X018583Y004423D01*
X018565Y004406D02*
X002969Y004406D01*
X003031Y004327D02*
X018479Y004327D01*
X018393Y004249D02*
X003094Y004249D01*
X003157Y004170D02*
X018308Y004170D01*
X018222Y004092D02*
X003224Y004092D01*
X003298Y004013D02*
X018137Y004013D01*
X018051Y003935D02*
X003372Y003935D01*
X003446Y003856D02*
X017965Y003856D01*
X017880Y003778D02*
X008723Y003778D01*
X008816Y003699D02*
X017794Y003699D01*
X017708Y003621D02*
X008910Y003621D01*
X009003Y003542D02*
X014225Y003542D01*
X014057Y003464D02*
X009097Y003464D01*
X009190Y003385D02*
X013889Y003385D01*
X013720Y003307D02*
X009284Y003307D01*
X009378Y003228D02*
X013552Y003228D01*
X013384Y003150D02*
X009471Y003150D01*
X009565Y003071D02*
X013215Y003071D01*
X013658Y001815D02*
X013852Y001815D01*
X013809Y001868D02*
X013809Y001868D01*
X013915Y001737D02*
X006273Y001737D01*
X006436Y001658D02*
X013979Y001658D01*
X014042Y001580D02*
X006599Y001580D01*
X006762Y001501D02*
X014106Y001501D01*
X014197Y001423D02*
X006925Y001423D01*
X007088Y001344D02*
X014294Y001344D01*
X014391Y001266D02*
X007287Y001266D01*
X007511Y001187D02*
X014488Y001187D01*
X014498Y001179D02*
X014498Y001179D01*
X014636Y001109D02*
X007735Y001109D01*
X007960Y001030D02*
X014703Y001030D01*
X014478Y000952D02*
X008184Y000952D01*
X008461Y000873D02*
X014202Y000873D01*
X013858Y000795D02*
X008805Y000795D01*
X009149Y000716D02*
X013514Y000716D01*
X013170Y000638D02*
X009492Y000638D01*
X010178Y000559D02*
X012485Y000559D01*
X014703Y003228D02*
X017207Y003228D01*
X017085Y003150D02*
X014740Y003150D01*
X014777Y003071D02*
X016963Y003071D01*
X016841Y002993D02*
X014813Y002993D01*
X014850Y002914D02*
X016719Y002914D01*
X016597Y002836D02*
X014886Y002836D01*
X014923Y002757D02*
X016475Y002757D01*
X016353Y002679D02*
X014960Y002679D01*
X014971Y002600D02*
X016230Y002600D01*
X016098Y002522D02*
X014958Y002522D01*
X014946Y002443D02*
X015925Y002443D01*
X015752Y002365D02*
X015014Y002365D01*
X015111Y002286D02*
X015580Y002286D01*
X015407Y002208D02*
X015224Y002208D01*
X014667Y003307D02*
X017329Y003307D01*
X017451Y003385D02*
X014630Y003385D01*
X014594Y003464D02*
X017537Y003464D01*
X017623Y003542D02*
X014527Y003542D01*
X013816Y005063D02*
X014731Y005503D01*
X015571Y006076D01*
X016316Y006767D01*
X016316Y006767D01*
X016950Y007562D01*
X017458Y008442D01*
X017829Y009388D01*
X018055Y010379D01*
X018131Y011392D01*
X018055Y012406D01*
X017829Y013397D01*
X017458Y014343D01*
X016950Y015223D01*
X016950Y015223D01*
X016316Y016018D01*
X015571Y016709D01*
X014731Y017281D01*
X014731Y017281D01*
X013816Y017722D01*
X013816Y017722D01*
X012844Y018022D01*
X011839Y018173D01*
X010823Y018173D01*
X009818Y018022D01*
X008847Y017722D01*
X007931Y017281D01*
X007091Y016709D01*
X006346Y016018D01*
X005713Y015223D01*
X005205Y014343D01*
X005205Y014343D01*
X004833Y013397D01*
X004607Y012406D01*
X004531Y011392D01*
X004607Y010379D01*
X004833Y009388D01*
X005205Y008442D01*
X005713Y007562D01*
X006346Y006767D01*
X006346Y006767D01*
X006346Y006767D01*
X007091Y006076D01*
X007091Y006076D01*
X007931Y005503D01*
X008847Y005063D01*
X009818Y004763D01*
X009818Y004763D01*
X010823Y004611D01*
X011839Y004611D01*
X012844Y004763D01*
X012844Y004763D01*
X013816Y005063D01*
X013816Y005063D01*
X013723Y005034D02*
X017676Y005034D01*
X017712Y004955D02*
X013468Y004955D01*
X013214Y004877D02*
X017776Y004877D01*
X017800Y004855D02*
X017889Y004822D01*
X017985Y004827D01*
X018773Y005194D01*
X018794Y005197D01*
X018840Y005225D01*
X018892Y005242D01*
X018911Y005259D01*
X019249Y005416D01*
X019313Y005486D01*
X019346Y005576D01*
X019342Y005672D01*
X018957Y006497D01*
X019184Y006402D01*
X019478Y006402D01*
X019750Y006515D01*
X019959Y006723D01*
X020071Y006995D01*
X020071Y007290D01*
X019959Y007562D01*
X019750Y007770D01*
X019478Y007882D01*
X019187Y007882D01*
X019411Y007932D01*
X019418Y007932D01*
X020272Y007781D01*
X020365Y007802D01*
X020443Y007857D01*
X020495Y007937D01*
X020737Y009311D01*
X020716Y009404D01*
X020661Y009482D01*
X020581Y009534D01*
X019673Y009694D01*
X019579Y009673D01*
X019501Y009618D01*
X019450Y009538D01*
X019387Y009181D01*
X019296Y009184D01*
X019296Y009184D01*
X018759Y009065D01*
X018270Y008815D01*
X017859Y008450D01*
X017553Y007994D01*
X017372Y007475D01*
X017326Y006928D01*
X017326Y006928D01*
X017420Y006386D01*
X017562Y006072D01*
X017432Y006011D01*
X017368Y005941D01*
X017335Y005851D01*
X017339Y005755D01*
X017729Y004920D01*
X017800Y004855D01*
X018093Y004877D02*
X018967Y004877D01*
X018901Y004798D02*
X012959Y004798D01*
X012559Y004720D02*
X018835Y004720D01*
X018768Y004641D02*
X012038Y004641D01*
X010624Y004641D02*
X004616Y004641D01*
X004604Y004627D02*
X005197Y005334D01*
X005226Y005425D01*
X005218Y005520D01*
X005174Y005605D01*
X004959Y005785D01*
X005185Y006201D01*
X005319Y006735D01*
X005319Y006735D01*
X005314Y007286D01*
X005171Y007817D01*
X004899Y008296D01*
X004515Y008691D01*
X004045Y008977D01*
X004045Y008977D01*
X003569Y009120D01*
X003593Y009384D01*
X003564Y009475D01*
X003502Y009548D01*
X003418Y009592D01*
X002499Y009672D01*
X002408Y009644D01*
X002335Y009582D01*
X002291Y009498D01*
X002204Y008509D01*
X002199Y008481D01*
X002201Y008472D01*
X002169Y008108D01*
X002198Y008017D01*
X000971Y008017D01*
X000998Y007938D02*
X002270Y007938D01*
X002259Y007944D02*
X002344Y007900D01*
X003072Y007836D01*
X002912Y007770D01*
X002704Y007562D01*
X002591Y007290D01*
X002591Y006995D01*
X002704Y006723D01*
X002912Y006515D01*
X003184Y006402D01*
X003478Y006402D01*
X003750Y006515D01*
X003959Y006723D01*
X004069Y006990D01*
X004070Y006883D01*
X004014Y006658D01*
X003940Y006524D01*
X003919Y006522D01*
X003834Y006478D01*
X003576Y006170D01*
X003545Y006150D01*
X003530Y006129D01*
X003509Y006113D01*
X003464Y006037D01*
X003241Y005771D01*
X003213Y005680D01*
X003221Y005585D01*
X003265Y005500D01*
X003487Y005314D01*
X003523Y005257D01*
X003545Y005241D01*
X003561Y005220D01*
X003645Y005171D01*
X003724Y005115D01*
X004334Y004604D01*
X004425Y004575D01*
X004520Y004583D01*
X004604Y004627D01*
X004682Y004720D02*
X010103Y004720D01*
X009703Y004798D02*
X004748Y004798D01*
X004814Y004877D02*
X009449Y004877D01*
X009194Y004955D02*
X004880Y004955D01*
X004946Y005034D02*
X008940Y005034D01*
X008847Y005063D02*
X008847Y005063D01*
X008743Y005112D02*
X005011Y005112D01*
X005077Y005191D02*
X008580Y005191D01*
X008417Y005269D02*
X005143Y005269D01*
X005202Y005348D02*
X008254Y005348D01*
X008091Y005426D02*
X005226Y005426D01*
X005219Y005505D02*
X007929Y005505D01*
X007931Y005503D02*
X007931Y005503D01*
X007814Y005583D02*
X005185Y005583D01*
X005105Y005662D02*
X007699Y005662D01*
X007584Y005740D02*
X005012Y005740D01*
X004977Y005819D02*
X007469Y005819D01*
X007353Y005897D02*
X005020Y005897D01*
X005062Y005976D02*
X007238Y005976D01*
X007123Y006054D02*
X005105Y006054D01*
X005148Y006133D02*
X007030Y006133D01*
X006946Y006211D02*
X005188Y006211D01*
X005185Y006201D02*
X005185Y006201D01*
X005207Y006290D02*
X006861Y006290D01*
X006776Y006368D02*
X005227Y006368D01*
X005247Y006447D02*
X006692Y006447D01*
X006607Y006525D02*
X005266Y006525D01*
X005286Y006604D02*
X006523Y006604D01*
X006438Y006682D02*
X005305Y006682D01*
X005318Y006761D02*
X006353Y006761D01*
X006289Y006839D02*
X005318Y006839D01*
X005317Y006918D02*
X006226Y006918D01*
X006164Y006996D02*
X005316Y006996D01*
X005316Y007075D02*
X006101Y007075D01*
X006039Y007153D02*
X005315Y007153D01*
X005314Y007232D02*
X005976Y007232D01*
X005913Y007310D02*
X005307Y007310D01*
X005314Y007286D02*
X005314Y007286D01*
X005286Y007389D02*
X005851Y007389D01*
X005788Y007467D02*
X005265Y007467D01*
X005244Y007546D02*
X005725Y007546D01*
X005713Y007562D02*
X005713Y007562D01*
X005677Y007624D02*
X005222Y007624D01*
X005201Y007703D02*
X005631Y007703D01*
X005586Y007781D02*
X005180Y007781D01*
X005171Y007817D02*
X005171Y007817D01*
X005146Y007860D02*
X005541Y007860D01*
X005495Y007938D02*
X005102Y007938D01*
X005057Y008017D02*
X005450Y008017D01*
X005405Y008095D02*
X005013Y008095D01*
X004968Y008174D02*
X005359Y008174D01*
X005314Y008252D02*
X004923Y008252D01*
X004899Y008296D02*
X004899Y008296D01*
X004865Y008331D02*
X005269Y008331D01*
X005223Y008409D02*
X004788Y008409D01*
X004712Y008488D02*
X005187Y008488D01*
X005205Y008442D02*
X005205Y008442D01*
X005156Y008566D02*
X004636Y008566D01*
X004560Y008645D02*
X005125Y008645D01*
X005094Y008723D02*
X004462Y008723D01*
X004515Y008691D02*
X004515Y008691D01*
X004333Y008802D02*
X005063Y008802D01*
X005033Y008880D02*
X004203Y008880D01*
X004074Y008959D02*
X005002Y008959D01*
X004971Y009037D02*
X003844Y009037D01*
X003583Y009116D02*
X004940Y009116D01*
X004909Y009194D02*
X003576Y009194D01*
X003583Y009273D02*
X004879Y009273D01*
X004848Y009351D02*
X003590Y009351D01*
X003578Y009430D02*
X004824Y009430D01*
X004833Y009388D02*
X004833Y009388D01*
X004806Y009508D02*
X003536Y009508D01*
X003427Y009587D02*
X004788Y009587D01*
X004770Y009665D02*
X002577Y009665D01*
X002477Y009665D02*
X000563Y009665D01*
X000572Y009587D02*
X002341Y009587D01*
X002296Y009508D02*
X000587Y009508D01*
X000605Y009430D02*
X002285Y009430D01*
X002278Y009351D02*
X000623Y009351D01*
X000641Y009273D02*
X002271Y009273D01*
X002264Y009194D02*
X000659Y009194D01*
X000677Y009116D02*
X002257Y009116D01*
X002251Y009037D02*
X000695Y009037D01*
X000712Y008959D02*
X002244Y008959D01*
X002237Y008880D02*
X000730Y008880D01*
X000748Y008802D02*
X002230Y008802D01*
X002223Y008723D02*
X000766Y008723D01*
X000784Y008645D02*
X002216Y008645D01*
X002209Y008566D02*
X000802Y008566D01*
X000820Y008488D02*
X002201Y008488D01*
X002196Y008409D02*
X000838Y008409D01*
X000861Y008331D02*
X002189Y008331D01*
X002182Y008252D02*
X000888Y008252D01*
X000916Y008174D02*
X002175Y008174D01*
X002173Y008095D02*
X000943Y008095D01*
X001026Y007860D02*
X002800Y007860D01*
X002940Y007781D02*
X001053Y007781D01*
X001080Y007703D02*
X002845Y007703D01*
X002767Y007624D02*
X001108Y007624D01*
X001135Y007546D02*
X002697Y007546D01*
X002665Y007467D02*
X001163Y007467D01*
X001190Y007389D02*
X002632Y007389D01*
X002600Y007310D02*
X001218Y007310D01*
X001245Y007232D02*
X002591Y007232D01*
X002591Y007153D02*
X001281Y007153D01*
X001319Y007075D02*
X002591Y007075D01*
X002591Y006996D02*
X001357Y006996D01*
X001395Y006918D02*
X002623Y006918D01*
X002656Y006839D02*
X001432Y006839D01*
X001470Y006761D02*
X002688Y006761D01*
X002745Y006682D02*
X001508Y006682D01*
X001546Y006604D02*
X002823Y006604D01*
X002902Y006525D02*
X001584Y006525D01*
X001621Y006447D02*
X003077Y006447D01*
X003586Y006447D02*
X003809Y006447D01*
X003761Y006525D02*
X003941Y006525D01*
X003984Y006604D02*
X003839Y006604D01*
X003918Y006682D02*
X004020Y006682D01*
X004039Y006761D02*
X003974Y006761D01*
X004007Y006839D02*
X004059Y006839D01*
X004069Y006918D02*
X004039Y006918D01*
X003743Y006368D02*
X001659Y006368D01*
X001697Y006290D02*
X003677Y006290D01*
X003611Y006211D02*
X001735Y006211D01*
X001773Y006133D02*
X003533Y006133D01*
X003475Y006054D02*
X001819Y006054D01*
X001869Y005976D02*
X003413Y005976D01*
X003347Y005897D02*
X001918Y005897D01*
X001967Y005819D02*
X003282Y005819D01*
X003232Y005740D02*
X002016Y005740D01*
X002066Y005662D02*
X003214Y005662D01*
X003222Y005583D02*
X002115Y005583D01*
X002164Y005505D02*
X003263Y005505D01*
X003353Y005426D02*
X002214Y005426D01*
X002263Y005348D02*
X003447Y005348D01*
X003515Y005269D02*
X002312Y005269D01*
X002362Y005191D02*
X003611Y005191D01*
X003727Y005112D02*
X002411Y005112D01*
X002468Y005034D02*
X003821Y005034D01*
X003914Y004955D02*
X002531Y004955D01*
X002593Y004877D02*
X004008Y004877D01*
X004102Y004798D02*
X002656Y004798D01*
X002718Y004720D02*
X004195Y004720D01*
X004289Y004641D02*
X002781Y004641D01*
X002844Y004563D02*
X018702Y004563D01*
X019034Y004955D02*
X018261Y004955D01*
X018429Y005034D02*
X019100Y005034D01*
X019167Y005112D02*
X018598Y005112D01*
X018766Y005191D02*
X019233Y005191D01*
X019300Y005269D02*
X018934Y005269D01*
X019103Y005348D02*
X019366Y005348D01*
X019432Y005426D02*
X019258Y005426D01*
X019320Y005505D02*
X019499Y005505D01*
X019565Y005583D02*
X019345Y005583D01*
X019342Y005662D02*
X019629Y005662D01*
X019675Y005740D02*
X019310Y005740D01*
X019273Y005819D02*
X019721Y005819D01*
X019766Y005897D02*
X019236Y005897D01*
X019200Y005976D02*
X019812Y005976D01*
X019858Y006054D02*
X019163Y006054D01*
X019126Y006133D02*
X019904Y006133D01*
X019950Y006211D02*
X019090Y006211D01*
X019053Y006290D02*
X019995Y006290D01*
X020041Y006368D02*
X019017Y006368D01*
X018980Y006447D02*
X019077Y006447D01*
X018840Y006587D02*
X018792Y006605D01*
X018696Y006600D01*
X018693Y006599D01*
X018622Y006756D01*
X018583Y006983D01*
X018591Y007088D01*
X018591Y006995D01*
X018704Y006723D01*
X018840Y006587D01*
X018823Y006604D02*
X018793Y006604D01*
X018778Y006604D02*
X018690Y006604D01*
X018655Y006682D02*
X018745Y006682D01*
X018688Y006761D02*
X018621Y006761D01*
X018607Y006839D02*
X018656Y006839D01*
X018623Y006918D02*
X018594Y006918D01*
X018584Y006996D02*
X018591Y006996D01*
X018590Y007075D02*
X018591Y007075D01*
X019586Y006447D02*
X020087Y006447D01*
X020133Y006525D02*
X019761Y006525D01*
X019839Y006604D02*
X020178Y006604D01*
X020224Y006682D02*
X019918Y006682D01*
X019974Y006761D02*
X020270Y006761D01*
X020304Y006839D02*
X020007Y006839D01*
X020039Y006918D02*
X020336Y006918D01*
X020368Y006996D02*
X020071Y006996D01*
X020071Y007075D02*
X020401Y007075D01*
X020433Y007153D02*
X020071Y007153D01*
X020071Y007232D02*
X020465Y007232D01*
X020498Y007310D02*
X020063Y007310D01*
X020030Y007389D02*
X020530Y007389D01*
X020562Y007467D02*
X019998Y007467D01*
X019965Y007546D02*
X020595Y007546D01*
X020627Y007624D02*
X019896Y007624D01*
X019817Y007703D02*
X020659Y007703D01*
X020691Y007781D02*
X020272Y007781D01*
X019722Y007781D01*
X019826Y007860D02*
X019533Y007860D01*
X019389Y009194D02*
X017753Y009194D01*
X017722Y009116D02*
X018987Y009116D01*
X018759Y009065D02*
X018759Y009065D01*
X018705Y009037D02*
X017691Y009037D01*
X017661Y008959D02*
X018551Y008959D01*
X018398Y008880D02*
X017630Y008880D01*
X017599Y008802D02*
X018255Y008802D01*
X018270Y008815D02*
X018270Y008815D01*
X018167Y008723D02*
X017568Y008723D01*
X017537Y008645D02*
X018078Y008645D01*
X017990Y008566D02*
X017507Y008566D01*
X017476Y008488D02*
X017902Y008488D01*
X017859Y008450D02*
X017859Y008450D01*
X017859Y008450D01*
X017832Y008409D02*
X017439Y008409D01*
X017394Y008331D02*
X017779Y008331D01*
X017727Y008252D02*
X017348Y008252D01*
X017303Y008174D02*
X017674Y008174D01*
X017621Y008095D02*
X017258Y008095D01*
X017212Y008017D02*
X017569Y008017D01*
X017553Y007994D02*
X017553Y007994D01*
X017534Y007938D02*
X017167Y007938D01*
X017122Y007860D02*
X017506Y007860D01*
X017479Y007781D02*
X017076Y007781D01*
X017031Y007703D02*
X017451Y007703D01*
X017424Y007624D02*
X016986Y007624D01*
X016937Y007546D02*
X017396Y007546D01*
X017372Y007475D02*
X017372Y007475D01*
X017371Y007467D02*
X016874Y007467D01*
X016812Y007389D02*
X017365Y007389D01*
X017358Y007310D02*
X016749Y007310D01*
X016687Y007232D02*
X017352Y007232D01*
X017345Y007153D02*
X016624Y007153D01*
X016561Y007075D02*
X017338Y007075D01*
X017332Y006996D02*
X016499Y006996D01*
X016436Y006918D02*
X017328Y006918D01*
X017342Y006839D02*
X016374Y006839D01*
X016309Y006761D02*
X017355Y006761D01*
X017369Y006682D02*
X016225Y006682D01*
X016140Y006604D02*
X017382Y006604D01*
X017396Y006525D02*
X016055Y006525D01*
X015971Y006447D02*
X017409Y006447D01*
X017420Y006386D02*
X017420Y006386D01*
X017428Y006368D02*
X015886Y006368D01*
X015802Y006290D02*
X017463Y006290D01*
X017499Y006211D02*
X015717Y006211D01*
X015632Y006133D02*
X017534Y006133D01*
X017526Y006054D02*
X015539Y006054D01*
X015571Y006076D02*
X015571Y006076D01*
X015424Y005976D02*
X017400Y005976D01*
X017352Y005897D02*
X015309Y005897D01*
X015194Y005819D02*
X017337Y005819D01*
X017346Y005740D02*
X015079Y005740D01*
X014964Y005662D02*
X017383Y005662D01*
X017420Y005583D02*
X014848Y005583D01*
X014733Y005505D02*
X017456Y005505D01*
X017493Y005426D02*
X014571Y005426D01*
X014731Y005503D02*
X014731Y005503D01*
X014408Y005348D02*
X017529Y005348D01*
X017566Y005269D02*
X014245Y005269D01*
X014082Y005191D02*
X017603Y005191D01*
X017639Y005112D02*
X013919Y005112D01*
X017784Y009273D02*
X019403Y009273D01*
X019417Y009351D02*
X017815Y009351D01*
X017839Y009430D02*
X019431Y009430D01*
X019445Y009508D02*
X017857Y009508D01*
X017874Y009587D02*
X019481Y009587D01*
X019569Y009665D02*
X017892Y009665D01*
X017910Y009744D02*
X021243Y009744D01*
X021255Y009822D02*
X017928Y009822D01*
X017946Y009901D02*
X021267Y009901D01*
X021279Y009979D02*
X017964Y009979D01*
X017982Y010058D02*
X021291Y010058D01*
X021303Y010136D02*
X018000Y010136D01*
X018018Y010215D02*
X021315Y010215D01*
X021327Y010293D02*
X018036Y010293D01*
X018054Y010372D02*
X021339Y010372D01*
X021351Y010450D02*
X018061Y010450D01*
X018067Y010529D02*
X021363Y010529D01*
X021375Y010607D02*
X018072Y010607D01*
X018078Y010686D02*
X021388Y010686D01*
X021400Y010764D02*
X018084Y010764D01*
X018090Y010843D02*
X021411Y010843D01*
X021411Y010921D02*
X018096Y010921D01*
X018102Y011000D02*
X021411Y011000D01*
X021411Y011078D02*
X018108Y011078D01*
X018114Y011157D02*
X021411Y011157D01*
X021411Y011235D02*
X018119Y011235D01*
X018125Y011314D02*
X021411Y011314D01*
X021411Y011392D02*
X018131Y011392D01*
X018125Y011471D02*
X021411Y011471D01*
X021411Y011549D02*
X018119Y011549D01*
X018114Y011628D02*
X021411Y011628D01*
X021411Y011706D02*
X018108Y011706D01*
X018102Y011785D02*
X021411Y011785D01*
X021411Y011863D02*
X018096Y011863D01*
X018090Y011942D02*
X021411Y011942D01*
X021411Y012020D02*
X018084Y012020D01*
X018078Y012099D02*
X021404Y012099D01*
X021393Y012177D02*
X018072Y012177D01*
X018067Y012256D02*
X021382Y012256D01*
X021370Y012334D02*
X018061Y012334D01*
X018054Y012413D02*
X021359Y012413D01*
X021348Y012491D02*
X018036Y012491D01*
X018018Y012570D02*
X021337Y012570D01*
X021325Y012648D02*
X018000Y012648D01*
X017982Y012727D02*
X021314Y012727D01*
X021303Y012805D02*
X017964Y012805D01*
X017946Y012884D02*
X021292Y012884D01*
X021281Y012962D02*
X018685Y012962D01*
X018668Y012956D02*
X018829Y013022D01*
X018952Y013145D01*
X019018Y013306D01*
X019018Y013479D01*
X018952Y013640D01*
X018829Y013763D01*
X018668Y013829D01*
X018494Y013829D01*
X018334Y013763D01*
X018211Y013640D01*
X018144Y013479D01*
X018144Y013306D01*
X018211Y013145D01*
X018334Y013022D01*
X018494Y012956D01*
X018668Y012956D01*
X018478Y012962D02*
X017928Y012962D01*
X017910Y013041D02*
X018315Y013041D01*
X018236Y013119D02*
X017892Y013119D01*
X017874Y013198D02*
X018189Y013198D01*
X018156Y013276D02*
X017857Y013276D01*
X017839Y013355D02*
X018144Y013355D01*
X018144Y013433D02*
X017815Y013433D01*
X017784Y013512D02*
X018158Y013512D01*
X018190Y013590D02*
X017753Y013590D01*
X017722Y013669D02*
X018240Y013669D01*
X018318Y013747D02*
X017691Y013747D01*
X017661Y013826D02*
X018486Y013826D01*
X018676Y013826D02*
X019311Y013826D01*
X019323Y013895D02*
X019248Y013474D01*
X019269Y013381D01*
X019324Y013303D01*
X019404Y013251D01*
X020313Y013091D01*
X020406Y013112D01*
X020484Y013167D01*
X020535Y013247D01*
X020778Y014621D01*
X020757Y014714D01*
X020702Y014792D01*
X020622Y014843D01*
X020054Y014944D01*
X018466Y016763D01*
X018062Y017461D01*
X017986Y017519D01*
X017894Y017544D01*
X017800Y017532D01*
X017001Y017070D01*
X016943Y016995D01*
X016918Y016903D01*
X016930Y016808D01*
X017628Y015600D01*
X017704Y015542D01*
X017796Y015517D01*
X017890Y015530D01*
X017894Y015532D01*
X019323Y013895D01*
X019315Y013904D02*
X017630Y013904D01*
X017599Y013983D02*
X019246Y013983D01*
X019178Y014061D02*
X017568Y014061D01*
X017537Y014140D02*
X019109Y014140D01*
X019041Y014218D02*
X017507Y014218D01*
X017476Y014297D02*
X018972Y014297D01*
X018904Y014375D02*
X017439Y014375D01*
X017394Y014454D02*
X018835Y014454D01*
X018766Y014532D02*
X017348Y014532D01*
X017303Y014611D02*
X018698Y014611D01*
X018629Y014689D02*
X017258Y014689D01*
X017212Y014768D02*
X018561Y014768D01*
X018492Y014846D02*
X017167Y014846D01*
X017122Y014925D02*
X018424Y014925D01*
X018355Y015003D02*
X017076Y015003D01*
X017031Y015082D02*
X018287Y015082D01*
X018218Y015160D02*
X016986Y015160D01*
X016937Y015239D02*
X018150Y015239D01*
X018081Y015317D02*
X016874Y015317D01*
X016812Y015396D02*
X018013Y015396D01*
X017944Y015474D02*
X016749Y015474D01*
X016687Y015553D02*
X017689Y015553D01*
X017610Y015631D02*
X016624Y015631D01*
X016561Y015710D02*
X017564Y015710D01*
X017519Y015788D02*
X016499Y015788D01*
X016436Y015867D02*
X017474Y015867D01*
X017428Y015945D02*
X016374Y015945D01*
X016316Y016018D02*
X016316Y016018D01*
X016309Y016024D02*
X017383Y016024D01*
X017338Y016102D02*
X016225Y016102D01*
X016140Y016181D02*
X017292Y016181D01*
X017247Y016259D02*
X016055Y016259D01*
X015971Y016338D02*
X017202Y016338D01*
X017156Y016416D02*
X015886Y016416D01*
X015802Y016495D02*
X017111Y016495D01*
X017066Y016573D02*
X015717Y016573D01*
X015632Y016652D02*
X017020Y016652D01*
X016975Y016730D02*
X015539Y016730D01*
X015424Y016809D02*
X016930Y016809D01*
X016920Y016887D02*
X015309Y016887D01*
X015194Y016966D02*
X016935Y016966D01*
X016981Y017044D02*
X015079Y017044D01*
X014964Y017123D02*
X017092Y017123D01*
X017228Y017201D02*
X014848Y017201D01*
X014733Y017280D02*
X017364Y017280D01*
X017500Y017358D02*
X014571Y017358D01*
X014408Y017437D02*
X017636Y017437D01*
X017772Y017515D02*
X014245Y017515D01*
X014082Y017594D02*
X019236Y017594D01*
X019173Y017672D02*
X013919Y017672D01*
X013723Y017751D02*
X019110Y017751D01*
X019048Y017829D02*
X013468Y017829D01*
X013214Y017908D02*
X018985Y017908D01*
X018922Y017986D02*
X012959Y017986D01*
X012844Y018022D02*
X012844Y018022D01*
X012559Y018065D02*
X018859Y018065D01*
X018796Y018143D02*
X012038Y018143D01*
X012335Y018300D02*
X002906Y018300D01*
X002844Y018222D02*
X018733Y018222D01*
X018667Y018300D02*
X013622Y018300D01*
X013795Y018379D02*
X018602Y018379D01*
X018537Y018457D02*
X013873Y018457D01*
X013952Y018536D02*
X018471Y018536D01*
X018406Y018614D02*
X014030Y018614D01*
X014109Y018693D02*
X018340Y018693D01*
X018275Y018771D02*
X014187Y018771D01*
X014266Y018850D02*
X018202Y018850D01*
X018164Y018928D02*
X014344Y018928D01*
X014423Y019007D02*
X018137Y019007D01*
X018111Y019085D02*
X014501Y019085D01*
X014580Y019164D02*
X018106Y019164D01*
X018111Y019242D02*
X014658Y019242D01*
X014737Y019321D02*
X018111Y019321D01*
X018111Y019399D02*
X014815Y019399D01*
X014894Y019478D02*
X018111Y019478D01*
X018111Y019556D02*
X014972Y019556D01*
X015014Y019635D02*
X018111Y019635D01*
X018111Y019713D02*
X015047Y019713D01*
X015079Y019792D02*
X018111Y019792D01*
X018111Y019870D02*
X015083Y019870D01*
X015083Y019949D02*
X018111Y019949D01*
X018111Y020027D02*
X015208Y020027D01*
X015324Y020106D02*
X018111Y020106D01*
X018111Y020184D02*
X015372Y020184D01*
X015389Y020263D02*
X018111Y020263D01*
X018111Y020341D02*
X017838Y020341D01*
X018012Y020420D02*
X018111Y020420D01*
X017325Y020341D02*
X015378Y020341D01*
X015336Y020420D02*
X017151Y020420D01*
X017991Y017515D02*
X019299Y017515D01*
X019362Y017437D02*
X018076Y017437D01*
X018121Y017358D02*
X019424Y017358D01*
X019487Y017280D02*
X018167Y017280D01*
X018212Y017201D02*
X019545Y017201D01*
X019595Y017123D02*
X018257Y017123D01*
X018303Y017044D02*
X019645Y017044D01*
X019695Y016966D02*
X018348Y016966D01*
X018393Y016887D02*
X019745Y016887D01*
X019795Y016809D02*
X018439Y016809D01*
X018494Y016730D02*
X019845Y016730D01*
X019895Y016652D02*
X018562Y016652D01*
X018631Y016573D02*
X019945Y016573D01*
X019995Y016495D02*
X018699Y016495D01*
X018768Y016416D02*
X020045Y016416D01*
X020095Y016338D02*
X018836Y016338D01*
X018905Y016259D02*
X020145Y016259D01*
X020192Y016181D02*
X018973Y016181D01*
X019042Y016102D02*
X020229Y016102D01*
X020266Y016024D02*
X019110Y016024D01*
X019179Y015945D02*
X020302Y015945D01*
X020339Y015867D02*
X019247Y015867D01*
X019316Y015788D02*
X020376Y015788D01*
X020412Y015710D02*
X019384Y015710D01*
X019453Y015631D02*
X020449Y015631D01*
X020485Y015553D02*
X019522Y015553D01*
X019590Y015474D02*
X020522Y015474D01*
X020559Y015396D02*
X019659Y015396D01*
X019727Y015317D02*
X020595Y015317D01*
X020632Y015239D02*
X019796Y015239D01*
X019864Y015160D02*
X020669Y015160D01*
X020705Y015082D02*
X019933Y015082D01*
X020001Y015003D02*
X020742Y015003D01*
X020779Y014925D02*
X020159Y014925D01*
X020604Y014846D02*
X020815Y014846D01*
X020849Y014768D02*
X020719Y014768D01*
X020762Y014689D02*
X020870Y014689D01*
X020891Y014611D02*
X020776Y014611D01*
X020762Y014532D02*
X020912Y014532D01*
X020933Y014454D02*
X020748Y014454D01*
X020734Y014375D02*
X020954Y014375D01*
X020975Y014297D02*
X020720Y014297D01*
X020707Y014218D02*
X020996Y014218D01*
X021017Y014140D02*
X020693Y014140D01*
X020679Y014061D02*
X021038Y014061D01*
X021059Y013983D02*
X020665Y013983D01*
X020651Y013904D02*
X021080Y013904D01*
X021101Y013826D02*
X020637Y013826D01*
X020624Y013747D02*
X021122Y013747D01*
X021142Y013669D02*
X020610Y013669D01*
X020596Y013590D02*
X021163Y013590D01*
X021184Y013512D02*
X020582Y013512D01*
X020568Y013433D02*
X021205Y013433D01*
X021225Y013355D02*
X020554Y013355D01*
X020541Y013276D02*
X021236Y013276D01*
X021247Y013198D02*
X020504Y013198D01*
X020417Y013119D02*
X021258Y013119D01*
X021269Y013041D02*
X018848Y013041D01*
X018926Y013119D02*
X020152Y013119D01*
X019707Y013198D02*
X018973Y013198D01*
X019006Y013276D02*
X019365Y013276D01*
X019287Y013355D02*
X019018Y013355D01*
X019018Y013433D02*
X019257Y013433D01*
X019255Y013512D02*
X019005Y013512D01*
X018972Y013590D02*
X019269Y013590D01*
X019283Y013669D02*
X018923Y013669D01*
X018844Y013747D02*
X019297Y013747D01*
X019833Y009665D02*
X021231Y009665D01*
X021217Y009587D02*
X020278Y009587D01*
X020620Y009508D02*
X021199Y009508D01*
X021180Y009430D02*
X020698Y009430D01*
X020728Y009351D02*
X021162Y009351D01*
X021144Y009273D02*
X020730Y009273D01*
X020716Y009194D02*
X021126Y009194D01*
X021108Y009116D02*
X020702Y009116D01*
X020689Y009037D02*
X021090Y009037D01*
X021072Y008959D02*
X020675Y008959D01*
X020661Y008880D02*
X021054Y008880D01*
X021036Y008802D02*
X020647Y008802D01*
X020633Y008723D02*
X021017Y008723D01*
X020999Y008645D02*
X020619Y008645D01*
X020606Y008566D02*
X020981Y008566D01*
X020963Y008488D02*
X020592Y008488D01*
X020578Y008409D02*
X020945Y008409D01*
X020918Y008331D02*
X020564Y008331D01*
X020550Y008252D02*
X020885Y008252D01*
X020853Y008174D02*
X020536Y008174D01*
X020522Y008095D02*
X020821Y008095D01*
X020788Y008017D02*
X020509Y008017D01*
X020495Y007938D02*
X020756Y007938D01*
X020724Y007860D02*
X020445Y007860D01*
X019245Y019306D02*
X019231Y033842D01*
X003431Y033842D01*
X003418Y019306D01*
X003698Y019321D02*
X007926Y019321D01*
X008004Y019242D02*
X003695Y019242D01*
X003662Y019164D02*
X008083Y019164D01*
X008161Y019085D02*
X003595Y019085D01*
X003520Y019007D02*
X008240Y019007D01*
X008318Y018928D02*
X003446Y018928D01*
X003372Y018850D02*
X008397Y018850D01*
X008475Y018771D02*
X003298Y018771D01*
X003224Y018693D02*
X008554Y018693D01*
X008632Y018614D02*
X003157Y018614D01*
X003094Y018536D02*
X008711Y018536D01*
X008789Y018457D02*
X003031Y018457D01*
X002969Y018379D02*
X008923Y018379D01*
X009194Y017829D02*
X002531Y017829D01*
X002468Y017751D02*
X008940Y017751D01*
X008847Y017722D02*
X008847Y017722D01*
X008743Y017672D02*
X002411Y017672D01*
X002362Y017594D02*
X008580Y017594D01*
X008417Y017515D02*
X002312Y017515D01*
X002263Y017437D02*
X008254Y017437D01*
X008091Y017358D02*
X005283Y017358D01*
X005272Y017370D02*
X005184Y017406D01*
X005088Y017406D01*
X005000Y017370D01*
X004014Y016383D01*
X004001Y016352D01*
X002497Y014929D01*
X002077Y014965D01*
X001986Y014937D01*
X001913Y014875D01*
X001869Y014791D01*
X001747Y013401D01*
X001776Y013310D01*
X001837Y013237D01*
X001922Y013193D01*
X002841Y013113D01*
X002932Y013141D01*
X003005Y013203D01*
X003049Y013287D01*
X003092Y013785D01*
X004823Y015423D01*
X004850Y015423D01*
X004938Y015459D01*
X005924Y016446D01*
X005961Y016534D01*
X005961Y016629D01*
X005924Y016717D01*
X005272Y017370D01*
X005361Y017280D02*
X007929Y017280D01*
X007931Y017281D02*
X007931Y017281D01*
X007814Y017201D02*
X005440Y017201D01*
X005518Y017123D02*
X007699Y017123D01*
X007584Y017044D02*
X005597Y017044D01*
X005675Y016966D02*
X007469Y016966D01*
X007353Y016887D02*
X005754Y016887D01*
X005832Y016809D02*
X007238Y016809D01*
X007123Y016730D02*
X005911Y016730D01*
X005951Y016652D02*
X007030Y016652D01*
X007091Y016709D02*
X007091Y016709D01*
X006946Y016573D02*
X005961Y016573D01*
X005944Y016495D02*
X006861Y016495D01*
X006776Y016416D02*
X005895Y016416D01*
X005816Y016338D02*
X006692Y016338D01*
X006607Y016259D02*
X005738Y016259D01*
X005659Y016181D02*
X006523Y016181D01*
X006438Y016102D02*
X005581Y016102D01*
X005502Y016024D02*
X006353Y016024D01*
X006346Y016018D02*
X006346Y016018D01*
X006289Y015945D02*
X005424Y015945D01*
X005345Y015867D02*
X006226Y015867D01*
X006164Y015788D02*
X005267Y015788D01*
X005188Y015710D02*
X006101Y015710D01*
X006039Y015631D02*
X005110Y015631D01*
X005031Y015553D02*
X005976Y015553D01*
X005913Y015474D02*
X004953Y015474D01*
X004795Y015396D02*
X005851Y015396D01*
X005788Y015317D02*
X004712Y015317D01*
X004629Y015239D02*
X005726Y015239D01*
X005713Y015223D02*
X005713Y015223D01*
X005677Y015160D02*
X004546Y015160D01*
X004463Y015082D02*
X005631Y015082D01*
X005586Y015003D02*
X004380Y015003D01*
X004297Y014925D02*
X005541Y014925D01*
X005495Y014846D02*
X004214Y014846D01*
X004131Y014768D02*
X005450Y014768D01*
X005405Y014689D02*
X004048Y014689D01*
X003965Y014611D02*
X005359Y014611D01*
X005314Y014532D02*
X003882Y014532D01*
X003799Y014454D02*
X005269Y014454D01*
X005223Y014375D02*
X003716Y014375D01*
X003633Y014297D02*
X005187Y014297D01*
X005156Y014218D02*
X003550Y014218D01*
X003467Y014140D02*
X005125Y014140D01*
X005094Y014061D02*
X003384Y014061D01*
X003301Y013983D02*
X005063Y013983D01*
X005033Y013904D02*
X003219Y013904D01*
X003136Y013826D02*
X003986Y013826D01*
X003994Y013829D02*
X003834Y013763D01*
X003711Y013640D01*
X003644Y013479D01*
X003644Y013306D01*
X003711Y013145D01*
X003834Y013022D01*
X003994Y012956D01*
X004168Y012956D01*
X004329Y013022D01*
X004452Y013145D01*
X004518Y013306D01*
X004518Y013479D01*
X004452Y013640D01*
X004329Y013763D01*
X004168Y013829D01*
X003994Y013829D01*
X004176Y013826D02*
X005002Y013826D01*
X004971Y013747D02*
X004344Y013747D01*
X004423Y013669D02*
X004940Y013669D01*
X004909Y013590D02*
X004472Y013590D01*
X004505Y013512D02*
X004879Y013512D01*
X004848Y013433D02*
X004518Y013433D01*
X004518Y013355D02*
X004824Y013355D01*
X004833Y013397D02*
X004833Y013397D01*
X004806Y013276D02*
X004506Y013276D01*
X004473Y013198D02*
X004788Y013198D01*
X004770Y013119D02*
X004426Y013119D01*
X004348Y013041D02*
X004752Y013041D01*
X004734Y012962D02*
X004185Y012962D01*
X003978Y012962D02*
X000545Y012962D01*
X000536Y012884D02*
X004716Y012884D01*
X004698Y012805D02*
X000527Y012805D01*
X000519Y012727D02*
X004680Y012727D01*
X004663Y012648D02*
X000510Y012648D01*
X000501Y012570D02*
X004645Y012570D01*
X004627Y012491D02*
X000492Y012491D01*
X000483Y012413D02*
X004609Y012413D01*
X004607Y012406D02*
X004607Y012406D01*
X004602Y012334D02*
X000474Y012334D01*
X000466Y012256D02*
X004596Y012256D01*
X004590Y012177D02*
X000457Y012177D01*
X000448Y012099D02*
X004584Y012099D01*
X004578Y012020D02*
X000439Y012020D01*
X000437Y011942D02*
X004572Y011942D01*
X004567Y011863D02*
X000437Y011863D01*
X000437Y011785D02*
X004561Y011785D01*
X004555Y011706D02*
X000437Y011706D01*
X000437Y011628D02*
X004549Y011628D01*
X004543Y011549D02*
X000437Y011549D01*
X000437Y011471D02*
X004537Y011471D01*
X004531Y011392D02*
X000437Y011392D01*
X000437Y011314D02*
X004537Y011314D01*
X004531Y011392D02*
X004531Y011392D01*
X004543Y011235D02*
X000437Y011235D01*
X000437Y011157D02*
X004549Y011157D01*
X004555Y011078D02*
X000437Y011078D01*
X000437Y011000D02*
X004561Y011000D01*
X004567Y010921D02*
X000437Y010921D01*
X000437Y010843D02*
X004572Y010843D01*
X004578Y010764D02*
X000439Y010764D01*
X000448Y010686D02*
X004584Y010686D01*
X004590Y010607D02*
X000457Y010607D01*
X000466Y010529D02*
X004596Y010529D01*
X004602Y010450D02*
X000474Y010450D01*
X000483Y010372D02*
X004609Y010372D01*
X004607Y010379D02*
X004607Y010379D01*
X004627Y010293D02*
X000492Y010293D01*
X000501Y010215D02*
X004645Y010215D01*
X004663Y010136D02*
X000510Y010136D01*
X000519Y010058D02*
X004680Y010058D01*
X004698Y009979D02*
X000527Y009979D01*
X000536Y009901D02*
X004716Y009901D01*
X004734Y009822D02*
X000545Y009822D01*
X000554Y009744D02*
X004752Y009744D01*
X003815Y013041D02*
X000554Y013041D01*
X000563Y013119D02*
X002762Y013119D01*
X002862Y013119D02*
X003736Y013119D01*
X003689Y013198D02*
X002999Y013198D01*
X003043Y013276D02*
X003656Y013276D01*
X003644Y013355D02*
X003055Y013355D01*
X003062Y013433D02*
X003644Y013433D01*
X003658Y013512D02*
X003068Y013512D01*
X003075Y013590D02*
X003690Y013590D01*
X003740Y013669D02*
X003082Y013669D01*
X003089Y013747D02*
X003818Y013747D01*
X002742Y015160D02*
X001108Y015160D01*
X001080Y015082D02*
X002659Y015082D01*
X002576Y015003D02*
X001053Y015003D01*
X001026Y014925D02*
X001972Y014925D01*
X001898Y014846D02*
X000998Y014846D01*
X000971Y014768D02*
X001867Y014768D01*
X001860Y014689D02*
X000943Y014689D01*
X000916Y014611D02*
X001853Y014611D01*
X001846Y014532D02*
X000888Y014532D01*
X000861Y014454D02*
X001839Y014454D01*
X001832Y014375D02*
X000838Y014375D01*
X000820Y014297D02*
X001825Y014297D01*
X001819Y014218D02*
X000802Y014218D01*
X000784Y014140D02*
X001812Y014140D01*
X001805Y014061D02*
X000766Y014061D01*
X000748Y013983D02*
X001798Y013983D01*
X001791Y013904D02*
X000730Y013904D01*
X000712Y013826D02*
X001784Y013826D01*
X001777Y013747D02*
X000695Y013747D01*
X000677Y013669D02*
X001770Y013669D01*
X001764Y013590D02*
X000659Y013590D01*
X000641Y013512D02*
X001757Y013512D01*
X001750Y013433D02*
X000623Y013433D01*
X000605Y013355D02*
X001762Y013355D01*
X001804Y013276D02*
X000587Y013276D01*
X000572Y013198D02*
X001912Y013198D01*
X001135Y015239D02*
X002825Y015239D01*
X002908Y015317D02*
X001163Y015317D01*
X001190Y015396D02*
X002991Y015396D01*
X003074Y015474D02*
X001218Y015474D01*
X001245Y015553D02*
X003157Y015553D01*
X003239Y015631D02*
X001281Y015631D01*
X001319Y015710D02*
X003322Y015710D01*
X003405Y015788D02*
X001357Y015788D01*
X001395Y015867D02*
X003488Y015867D01*
X003571Y015945D02*
X001432Y015945D01*
X001470Y016024D02*
X003654Y016024D01*
X003737Y016102D02*
X001508Y016102D01*
X001546Y016181D02*
X003820Y016181D01*
X003903Y016259D02*
X001584Y016259D01*
X001621Y016338D02*
X003986Y016338D01*
X004047Y016416D02*
X001659Y016416D01*
X001697Y016495D02*
X004125Y016495D01*
X004204Y016573D02*
X001735Y016573D01*
X001773Y016652D02*
X004282Y016652D01*
X004361Y016730D02*
X001819Y016730D01*
X001869Y016809D02*
X004439Y016809D01*
X004518Y016887D02*
X001918Y016887D01*
X001967Y016966D02*
X004596Y016966D01*
X004675Y017044D02*
X002016Y017044D01*
X002066Y017123D02*
X004753Y017123D01*
X004832Y017201D02*
X002115Y017201D01*
X002164Y017280D02*
X004910Y017280D01*
X004989Y017358D02*
X002214Y017358D01*
X002593Y017908D02*
X009449Y017908D01*
X009703Y017986D02*
X002656Y017986D01*
X002718Y018065D02*
X010103Y018065D01*
X009818Y018022D02*
X009818Y018022D01*
X010624Y018143D02*
X002781Y018143D01*
X003698Y019399D02*
X007847Y019399D01*
X007769Y019478D02*
X003698Y019478D01*
X003698Y019556D02*
X007690Y019556D01*
X007612Y019635D02*
X003698Y019635D01*
X003698Y019713D02*
X007533Y019713D01*
X007494Y019792D02*
X003698Y019792D01*
X003698Y019870D02*
X007462Y019870D01*
X007429Y019949D02*
X003698Y019949D01*
X003743Y020027D02*
X007428Y020027D01*
X007424Y020106D02*
X003822Y020106D01*
X003901Y020184D02*
X007346Y020184D01*
X007267Y020263D02*
X003981Y020263D01*
X004060Y020341D02*
X004825Y020341D01*
X004651Y020420D02*
X004139Y020420D01*
X005338Y020341D02*
X007189Y020341D01*
X007110Y020420D02*
X005512Y020420D01*
X008668Y020420D02*
X013827Y020420D01*
X013843Y020341D02*
X008668Y020341D01*
X008737Y020263D02*
X013843Y020263D01*
X013843Y020184D02*
X008816Y020184D01*
X008894Y020106D02*
X013768Y020106D01*
X013689Y020027D02*
X008973Y020027D01*
X009051Y019949D02*
X013611Y019949D01*
X013532Y019870D02*
X009130Y019870D01*
X009209Y019792D02*
X013454Y019792D01*
X013375Y019713D02*
X009287Y019713D01*
X009366Y019635D02*
X013297Y019635D01*
X013218Y019556D02*
X010328Y019556D01*
X010977Y019478D02*
X011686Y019478D01*
X011627Y019399D02*
X011035Y019399D01*
X011057Y019321D02*
X011605Y019321D01*
X011605Y019242D02*
X011057Y019242D01*
X011057Y019164D02*
X011605Y019164D01*
X011605Y019085D02*
X011057Y019085D01*
X011057Y019007D02*
X011605Y019007D01*
X011605Y018928D02*
X011057Y018928D01*
X011057Y018850D02*
X011605Y018850D01*
X011605Y018771D02*
X011057Y018771D01*
X011057Y018693D02*
X011605Y018693D01*
X011605Y018614D02*
X011057Y018614D01*
X011055Y018536D02*
X011607Y018536D01*
X011640Y018457D02*
X011023Y018457D01*
X010937Y018379D02*
X011726Y018379D01*
X019244Y019305D02*
X019612Y018920D01*
X019961Y018517D01*
X020290Y018099D01*
X020599Y017665D01*
X020887Y017217D01*
X021153Y016755D01*
X021397Y016282D01*
X021618Y015797D01*
X021816Y015303D01*
X021991Y014800D01*
X022141Y014288D01*
X022266Y013771D01*
X022367Y013248D01*
X022443Y012721D01*
X022493Y012190D01*
X022519Y011658D01*
X022519Y011126D01*
X022493Y010594D01*
X022443Y010063D01*
X022367Y009536D01*
X022266Y009013D01*
X022141Y008496D01*
X021991Y007984D01*
X021816Y007481D01*
X021618Y006987D01*
X021397Y006502D01*
X021153Y006029D01*
X020887Y005567D01*
X020599Y005119D01*
X020290Y004685D01*
X019961Y004267D01*
X019612Y003864D01*
X019244Y003479D01*
X018859Y003111D01*
X018456Y002762D01*
X018038Y002433D01*
X017604Y002124D01*
X017156Y001836D01*
X016694Y001570D01*
X016221Y001326D01*
X015736Y001105D01*
X015242Y000907D01*
X014739Y000732D01*
X014227Y000582D01*
X013710Y000457D01*
X013187Y000356D01*
X012660Y000280D01*
X012129Y000230D01*
X011597Y000204D01*
X011065Y000204D01*
X010533Y000230D01*
X010002Y000280D01*
X009475Y000356D01*
X008952Y000457D01*
X008435Y000582D01*
X007923Y000732D01*
X007420Y000907D01*
X006926Y001105D01*
X006441Y001326D01*
X005968Y001570D01*
X005506Y001836D01*
X005058Y002124D01*
X004624Y002433D01*
X004206Y002762D01*
X003803Y003111D01*
X003418Y003479D01*
X003595Y003699D02*
X008339Y003699D01*
X008273Y003621D02*
X003675Y003621D01*
X003758Y003542D02*
X008207Y003542D01*
X008141Y003464D02*
X003841Y003464D01*
X003924Y003385D02*
X008075Y003385D01*
X008009Y003307D02*
X004007Y003307D01*
X004096Y003228D02*
X007943Y003228D01*
X007877Y003150D02*
X004194Y003150D01*
X004293Y003071D02*
X007817Y003071D01*
X007792Y002993D02*
X004391Y002993D01*
X004490Y002914D02*
X007797Y002914D01*
X007830Y002836D02*
X004588Y002836D01*
X004686Y002757D02*
X007906Y002757D01*
X007999Y002679D02*
X004785Y002679D01*
X004883Y002600D02*
X008093Y002600D01*
X008187Y002522D02*
X004982Y002522D01*
X005097Y002443D02*
X008280Y002443D01*
X008374Y002365D02*
X005222Y002365D01*
X005347Y002286D02*
X008467Y002286D01*
X008561Y002208D02*
X005472Y002208D01*
X005597Y002129D02*
X008654Y002129D01*
X008738Y002051D02*
X005722Y002051D01*
X005847Y001972D02*
X008810Y001972D01*
X008889Y001894D02*
X005972Y001894D01*
X006110Y001815D02*
X009040Y001815D01*
X008404Y003778D02*
X003520Y003778D01*
X002259Y007944D02*
X002198Y008017D01*
X003418Y003479D02*
X003050Y003864D01*
X002701Y004267D01*
X002372Y004685D01*
X002063Y005119D01*
X001775Y005567D01*
X001509Y006029D01*
X001265Y006502D01*
X001044Y006987D01*
X000846Y007481D01*
X000671Y007984D01*
X000521Y008496D01*
X000396Y009013D01*
X000295Y009536D01*
X000219Y010063D01*
X000169Y010594D01*
X000143Y011126D01*
X000143Y011658D01*
X000169Y012190D01*
X000219Y012721D01*
X000295Y013248D01*
X000396Y013771D01*
X000521Y014288D01*
X000671Y014800D01*
X000846Y015303D01*
X001044Y015797D01*
X001265Y016282D01*
X001509Y016755D01*
X001775Y017217D01*
X002063Y017665D01*
X002372Y018099D01*
X002701Y018517D01*
X003050Y018920D01*
X003418Y019305D01*
X007158Y015565D02*
X007362Y015758D01*
X007574Y015942D01*
X007795Y016116D01*
X008023Y016279D01*
X008260Y016431D01*
X008503Y016571D01*
X008753Y016700D01*
X009008Y016817D01*
X009269Y016921D01*
X009534Y017013D01*
X009804Y017092D01*
X010077Y017158D01*
X010352Y017211D01*
X010630Y017251D01*
X010910Y017278D01*
X011191Y017291D01*
X011471Y017291D01*
X011752Y017278D01*
X012032Y017251D01*
X012310Y017211D01*
X012585Y017158D01*
X012858Y017092D01*
X013128Y017013D01*
X013393Y016921D01*
X013654Y016817D01*
X013909Y016700D01*
X014159Y016571D01*
X014402Y016431D01*
X014639Y016279D01*
X014867Y016116D01*
X015088Y015942D01*
X015300Y015758D01*
X015504Y015565D01*
X015697Y015361D01*
X015881Y015149D01*
X016055Y014928D01*
X016218Y014700D01*
X016370Y014463D01*
X016510Y014220D01*
X016639Y013970D01*
X016756Y013715D01*
X016860Y013454D01*
X016952Y013189D01*
X017031Y012919D01*
X017097Y012646D01*
X017150Y012371D01*
X017190Y012093D01*
X017217Y011813D01*
X017230Y011532D01*
X017230Y011252D01*
X017217Y010971D01*
X017190Y010691D01*
X017150Y010413D01*
X017097Y010138D01*
X017031Y009865D01*
X016952Y009595D01*
X016860Y009330D01*
X016756Y009069D01*
X016639Y008814D01*
X016510Y008564D01*
X016370Y008321D01*
X016218Y008084D01*
X016055Y007856D01*
X015881Y007635D01*
X015697Y007423D01*
X015504Y007219D01*
X015300Y007026D01*
X015088Y006842D01*
X014867Y006668D01*
X014639Y006505D01*
X014402Y006353D01*
X014159Y006213D01*
X013909Y006084D01*
X013654Y005967D01*
X013393Y005863D01*
X013128Y005771D01*
X012858Y005692D01*
X012585Y005626D01*
X012310Y005573D01*
X012032Y005533D01*
X011752Y005506D01*
X011471Y005493D01*
X011191Y005493D01*
X010910Y005506D01*
X010630Y005533D01*
X010352Y005573D01*
X010077Y005626D01*
X009804Y005692D01*
X009534Y005771D01*
X009269Y005863D01*
X009008Y005967D01*
X008753Y006084D01*
X008503Y006213D01*
X008260Y006353D01*
X008023Y006505D01*
X007795Y006668D01*
X007574Y006842D01*
X007362Y007026D01*
X007158Y007219D01*
X006965Y007423D01*
X006781Y007635D01*
X006607Y007856D01*
X006444Y008084D01*
X006292Y008321D01*
X006152Y008564D01*
X006023Y008814D01*
X005906Y009069D01*
X005802Y009330D01*
X005710Y009595D01*
X005631Y009865D01*
X005565Y010138D01*
X005512Y010413D01*
X005472Y010691D01*
X005445Y010971D01*
X005432Y011252D01*
X005432Y011532D01*
X005445Y011813D01*
X005472Y012093D01*
X005512Y012371D01*
X005565Y012646D01*
X005631Y012919D01*
X005710Y013189D01*
X005802Y013454D01*
X005906Y013715D01*
X006023Y013970D01*
X006152Y014220D01*
X006292Y014463D01*
X006444Y014700D01*
X006607Y014928D01*
X006781Y015149D01*
X006965Y015361D01*
X007158Y015565D01*
D11*
X004581Y021036D02*
X004583Y021080D01*
X004589Y021124D01*
X004599Y021167D01*
X004612Y021209D01*
X004629Y021250D01*
X004650Y021289D01*
X004674Y021326D01*
X004701Y021361D01*
X004731Y021393D01*
X004764Y021423D01*
X004800Y021449D01*
X004837Y021473D01*
X004877Y021492D01*
X004918Y021509D01*
X004961Y021521D01*
X005004Y021530D01*
X005048Y021535D01*
X005092Y021536D01*
X005136Y021533D01*
X005180Y021526D01*
X005223Y021515D01*
X005265Y021501D01*
X005305Y021483D01*
X005344Y021461D01*
X005380Y021437D01*
X005414Y021409D01*
X005446Y021378D01*
X005475Y021344D01*
X005501Y021308D01*
X005523Y021270D01*
X005542Y021230D01*
X005557Y021188D01*
X005569Y021146D01*
X005577Y021102D01*
X005581Y021058D01*
X005581Y021014D01*
X005577Y020970D01*
X005569Y020926D01*
X005557Y020884D01*
X005542Y020842D01*
X005523Y020802D01*
X005501Y020764D01*
X005475Y020728D01*
X005446Y020694D01*
X005414Y020663D01*
X005380Y020635D01*
X005344Y020611D01*
X005305Y020589D01*
X005265Y020571D01*
X005223Y020557D01*
X005180Y020546D01*
X005136Y020539D01*
X005092Y020536D01*
X005048Y020537D01*
X005004Y020542D01*
X004961Y020551D01*
X004918Y020563D01*
X004877Y020580D01*
X004837Y020599D01*
X004800Y020623D01*
X004764Y020649D01*
X004731Y020679D01*
X004701Y020711D01*
X004674Y020746D01*
X004650Y020783D01*
X004629Y020822D01*
X004612Y020863D01*
X004599Y020905D01*
X004589Y020948D01*
X004583Y020992D01*
X004581Y021036D01*
X010831Y032642D02*
X010833Y032686D01*
X010839Y032730D01*
X010849Y032773D01*
X010862Y032815D01*
X010879Y032856D01*
X010900Y032895D01*
X010924Y032932D01*
X010951Y032967D01*
X010981Y032999D01*
X011014Y033029D01*
X011050Y033055D01*
X011087Y033079D01*
X011127Y033098D01*
X011168Y033115D01*
X011211Y033127D01*
X011254Y033136D01*
X011298Y033141D01*
X011342Y033142D01*
X011386Y033139D01*
X011430Y033132D01*
X011473Y033121D01*
X011515Y033107D01*
X011555Y033089D01*
X011594Y033067D01*
X011630Y033043D01*
X011664Y033015D01*
X011696Y032984D01*
X011725Y032950D01*
X011751Y032914D01*
X011773Y032876D01*
X011792Y032836D01*
X011807Y032794D01*
X011819Y032752D01*
X011827Y032708D01*
X011831Y032664D01*
X011831Y032620D01*
X011827Y032576D01*
X011819Y032532D01*
X011807Y032490D01*
X011792Y032448D01*
X011773Y032408D01*
X011751Y032370D01*
X011725Y032334D01*
X011696Y032300D01*
X011664Y032269D01*
X011630Y032241D01*
X011594Y032217D01*
X011555Y032195D01*
X011515Y032177D01*
X011473Y032163D01*
X011430Y032152D01*
X011386Y032145D01*
X011342Y032142D01*
X011298Y032143D01*
X011254Y032148D01*
X011211Y032157D01*
X011168Y032169D01*
X011127Y032186D01*
X011087Y032205D01*
X011050Y032229D01*
X011014Y032255D01*
X010981Y032285D01*
X010951Y032317D01*
X010924Y032352D01*
X010900Y032389D01*
X010879Y032428D01*
X010862Y032469D01*
X010849Y032511D01*
X010839Y032554D01*
X010833Y032598D01*
X010831Y032642D01*
X015766Y031886D02*
X015768Y031921D01*
X015774Y031956D01*
X015784Y031990D01*
X015797Y032023D01*
X015814Y032054D01*
X015835Y032082D01*
X015858Y032109D01*
X015885Y032132D01*
X015913Y032153D01*
X015944Y032170D01*
X015977Y032183D01*
X016011Y032193D01*
X016046Y032199D01*
X016081Y032201D01*
X016116Y032199D01*
X016151Y032193D01*
X016185Y032183D01*
X016218Y032170D01*
X016249Y032153D01*
X016277Y032132D01*
X016304Y032109D01*
X016327Y032082D01*
X016348Y032054D01*
X016365Y032023D01*
X016378Y031990D01*
X016388Y031956D01*
X016394Y031921D01*
X016396Y031886D01*
X016394Y031851D01*
X016388Y031816D01*
X016378Y031782D01*
X016365Y031749D01*
X016348Y031718D01*
X016327Y031690D01*
X016304Y031663D01*
X016277Y031640D01*
X016249Y031619D01*
X016218Y031602D01*
X016185Y031589D01*
X016151Y031579D01*
X016116Y031573D01*
X016081Y031571D01*
X016046Y031573D01*
X016011Y031579D01*
X015977Y031589D01*
X015944Y031602D01*
X015913Y031619D01*
X015885Y031640D01*
X015858Y031663D01*
X015835Y031690D01*
X015814Y031718D01*
X015797Y031749D01*
X015784Y031782D01*
X015774Y031816D01*
X015768Y031851D01*
X015766Y031886D01*
X015727Y030115D02*
X015729Y030152D01*
X015735Y030189D01*
X015744Y030224D01*
X015758Y030259D01*
X015774Y030292D01*
X015795Y030323D01*
X015818Y030352D01*
X015844Y030378D01*
X015873Y030401D01*
X015904Y030422D01*
X015937Y030438D01*
X015972Y030452D01*
X016007Y030461D01*
X016044Y030467D01*
X016081Y030469D01*
X016118Y030467D01*
X016155Y030461D01*
X016190Y030452D01*
X016225Y030438D01*
X016258Y030422D01*
X016289Y030401D01*
X016318Y030378D01*
X016344Y030352D01*
X016367Y030323D01*
X016388Y030292D01*
X016404Y030259D01*
X016418Y030224D01*
X016427Y030189D01*
X016433Y030152D01*
X016435Y030115D01*
X016433Y030078D01*
X016427Y030041D01*
X016418Y030006D01*
X016404Y029971D01*
X016388Y029938D01*
X016367Y029907D01*
X016344Y029878D01*
X016318Y029852D01*
X016289Y029829D01*
X016258Y029808D01*
X016225Y029792D01*
X016190Y029778D01*
X016155Y029769D01*
X016118Y029763D01*
X016081Y029761D01*
X016044Y029763D01*
X016007Y029769D01*
X015972Y029778D01*
X015937Y029792D01*
X015904Y029808D01*
X015873Y029829D01*
X015844Y029852D01*
X015818Y029878D01*
X015795Y029907D01*
X015774Y029938D01*
X015758Y029971D01*
X015744Y030006D01*
X015735Y030041D01*
X015729Y030078D01*
X015727Y030115D01*
X017081Y021036D02*
X017083Y021080D01*
X017089Y021124D01*
X017099Y021167D01*
X017112Y021209D01*
X017129Y021250D01*
X017150Y021289D01*
X017174Y021326D01*
X017201Y021361D01*
X017231Y021393D01*
X017264Y021423D01*
X017300Y021449D01*
X017337Y021473D01*
X017377Y021492D01*
X017418Y021509D01*
X017461Y021521D01*
X017504Y021530D01*
X017548Y021535D01*
X017592Y021536D01*
X017636Y021533D01*
X017680Y021526D01*
X017723Y021515D01*
X017765Y021501D01*
X017805Y021483D01*
X017844Y021461D01*
X017880Y021437D01*
X017914Y021409D01*
X017946Y021378D01*
X017975Y021344D01*
X018001Y021308D01*
X018023Y021270D01*
X018042Y021230D01*
X018057Y021188D01*
X018069Y021146D01*
X018077Y021102D01*
X018081Y021058D01*
X018081Y021014D01*
X018077Y020970D01*
X018069Y020926D01*
X018057Y020884D01*
X018042Y020842D01*
X018023Y020802D01*
X018001Y020764D01*
X017975Y020728D01*
X017946Y020694D01*
X017914Y020663D01*
X017880Y020635D01*
X017844Y020611D01*
X017805Y020589D01*
X017765Y020571D01*
X017723Y020557D01*
X017680Y020546D01*
X017636Y020539D01*
X017592Y020536D01*
X017548Y020537D01*
X017504Y020542D01*
X017461Y020551D01*
X017418Y020563D01*
X017377Y020580D01*
X017337Y020599D01*
X017300Y020623D01*
X017264Y020649D01*
X017231Y020679D01*
X017201Y020711D01*
X017174Y020746D01*
X017150Y020783D01*
X017129Y020822D01*
X017112Y020863D01*
X017099Y020905D01*
X017089Y020948D01*
X017083Y020992D01*
X017081Y021036D01*
X018831Y007142D02*
X018833Y007186D01*
X018839Y007230D01*
X018849Y007273D01*
X018862Y007315D01*
X018879Y007356D01*
X018900Y007395D01*
X018924Y007432D01*
X018951Y007467D01*
X018981Y007499D01*
X019014Y007529D01*
X019050Y007555D01*
X019087Y007579D01*
X019127Y007598D01*
X019168Y007615D01*
X019211Y007627D01*
X019254Y007636D01*
X019298Y007641D01*
X019342Y007642D01*
X019386Y007639D01*
X019430Y007632D01*
X019473Y007621D01*
X019515Y007607D01*
X019555Y007589D01*
X019594Y007567D01*
X019630Y007543D01*
X019664Y007515D01*
X019696Y007484D01*
X019725Y007450D01*
X019751Y007414D01*
X019773Y007376D01*
X019792Y007336D01*
X019807Y007294D01*
X019819Y007252D01*
X019827Y007208D01*
X019831Y007164D01*
X019831Y007120D01*
X019827Y007076D01*
X019819Y007032D01*
X019807Y006990D01*
X019792Y006948D01*
X019773Y006908D01*
X019751Y006870D01*
X019725Y006834D01*
X019696Y006800D01*
X019664Y006769D01*
X019630Y006741D01*
X019594Y006717D01*
X019555Y006695D01*
X019515Y006677D01*
X019473Y006663D01*
X019430Y006652D01*
X019386Y006645D01*
X019342Y006642D01*
X019298Y006643D01*
X019254Y006648D01*
X019211Y006657D01*
X019168Y006669D01*
X019127Y006686D01*
X019087Y006705D01*
X019050Y006729D01*
X019014Y006755D01*
X018981Y006785D01*
X018951Y006817D01*
X018924Y006852D01*
X018900Y006889D01*
X018879Y006928D01*
X018862Y006969D01*
X018849Y007011D01*
X018839Y007054D01*
X018833Y007098D01*
X018831Y007142D01*
X002831Y007142D02*
X002833Y007186D01*
X002839Y007230D01*
X002849Y007273D01*
X002862Y007315D01*
X002879Y007356D01*
X002900Y007395D01*
X002924Y007432D01*
X002951Y007467D01*
X002981Y007499D01*
X003014Y007529D01*
X003050Y007555D01*
X003087Y007579D01*
X003127Y007598D01*
X003168Y007615D01*
X003211Y007627D01*
X003254Y007636D01*
X003298Y007641D01*
X003342Y007642D01*
X003386Y007639D01*
X003430Y007632D01*
X003473Y007621D01*
X003515Y007607D01*
X003555Y007589D01*
X003594Y007567D01*
X003630Y007543D01*
X003664Y007515D01*
X003696Y007484D01*
X003725Y007450D01*
X003751Y007414D01*
X003773Y007376D01*
X003792Y007336D01*
X003807Y007294D01*
X003819Y007252D01*
X003827Y007208D01*
X003831Y007164D01*
X003831Y007120D01*
X003827Y007076D01*
X003819Y007032D01*
X003807Y006990D01*
X003792Y006948D01*
X003773Y006908D01*
X003751Y006870D01*
X003725Y006834D01*
X003696Y006800D01*
X003664Y006769D01*
X003630Y006741D01*
X003594Y006717D01*
X003555Y006695D01*
X003515Y006677D01*
X003473Y006663D01*
X003430Y006652D01*
X003386Y006645D01*
X003342Y006642D01*
X003298Y006643D01*
X003254Y006648D01*
X003211Y006657D01*
X003168Y006669D01*
X003127Y006686D01*
X003087Y006705D01*
X003050Y006729D01*
X003014Y006755D01*
X002981Y006785D01*
X002951Y006817D01*
X002924Y006852D01*
X002900Y006889D01*
X002879Y006928D01*
X002862Y006969D01*
X002849Y007011D01*
X002839Y007054D01*
X002833Y007098D01*
X002831Y007142D01*
D12*
G36*
X003348Y009356D02*
X003235Y008064D01*
X002414Y008136D01*
X002527Y009428D01*
X003348Y009356D01*
G37*
G36*
X003988Y006286D02*
X004981Y005453D01*
X004450Y004820D01*
X003457Y005653D01*
X003988Y006286D01*
G37*
G36*
X008566Y003595D02*
X009559Y002762D01*
X009028Y002129D01*
X008035Y002962D01*
X008566Y003595D01*
G37*
G36*
X014730Y002601D02*
X013555Y002053D01*
X013206Y002801D01*
X014381Y003349D01*
X014730Y002601D01*
G37*
G36*
X019103Y005614D02*
X017928Y005066D01*
X017579Y005814D01*
X018754Y006362D01*
X019103Y005614D01*
G37*
G36*
X020491Y009305D02*
X020266Y008028D01*
X019453Y008171D01*
X019678Y009448D01*
X020491Y009305D01*
G37*
G36*
X020532Y014614D02*
X020307Y013337D01*
X019494Y013480D01*
X019719Y014757D01*
X020532Y014614D01*
G37*
G36*
X017878Y017299D02*
X018527Y016176D01*
X017812Y015763D01*
X017163Y016886D01*
X017878Y017299D01*
G37*
G36*
X014496Y021392D02*
X015145Y020269D01*
X014430Y019856D01*
X013781Y020979D01*
X014496Y021392D01*
G37*
G36*
X008798Y020907D02*
X007882Y019991D01*
X007298Y020575D01*
X008214Y021491D01*
X008798Y020907D01*
G37*
G36*
X005719Y016580D02*
X004803Y015664D01*
X004219Y016248D01*
X005135Y017164D01*
X005719Y016580D01*
G37*
G36*
X002926Y014649D02*
X002813Y013357D01*
X001992Y013429D01*
X002105Y014721D01*
X002926Y014649D01*
G37*
D13*
X004081Y013392D03*
X011331Y031142D03*
X018581Y013392D03*
D14*
X007481Y024176D03*
X006981Y024176D03*
X006481Y024176D03*
X005981Y024176D03*
X005981Y026596D03*
X006481Y026596D03*
X006981Y026596D03*
X007481Y026596D03*
D15*
X007586Y027636D03*
X006877Y027636D03*
X009577Y027886D03*
X010286Y027886D03*
X011227Y027886D03*
X011936Y027886D03*
X010636Y023186D03*
X009927Y023186D03*
X008236Y023186D03*
X007527Y023186D03*
X006686Y023186D03*
X005977Y023186D03*
D16*
X013845Y027086D03*
X014927Y027086D03*
D17*
X015847Y027086D03*
D18*
X017417Y027086D03*
D19*
X012771Y024556D03*
X011591Y024556D03*
D20*
X012181Y024656D03*
D21*
X012181Y025411D02*
X012181Y026001D01*
D22*
X015534Y026120D03*
X017329Y026120D03*
D23*
X016431Y023246D03*
D24*
X009931Y024184D03*
X009431Y024184D03*
X008931Y024184D03*
X008431Y024184D03*
X008431Y026589D03*
X008931Y026589D03*
X009431Y026589D03*
X009931Y026589D03*
D25*
X010188Y021148D03*
X010188Y018944D03*
X012475Y018944D03*
X012475Y021148D03*
D26*
X013916Y029445D03*
X013916Y031886D03*
X018247Y031886D03*
X018247Y029445D03*
D27*
X011831Y029486D03*
X010831Y029486D03*
X009831Y029486D03*
D28*
X003913Y027974D03*
D29*
X003915Y027975D03*
X004129Y027734D03*
X004131Y027734D03*
X004137Y027732D03*
X004139Y027732D03*
X004203Y024570D03*
D30*
X004628Y023793D03*
X004628Y023398D03*
X004628Y026476D03*
X004628Y027770D03*
X003917Y027977D03*
D31*
X003919Y027978D03*
X004294Y028117D03*
X004771Y026278D03*
X004294Y026113D03*
X004658Y025249D03*
X004187Y025094D03*
X004316Y024223D03*
D32*
X004670Y025229D03*
X004411Y025535D03*
X003921Y027980D03*
D33*
X003923Y027980D03*
X004465Y026334D03*
X004485Y026298D03*
X004495Y026280D03*
X004513Y026247D03*
X004535Y026207D03*
X004545Y026189D03*
X004553Y026175D03*
X004566Y026153D03*
X004576Y026135D03*
X004584Y026121D03*
X004594Y026103D03*
X004205Y024056D03*
D34*
X003925Y027983D03*
D35*
X003928Y027983D03*
X004535Y025773D03*
X004739Y024071D03*
X004217Y024071D03*
D36*
X003930Y027984D03*
D37*
X003932Y027985D03*
X004753Y027957D03*
X004525Y025753D03*
X004441Y025594D03*
X004233Y024085D03*
X004723Y024085D03*
X004753Y023596D03*
X004203Y023596D03*
D38*
X003934Y027987D03*
D39*
X003936Y027987D03*
X004513Y025728D03*
X004217Y025098D03*
X004252Y024098D03*
X004704Y024098D03*
D40*
X004459Y025630D03*
X003938Y027989D03*
D41*
X003940Y027989D03*
X004225Y027972D03*
X004739Y027958D03*
X004497Y025698D03*
X004495Y025694D03*
X004471Y025652D03*
X004225Y025098D03*
D42*
X003942Y027991D03*
D43*
X003944Y027992D03*
D44*
X003946Y027993D03*
X004191Y025740D03*
D45*
X004755Y025635D03*
X004250Y025109D03*
X003948Y027992D03*
D46*
X003950Y027990D03*
D47*
X003952Y027988D03*
X004229Y023596D03*
D48*
X004231Y023596D03*
X003954Y027985D03*
X004264Y027996D03*
D49*
X004268Y027998D03*
X003956Y027983D03*
X004731Y025075D03*
D50*
X003958Y027982D03*
D51*
X003960Y027979D03*
X004721Y027959D03*
D52*
X004719Y027959D03*
X003962Y027977D03*
D53*
X003964Y027976D03*
D54*
X003966Y027974D03*
D55*
X003968Y027972D03*
X004745Y025648D03*
D56*
X003970Y027971D03*
D57*
X003972Y027969D03*
D58*
X003974Y027967D03*
X004717Y026279D03*
D59*
X003976Y027966D03*
D60*
X003978Y027965D03*
D61*
X003980Y027963D03*
X004242Y026277D03*
X004712Y026279D03*
X004737Y025655D03*
X004721Y025075D03*
X004712Y023596D03*
X004244Y023596D03*
D62*
X003982Y027961D03*
D63*
X003984Y027960D03*
X004205Y025716D03*
D64*
X003986Y027959D03*
D65*
X003988Y027958D03*
X004710Y026280D03*
X004207Y025714D03*
X004719Y025076D03*
D66*
X004733Y025658D03*
X003990Y027956D03*
D67*
X003992Y027955D03*
D68*
X003994Y027954D03*
X004246Y026278D03*
D69*
X003996Y027953D03*
D70*
X003998Y027951D03*
D71*
X004000Y027950D03*
X004706Y026280D03*
X004211Y025710D03*
X004715Y025076D03*
X004706Y023597D03*
X004250Y023597D03*
D72*
X004002Y027949D03*
D73*
X004004Y027948D03*
D74*
X004006Y027946D03*
D75*
X004008Y027945D03*
D76*
X004010Y027944D03*
D77*
X004012Y027942D03*
X004702Y026280D03*
X004719Y025666D03*
X004215Y025706D03*
D78*
X004717Y025667D03*
X004014Y027941D03*
D79*
X004016Y028078D03*
X004048Y027780D03*
X004314Y028143D03*
X004642Y028143D03*
X004316Y026087D03*
X004274Y024570D03*
X004340Y024248D03*
X004616Y024248D03*
D80*
X004664Y024175D03*
X004292Y024175D03*
X004541Y025786D03*
X004016Y027843D03*
D81*
X004074Y027759D03*
X004018Y028087D03*
X004586Y027745D03*
X004775Y027956D03*
X004872Y027453D03*
X004924Y027453D03*
X004584Y026503D03*
X004376Y026505D03*
X004374Y026505D03*
X004372Y026503D03*
X004390Y026046D03*
X004392Y026046D03*
X004592Y025851D03*
X004310Y025497D03*
X004358Y025295D03*
X004576Y025308D03*
X004584Y025303D03*
X004586Y025303D03*
X004292Y024569D03*
X004211Y024569D03*
X004384Y024275D03*
X004388Y024277D03*
X004390Y024277D03*
X004562Y024279D03*
X004566Y024277D03*
X004568Y024277D03*
X004570Y024275D03*
X004576Y024273D03*
X004578Y023822D03*
X004584Y023820D03*
X004382Y023824D03*
X004376Y023822D03*
X004374Y023820D03*
X004372Y023820D03*
X004370Y023373D03*
X004374Y023371D03*
X004376Y023371D03*
X004380Y023369D03*
X004384Y023367D03*
X004576Y023369D03*
X004578Y023369D03*
X004586Y023373D03*
X004634Y023134D03*
X004600Y022824D03*
X004594Y022824D03*
X004634Y022514D03*
X004632Y022512D03*
D82*
X004592Y026106D03*
X004568Y026150D03*
X004562Y026160D03*
X004558Y026168D03*
X004549Y026182D03*
X004537Y026204D03*
X004529Y026218D03*
X004527Y026222D03*
X004521Y026232D03*
X004519Y026236D03*
X004517Y026240D03*
X004511Y026250D03*
X004509Y026255D03*
X004503Y026265D03*
X004501Y026269D03*
X004493Y026283D03*
X004487Y026295D03*
X004481Y026305D03*
X004477Y026313D03*
X004473Y026319D03*
X004469Y026327D03*
X004018Y027833D03*
D83*
X004141Y027732D03*
X004020Y028092D03*
D84*
X004020Y027826D03*
D85*
X004022Y028098D03*
D86*
X004022Y027820D03*
X004604Y026094D03*
X004757Y024046D03*
D87*
X004449Y026045D03*
X004415Y026367D03*
X004286Y027861D03*
X004024Y028102D03*
D88*
X004024Y027815D03*
X004763Y022993D03*
D89*
X004026Y028107D03*
D90*
X004290Y028111D03*
X004026Y027811D03*
X004666Y026125D03*
X004560Y025819D03*
X004664Y025239D03*
X004666Y023750D03*
X004666Y023442D03*
X004290Y023442D03*
X004290Y023750D03*
D91*
X004028Y028110D03*
D92*
X004028Y027807D03*
X004312Y024217D03*
D93*
X004030Y028114D03*
D94*
X004030Y027803D03*
X004660Y027801D03*
X004660Y026443D03*
X004660Y026117D03*
X004660Y023760D03*
X004660Y023432D03*
D95*
X004300Y027843D03*
X004032Y028118D03*
D96*
X004298Y028123D03*
X004032Y027801D03*
X004656Y027797D03*
X004656Y026449D03*
X004445Y026348D03*
X004300Y026449D03*
X004656Y025251D03*
X004658Y023762D03*
X004658Y023430D03*
X004298Y023430D03*
X004298Y023762D03*
X004767Y022993D03*
X004767Y022655D03*
D97*
X004034Y028122D03*
D98*
X004034Y027797D03*
X004302Y026451D03*
X004399Y025517D03*
X004634Y024229D03*
X004634Y022824D03*
X004672Y022544D03*
D99*
X004036Y028125D03*
D100*
X004036Y027794D03*
X004646Y026102D03*
D101*
X004038Y028129D03*
D102*
X004038Y027792D03*
X004644Y026462D03*
X004644Y025264D03*
X004628Y024236D03*
X004765Y024028D03*
X004668Y023109D03*
X004668Y022539D03*
D103*
X004342Y024943D03*
X004340Y024943D03*
X004384Y026386D03*
X004040Y028133D03*
D104*
X004040Y027789D03*
X004042Y027787D03*
X004308Y028135D03*
X004642Y027781D03*
X004310Y025259D03*
X004262Y024569D03*
X004260Y024569D03*
X004258Y024569D03*
X004254Y024569D03*
X004252Y024569D03*
X004250Y024569D03*
X004246Y024569D03*
X004244Y024569D03*
X004242Y024569D03*
X004332Y024241D03*
X004314Y023780D03*
X004642Y023780D03*
D105*
X004322Y027821D03*
X004042Y028137D03*
D106*
X004044Y027785D03*
X004646Y028137D03*
X004638Y023784D03*
D107*
X004046Y027782D03*
X004644Y028140D03*
D108*
X004322Y028151D03*
X004626Y027768D03*
X004050Y027778D03*
X004330Y026478D03*
X004626Y026478D03*
X004326Y026079D03*
X004578Y025842D03*
X004624Y025280D03*
X004775Y025077D03*
X004634Y024880D03*
X004632Y024878D03*
X004324Y025272D03*
X004298Y025506D03*
X004348Y024254D03*
X004346Y024252D03*
X004608Y024254D03*
X004610Y024252D03*
X004326Y023400D03*
X004658Y023119D03*
X004658Y022529D03*
X004656Y022527D03*
D109*
X004630Y023791D03*
X004052Y027776D03*
X004320Y028149D03*
D110*
X004620Y027764D03*
X004894Y027454D03*
X004902Y027454D03*
X004620Y026482D03*
X004580Y025844D03*
X004620Y023799D03*
X004652Y023123D03*
X004054Y027774D03*
D111*
X004056Y027772D03*
X004330Y028157D03*
X004632Y028151D03*
X004618Y027762D03*
X004616Y027762D03*
X004892Y027454D03*
X004896Y027454D03*
X004900Y027454D03*
X004618Y026484D03*
X004338Y026484D03*
X004338Y026071D03*
X004342Y026069D03*
X004658Y025842D03*
X004384Y025502D03*
X004300Y025504D03*
X004334Y025280D03*
X004332Y025278D03*
X004610Y025290D03*
X004616Y025286D03*
X004626Y024874D03*
X004600Y024260D03*
X004602Y024258D03*
X004356Y024260D03*
X004354Y024258D03*
X004342Y023803D03*
X004340Y023801D03*
X004616Y023801D03*
X004616Y023390D03*
X004342Y023388D03*
X004340Y023390D03*
D112*
X004648Y023126D03*
X004650Y023126D03*
X004650Y022522D03*
X004594Y024263D03*
X004362Y024263D03*
X004358Y024261D03*
X004286Y024569D03*
X004219Y024569D03*
X004217Y024569D03*
X004338Y025283D03*
X004380Y025499D03*
X004656Y025843D03*
X004354Y026062D03*
X004350Y026064D03*
X004340Y026070D03*
X004342Y026487D03*
X004346Y026489D03*
X004610Y026489D03*
X004610Y027757D03*
X004626Y028156D03*
X004058Y027771D03*
D113*
X004060Y027769D03*
X004606Y027755D03*
X004622Y028158D03*
X004614Y026487D03*
X004344Y026487D03*
X004344Y026068D03*
X004582Y025845D03*
X004336Y025281D03*
X004360Y024263D03*
X004598Y024261D03*
X004344Y023804D03*
D114*
X004604Y023382D03*
X004644Y022519D03*
X004604Y025294D03*
X004604Y027754D03*
X004620Y028159D03*
X004062Y027768D03*
D115*
X004064Y027766D03*
X004332Y028159D03*
X004334Y028161D03*
X004618Y028161D03*
X004624Y028157D03*
X004608Y027756D03*
X004602Y026494D03*
X004608Y026490D03*
X004354Y026494D03*
X004350Y026492D03*
X004348Y026490D03*
X004356Y026061D03*
X004364Y026057D03*
X004584Y025846D03*
X004600Y025296D03*
X004602Y025294D03*
X004346Y025288D03*
X004342Y025286D03*
X004340Y025284D03*
X004618Y024868D03*
X004586Y024268D03*
X004592Y024264D03*
X004370Y024268D03*
X004366Y024266D03*
X004364Y024264D03*
X004350Y023384D03*
X004348Y023384D03*
X004356Y023380D03*
X004600Y023380D03*
X004608Y023384D03*
X004648Y022521D03*
D116*
X004594Y023377D03*
X004602Y023381D03*
X004362Y023377D03*
X004358Y023379D03*
X004354Y023381D03*
X004356Y023812D03*
X004358Y023812D03*
X004600Y023812D03*
X004584Y024269D03*
X004376Y024271D03*
X004372Y024269D03*
X004290Y024569D03*
X004616Y024867D03*
X004594Y025299D03*
X004376Y025497D03*
X004372Y026054D03*
X004370Y026054D03*
X004366Y026056D03*
X004362Y026058D03*
X004358Y026060D03*
X004356Y026495D03*
X004358Y026497D03*
X004600Y026495D03*
X004600Y027751D03*
X004602Y027753D03*
X004066Y027765D03*
D117*
X004068Y027763D03*
X004336Y028162D03*
X004614Y028164D03*
X004606Y022824D03*
D118*
X004636Y023133D03*
X004588Y023374D03*
X004636Y022515D03*
X004588Y026502D03*
X004588Y027746D03*
X004070Y027762D03*
D119*
X004072Y027760D03*
X004584Y027744D03*
X004592Y027748D03*
X004594Y027748D03*
X004608Y028167D03*
X004920Y027454D03*
X004592Y026500D03*
X004594Y026498D03*
X004586Y026502D03*
X004431Y026357D03*
X004362Y026498D03*
X004364Y026500D03*
X004366Y026500D03*
X004370Y026502D03*
X004181Y026279D03*
X004374Y026053D03*
X004380Y026051D03*
X004382Y026049D03*
X004384Y026049D03*
X004388Y026047D03*
X004308Y025498D03*
X004356Y025294D03*
X004354Y025292D03*
X004380Y024274D03*
X004382Y024274D03*
X004578Y024272D03*
X004586Y023819D03*
X004370Y023819D03*
X004366Y023374D03*
X004372Y023372D03*
X004584Y023372D03*
X004640Y023131D03*
D120*
X004582Y023371D03*
X004378Y023369D03*
X004598Y022824D03*
X004630Y022512D03*
X004582Y023820D03*
X004574Y023824D03*
X004378Y023822D03*
X004368Y023818D03*
X004394Y024279D03*
X004606Y024861D03*
X004582Y025305D03*
X004360Y025295D03*
X004394Y026046D03*
X004386Y026048D03*
X004582Y026505D03*
X004304Y026877D03*
X004874Y027453D03*
X004922Y027453D03*
X004582Y027743D03*
X004076Y027757D03*
D121*
X004078Y027756D03*
X004580Y027742D03*
X004869Y027454D03*
X004588Y028177D03*
X004580Y028181D03*
X004596Y025852D03*
X004644Y025850D03*
X004572Y025309D03*
X004604Y024860D03*
X004596Y024856D03*
X004572Y023825D03*
X004628Y022511D03*
D122*
X004616Y022506D03*
X004586Y022824D03*
X004584Y022824D03*
X004618Y023140D03*
X004549Y023359D03*
X004551Y023361D03*
X004553Y023361D03*
X004545Y023359D03*
X004537Y023357D03*
X004527Y023355D03*
X004429Y023355D03*
X004417Y023357D03*
X004409Y023359D03*
X004407Y023359D03*
X004405Y023361D03*
X004401Y023361D03*
X004388Y023826D03*
X004399Y023830D03*
X004401Y023830D03*
X004405Y023832D03*
X004407Y023832D03*
X004409Y023832D03*
X004413Y023834D03*
X004415Y023834D03*
X004417Y023834D03*
X004423Y023836D03*
X004425Y023836D03*
X004533Y023836D03*
X004541Y023834D03*
X004543Y023834D03*
X004549Y023832D03*
X004551Y023832D03*
X004553Y023830D03*
X004558Y023830D03*
X004562Y023828D03*
X004568Y023826D03*
X004545Y024285D03*
X004543Y024285D03*
X004541Y024285D03*
X004537Y024287D03*
X004535Y024287D03*
X004533Y024287D03*
X004527Y024289D03*
X004525Y024289D03*
X004431Y024289D03*
X004429Y024289D03*
X004423Y024287D03*
X004421Y024287D03*
X004415Y024285D03*
X004413Y024285D03*
X004209Y024569D03*
X004181Y025092D03*
X004370Y025301D03*
X004374Y025303D03*
X004376Y025303D03*
X004380Y025305D03*
X004384Y025308D03*
X004558Y025314D03*
X004560Y025314D03*
X004566Y025312D03*
X004570Y025310D03*
X004362Y025491D03*
X004600Y025853D03*
X004632Y025853D03*
X004634Y025853D03*
X004640Y025851D03*
X004431Y026036D03*
X004429Y026036D03*
X004423Y026038D03*
X004421Y026038D03*
X004413Y026040D03*
X004392Y026511D03*
X004396Y026513D03*
X004399Y026513D03*
X004405Y026515D03*
X004407Y026515D03*
X004409Y026517D03*
X004413Y026517D03*
X004421Y026519D03*
X004431Y026521D03*
X004525Y026521D03*
X004535Y026519D03*
X004537Y026519D03*
X004543Y026517D03*
X004545Y026517D03*
X004549Y026515D03*
X004551Y026515D03*
X004553Y026515D03*
X004558Y026513D03*
X004560Y026513D03*
X004867Y027453D03*
X004928Y027453D03*
X004566Y027737D03*
X004553Y027733D03*
X004551Y027733D03*
X004576Y028182D03*
X004578Y028182D03*
X004370Y028182D03*
X004366Y028180D03*
X004364Y028178D03*
X004362Y028178D03*
X004358Y028176D03*
X004080Y027755D03*
X004594Y024855D03*
D123*
X004600Y024858D03*
X004602Y024858D03*
X004578Y025306D03*
X004568Y025311D03*
X004372Y025302D03*
X004594Y025852D03*
X004642Y025850D03*
X004417Y026039D03*
X004415Y026039D03*
X004429Y026359D03*
X004401Y026514D03*
X004562Y026512D03*
X004578Y026506D03*
X004306Y026878D03*
X004568Y027738D03*
X004570Y027738D03*
X004576Y027740D03*
X004578Y027742D03*
X004592Y028175D03*
X004586Y028179D03*
X004584Y028179D03*
X004356Y028175D03*
X004082Y027754D03*
X004294Y024570D03*
X004396Y024280D03*
X004399Y024280D03*
X004392Y024278D03*
X004558Y024280D03*
X004560Y024280D03*
X004560Y023829D03*
X004566Y023827D03*
X004570Y023825D03*
X004576Y023823D03*
X004396Y023829D03*
X004392Y023827D03*
X004390Y023827D03*
X004384Y023825D03*
X004380Y023823D03*
X004181Y023596D03*
X004382Y023368D03*
X004388Y023366D03*
X004568Y023366D03*
X004570Y023366D03*
X004775Y023596D03*
X004592Y022823D03*
X004626Y022511D03*
D124*
X004614Y022506D03*
X004590Y022824D03*
X004539Y023357D03*
X004547Y023359D03*
X004555Y023361D03*
X004419Y023357D03*
X004411Y023359D03*
X004403Y023361D03*
X004394Y023828D03*
X004403Y023830D03*
X004531Y023836D03*
X004539Y023834D03*
X004547Y023832D03*
X004555Y023830D03*
X004419Y024287D03*
X004411Y024285D03*
X004296Y024569D03*
X004590Y024853D03*
X004598Y024857D03*
X004564Y025312D03*
X004378Y025305D03*
X004360Y025491D03*
X004328Y025491D03*
X004598Y025853D03*
X004427Y026036D03*
X004419Y026038D03*
X004403Y026515D03*
X004411Y026517D03*
X004419Y026519D03*
X004547Y026517D03*
X004564Y026511D03*
X004564Y027737D03*
X004582Y028180D03*
X004085Y027753D03*
D125*
X004087Y027751D03*
X004572Y027739D03*
X004572Y028184D03*
X004926Y027453D03*
X004636Y025853D03*
X004612Y023142D03*
X004620Y023140D03*
X004588Y022824D03*
D126*
X004616Y023141D03*
X004610Y023143D03*
X004608Y023143D03*
X004543Y023358D03*
X004541Y023358D03*
X004535Y023356D03*
X004533Y023356D03*
X004529Y023356D03*
X004525Y023354D03*
X004521Y023354D03*
X004519Y023354D03*
X004517Y023354D03*
X004513Y023352D03*
X004511Y023352D03*
X004509Y023352D03*
X004505Y023352D03*
X004503Y023352D03*
X004501Y023352D03*
X004497Y023352D03*
X004457Y023352D03*
X004455Y023352D03*
X004453Y023352D03*
X004449Y023352D03*
X004447Y023352D03*
X004445Y023352D03*
X004439Y023354D03*
X004437Y023354D03*
X004433Y023354D03*
X004431Y023354D03*
X004425Y023356D03*
X004423Y023356D03*
X004421Y023356D03*
X004415Y023358D03*
X004413Y023358D03*
X004421Y023835D03*
X004429Y023837D03*
X004431Y023837D03*
X004433Y023837D03*
X004437Y023839D03*
X004439Y023839D03*
X004441Y023839D03*
X004445Y023839D03*
X004447Y023839D03*
X004449Y023839D03*
X004457Y023841D03*
X004461Y023841D03*
X004463Y023841D03*
X004465Y023841D03*
X004469Y023841D03*
X004471Y023841D03*
X004473Y023841D03*
X004477Y023841D03*
X004479Y023841D03*
X004481Y023841D03*
X004485Y023841D03*
X004487Y023841D03*
X004489Y023841D03*
X004493Y023841D03*
X004495Y023841D03*
X004497Y023841D03*
X004509Y023839D03*
X004511Y023839D03*
X004513Y023839D03*
X004517Y023839D03*
X004519Y023839D03*
X004521Y023837D03*
X004525Y023837D03*
X004527Y023837D03*
X004529Y023837D03*
X004535Y023835D03*
X004537Y023835D03*
X004545Y023833D03*
X004529Y024288D03*
X004521Y024290D03*
X004519Y024290D03*
X004517Y024290D03*
X004511Y024292D03*
X004509Y024292D03*
X004505Y024292D03*
X004503Y024292D03*
X004501Y024292D03*
X004497Y024292D03*
X004495Y024292D03*
X004461Y024292D03*
X004457Y024292D03*
X004455Y024292D03*
X004453Y024292D03*
X004449Y024292D03*
X004447Y024292D03*
X004445Y024292D03*
X004441Y024290D03*
X004439Y024290D03*
X004437Y024290D03*
X004433Y024290D03*
X004425Y024288D03*
X004417Y024286D03*
X004586Y024852D03*
X004592Y024854D03*
X004562Y025313D03*
X004553Y025315D03*
X004551Y025315D03*
X004549Y025317D03*
X004545Y025317D03*
X004392Y025311D03*
X004388Y025309D03*
X004382Y025306D03*
X004358Y025490D03*
X004356Y025490D03*
X004354Y025490D03*
X004350Y025490D03*
X004348Y025490D03*
X004346Y025490D03*
X004342Y025490D03*
X004340Y025490D03*
X004338Y025490D03*
X004334Y025490D03*
X004332Y025490D03*
X004330Y025490D03*
X004326Y025492D03*
X004324Y025492D03*
X004602Y025854D03*
X004608Y025854D03*
X004624Y025854D03*
X004626Y025854D03*
X004445Y026033D03*
X004437Y026035D03*
X004433Y026035D03*
X004425Y026037D03*
X004417Y026518D03*
X004415Y026518D03*
X004423Y026520D03*
X004425Y026520D03*
X004429Y026520D03*
X004433Y026522D03*
X004437Y026522D03*
X004439Y026522D03*
X004441Y026522D03*
X004447Y026524D03*
X004449Y026524D03*
X004453Y026524D03*
X004455Y026524D03*
X004457Y026524D03*
X004461Y026524D03*
X004463Y026524D03*
X004465Y026524D03*
X004469Y026524D03*
X004487Y026524D03*
X004489Y026524D03*
X004493Y026524D03*
X004495Y026524D03*
X004497Y026524D03*
X004501Y026524D03*
X004503Y026524D03*
X004505Y026524D03*
X004509Y026524D03*
X004513Y026522D03*
X004517Y026522D03*
X004519Y026522D03*
X004521Y026522D03*
X004527Y026520D03*
X004529Y026520D03*
X004533Y026520D03*
X004541Y026518D03*
X004316Y026885D03*
X004529Y027728D03*
X004541Y027730D03*
X004543Y027730D03*
X004545Y027732D03*
X004549Y027732D03*
X004568Y028185D03*
X004570Y028185D03*
X004566Y028187D03*
X004562Y028187D03*
X004558Y028189D03*
X004382Y028187D03*
X004376Y028185D03*
X004374Y028183D03*
X004372Y028183D03*
X004091Y027750D03*
X004089Y027750D03*
X004608Y022505D03*
X004610Y022505D03*
X004602Y022503D03*
X004600Y022503D03*
D127*
X004582Y022823D03*
X004614Y023141D03*
X004606Y023143D03*
X004598Y023145D03*
X004531Y023356D03*
X004523Y023354D03*
X004507Y023352D03*
X004499Y023352D03*
X004459Y023352D03*
X004451Y023352D03*
X004443Y023352D03*
X004435Y023354D03*
X004427Y023356D03*
X004411Y023833D03*
X004419Y023835D03*
X004427Y023837D03*
X004435Y023837D03*
X004443Y023839D03*
X004459Y023841D03*
X004467Y023841D03*
X004475Y023841D03*
X004483Y023841D03*
X004491Y023841D03*
X004499Y023841D03*
X004507Y023839D03*
X004515Y023839D03*
X004523Y023837D03*
X004539Y024286D03*
X004531Y024288D03*
X004523Y024290D03*
X004515Y024290D03*
X004507Y024292D03*
X004499Y024292D03*
X004459Y024292D03*
X004451Y024292D03*
X004435Y024290D03*
X004427Y024288D03*
X004582Y024850D03*
X004555Y025315D03*
X004547Y025317D03*
X004386Y025309D03*
X004352Y025490D03*
X004344Y025490D03*
X004336Y025490D03*
X004606Y025854D03*
X004622Y025854D03*
X004630Y025854D03*
X004443Y026033D03*
X004435Y026035D03*
X004427Y026520D03*
X004435Y026522D03*
X004443Y026522D03*
X004451Y026524D03*
X004459Y026524D03*
X004467Y026524D03*
X004491Y026524D03*
X004499Y026524D03*
X004507Y026524D03*
X004515Y026522D03*
X004523Y026522D03*
X004531Y026520D03*
X004539Y026518D03*
X004312Y026883D03*
X004865Y027454D03*
X004555Y027734D03*
X004547Y027732D03*
X004539Y027730D03*
X004531Y027728D03*
X004093Y027748D03*
X004368Y028181D03*
X004378Y028185D03*
X004555Y028189D03*
X004564Y028187D03*
X004574Y028183D03*
D128*
X004095Y027748D03*
X004604Y025854D03*
X004628Y025854D03*
X004588Y024852D03*
X004580Y022823D03*
X004612Y022505D03*
D129*
X004594Y022502D03*
X004592Y022502D03*
X004578Y022824D03*
X004576Y022824D03*
X004570Y022824D03*
X004568Y022824D03*
X004566Y022824D03*
X004600Y023144D03*
X004602Y023144D03*
X004594Y023146D03*
X004592Y023146D03*
X004495Y023351D03*
X004493Y023351D03*
X004489Y023351D03*
X004487Y023351D03*
X004485Y023351D03*
X004481Y023351D03*
X004479Y023351D03*
X004477Y023351D03*
X004473Y023351D03*
X004471Y023351D03*
X004469Y023351D03*
X004465Y023351D03*
X004463Y023351D03*
X004461Y023351D03*
X004441Y023353D03*
X004453Y023840D03*
X004455Y023840D03*
X004501Y023840D03*
X004503Y023840D03*
X004505Y023840D03*
X004513Y024291D03*
X004493Y024293D03*
X004489Y024293D03*
X004487Y024293D03*
X004485Y024293D03*
X004481Y024293D03*
X004479Y024293D03*
X004477Y024293D03*
X004473Y024293D03*
X004471Y024293D03*
X004469Y024293D03*
X004465Y024293D03*
X004463Y024293D03*
X004298Y024569D03*
X004282Y024991D03*
X004390Y025310D03*
X004396Y025312D03*
X004401Y025314D03*
X004521Y025322D03*
X004533Y025320D03*
X004535Y025320D03*
X004537Y025320D03*
X004541Y025318D03*
X004543Y025318D03*
X004584Y024851D03*
X004610Y025855D03*
X004616Y025855D03*
X004618Y025855D03*
X004441Y026034D03*
X004439Y026034D03*
X004445Y026523D03*
X004511Y026523D03*
X004318Y026886D03*
X004314Y026884D03*
X004863Y027453D03*
X004537Y027729D03*
X004535Y027729D03*
X004533Y027729D03*
X004527Y027727D03*
X004525Y027727D03*
X004521Y027727D03*
X004519Y027727D03*
X004511Y027725D03*
X004509Y027725D03*
X004105Y027743D03*
X004099Y027745D03*
X004097Y027747D03*
X004380Y028186D03*
X004390Y028190D03*
X004396Y028192D03*
X004529Y028196D03*
X004537Y028194D03*
X004541Y028194D03*
X004543Y028192D03*
X004545Y028192D03*
X004549Y028192D03*
X004551Y028190D03*
X004553Y028190D03*
D130*
X004547Y028192D03*
X004539Y028194D03*
X004531Y028196D03*
X004280Y027874D03*
X004101Y027745D03*
X004507Y027725D03*
X004523Y027727D03*
X004930Y027453D03*
X004427Y026360D03*
X004614Y025855D03*
X004523Y025322D03*
X004531Y025320D03*
X004539Y025318D03*
X004403Y025314D03*
X004394Y025312D03*
X004207Y024569D03*
X004443Y024291D03*
X004467Y024293D03*
X004475Y024293D03*
X004483Y024293D03*
X004491Y024293D03*
X004451Y023840D03*
X004467Y023351D03*
X004475Y023351D03*
X004483Y023351D03*
X004491Y023351D03*
X004515Y023353D03*
X004590Y023146D03*
X004574Y022824D03*
X004606Y022504D03*
X004598Y022502D03*
X004590Y022502D03*
D131*
X004588Y022501D03*
X004580Y022501D03*
X004580Y023147D03*
X004572Y023147D03*
X004111Y027740D03*
X004103Y027744D03*
D132*
X004107Y027742D03*
X004113Y027740D03*
X004477Y027724D03*
X004479Y027724D03*
X004481Y027724D03*
X004485Y027724D03*
X004487Y027724D03*
X004489Y027724D03*
X004493Y027724D03*
X004495Y027724D03*
X004497Y027724D03*
X004501Y027724D03*
X004503Y027724D03*
X004505Y027724D03*
X004513Y027726D03*
X004517Y027726D03*
X004533Y028195D03*
X004535Y028195D03*
X004527Y028197D03*
X004525Y028197D03*
X004521Y028197D03*
X004519Y028197D03*
X004517Y028199D03*
X004513Y028199D03*
X004511Y028199D03*
X004509Y028199D03*
X004505Y028199D03*
X004497Y028201D03*
X004495Y028201D03*
X004493Y028201D03*
X004489Y028201D03*
X004487Y028201D03*
X004485Y028201D03*
X004447Y028201D03*
X004445Y028201D03*
X004429Y028199D03*
X004417Y028197D03*
X004409Y028195D03*
X004407Y028195D03*
X004401Y028193D03*
X004399Y028193D03*
X004392Y028191D03*
X004932Y027454D03*
X004326Y026889D03*
X004324Y026889D03*
X004322Y026887D03*
X004425Y026361D03*
X004471Y025325D03*
X004473Y025325D03*
X004477Y025325D03*
X004479Y025325D03*
X004481Y025325D03*
X004485Y025325D03*
X004487Y025325D03*
X004489Y025325D03*
X004493Y025325D03*
X004495Y025325D03*
X004497Y025325D03*
X004509Y025323D03*
X004511Y025323D03*
X004513Y025323D03*
X004517Y025323D03*
X004519Y025323D03*
X004525Y025321D03*
X004527Y025321D03*
X004529Y025321D03*
X004445Y025323D03*
X004433Y025321D03*
X004431Y025321D03*
X004429Y025321D03*
X004423Y025319D03*
X004421Y025319D03*
X004399Y025313D03*
X004521Y024840D03*
X004525Y024840D03*
X004545Y024842D03*
X004558Y024844D03*
X004560Y024844D03*
X004562Y024844D03*
X004205Y024570D03*
X004566Y023147D03*
X004568Y023147D03*
X004570Y023147D03*
X004576Y023147D03*
X004578Y023147D03*
X004584Y023147D03*
X004586Y023147D03*
X004562Y022823D03*
X004560Y022823D03*
X004576Y022501D03*
X004578Y022501D03*
X004584Y022501D03*
X004586Y022501D03*
D133*
X004582Y022501D03*
X004574Y022501D03*
X004564Y022823D03*
X004574Y023147D03*
X004582Y023147D03*
X004523Y024840D03*
X004547Y024842D03*
X004555Y024844D03*
X004515Y025323D03*
X004507Y025323D03*
X004491Y025325D03*
X004483Y025325D03*
X004475Y025325D03*
X004419Y025319D03*
X004320Y026887D03*
X004328Y026889D03*
X004336Y026891D03*
X004483Y027724D03*
X004491Y027724D03*
X004499Y027724D03*
X004515Y027726D03*
X004117Y027738D03*
X004109Y027742D03*
X004394Y028191D03*
X004403Y028193D03*
X004411Y028195D03*
X004419Y028197D03*
X004491Y028201D03*
X004507Y028199D03*
X004515Y028199D03*
X004523Y028197D03*
D134*
X004503Y028200D03*
X004501Y028200D03*
X004441Y028200D03*
X004439Y028200D03*
X004437Y028200D03*
X004433Y028200D03*
X004431Y028200D03*
X004425Y028198D03*
X004423Y028198D03*
X004421Y028198D03*
X004415Y028196D03*
X004413Y028196D03*
X004405Y028194D03*
X004405Y027723D03*
X004407Y027723D03*
X004409Y027723D03*
X004413Y027723D03*
X004415Y027723D03*
X004417Y027723D03*
X004421Y027723D03*
X004423Y027723D03*
X004425Y027723D03*
X004429Y027723D03*
X004431Y027723D03*
X004433Y027723D03*
X004437Y027723D03*
X004439Y027723D03*
X004441Y027723D03*
X004445Y027723D03*
X004447Y027723D03*
X004449Y027723D03*
X004453Y027723D03*
X004455Y027723D03*
X004457Y027723D03*
X004461Y027723D03*
X004463Y027723D03*
X004465Y027723D03*
X004469Y027723D03*
X004471Y027723D03*
X004473Y027723D03*
X004401Y027723D03*
X004399Y027723D03*
X004396Y027723D03*
X004392Y027723D03*
X004390Y027723D03*
X004388Y027723D03*
X004384Y027723D03*
X004382Y027723D03*
X004380Y027723D03*
X004376Y027723D03*
X004374Y027723D03*
X004372Y027723D03*
X004370Y027723D03*
X004366Y027723D03*
X004364Y027723D03*
X004362Y027723D03*
X004358Y027723D03*
X004356Y027723D03*
X004354Y027723D03*
X004350Y027723D03*
X004348Y027723D03*
X004346Y027723D03*
X004342Y027723D03*
X004340Y027723D03*
X004338Y027723D03*
X004334Y027723D03*
X004332Y027723D03*
X004330Y027723D03*
X004326Y027723D03*
X004324Y027723D03*
X004322Y027723D03*
X004318Y027723D03*
X004316Y027723D03*
X004314Y027723D03*
X004310Y027723D03*
X004308Y027723D03*
X004306Y027723D03*
X004302Y027723D03*
X004300Y027723D03*
X004298Y027723D03*
X004294Y027723D03*
X004292Y027723D03*
X004290Y027723D03*
X004286Y027723D03*
X004284Y027723D03*
X004282Y027723D03*
X004278Y027723D03*
X004276Y027723D03*
X004274Y027723D03*
X004270Y027723D03*
X004268Y027723D03*
X004266Y027723D03*
X004262Y027723D03*
X004260Y027723D03*
X004258Y027723D03*
X004254Y027723D03*
X004252Y027723D03*
X004250Y027723D03*
X004246Y027723D03*
X004244Y027723D03*
X004242Y027723D03*
X004237Y027723D03*
X004235Y027723D03*
X004233Y027723D03*
X004229Y027723D03*
X004227Y027723D03*
X004225Y027723D03*
X004221Y027723D03*
X004219Y027723D03*
X004217Y027723D03*
X004213Y027723D03*
X004211Y027723D03*
X004209Y027723D03*
X004189Y027725D03*
X004187Y027725D03*
X004185Y027725D03*
X004181Y027725D03*
X004115Y027739D03*
X004189Y027453D03*
X004193Y027453D03*
X004195Y027453D03*
X004197Y027453D03*
X004201Y027453D03*
X004203Y027453D03*
X004205Y027453D03*
X004209Y027453D03*
X004211Y027453D03*
X004213Y027453D03*
X004217Y027453D03*
X004219Y027453D03*
X004221Y027453D03*
X004225Y027453D03*
X004227Y027453D03*
X004229Y027453D03*
X004233Y027453D03*
X004235Y027453D03*
X004237Y027453D03*
X004242Y027453D03*
X004244Y027453D03*
X004246Y027453D03*
X004250Y027453D03*
X004252Y027453D03*
X004254Y027453D03*
X004258Y027453D03*
X004260Y027453D03*
X004262Y027453D03*
X004266Y027453D03*
X004268Y027453D03*
X004270Y027453D03*
X004274Y027453D03*
X004276Y027453D03*
X004278Y027453D03*
X004282Y027453D03*
X004284Y027453D03*
X004286Y027453D03*
X004290Y027453D03*
X004292Y027453D03*
X004294Y027453D03*
X004298Y027453D03*
X004300Y027453D03*
X004302Y027453D03*
X004306Y027453D03*
X004308Y027453D03*
X004310Y027453D03*
X004314Y027453D03*
X004316Y027453D03*
X004318Y027453D03*
X004322Y027453D03*
X004324Y027453D03*
X004326Y027453D03*
X004330Y027453D03*
X004332Y027453D03*
X004334Y027453D03*
X004338Y027453D03*
X004340Y027453D03*
X004342Y027453D03*
X004346Y027453D03*
X004348Y027453D03*
X004350Y027453D03*
X004354Y027453D03*
X004356Y027453D03*
X004358Y027453D03*
X004362Y027453D03*
X004364Y027453D03*
X004366Y027453D03*
X004370Y027453D03*
X004372Y027453D03*
X004374Y027453D03*
X004376Y027453D03*
X004380Y027453D03*
X004382Y027453D03*
X004384Y027453D03*
X004388Y027453D03*
X004390Y027453D03*
X004392Y027453D03*
X004396Y027453D03*
X004399Y027453D03*
X004401Y027453D03*
X004405Y027453D03*
X004407Y027453D03*
X004409Y027453D03*
X004413Y027453D03*
X004415Y027453D03*
X004417Y027453D03*
X004421Y027453D03*
X004423Y027453D03*
X004425Y027453D03*
X004429Y027453D03*
X004431Y027453D03*
X004433Y027453D03*
X004437Y027453D03*
X004439Y027453D03*
X004441Y027453D03*
X004445Y027453D03*
X004447Y027453D03*
X004449Y027453D03*
X004453Y027453D03*
X004455Y027453D03*
X004457Y027453D03*
X004461Y027453D03*
X004463Y027453D03*
X004465Y027453D03*
X004469Y027453D03*
X004471Y027453D03*
X004473Y027453D03*
X004477Y027453D03*
X004479Y027453D03*
X004481Y027453D03*
X004485Y027453D03*
X004487Y027453D03*
X004489Y027453D03*
X004493Y027453D03*
X004495Y027453D03*
X004497Y027453D03*
X004501Y027453D03*
X004503Y027453D03*
X004505Y027453D03*
X004509Y027453D03*
X004511Y027453D03*
X004513Y027453D03*
X004517Y027453D03*
X004519Y027453D03*
X004521Y027453D03*
X004525Y027453D03*
X004527Y027453D03*
X004529Y027453D03*
X004533Y027453D03*
X004535Y027453D03*
X004537Y027453D03*
X004541Y027453D03*
X004543Y027453D03*
X004545Y027453D03*
X004549Y027453D03*
X004551Y027453D03*
X004553Y027453D03*
X004558Y027453D03*
X004560Y027453D03*
X004562Y027453D03*
X004566Y027453D03*
X004568Y027453D03*
X004570Y027453D03*
X004576Y027453D03*
X004578Y027453D03*
X004584Y027453D03*
X004586Y027453D03*
X004592Y027453D03*
X004594Y027453D03*
X004600Y027453D03*
X004602Y027453D03*
X004608Y027453D03*
X004610Y027453D03*
X004616Y027453D03*
X004618Y027453D03*
X004624Y027453D03*
X004626Y027453D03*
X004632Y027453D03*
X004634Y027453D03*
X004640Y027453D03*
X004642Y027453D03*
X004648Y027453D03*
X004650Y027453D03*
X004656Y027453D03*
X004658Y027453D03*
X004664Y027453D03*
X004666Y027453D03*
X004672Y027453D03*
X004674Y027453D03*
X004680Y027453D03*
X004682Y027453D03*
X004688Y027453D03*
X004690Y027453D03*
X004696Y027453D03*
X004698Y027453D03*
X004704Y027453D03*
X004706Y027453D03*
X004712Y027453D03*
X004715Y027453D03*
X004721Y027453D03*
X004723Y027453D03*
X004729Y027453D03*
X004731Y027453D03*
X004737Y027453D03*
X004739Y027453D03*
X004745Y027453D03*
X004747Y027453D03*
X004753Y027453D03*
X004755Y027453D03*
X004761Y027453D03*
X004763Y027453D03*
X004767Y027453D03*
X004859Y027453D03*
X004859Y026894D03*
X004855Y026894D03*
X004851Y026894D03*
X004847Y026894D03*
X004843Y026894D03*
X004839Y026894D03*
X004835Y026894D03*
X004831Y026894D03*
X004827Y026894D03*
X004823Y026894D03*
X004819Y026894D03*
X004815Y026894D03*
X004811Y026894D03*
X004807Y026894D03*
X004803Y026894D03*
X004799Y026894D03*
X004795Y026894D03*
X004791Y026894D03*
X004787Y026894D03*
X004783Y026894D03*
X004779Y026894D03*
X004775Y026894D03*
X004771Y026894D03*
X004863Y026894D03*
X004867Y026894D03*
X004872Y026894D03*
X004876Y026894D03*
X004880Y026894D03*
X004884Y026894D03*
X004888Y026894D03*
X004892Y026894D03*
X004896Y026894D03*
X004900Y026894D03*
X004904Y026894D03*
X004908Y026894D03*
X004912Y026894D03*
X004664Y026894D03*
X004658Y026894D03*
X004656Y026894D03*
X004650Y026894D03*
X004648Y026894D03*
X004642Y026894D03*
X004640Y026894D03*
X004634Y026894D03*
X004632Y026894D03*
X004626Y026894D03*
X004624Y026894D03*
X004618Y026894D03*
X004616Y026894D03*
X004610Y026894D03*
X004608Y026894D03*
X004602Y026894D03*
X004600Y026894D03*
X004594Y026894D03*
X004592Y026894D03*
X004586Y026894D03*
X004584Y026894D03*
X004578Y026894D03*
X004576Y026894D03*
X004570Y026894D03*
X004568Y026894D03*
X004566Y026894D03*
X004562Y026894D03*
X004560Y026894D03*
X004558Y026894D03*
X004553Y026894D03*
X004551Y026894D03*
X004549Y026894D03*
X004545Y026894D03*
X004543Y026894D03*
X004541Y026894D03*
X004537Y026894D03*
X004535Y026894D03*
X004533Y026894D03*
X004529Y026894D03*
X004527Y026894D03*
X004525Y026894D03*
X004521Y026894D03*
X004519Y026894D03*
X004517Y026894D03*
X004513Y026894D03*
X004511Y026894D03*
X004509Y026894D03*
X004505Y026894D03*
X004503Y026894D03*
X004501Y026894D03*
X004497Y026894D03*
X004495Y026894D03*
X004493Y026894D03*
X004489Y026894D03*
X004487Y026894D03*
X004485Y026894D03*
X004481Y026894D03*
X004479Y026894D03*
X004477Y026894D03*
X004473Y026894D03*
X004471Y026894D03*
X004469Y026894D03*
X004465Y026894D03*
X004463Y026894D03*
X004461Y026894D03*
X004457Y026894D03*
X004455Y026894D03*
X004453Y026894D03*
X004449Y026894D03*
X004447Y026894D03*
X004445Y026894D03*
X004441Y026894D03*
X004439Y026894D03*
X004437Y026894D03*
X004433Y026894D03*
X004431Y026894D03*
X004429Y026894D03*
X004425Y026894D03*
X004423Y026894D03*
X004421Y026894D03*
X004417Y026894D03*
X004415Y026894D03*
X004413Y026894D03*
X004409Y026894D03*
X004407Y026894D03*
X004405Y026894D03*
X004401Y026894D03*
X004399Y026894D03*
X004396Y026894D03*
X004392Y026894D03*
X004390Y026894D03*
X004388Y026894D03*
X004384Y026894D03*
X004382Y026894D03*
X004380Y026894D03*
X004376Y026894D03*
X004374Y026894D03*
X004372Y026894D03*
X004370Y026894D03*
X004366Y026894D03*
X004364Y026894D03*
X004362Y026894D03*
X004358Y026894D03*
X004356Y026894D03*
X004354Y026892D03*
X004350Y026892D03*
X004348Y026892D03*
X004346Y026892D03*
X004342Y026892D03*
X004340Y026892D03*
X004338Y026892D03*
X004334Y026890D03*
X004332Y026890D03*
X004330Y026890D03*
X004447Y025324D03*
X004449Y025324D03*
X004453Y025324D03*
X004455Y025324D03*
X004457Y025324D03*
X004461Y025324D03*
X004463Y025324D03*
X004465Y025324D03*
X004469Y025324D03*
X004441Y025322D03*
X004439Y025322D03*
X004437Y025322D03*
X004425Y025320D03*
X004501Y025324D03*
X004503Y025324D03*
X004505Y025324D03*
X004549Y024843D03*
X004551Y024843D03*
X004553Y024843D03*
X004543Y024841D03*
X004541Y024841D03*
X004537Y024841D03*
X004535Y024841D03*
X004533Y024841D03*
X004529Y024841D03*
X004527Y024841D03*
X004519Y024839D03*
X004517Y024839D03*
X004513Y024839D03*
X004511Y024839D03*
X004509Y024839D03*
X004505Y024839D03*
X004503Y024839D03*
X004501Y024839D03*
X004497Y024839D03*
X004495Y024839D03*
X004493Y024839D03*
X004489Y024839D03*
X004487Y024839D03*
X004485Y024839D03*
X004481Y024839D03*
X004479Y024839D03*
X004477Y024839D03*
X004473Y024839D03*
X004471Y024839D03*
X004469Y024839D03*
X004465Y024839D03*
X004463Y024839D03*
X004461Y024839D03*
X004457Y024839D03*
X004455Y024839D03*
X004453Y024839D03*
X004449Y024839D03*
X004447Y024839D03*
X004445Y024839D03*
X004441Y024839D03*
X004439Y024839D03*
X004437Y024839D03*
X004433Y024839D03*
X004431Y024839D03*
X004429Y024839D03*
X004425Y024839D03*
X004423Y024839D03*
X004421Y024839D03*
X004417Y024839D03*
X004415Y024839D03*
X004413Y024839D03*
X004409Y024839D03*
X004407Y024839D03*
X004405Y024839D03*
X004401Y024839D03*
X004399Y024839D03*
X004396Y024839D03*
X004392Y024839D03*
X004390Y024839D03*
X004388Y024839D03*
X004384Y024839D03*
X004382Y024839D03*
X004380Y024839D03*
X004376Y024839D03*
X004374Y024839D03*
X004372Y024839D03*
X004370Y024839D03*
X004366Y024839D03*
X004364Y024839D03*
X004362Y024839D03*
X004358Y024839D03*
X004356Y024839D03*
X004354Y024839D03*
X004350Y024839D03*
X004348Y024839D03*
X004346Y024839D03*
X004342Y024839D03*
X004340Y024839D03*
X004338Y024839D03*
X004334Y024839D03*
X004332Y024839D03*
X004330Y024839D03*
X004326Y024839D03*
X004324Y024839D03*
X004322Y024839D03*
X004318Y024839D03*
X004316Y024839D03*
X004314Y024839D03*
X004310Y024839D03*
X004308Y024839D03*
X004306Y024839D03*
X004302Y024839D03*
X004300Y024839D03*
X004298Y024839D03*
X004294Y024839D03*
X004292Y024839D03*
X004290Y024839D03*
X004286Y024839D03*
X004284Y024839D03*
X004282Y024839D03*
X004278Y024839D03*
X004276Y024839D03*
X004274Y024839D03*
X004270Y024839D03*
X004268Y024839D03*
X004266Y024839D03*
X004262Y024839D03*
X004260Y024839D03*
X004258Y024839D03*
X004254Y024839D03*
X004252Y024839D03*
X004250Y024839D03*
X004246Y024839D03*
X004244Y024839D03*
X004242Y024839D03*
X004237Y024839D03*
X004235Y024839D03*
X004233Y024839D03*
X004229Y024839D03*
X004227Y024839D03*
X004225Y024839D03*
X004221Y024839D03*
X004219Y024839D03*
X004217Y024839D03*
X004213Y024839D03*
X004211Y024839D03*
X004209Y024839D03*
X004205Y024839D03*
X004203Y024839D03*
X004201Y024839D03*
X004197Y024839D03*
X004195Y024839D03*
X004193Y024839D03*
X004189Y024839D03*
X004300Y024569D03*
X004300Y023148D03*
X004302Y023148D03*
X004306Y023148D03*
X004308Y023148D03*
X004310Y023148D03*
X004314Y023148D03*
X004316Y023148D03*
X004318Y023148D03*
X004322Y023148D03*
X004324Y023148D03*
X004326Y023148D03*
X004330Y023148D03*
X004332Y023148D03*
X004334Y023148D03*
X004338Y023148D03*
X004340Y023148D03*
X004342Y023148D03*
X004346Y023148D03*
X004348Y023148D03*
X004350Y023148D03*
X004354Y023148D03*
X004356Y023148D03*
X004358Y023148D03*
X004362Y023148D03*
X004364Y023148D03*
X004366Y023148D03*
X004370Y023148D03*
X004372Y023148D03*
X004374Y023148D03*
X004376Y023148D03*
X004380Y023148D03*
X004382Y023148D03*
X004384Y023148D03*
X004388Y023148D03*
X004390Y023148D03*
X004392Y023148D03*
X004396Y023148D03*
X004399Y023148D03*
X004401Y023148D03*
X004405Y023148D03*
X004407Y023148D03*
X004409Y023148D03*
X004413Y023148D03*
X004415Y023148D03*
X004417Y023148D03*
X004421Y023148D03*
X004423Y023148D03*
X004425Y023148D03*
X004429Y023148D03*
X004431Y023148D03*
X004433Y023148D03*
X004437Y023148D03*
X004439Y023148D03*
X004441Y023148D03*
X004445Y023148D03*
X004447Y023148D03*
X004449Y023148D03*
X004453Y023148D03*
X004455Y023148D03*
X004457Y023148D03*
X004461Y023148D03*
X004463Y023148D03*
X004465Y023148D03*
X004469Y023148D03*
X004471Y023148D03*
X004473Y023148D03*
X004477Y023148D03*
X004479Y023148D03*
X004481Y023148D03*
X004485Y023148D03*
X004487Y023148D03*
X004489Y023148D03*
X004493Y023148D03*
X004495Y023148D03*
X004497Y023148D03*
X004501Y023148D03*
X004503Y023148D03*
X004505Y023148D03*
X004509Y023148D03*
X004511Y023148D03*
X004513Y023148D03*
X004517Y023148D03*
X004519Y023148D03*
X004521Y023148D03*
X004525Y023148D03*
X004527Y023148D03*
X004529Y023148D03*
X004533Y023148D03*
X004535Y023148D03*
X004537Y023148D03*
X004541Y023148D03*
X004543Y023148D03*
X004545Y023148D03*
X004549Y023148D03*
X004551Y023148D03*
X004553Y023148D03*
X004558Y023148D03*
X004560Y023148D03*
X004562Y023148D03*
X004558Y022824D03*
X004553Y022824D03*
X004551Y022824D03*
X004549Y022824D03*
X004545Y022824D03*
X004543Y022824D03*
X004541Y022824D03*
X004537Y022824D03*
X004535Y022824D03*
X004533Y022824D03*
X004529Y022824D03*
X004527Y022824D03*
X004525Y022824D03*
X004521Y022824D03*
X004519Y022824D03*
X004517Y022824D03*
X004513Y022824D03*
X004511Y022824D03*
X004509Y022824D03*
X004505Y022824D03*
X004503Y022824D03*
X004501Y022824D03*
X004497Y022824D03*
X004495Y022824D03*
X004493Y022824D03*
X004489Y022824D03*
X004487Y022824D03*
X004485Y022824D03*
X004481Y022824D03*
X004479Y022824D03*
X004477Y022824D03*
X004473Y022824D03*
X004471Y022824D03*
X004469Y022824D03*
X004465Y022824D03*
X004463Y022824D03*
X004461Y022824D03*
X004457Y022824D03*
X004455Y022824D03*
X004453Y022824D03*
X004449Y022824D03*
X004447Y022824D03*
X004445Y022824D03*
X004441Y022824D03*
X004439Y022824D03*
X004437Y022824D03*
X004433Y022824D03*
X004431Y022824D03*
X004429Y022824D03*
X004425Y022824D03*
X004423Y022824D03*
X004421Y022824D03*
X004417Y022824D03*
X004415Y022824D03*
X004413Y022824D03*
X004409Y022824D03*
X004407Y022824D03*
X004405Y022824D03*
X004401Y022824D03*
X004399Y022824D03*
X004396Y022824D03*
X004392Y022824D03*
X004390Y022824D03*
X004388Y022824D03*
X004384Y022824D03*
X004382Y022824D03*
X004380Y022824D03*
X004376Y022824D03*
X004374Y022824D03*
X004372Y022824D03*
X004370Y022824D03*
X004366Y022824D03*
X004364Y022824D03*
X004362Y022824D03*
X004358Y022824D03*
X004356Y022824D03*
X004354Y022824D03*
X004350Y022824D03*
X004348Y022824D03*
X004346Y022824D03*
X004342Y022824D03*
X004340Y022824D03*
X004338Y022824D03*
X004334Y022824D03*
X004332Y022824D03*
X004330Y022824D03*
X004326Y022824D03*
X004324Y022824D03*
X004322Y022824D03*
X004318Y022824D03*
X004316Y022824D03*
X004314Y022824D03*
X004310Y022824D03*
X004308Y022824D03*
X004306Y022824D03*
X004302Y022824D03*
X004300Y022824D03*
X004298Y022824D03*
X004294Y022824D03*
X004292Y022824D03*
X004290Y022824D03*
X004286Y022824D03*
X004284Y022824D03*
X004282Y022824D03*
X004278Y022824D03*
X004276Y022824D03*
X004274Y022824D03*
X004270Y022824D03*
X004268Y022824D03*
X004266Y022824D03*
X004262Y022824D03*
X004260Y022824D03*
X004258Y022824D03*
X004254Y022824D03*
X004252Y022824D03*
X004250Y022824D03*
X004246Y022824D03*
X004244Y022824D03*
X004242Y022824D03*
X004237Y022824D03*
X004235Y022824D03*
X004233Y022824D03*
X004229Y022824D03*
X004227Y022824D03*
X004225Y022824D03*
X004221Y022824D03*
X004219Y022824D03*
X004217Y022824D03*
X004213Y022824D03*
X004211Y022824D03*
X004209Y022824D03*
X004205Y022824D03*
X004203Y022824D03*
X004201Y022824D03*
X004197Y022824D03*
X004195Y022824D03*
X004193Y022824D03*
X004189Y022824D03*
X004189Y023148D03*
X004193Y023148D03*
X004195Y023148D03*
X004197Y023148D03*
X004201Y023148D03*
X004203Y023148D03*
X004205Y023148D03*
X004209Y023148D03*
X004211Y023148D03*
X004213Y023148D03*
X004217Y023148D03*
X004219Y023148D03*
X004221Y023148D03*
X004225Y023148D03*
X004227Y023148D03*
X004229Y023148D03*
X004233Y023148D03*
X004235Y023148D03*
X004237Y023148D03*
X004242Y023148D03*
X004244Y023148D03*
X004246Y023148D03*
X004250Y023148D03*
X004252Y023148D03*
X004254Y023148D03*
X004258Y023148D03*
X004260Y023148D03*
X004262Y023148D03*
X004266Y023148D03*
X004268Y023148D03*
X004270Y023148D03*
X004274Y023148D03*
X004276Y023148D03*
X004278Y023148D03*
X004282Y023148D03*
X004284Y023148D03*
X004286Y023148D03*
X004290Y023148D03*
X004292Y023148D03*
X004294Y023148D03*
X004298Y023148D03*
X004298Y022500D03*
X004300Y022500D03*
X004302Y022500D03*
X004306Y022500D03*
X004308Y022500D03*
X004310Y022500D03*
X004314Y022500D03*
X004316Y022500D03*
X004318Y022500D03*
X004322Y022500D03*
X004324Y022500D03*
X004326Y022500D03*
X004330Y022500D03*
X004332Y022500D03*
X004334Y022500D03*
X004338Y022500D03*
X004340Y022500D03*
X004342Y022500D03*
X004346Y022500D03*
X004348Y022500D03*
X004350Y022500D03*
X004354Y022500D03*
X004356Y022500D03*
X004358Y022500D03*
X004362Y022500D03*
X004364Y022500D03*
X004366Y022500D03*
X004370Y022500D03*
X004372Y022500D03*
X004374Y022500D03*
X004376Y022500D03*
X004380Y022500D03*
X004382Y022500D03*
X004384Y022500D03*
X004388Y022500D03*
X004390Y022500D03*
X004392Y022500D03*
X004396Y022500D03*
X004399Y022500D03*
X004401Y022500D03*
X004405Y022500D03*
X004407Y022500D03*
X004409Y022500D03*
X004413Y022500D03*
X004415Y022500D03*
X004417Y022500D03*
X004421Y022500D03*
X004423Y022500D03*
X004425Y022500D03*
X004429Y022500D03*
X004431Y022500D03*
X004433Y022500D03*
X004437Y022500D03*
X004439Y022500D03*
X004441Y022500D03*
X004445Y022500D03*
X004447Y022500D03*
X004449Y022500D03*
X004453Y022500D03*
X004455Y022500D03*
X004457Y022500D03*
X004461Y022500D03*
X004463Y022500D03*
X004465Y022500D03*
X004469Y022500D03*
X004471Y022500D03*
X004473Y022500D03*
X004477Y022500D03*
X004479Y022500D03*
X004481Y022500D03*
X004485Y022500D03*
X004487Y022500D03*
X004489Y022500D03*
X004493Y022500D03*
X004495Y022500D03*
X004497Y022500D03*
X004501Y022500D03*
X004503Y022500D03*
X004505Y022500D03*
X004509Y022500D03*
X004511Y022500D03*
X004513Y022500D03*
X004517Y022500D03*
X004519Y022500D03*
X004521Y022500D03*
X004525Y022500D03*
X004527Y022500D03*
X004529Y022500D03*
X004533Y022500D03*
X004535Y022500D03*
X004537Y022500D03*
X004541Y022500D03*
X004543Y022500D03*
X004545Y022500D03*
X004549Y022500D03*
X004551Y022500D03*
X004553Y022500D03*
X004558Y022500D03*
X004560Y022500D03*
X004562Y022500D03*
X004566Y022500D03*
X004568Y022500D03*
X004570Y022500D03*
X004294Y022500D03*
X004292Y022500D03*
X004290Y022500D03*
X004286Y022500D03*
X004284Y022500D03*
X004282Y022500D03*
X004278Y022500D03*
X004276Y022500D03*
X004274Y022500D03*
X004270Y022500D03*
X004268Y022500D03*
X004266Y022500D03*
X004262Y022500D03*
X004260Y022500D03*
X004258Y022500D03*
X004254Y022500D03*
X004252Y022500D03*
X004250Y022500D03*
X004246Y022500D03*
X004244Y022500D03*
X004242Y022500D03*
X004237Y022500D03*
X004235Y022500D03*
X004233Y022500D03*
X004229Y022500D03*
X004227Y022500D03*
X004225Y022500D03*
X004221Y022500D03*
X004219Y022500D03*
X004217Y022500D03*
X004213Y022500D03*
X004211Y022500D03*
X004209Y022500D03*
X004205Y022500D03*
X004203Y022500D03*
X004201Y022500D03*
X004197Y022500D03*
X004195Y022500D03*
X004193Y022500D03*
X004189Y022500D03*
D135*
X004572Y027153D03*
X004580Y027153D03*
X004588Y027153D03*
X004596Y027153D03*
X004604Y027153D03*
X004612Y027153D03*
X004620Y027153D03*
X004628Y027153D03*
X004636Y027153D03*
X004644Y027153D03*
X004652Y027153D03*
X004660Y027153D03*
X004668Y027153D03*
X004676Y027153D03*
X004684Y027153D03*
X004692Y027153D03*
X004700Y027153D03*
X004708Y027153D03*
X004717Y027153D03*
X004725Y027153D03*
X004733Y027153D03*
X004741Y027153D03*
X004749Y027153D03*
X004757Y027153D03*
X004765Y027153D03*
X004773Y027153D03*
X004781Y027153D03*
X004789Y027153D03*
X004797Y027153D03*
X004805Y027153D03*
X004813Y027153D03*
X004821Y027153D03*
X004829Y027153D03*
X004837Y027153D03*
X004845Y027153D03*
X004853Y027153D03*
X004861Y027153D03*
X004869Y027153D03*
X004878Y027153D03*
X004886Y027153D03*
X004894Y027153D03*
X004902Y027153D03*
X004910Y027153D03*
X004918Y027153D03*
X004926Y027153D03*
X004934Y027153D03*
X004942Y027153D03*
X004950Y027153D03*
X004958Y027153D03*
X004966Y027153D03*
X004974Y027153D03*
X004982Y027153D03*
X004990Y027153D03*
X004998Y027153D03*
X005006Y027153D03*
X005014Y027153D03*
X005022Y027153D03*
X005031Y027153D03*
X004135Y027733D03*
X004127Y027735D03*
X004119Y027737D03*
D136*
X004121Y027737D03*
X004123Y027737D03*
X004181Y027962D03*
X004449Y028202D03*
X004453Y028202D03*
X004455Y028202D03*
X004457Y028202D03*
X004461Y028202D03*
X004463Y028202D03*
X004465Y028202D03*
X004469Y028202D03*
X004471Y028202D03*
X004473Y028202D03*
X004477Y028202D03*
X004479Y028202D03*
X004481Y028202D03*
X004481Y027153D03*
X004479Y027153D03*
X004477Y027153D03*
X004473Y027153D03*
X004471Y027153D03*
X004469Y027153D03*
X004465Y027153D03*
X004463Y027153D03*
X004461Y027153D03*
X004457Y027153D03*
X004455Y027153D03*
X004453Y027153D03*
X004449Y027153D03*
X004447Y027153D03*
X004445Y027153D03*
X004441Y027153D03*
X004439Y027153D03*
X004437Y027153D03*
X004433Y027153D03*
X004431Y027153D03*
X004429Y027153D03*
X004425Y027153D03*
X004423Y027153D03*
X004421Y027153D03*
X004417Y027153D03*
X004415Y027153D03*
X004413Y027153D03*
X004409Y027153D03*
X004407Y027153D03*
X004405Y027153D03*
X004401Y027153D03*
X004399Y027153D03*
X004396Y027153D03*
X004392Y027153D03*
X004390Y027153D03*
X004388Y027153D03*
X004384Y027153D03*
X004382Y027153D03*
X004380Y027153D03*
X004376Y027153D03*
X004374Y027153D03*
X004372Y027153D03*
X004370Y027153D03*
X004366Y027153D03*
X004364Y027153D03*
X004362Y027153D03*
X004358Y027153D03*
X004356Y027153D03*
X004354Y027153D03*
X004350Y027153D03*
X004348Y027153D03*
X004346Y027153D03*
X004342Y027153D03*
X004340Y027153D03*
X004338Y027153D03*
X004334Y027153D03*
X004332Y027153D03*
X004330Y027153D03*
X004326Y027153D03*
X004324Y027153D03*
X004322Y027153D03*
X004318Y027153D03*
X004316Y027153D03*
X004314Y027153D03*
X004310Y027153D03*
X004308Y027153D03*
X004306Y027153D03*
X004302Y027153D03*
X004300Y027153D03*
X004298Y027153D03*
X004294Y027153D03*
X004292Y027153D03*
X004290Y027153D03*
X004286Y027153D03*
X004284Y027153D03*
X004282Y027153D03*
X004278Y027153D03*
X004276Y027153D03*
X004274Y027153D03*
X004270Y027153D03*
X004268Y027153D03*
X004266Y027153D03*
X004262Y027153D03*
X004260Y027153D03*
X004258Y027153D03*
X004254Y027153D03*
X004252Y027153D03*
X004250Y027153D03*
X004246Y027153D03*
X004244Y027153D03*
X004242Y027153D03*
X004237Y027153D03*
X004235Y027153D03*
X004233Y027153D03*
X004229Y027153D03*
X004227Y027153D03*
X004225Y027153D03*
X004221Y027153D03*
X004219Y027153D03*
X004217Y027153D03*
X004213Y027153D03*
X004211Y027153D03*
X004209Y027153D03*
X004205Y027153D03*
X004203Y027153D03*
X004201Y027153D03*
X004197Y027153D03*
X004195Y027153D03*
X004193Y027153D03*
X004189Y027153D03*
X004485Y027153D03*
X004487Y027153D03*
X004489Y027153D03*
X004493Y027153D03*
X004495Y027153D03*
X004497Y027153D03*
X004501Y027153D03*
X004503Y027153D03*
X004505Y027153D03*
X004509Y027153D03*
X004511Y027153D03*
X004513Y027153D03*
X004517Y027153D03*
X004519Y027153D03*
X004521Y027153D03*
X004525Y027153D03*
X004527Y027153D03*
X004529Y027153D03*
X004533Y027153D03*
X004535Y027153D03*
X004537Y027153D03*
X004541Y027153D03*
X004543Y027153D03*
X004545Y027153D03*
X004549Y027153D03*
X004551Y027153D03*
X004553Y027153D03*
X004558Y027153D03*
X004560Y027153D03*
X004562Y027153D03*
X004566Y027153D03*
X004568Y027153D03*
X004570Y027153D03*
X004576Y027153D03*
X004578Y027153D03*
X004584Y027153D03*
X004586Y027153D03*
X004592Y027153D03*
X004594Y027153D03*
X004600Y027153D03*
X004602Y027153D03*
X004608Y027153D03*
X004610Y027153D03*
X004616Y027153D03*
X004618Y027153D03*
X004624Y027153D03*
X004626Y027153D03*
X004632Y027153D03*
X004634Y027153D03*
X004640Y027153D03*
X004642Y027153D03*
X004648Y027153D03*
X004650Y027153D03*
X004656Y027153D03*
X004658Y027153D03*
X004664Y027153D03*
X004666Y027153D03*
X004672Y027153D03*
X004674Y027153D03*
X004680Y027153D03*
X004682Y027153D03*
X004688Y027153D03*
X004690Y027153D03*
X004696Y027153D03*
X004698Y027153D03*
X004704Y027153D03*
X004706Y027153D03*
X004712Y027153D03*
X004715Y027153D03*
X004721Y027153D03*
X004723Y027153D03*
X004729Y027153D03*
X004731Y027153D03*
X004737Y027153D03*
X004739Y027153D03*
X004745Y027153D03*
X004747Y027153D03*
X004753Y027153D03*
X004755Y027153D03*
X004761Y027153D03*
X004763Y027153D03*
X004767Y027153D03*
X004771Y027153D03*
X004775Y027153D03*
X004779Y027153D03*
X004783Y027153D03*
X004787Y027153D03*
X004791Y027153D03*
X004795Y027153D03*
X004799Y027153D03*
X004803Y027153D03*
X004807Y027153D03*
X004811Y027153D03*
X004815Y027153D03*
X004819Y027153D03*
X004823Y027153D03*
X004827Y027153D03*
X004831Y027153D03*
X004835Y027153D03*
X004839Y027153D03*
X004843Y027153D03*
X004847Y027153D03*
X004851Y027153D03*
X004855Y027153D03*
X004859Y027153D03*
X004863Y027153D03*
X004867Y027153D03*
X004872Y027153D03*
X004876Y027153D03*
X004880Y027153D03*
X004884Y027153D03*
X004888Y027153D03*
X004892Y027153D03*
X004896Y027153D03*
X004900Y027153D03*
X004904Y027153D03*
X004908Y027153D03*
X004912Y027153D03*
X004916Y027153D03*
X004920Y027153D03*
X004924Y027153D03*
X004928Y027153D03*
X004932Y027153D03*
X004936Y027153D03*
X004940Y027153D03*
X004944Y027153D03*
X004948Y027153D03*
X004952Y027153D03*
X004956Y027153D03*
X004960Y027153D03*
X004964Y027153D03*
X004968Y027153D03*
X004970Y027153D03*
X004976Y027153D03*
X004978Y027153D03*
X004984Y027153D03*
X004986Y027153D03*
X004992Y027153D03*
X004994Y027153D03*
X005000Y027153D03*
X005002Y027153D03*
X005008Y027153D03*
X005010Y027153D03*
X005016Y027153D03*
X005018Y027153D03*
X005024Y027153D03*
X005026Y027153D03*
X005033Y027153D03*
X004417Y025318D03*
D137*
X004777Y025076D03*
X004777Y027153D03*
X004785Y027153D03*
X004793Y027153D03*
X004801Y027153D03*
X004809Y027153D03*
X004817Y027153D03*
X004825Y027153D03*
X004833Y027153D03*
X004841Y027153D03*
X004849Y027153D03*
X004857Y027153D03*
X004865Y027153D03*
X004874Y027153D03*
X004882Y027153D03*
X004890Y027153D03*
X004898Y027153D03*
X004906Y027153D03*
X004914Y027153D03*
X004922Y027153D03*
X004930Y027153D03*
X004938Y027153D03*
X004946Y027153D03*
X004954Y027153D03*
X004962Y027153D03*
X004972Y027153D03*
X004980Y027153D03*
X004988Y027153D03*
X004996Y027153D03*
X005004Y027153D03*
X005012Y027153D03*
X005020Y027153D03*
X005029Y027153D03*
X004769Y027153D03*
X004759Y027153D03*
X004751Y027153D03*
X004743Y027153D03*
X004735Y027153D03*
X004727Y027153D03*
X004719Y027153D03*
X004710Y027153D03*
X004702Y027153D03*
X004694Y027153D03*
X004686Y027153D03*
X004678Y027153D03*
X004670Y027153D03*
X004662Y027153D03*
X004654Y027153D03*
X004646Y027153D03*
X004638Y027153D03*
X004630Y027153D03*
X004622Y027153D03*
X004614Y027153D03*
X004606Y027153D03*
X004598Y027153D03*
X004590Y027153D03*
X004582Y027153D03*
X004574Y027153D03*
X004564Y027153D03*
X004555Y027153D03*
X004547Y027153D03*
X004539Y027153D03*
X004531Y027153D03*
X004523Y027153D03*
X004515Y027153D03*
X004507Y027153D03*
X004499Y027153D03*
X004491Y027153D03*
X004483Y027153D03*
X004475Y027153D03*
X004467Y027153D03*
X004459Y027153D03*
X004451Y027153D03*
X004443Y027153D03*
X004435Y027153D03*
X004427Y027153D03*
X004419Y027153D03*
X004411Y027153D03*
X004403Y027153D03*
X004394Y027153D03*
X004386Y027153D03*
X004378Y027153D03*
X004368Y027153D03*
X004360Y027153D03*
X004352Y027153D03*
X004344Y027153D03*
X004336Y027153D03*
X004328Y027153D03*
X004320Y027153D03*
X004312Y027153D03*
X004304Y027153D03*
X004296Y027153D03*
X004288Y027153D03*
X004280Y027153D03*
X004272Y027153D03*
X004264Y027153D03*
X004256Y027153D03*
X004248Y027153D03*
X004239Y027153D03*
X004231Y027153D03*
X004223Y027153D03*
X004215Y027153D03*
X004207Y027153D03*
X004199Y027153D03*
X004191Y027153D03*
X004133Y027733D03*
X004125Y027735D03*
X004451Y028202D03*
X004459Y028202D03*
X004467Y028202D03*
X004475Y028202D03*
X004483Y028202D03*
D138*
X004175Y027726D03*
X004167Y027726D03*
X004159Y027728D03*
X004151Y027730D03*
X004143Y027730D03*
D139*
X004145Y027730D03*
X004147Y027730D03*
X004153Y027728D03*
X004155Y027728D03*
X004161Y027728D03*
X004163Y027728D03*
X004169Y027726D03*
X004171Y027726D03*
X004177Y027726D03*
X004179Y027726D03*
X004193Y027724D03*
X004195Y027724D03*
X004197Y027724D03*
X004201Y027724D03*
X004203Y027724D03*
X004205Y027724D03*
D140*
X004199Y027724D03*
X004191Y027724D03*
X004173Y027726D03*
X004165Y027726D03*
X004157Y027728D03*
X004149Y027730D03*
D141*
X004177Y027960D03*
X004779Y022993D03*
D142*
X004187Y024569D03*
X004302Y024967D03*
X004177Y025092D03*
X004177Y026280D03*
X004405Y026374D03*
X004294Y027850D03*
X004779Y027956D03*
D143*
X004779Y023597D03*
X004177Y023597D03*
D144*
X004290Y024978D03*
X004179Y027961D03*
D145*
X004179Y026279D03*
X004286Y024984D03*
D146*
X004179Y025093D03*
D147*
X004179Y023597D03*
D148*
X004181Y024570D03*
X004314Y027829D03*
D149*
X004183Y027963D03*
X004606Y026492D03*
X004360Y026059D03*
X004352Y026063D03*
X004378Y025498D03*
X004344Y025286D03*
X004288Y024570D03*
X004590Y024266D03*
X004606Y023384D03*
X004352Y023382D03*
X004646Y023127D03*
X004646Y022519D03*
D150*
X004564Y022500D03*
X004555Y022500D03*
X004547Y022500D03*
X004539Y022500D03*
X004531Y022500D03*
X004523Y022500D03*
X004515Y022500D03*
X004507Y022500D03*
X004499Y022500D03*
X004491Y022500D03*
X004483Y022500D03*
X004475Y022500D03*
X004467Y022500D03*
X004459Y022500D03*
X004451Y022500D03*
X004443Y022500D03*
X004435Y022500D03*
X004427Y022500D03*
X004419Y022500D03*
X004411Y022500D03*
X004403Y022500D03*
X004394Y022500D03*
X004386Y022500D03*
X004378Y022500D03*
X004368Y022500D03*
X004360Y022500D03*
X004352Y022500D03*
X004344Y022500D03*
X004336Y022500D03*
X004328Y022500D03*
X004320Y022500D03*
X004312Y022500D03*
X004304Y022500D03*
X004296Y022500D03*
X004288Y022500D03*
X004280Y022500D03*
X004272Y022500D03*
X004264Y022500D03*
X004256Y022500D03*
X004248Y022500D03*
X004239Y022500D03*
X004231Y022500D03*
X004223Y022500D03*
X004215Y022500D03*
X004207Y022500D03*
X004199Y022500D03*
X004191Y022500D03*
X004191Y022824D03*
X004199Y022824D03*
X004207Y022824D03*
X004215Y022824D03*
X004223Y022824D03*
X004231Y022824D03*
X004239Y022824D03*
X004248Y022824D03*
X004256Y022824D03*
X004264Y022824D03*
X004272Y022824D03*
X004280Y022824D03*
X004288Y022824D03*
X004296Y022824D03*
X004304Y022824D03*
X004312Y022824D03*
X004320Y022824D03*
X004328Y022824D03*
X004336Y022824D03*
X004344Y022824D03*
X004352Y022824D03*
X004360Y022824D03*
X004368Y022824D03*
X004378Y022824D03*
X004386Y022824D03*
X004394Y022824D03*
X004403Y022824D03*
X004411Y022824D03*
X004419Y022824D03*
X004427Y022824D03*
X004435Y022824D03*
X004443Y022824D03*
X004451Y022824D03*
X004459Y022824D03*
X004467Y022824D03*
X004475Y022824D03*
X004483Y022824D03*
X004491Y022824D03*
X004499Y022824D03*
X004507Y022824D03*
X004515Y022824D03*
X004523Y022824D03*
X004531Y022824D03*
X004539Y022824D03*
X004547Y022824D03*
X004555Y022824D03*
X004555Y023148D03*
X004547Y023148D03*
X004539Y023148D03*
X004531Y023148D03*
X004523Y023148D03*
X004515Y023148D03*
X004507Y023148D03*
X004499Y023148D03*
X004491Y023148D03*
X004483Y023148D03*
X004475Y023148D03*
X004467Y023148D03*
X004459Y023148D03*
X004451Y023148D03*
X004443Y023148D03*
X004435Y023148D03*
X004427Y023148D03*
X004419Y023148D03*
X004411Y023148D03*
X004403Y023148D03*
X004394Y023148D03*
X004386Y023148D03*
X004378Y023148D03*
X004368Y023148D03*
X004360Y023148D03*
X004352Y023148D03*
X004344Y023148D03*
X004336Y023148D03*
X004328Y023148D03*
X004320Y023148D03*
X004312Y023148D03*
X004304Y023148D03*
X004296Y023148D03*
X004288Y023148D03*
X004280Y023148D03*
X004272Y023148D03*
X004264Y023148D03*
X004256Y023148D03*
X004248Y023148D03*
X004239Y023148D03*
X004231Y023148D03*
X004223Y023148D03*
X004215Y023148D03*
X004207Y023148D03*
X004199Y023148D03*
X004191Y023148D03*
X004564Y023148D03*
X004515Y024839D03*
X004507Y024839D03*
X004499Y024839D03*
X004491Y024839D03*
X004483Y024839D03*
X004475Y024839D03*
X004467Y024839D03*
X004459Y024839D03*
X004451Y024839D03*
X004443Y024839D03*
X004435Y024839D03*
X004427Y024839D03*
X004419Y024839D03*
X004411Y024839D03*
X004403Y024839D03*
X004394Y024839D03*
X004386Y024839D03*
X004378Y024839D03*
X004368Y024839D03*
X004360Y024839D03*
X004352Y024839D03*
X004344Y024839D03*
X004336Y024839D03*
X004328Y024839D03*
X004320Y024839D03*
X004312Y024839D03*
X004304Y024839D03*
X004296Y024839D03*
X004288Y024839D03*
X004280Y024839D03*
X004272Y024839D03*
X004264Y024839D03*
X004256Y024839D03*
X004248Y024839D03*
X004239Y024839D03*
X004231Y024839D03*
X004223Y024839D03*
X004215Y024839D03*
X004207Y024839D03*
X004199Y024839D03*
X004191Y024839D03*
X004531Y024841D03*
X004539Y024841D03*
X004499Y025324D03*
X004467Y025324D03*
X004459Y025324D03*
X004451Y025324D03*
X004443Y025322D03*
X004435Y025322D03*
X004427Y025320D03*
X004352Y026892D03*
X004344Y026892D03*
X004360Y026894D03*
X004368Y026894D03*
X004378Y026894D03*
X004386Y026894D03*
X004394Y026894D03*
X004403Y026894D03*
X004411Y026894D03*
X004419Y026894D03*
X004427Y026894D03*
X004435Y026894D03*
X004443Y026894D03*
X004451Y026894D03*
X004459Y026894D03*
X004467Y026894D03*
X004475Y026894D03*
X004483Y026894D03*
X004491Y026894D03*
X004499Y026894D03*
X004507Y026894D03*
X004515Y026894D03*
X004523Y026894D03*
X004531Y026894D03*
X004539Y026894D03*
X004547Y026894D03*
X004555Y026894D03*
X004564Y026894D03*
X004574Y026894D03*
X004582Y026894D03*
X004590Y026894D03*
X004598Y026894D03*
X004606Y026894D03*
X004614Y026894D03*
X004622Y026894D03*
X004630Y026894D03*
X004638Y026894D03*
X004646Y026894D03*
X004654Y026894D03*
X004662Y026894D03*
X004769Y026894D03*
X004777Y026894D03*
X004785Y026894D03*
X004793Y026894D03*
X004801Y026894D03*
X004809Y026894D03*
X004817Y026894D03*
X004825Y026894D03*
X004833Y026894D03*
X004841Y026894D03*
X004849Y026894D03*
X004857Y026894D03*
X004865Y026894D03*
X004874Y026894D03*
X004882Y026894D03*
X004890Y026894D03*
X004898Y026894D03*
X004906Y026894D03*
X004759Y027453D03*
X004751Y027453D03*
X004743Y027453D03*
X004735Y027453D03*
X004727Y027453D03*
X004719Y027453D03*
X004710Y027453D03*
X004702Y027453D03*
X004694Y027453D03*
X004686Y027453D03*
X004678Y027453D03*
X004670Y027453D03*
X004662Y027453D03*
X004654Y027453D03*
X004646Y027453D03*
X004638Y027453D03*
X004630Y027453D03*
X004622Y027453D03*
X004614Y027453D03*
X004606Y027453D03*
X004598Y027453D03*
X004590Y027453D03*
X004582Y027453D03*
X004574Y027453D03*
X004564Y027453D03*
X004555Y027453D03*
X004547Y027453D03*
X004539Y027453D03*
X004531Y027453D03*
X004523Y027453D03*
X004515Y027453D03*
X004507Y027453D03*
X004499Y027453D03*
X004491Y027453D03*
X004483Y027453D03*
X004475Y027453D03*
X004467Y027453D03*
X004459Y027453D03*
X004451Y027453D03*
X004443Y027453D03*
X004435Y027453D03*
X004427Y027453D03*
X004419Y027453D03*
X004411Y027453D03*
X004403Y027453D03*
X004394Y027453D03*
X004386Y027453D03*
X004378Y027453D03*
X004368Y027453D03*
X004360Y027453D03*
X004352Y027453D03*
X004344Y027453D03*
X004336Y027453D03*
X004328Y027453D03*
X004320Y027453D03*
X004312Y027453D03*
X004304Y027453D03*
X004296Y027453D03*
X004288Y027453D03*
X004280Y027453D03*
X004272Y027453D03*
X004264Y027453D03*
X004256Y027453D03*
X004248Y027453D03*
X004239Y027453D03*
X004231Y027453D03*
X004223Y027453D03*
X004215Y027453D03*
X004207Y027453D03*
X004199Y027453D03*
X004191Y027453D03*
X004207Y027723D03*
X004215Y027723D03*
X004223Y027723D03*
X004231Y027723D03*
X004239Y027723D03*
X004248Y027723D03*
X004256Y027723D03*
X004264Y027723D03*
X004272Y027723D03*
X004280Y027723D03*
X004288Y027723D03*
X004296Y027723D03*
X004304Y027723D03*
X004312Y027723D03*
X004320Y027723D03*
X004328Y027723D03*
X004336Y027723D03*
X004344Y027723D03*
X004352Y027723D03*
X004360Y027723D03*
X004368Y027723D03*
X004378Y027723D03*
X004386Y027723D03*
X004394Y027723D03*
X004403Y027723D03*
X004411Y027723D03*
X004419Y027723D03*
X004427Y027723D03*
X004435Y027723D03*
X004443Y027723D03*
X004451Y027723D03*
X004459Y027723D03*
X004467Y027723D03*
X004475Y027723D03*
X004183Y027725D03*
X004427Y028198D03*
X004435Y028200D03*
X004443Y028200D03*
X004499Y028200D03*
D151*
X004638Y027778D03*
X004183Y026279D03*
X004312Y025262D03*
X004638Y025270D03*
X004622Y024242D03*
X004336Y024244D03*
D152*
X004280Y024570D03*
X004183Y025093D03*
X004386Y025504D03*
X004622Y025282D03*
X004328Y026476D03*
X004296Y026868D03*
X004328Y023793D03*
X004328Y023398D03*
X004630Y023400D03*
D153*
X004183Y024569D03*
X004394Y026380D03*
D154*
X004320Y026470D03*
X004574Y025838D03*
X004630Y025276D03*
X004183Y023596D03*
X004662Y023115D03*
X004662Y022533D03*
D155*
X004640Y025268D03*
X004392Y025510D03*
X004634Y026089D03*
X004185Y027963D03*
X004310Y028138D03*
D156*
X004187Y027963D03*
X004658Y027798D03*
X004771Y027957D03*
X004658Y026446D03*
X004447Y026347D03*
X004298Y026446D03*
X004185Y026279D03*
X004401Y025520D03*
X004640Y024222D03*
D157*
X004648Y023774D03*
X004650Y023772D03*
X004308Y023774D03*
X004306Y023772D03*
X004306Y023420D03*
X004308Y023418D03*
X004648Y023418D03*
X004650Y023420D03*
X004632Y022824D03*
X004648Y024893D03*
X004306Y025255D03*
X004185Y025094D03*
X004568Y025831D03*
X004664Y025831D03*
X004618Y026084D03*
X004302Y026103D03*
X004292Y026859D03*
X004648Y027787D03*
X004656Y028127D03*
D158*
X004185Y024569D03*
D159*
X004322Y024230D03*
X004185Y023596D03*
X004771Y023596D03*
X004566Y025828D03*
X004616Y026085D03*
D160*
X004453Y026343D03*
X004187Y026279D03*
X004409Y025532D03*
X004666Y024918D03*
D161*
X004308Y024212D03*
X004187Y023596D03*
X004290Y026434D03*
X004666Y026434D03*
X004666Y027810D03*
D162*
X004189Y027963D03*
X004558Y025816D03*
X004407Y025528D03*
X004290Y025234D03*
X004664Y024914D03*
D163*
X004771Y025076D03*
X004666Y025237D03*
X004608Y026090D03*
X004189Y026716D03*
D164*
X004189Y026279D03*
X004551Y025806D03*
X004767Y027957D03*
D165*
X004189Y025747D03*
X004761Y025625D03*
X004290Y024119D03*
X004706Y022992D03*
D166*
X004648Y022824D03*
X004650Y024209D03*
X004306Y024209D03*
X004189Y025094D03*
D167*
X004189Y024569D03*
D168*
X004221Y024569D03*
X004282Y024569D03*
X004284Y024569D03*
X004350Y024255D03*
X004189Y024021D03*
X004334Y023798D03*
X004332Y023796D03*
X004330Y023794D03*
X004338Y023800D03*
X004618Y023800D03*
X004624Y023796D03*
X004626Y023794D03*
X004767Y024021D03*
X004626Y023397D03*
X004624Y023395D03*
X004618Y023391D03*
X004656Y023120D03*
X004771Y022993D03*
X004616Y022824D03*
X004771Y022655D03*
X004338Y023391D03*
X004334Y023393D03*
X004332Y023395D03*
X004330Y023397D03*
X004330Y025277D03*
X004618Y025285D03*
X004334Y026074D03*
X004332Y026076D03*
X004330Y026076D03*
X004332Y026479D03*
X004334Y026481D03*
X004624Y026479D03*
X004624Y027767D03*
X004634Y028150D03*
X004326Y028154D03*
X004324Y028152D03*
D169*
X004284Y028099D03*
X004674Y028095D03*
X004672Y027821D03*
X004672Y026421D03*
X004284Y026421D03*
X004300Y024198D03*
X004284Y023738D03*
X004189Y023597D03*
X004284Y023454D03*
X004672Y023454D03*
X004767Y023597D03*
X004672Y023738D03*
D170*
X004191Y027964D03*
D171*
X004191Y026723D03*
X004654Y022824D03*
D172*
X004419Y025549D03*
X004523Y026229D03*
X004515Y026243D03*
X004191Y026278D03*
D173*
X004191Y025095D03*
X004199Y024046D03*
D174*
X004191Y024569D03*
X004411Y026370D03*
D175*
X004312Y026462D03*
X004646Y026460D03*
X004304Y026100D03*
X004394Y025512D03*
X004646Y025262D03*
X004646Y024892D03*
X004328Y024236D03*
X004191Y024028D03*
X004646Y023414D03*
X004630Y022823D03*
X004646Y027786D03*
D176*
X004191Y023597D03*
D177*
X004658Y022824D03*
X004674Y025219D03*
X004417Y025545D03*
X004463Y026336D03*
X004193Y027964D03*
D178*
X004193Y026728D03*
D179*
X004193Y026278D03*
X004763Y026278D03*
X004197Y025096D03*
X004209Y024062D03*
X004747Y024062D03*
D180*
X004753Y025638D03*
X004193Y025734D03*
X004229Y026278D03*
X004262Y027995D03*
D181*
X004193Y025095D03*
X004203Y024053D03*
X004753Y024053D03*
D182*
X004193Y024569D03*
X004847Y027453D03*
X004948Y027453D03*
D183*
X004763Y024034D03*
X004674Y023098D03*
X004674Y022549D03*
X004193Y024034D03*
D184*
X004193Y023597D03*
X004763Y023597D03*
X004543Y025791D03*
D185*
X004195Y027963D03*
D186*
X004195Y026732D03*
D187*
X004195Y026279D03*
D188*
X004195Y025730D03*
X004270Y027999D03*
D189*
X004545Y025795D03*
X004421Y025553D03*
X004195Y025096D03*
X004294Y024182D03*
D190*
X004310Y024569D03*
X004195Y024569D03*
D191*
X004310Y024214D03*
X004195Y024038D03*
X004292Y023753D03*
X004292Y023439D03*
X004664Y023439D03*
X004664Y023753D03*
X004761Y024038D03*
X004405Y025526D03*
X004610Y026089D03*
X004290Y026120D03*
D192*
X004201Y026740D03*
X004195Y023596D03*
X004761Y023596D03*
D193*
X004753Y022992D03*
X004197Y027963D03*
D194*
X004197Y026735D03*
D195*
X004197Y026278D03*
D196*
X004721Y026279D03*
X004197Y025727D03*
X004270Y025119D03*
X004235Y023596D03*
X004721Y023596D03*
X004278Y028002D03*
D197*
X004284Y027864D03*
X004308Y024569D03*
X004197Y024569D03*
D198*
X004197Y024043D03*
X004650Y022824D03*
X004763Y022655D03*
X004286Y025227D03*
X004286Y026127D03*
X004286Y028103D03*
D199*
X004201Y025097D03*
X004197Y023596D03*
D200*
X004215Y024069D03*
X004199Y027963D03*
D201*
X004199Y026738D03*
D202*
X004199Y026279D03*
X004531Y025765D03*
X004223Y024077D03*
D203*
X004199Y025724D03*
X004719Y026280D03*
D204*
X004427Y025564D03*
X004199Y025097D03*
X004743Y024067D03*
D205*
X004199Y024570D03*
X004777Y027955D03*
D206*
X004199Y023596D03*
D207*
X004221Y024075D03*
X004747Y022992D03*
X004533Y025769D03*
X004211Y026750D03*
X004201Y027963D03*
D208*
X004221Y026757D03*
X004201Y026278D03*
X004755Y026278D03*
X004229Y024082D03*
X004672Y022824D03*
D209*
X004201Y025721D03*
X004715Y027959D03*
D210*
X004282Y027869D03*
X004447Y026037D03*
X004201Y024570D03*
X004775Y022654D03*
D211*
X004755Y024050D03*
X004201Y024050D03*
X004672Y025225D03*
X004767Y026278D03*
D212*
X004529Y025760D03*
X004437Y025585D03*
X004217Y026755D03*
X004755Y027958D03*
X004729Y024080D03*
X004755Y023597D03*
X004201Y023597D03*
X004227Y024080D03*
D213*
X004203Y027963D03*
D214*
X004203Y026743D03*
D215*
X004227Y026761D03*
X004203Y026278D03*
X004753Y026278D03*
X004739Y022993D03*
X004739Y022655D03*
D216*
X004203Y025718D03*
D217*
X004203Y025097D03*
D218*
X004439Y025590D03*
X004205Y027963D03*
D219*
X004205Y026745D03*
X004429Y025569D03*
X004763Y025076D03*
D220*
X004205Y026279D03*
D221*
X004205Y025097D03*
X004225Y024079D03*
X004731Y024079D03*
D222*
X004205Y023596D03*
X004211Y025097D03*
D223*
X004207Y027963D03*
D224*
X004207Y026747D03*
D225*
X004207Y026278D03*
X004515Y025732D03*
X004451Y025613D03*
X004215Y025098D03*
X004248Y024096D03*
D226*
X004727Y024082D03*
X004207Y025098D03*
D227*
X004207Y024059D03*
D228*
X004207Y023596D03*
D229*
X004715Y024091D03*
X004755Y025075D03*
X004237Y026766D03*
X004209Y027963D03*
D230*
X004209Y026749D03*
X004747Y022655D03*
D231*
X004254Y024100D03*
X004455Y025621D03*
X004511Y025724D03*
X004209Y026278D03*
X004745Y027958D03*
D232*
X004729Y025661D03*
X004209Y025711D03*
D233*
X004209Y025098D03*
D234*
X004250Y024097D03*
X004706Y024097D03*
X004747Y023596D03*
X004209Y023596D03*
X004252Y026772D03*
X004254Y026772D03*
D235*
X004211Y027963D03*
D236*
X004211Y026278D03*
D237*
X004425Y025561D03*
X004211Y024064D03*
X004745Y024064D03*
X004664Y022824D03*
D238*
X004745Y023596D03*
X004211Y023596D03*
D239*
X004767Y025604D03*
X004747Y026279D03*
X004213Y027963D03*
D240*
X004213Y026752D03*
X004745Y022992D03*
D241*
X004213Y026278D03*
D242*
X004250Y026278D03*
X004704Y026280D03*
X004723Y025664D03*
X004213Y025708D03*
X004712Y025076D03*
D243*
X004213Y025098D03*
X004519Y025740D03*
X004242Y024092D03*
D244*
X004374Y024270D03*
X004213Y024570D03*
X004608Y024862D03*
X004592Y025300D03*
X004374Y025496D03*
X004586Y025848D03*
X004650Y025848D03*
X004594Y023815D03*
X004592Y023815D03*
X004366Y023817D03*
X004364Y023815D03*
X004362Y023815D03*
X004364Y023376D03*
X004592Y023376D03*
X004602Y028171D03*
X004346Y028169D03*
D245*
X004213Y024067D03*
X004666Y022823D03*
D246*
X004213Y023596D03*
X004221Y025099D03*
X004461Y025633D03*
X004505Y025713D03*
X004219Y027967D03*
D247*
X004215Y027964D03*
D248*
X004215Y026753D03*
X004435Y025581D03*
D249*
X004215Y026278D03*
X004272Y024110D03*
D250*
X004368Y024267D03*
X004215Y024569D03*
X004614Y024865D03*
X004598Y025297D03*
X004654Y025845D03*
X004368Y026056D03*
X004352Y026493D03*
X004360Y026497D03*
X004598Y026497D03*
X004598Y027751D03*
X004598Y023812D03*
X004360Y023814D03*
X004598Y023379D03*
D251*
X004215Y023597D03*
X004719Y022655D03*
X004223Y025098D03*
X004467Y025644D03*
X004223Y027970D03*
D252*
X004217Y027965D03*
X004274Y026778D03*
X004745Y026279D03*
X004696Y024103D03*
X004260Y024103D03*
D253*
X004227Y025098D03*
X004217Y026278D03*
X004672Y026789D03*
X004674Y026789D03*
X004680Y026789D03*
X004682Y026789D03*
X004688Y026789D03*
X004690Y026789D03*
X004696Y026789D03*
X004698Y026789D03*
X004704Y026789D03*
X004706Y026789D03*
X004712Y026789D03*
X004715Y026789D03*
X004721Y026789D03*
X004723Y026789D03*
X004729Y026789D03*
X004731Y026789D03*
X004737Y026789D03*
X004739Y026789D03*
X004745Y026789D03*
X004747Y026789D03*
X004753Y026789D03*
X004755Y026789D03*
X004761Y026789D03*
X004763Y026789D03*
X004767Y026789D03*
D254*
X004698Y027959D03*
X004217Y025705D03*
D255*
X004479Y025666D03*
X004485Y025676D03*
X004487Y025680D03*
X004489Y025684D03*
X004680Y024112D03*
X004276Y024112D03*
X004217Y023597D03*
D256*
X004219Y026756D03*
D257*
X004219Y026278D03*
X004237Y027980D03*
X004666Y024118D03*
X004706Y022655D03*
D258*
X004712Y025669D03*
X004219Y025703D03*
X004696Y027959D03*
D259*
X004219Y025098D03*
D260*
X004219Y024073D03*
X004737Y024073D03*
D261*
X004674Y024115D03*
X004282Y024115D03*
X004219Y023596D03*
X004737Y023596D03*
D262*
X004465Y025641D03*
X004503Y025709D03*
X004221Y027969D03*
D263*
X004221Y026278D03*
X004233Y025100D03*
D264*
X004221Y025702D03*
X004698Y026280D03*
D265*
X004221Y023597D03*
D266*
X004223Y026759D03*
D267*
X004223Y026278D03*
X004248Y027987D03*
D268*
X004223Y025700D03*
D269*
X004336Y026072D03*
X004328Y026078D03*
X004435Y026354D03*
X004622Y026481D03*
X004622Y027765D03*
X004630Y024877D03*
X004223Y024569D03*
X004352Y024257D03*
X004606Y024255D03*
X004622Y023798D03*
X004622Y023393D03*
X004654Y023122D03*
X004614Y022824D03*
X004336Y023393D03*
D270*
X004223Y023596D03*
D271*
X004225Y026760D03*
D272*
X004225Y026278D03*
X004737Y025076D03*
X004729Y027958D03*
X004252Y027989D03*
D273*
X004225Y025699D03*
X004704Y025673D03*
D274*
X004388Y025505D03*
X004322Y025271D03*
X004626Y025279D03*
X004278Y024569D03*
X004276Y024569D03*
X004229Y024569D03*
X004227Y024569D03*
X004225Y024569D03*
X004342Y024249D03*
X004324Y026473D03*
X004326Y026475D03*
X004632Y026473D03*
X004632Y027773D03*
X004640Y028144D03*
D275*
X004250Y027988D03*
X004731Y026279D03*
X004242Y025105D03*
X004225Y023596D03*
X004731Y023596D03*
D276*
X004739Y023596D03*
X004682Y024111D03*
X004274Y024111D03*
X004477Y025663D03*
X004493Y025691D03*
X004227Y027973D03*
D277*
X004227Y026278D03*
D278*
X004227Y025698D03*
X004704Y025076D03*
D279*
X004729Y023596D03*
X004227Y023596D03*
D280*
X004229Y027975D03*
D281*
X004229Y026762D03*
X004235Y024087D03*
X004721Y024087D03*
D282*
X004229Y025696D03*
D283*
X004229Y025098D03*
D284*
X004231Y027976D03*
D285*
X004231Y026763D03*
X004523Y025748D03*
X004719Y024088D03*
D286*
X004264Y025116D03*
X004231Y026278D03*
D287*
X004231Y025695D03*
X004264Y023596D03*
D288*
X004735Y023597D03*
X004231Y025098D03*
D289*
X004231Y024569D03*
X004272Y024569D03*
X004320Y023786D03*
X004320Y023405D03*
X004638Y023407D03*
X004622Y026082D03*
X004630Y026086D03*
X004638Y026467D03*
D290*
X004231Y024084D03*
D291*
X004233Y027977D03*
D292*
X004233Y026764D03*
X004237Y024089D03*
X004737Y022992D03*
D293*
X004268Y025118D03*
X004233Y026278D03*
X004276Y028001D03*
D294*
X004690Y026280D03*
X004688Y025678D03*
X004233Y025694D03*
D295*
X004634Y025273D03*
X004640Y024885D03*
X004270Y024569D03*
X004268Y024569D03*
X004235Y024569D03*
X004233Y024569D03*
X004338Y024245D03*
X004618Y024245D03*
X004318Y023407D03*
X004664Y023114D03*
X004626Y022824D03*
X004624Y022824D03*
X004664Y022534D03*
X004439Y026352D03*
X004318Y026467D03*
D296*
X004233Y023597D03*
X004723Y023597D03*
D297*
X004286Y024117D03*
X004737Y026279D03*
X004235Y027979D03*
D298*
X004235Y026765D03*
D299*
X004235Y026277D03*
X004276Y025121D03*
X004237Y023596D03*
D300*
X004266Y023596D03*
X004690Y023596D03*
X004682Y025679D03*
X004235Y025693D03*
D301*
X004235Y025101D03*
X004242Y027984D03*
D302*
X004237Y026278D03*
D303*
X004688Y026280D03*
X004680Y025680D03*
X004237Y025692D03*
X004698Y025076D03*
D304*
X004237Y025102D03*
X004244Y027985D03*
D305*
X004648Y028136D03*
X004650Y028134D03*
X004640Y027780D03*
X004640Y026466D03*
X004642Y026464D03*
X004316Y026466D03*
X004314Y026464D03*
X004308Y026096D03*
X004310Y026094D03*
X004294Y025512D03*
X004314Y025264D03*
X004642Y024888D03*
X004266Y024570D03*
X004237Y024570D03*
X004334Y024242D03*
X004624Y024240D03*
X004666Y023111D03*
X004666Y022537D03*
D306*
X004735Y026279D03*
X004239Y027981D03*
D307*
X004239Y026767D03*
D308*
X004239Y026278D03*
D309*
X004239Y025691D03*
D310*
X004759Y025629D03*
X004239Y025103D03*
D311*
X004239Y024569D03*
X004248Y024569D03*
X004256Y024569D03*
X004264Y024569D03*
X004312Y023778D03*
X004646Y023776D03*
X004312Y023413D03*
X004769Y022655D03*
X004638Y026095D03*
D312*
X004239Y024090D03*
D313*
X004239Y023597D03*
X004743Y025650D03*
D314*
X004242Y026768D03*
D315*
X004242Y025690D03*
D316*
X004242Y023596D03*
X004715Y023596D03*
D317*
X004246Y024094D03*
X004449Y025609D03*
X004517Y025736D03*
X004246Y026769D03*
X004244Y026769D03*
D318*
X004244Y026277D03*
X004246Y023596D03*
D319*
X004244Y025689D03*
X004682Y027959D03*
D320*
X004244Y025106D03*
D321*
X004244Y024093D03*
X004712Y024093D03*
D322*
X004246Y027986D03*
D323*
X004680Y027960D03*
X004246Y025688D03*
D324*
X004246Y025107D03*
D325*
X004248Y026770D03*
D326*
X004248Y026278D03*
X004727Y025662D03*
D327*
X004248Y025688D03*
X004694Y025076D03*
D328*
X004248Y025108D03*
D329*
X004248Y023596D03*
D330*
X004250Y026771D03*
X004747Y027958D03*
D331*
X004250Y025687D03*
D332*
X004252Y026278D03*
D333*
X004682Y026280D03*
X004252Y025686D03*
D334*
X004252Y025110D03*
X004258Y027993D03*
D335*
X004721Y025665D03*
X004704Y023596D03*
X004252Y023596D03*
D336*
X004254Y027991D03*
D337*
X004254Y026277D03*
D338*
X004254Y025685D03*
X004274Y023596D03*
X004682Y023596D03*
D339*
X004254Y025111D03*
X004260Y027994D03*
D340*
X004254Y023596D03*
D341*
X004735Y025075D03*
X004727Y027959D03*
X004256Y027992D03*
D342*
X004256Y026773D03*
D343*
X004256Y026277D03*
X004694Y027959D03*
D344*
X004272Y026277D03*
X004256Y025685D03*
D345*
X004256Y025112D03*
D346*
X004256Y024101D03*
D347*
X004256Y023596D03*
D348*
X004258Y026774D03*
X004260Y026774D03*
D349*
X004258Y026277D03*
X004260Y023596D03*
X004696Y023596D03*
D350*
X004690Y025076D03*
X004258Y025684D03*
X004274Y026278D03*
X004680Y026280D03*
D351*
X004258Y025113D03*
D352*
X004457Y025626D03*
X004509Y025720D03*
X004270Y026777D03*
X004268Y026777D03*
X004258Y024102D03*
X004698Y024102D03*
D353*
X004698Y023596D03*
X004258Y023596D03*
D354*
X004262Y023596D03*
X004260Y026277D03*
D355*
X004260Y025683D03*
X004262Y025683D03*
D356*
X004260Y025114D03*
D357*
X004262Y026775D03*
D358*
X004262Y026277D03*
X004690Y025677D03*
D359*
X004262Y025115D03*
D360*
X004262Y024104D03*
X004723Y022655D03*
X004278Y026779D03*
X004276Y026779D03*
D361*
X004264Y026776D03*
D362*
X004264Y026277D03*
X004686Y027959D03*
D363*
X004678Y026280D03*
X004264Y025682D03*
D364*
X004288Y026781D03*
X004264Y024106D03*
D365*
X004723Y027958D03*
X004266Y027997D03*
D366*
X004266Y026776D03*
D367*
X004266Y026277D03*
X004666Y025683D03*
X004672Y025681D03*
X004674Y025681D03*
X004688Y023596D03*
X004268Y023596D03*
D368*
X004688Y025076D03*
X004266Y025682D03*
D369*
X004266Y025117D03*
X004723Y026279D03*
X004274Y028000D03*
D370*
X004501Y025705D03*
X004266Y024107D03*
X004721Y022992D03*
D371*
X004270Y023596D03*
X004268Y026277D03*
D372*
X004268Y025681D03*
D373*
X004747Y025076D03*
X004688Y024108D03*
X004268Y024108D03*
D374*
X004270Y026277D03*
D375*
X004278Y026278D03*
X004270Y025680D03*
D376*
X004469Y025649D03*
X004270Y024109D03*
D377*
X004272Y027999D03*
D378*
X004272Y026778D03*
D379*
X004272Y025680D03*
D380*
X004272Y025120D03*
D381*
X004272Y023596D03*
D382*
X004274Y025679D03*
X004276Y025679D03*
X004278Y025679D03*
D383*
X004747Y025646D03*
X004274Y025120D03*
D384*
X004276Y026278D03*
D385*
X004278Y023596D03*
X004276Y023596D03*
X004680Y023596D03*
D386*
X004278Y025122D03*
D387*
X004278Y024113D03*
X004739Y026279D03*
X004666Y026790D03*
D388*
X004280Y028085D03*
X004662Y024182D03*
D389*
X004280Y026780D03*
D390*
X004280Y026410D03*
D391*
X004280Y026146D03*
X004280Y025210D03*
X004280Y023724D03*
X004280Y023467D03*
D392*
X004280Y025678D03*
D393*
X004590Y025850D03*
X004590Y025300D03*
X004280Y024997D03*
X004582Y024270D03*
X004590Y023817D03*
X004360Y023378D03*
X004606Y028169D03*
D394*
X004670Y026789D03*
X004678Y026789D03*
X004686Y026789D03*
X004694Y026789D03*
X004702Y026789D03*
X004710Y026789D03*
X004719Y026789D03*
X004727Y026789D03*
X004735Y026789D03*
X004743Y026789D03*
X004751Y026789D03*
X004759Y026789D03*
X004280Y024114D03*
D395*
X004282Y023731D03*
X004282Y023460D03*
X004674Y023460D03*
X004674Y023731D03*
X004672Y024931D03*
X004282Y025217D03*
X004549Y025803D03*
X004461Y026338D03*
X004282Y026417D03*
X004674Y026417D03*
X004282Y028093D03*
D396*
X004282Y026780D03*
X004723Y022992D03*
D397*
X004415Y025542D03*
X004600Y026095D03*
X004282Y026138D03*
D398*
X004282Y025678D03*
X004682Y025076D03*
D399*
X004463Y025638D03*
X004286Y026781D03*
X004284Y026781D03*
X004290Y026783D03*
X004690Y024106D03*
X004721Y022655D03*
D400*
X004656Y024197D03*
X004284Y025222D03*
X004553Y025810D03*
X004284Y026132D03*
X004457Y026341D03*
D401*
X004286Y025677D03*
X004284Y025677D03*
D402*
X004284Y024987D03*
X004936Y027453D03*
D403*
X004672Y024116D03*
X004284Y024116D03*
D404*
X004286Y023743D03*
X004286Y023449D03*
X004455Y026341D03*
X004286Y026426D03*
X004672Y028100D03*
D405*
X004670Y028105D03*
X004288Y028107D03*
D406*
X004288Y027858D03*
X004312Y024569D03*
D407*
X004759Y024042D03*
X004288Y023445D03*
X004288Y026430D03*
D408*
X004288Y026124D03*
D409*
X004288Y025677D03*
D410*
X004288Y025231D03*
X004769Y027956D03*
D411*
X004288Y024981D03*
D412*
X004288Y024118D03*
X004735Y027958D03*
D413*
X004288Y023747D03*
D414*
X004290Y027855D03*
D415*
X004290Y025676D03*
X004680Y025076D03*
D416*
X004292Y028115D03*
D417*
X004292Y027852D03*
X004316Y024569D03*
D418*
X004292Y026438D03*
X004664Y026438D03*
D419*
X004294Y026440D03*
X004292Y026116D03*
X004562Y025822D03*
X004294Y025240D03*
X004314Y024220D03*
X004642Y024220D03*
X004294Y023757D03*
X004294Y023435D03*
X004666Y028112D03*
D420*
X004650Y027790D03*
X004302Y028128D03*
X004306Y026456D03*
X004650Y026456D03*
X004648Y026104D03*
X004396Y025514D03*
X004292Y025516D03*
X004648Y025260D03*
X004650Y025258D03*
X004632Y024232D03*
X004324Y024232D03*
D421*
X004292Y025237D03*
X004664Y026123D03*
X004449Y026346D03*
D422*
X004413Y026369D03*
X004292Y024976D03*
D423*
X004316Y025265D03*
X004318Y025267D03*
X004390Y025507D03*
X004314Y026090D03*
X004632Y026088D03*
X004294Y026865D03*
X004318Y023784D03*
X004316Y023782D03*
X004640Y023782D03*
X004640Y023409D03*
X004316Y023409D03*
D424*
X004294Y024974D03*
D425*
X004614Y026087D03*
X004296Y028120D03*
D426*
X004296Y027848D03*
X004304Y024965D03*
D427*
X004296Y023760D03*
X004296Y023432D03*
X004296Y026443D03*
D428*
X004296Y026111D03*
X004654Y025253D03*
X004662Y028119D03*
D429*
X004662Y025836D03*
X004296Y025508D03*
X004638Y024884D03*
D430*
X004296Y025243D03*
D431*
X004296Y024972D03*
D432*
X004296Y024188D03*
D433*
X004453Y026061D03*
X004401Y026377D03*
X004298Y027845D03*
D434*
X004884Y027453D03*
X004888Y027453D03*
X004904Y027453D03*
X004908Y027453D03*
X004912Y027453D03*
X004298Y026871D03*
X004340Y026485D03*
X004433Y026356D03*
X004616Y026485D03*
X004348Y026066D03*
X004346Y026066D03*
X004382Y025501D03*
X004608Y025291D03*
X004610Y022824D03*
D435*
X004672Y023103D03*
X004656Y023427D03*
X004656Y023765D03*
X004302Y023767D03*
X004300Y023765D03*
X004300Y023427D03*
X004302Y023425D03*
X004300Y025248D03*
X004298Y026108D03*
X004300Y028126D03*
D436*
X004656Y026113D03*
X004298Y025245D03*
X004656Y024903D03*
X004318Y024225D03*
D437*
X004298Y024970D03*
D438*
X004298Y024193D03*
X004658Y024193D03*
X004674Y027826D03*
D439*
X004338Y028163D03*
X004300Y026874D03*
X004302Y025502D03*
X004348Y023807D03*
X004350Y023807D03*
X004346Y023805D03*
X004608Y023807D03*
X004610Y023805D03*
X004610Y023386D03*
X004346Y023386D03*
X004608Y022823D03*
D440*
X004302Y025251D03*
X004300Y026105D03*
D441*
X004407Y026373D03*
X004779Y026279D03*
X004300Y024968D03*
D442*
X004314Y024958D03*
X004302Y027841D03*
D443*
X004340Y028164D03*
X004342Y028166D03*
X004610Y028166D03*
X004616Y028162D03*
X004876Y027453D03*
X004880Y027453D03*
X004916Y027453D03*
X004302Y026875D03*
X004376Y026052D03*
X004775Y026278D03*
X004306Y025499D03*
X004350Y025291D03*
X004348Y025289D03*
X004354Y023810D03*
X004602Y023810D03*
X004642Y023130D03*
X004602Y022824D03*
X004642Y022518D03*
X004640Y022516D03*
D444*
X004302Y024569D03*
X004423Y026362D03*
D445*
X004302Y024202D03*
D446*
X004630Y024233D03*
X004304Y025253D03*
X004670Y022542D03*
X004654Y028129D03*
X004304Y028131D03*
D447*
X004304Y027839D03*
D448*
X004304Y026453D03*
X004654Y026451D03*
X004304Y023770D03*
X004304Y023422D03*
D449*
X004352Y023809D03*
X004606Y023807D03*
X004606Y025292D03*
X004304Y025500D03*
X004914Y027454D03*
D450*
X004777Y026278D03*
X004304Y024569D03*
D451*
X004304Y024205D03*
X004555Y025813D03*
X004670Y026133D03*
X004769Y026278D03*
D452*
X004648Y026458D03*
X004441Y026351D03*
X004310Y026460D03*
X004308Y026458D03*
X004306Y026098D03*
X004640Y026096D03*
X004642Y026098D03*
X004570Y025834D03*
X004642Y025266D03*
X004308Y025258D03*
X004330Y024238D03*
X004626Y024238D03*
X004310Y023777D03*
X004310Y023414D03*
X004306Y028134D03*
D453*
X004306Y027837D03*
X004455Y026069D03*
D454*
X004306Y024964D03*
D455*
X004306Y024569D03*
D456*
X004324Y024952D03*
X004392Y026381D03*
X004308Y027835D03*
D457*
X004354Y028173D03*
X004308Y026880D03*
X004388Y026510D03*
X004390Y026510D03*
X004384Y026508D03*
X004382Y026508D03*
X004566Y026510D03*
X004568Y026510D03*
X004570Y026510D03*
X004409Y026041D03*
X004407Y026041D03*
X004401Y026043D03*
X004370Y025494D03*
X004366Y025492D03*
X004364Y025492D03*
X004316Y025494D03*
X004364Y025298D03*
X004409Y024284D03*
X004401Y024282D03*
X004553Y024282D03*
X004566Y023364D03*
X004558Y023362D03*
X004399Y023362D03*
X004392Y023364D03*
X004390Y023364D03*
X004624Y023139D03*
X004626Y023137D03*
X004624Y022509D03*
D458*
X004779Y022654D03*
X004308Y024962D03*
D459*
X004390Y026383D03*
X004310Y027833D03*
D460*
X004558Y027735D03*
X004560Y027735D03*
X004562Y027735D03*
X004310Y026881D03*
X004318Y025493D03*
X004322Y025493D03*
X004405Y024283D03*
X004407Y024283D03*
X004549Y024283D03*
X004551Y024283D03*
X004560Y023363D03*
X004562Y023363D03*
X004396Y023363D03*
X004618Y022508D03*
D461*
X004310Y024961D03*
D462*
X004312Y026091D03*
X004312Y028140D03*
D463*
X004312Y027831D03*
D464*
X004574Y027740D03*
X004590Y028177D03*
X004360Y028177D03*
X004394Y026512D03*
X004378Y026506D03*
X004555Y026514D03*
X004638Y025852D03*
X004312Y025496D03*
X004574Y025309D03*
X004564Y024278D03*
X004564Y023827D03*
X004386Y023825D03*
X004386Y023366D03*
X004574Y023368D03*
D465*
X004320Y024569D03*
X004312Y024959D03*
D466*
X004610Y024863D03*
X004366Y025299D03*
X004362Y025297D03*
X004372Y025495D03*
X004314Y025495D03*
X004648Y025849D03*
X004405Y026042D03*
X004399Y026044D03*
X004396Y026044D03*
X004380Y026507D03*
X004576Y026507D03*
X004600Y028172D03*
X004594Y028174D03*
X004350Y028172D03*
X004348Y028170D03*
X004632Y023136D03*
D467*
X004314Y024569D03*
X004843Y027453D03*
D468*
X004642Y023411D03*
X004314Y023411D03*
D469*
X004322Y023404D03*
X004324Y023402D03*
X004632Y023402D03*
X004634Y023404D03*
X004634Y023787D03*
X004632Y023789D03*
X004324Y023789D03*
X004322Y023787D03*
X004632Y025274D03*
X004624Y026081D03*
X004626Y026083D03*
X004318Y026085D03*
X004322Y026472D03*
X004634Y026472D03*
X004634Y027774D03*
X004316Y028145D03*
D470*
X004316Y027826D03*
X004338Y024944D03*
D471*
X004316Y024957D03*
D472*
X004322Y026082D03*
X004437Y026354D03*
X004318Y028146D03*
D473*
X004318Y027824D03*
D474*
X004835Y027453D03*
X004318Y024955D03*
D475*
X004318Y024569D03*
D476*
X004320Y027823D03*
D477*
X004638Y028146D03*
X004320Y026084D03*
X004622Y022824D03*
D478*
X004394Y023363D03*
X004320Y025493D03*
D479*
X004320Y025269D03*
X004344Y024251D03*
X004614Y024249D03*
X004630Y026475D03*
X004630Y027771D03*
D480*
X004320Y024954D03*
D481*
X004654Y024900D03*
X004320Y024228D03*
X004654Y027794D03*
D482*
X004322Y024953D03*
D483*
X004322Y024569D03*
D484*
X004324Y027819D03*
D485*
X004324Y026081D03*
X004576Y025840D03*
X004326Y025274D03*
X004326Y023791D03*
X004618Y022823D03*
D486*
X004326Y024951D03*
D487*
X004650Y024896D03*
X004326Y024234D03*
X004650Y026106D03*
X004658Y028124D03*
D488*
X004630Y028153D03*
X004328Y028155D03*
X004898Y027454D03*
X004336Y026482D03*
X004614Y025288D03*
X004614Y023803D03*
X004336Y023799D03*
X004614Y023388D03*
X004654Y022525D03*
D489*
X004328Y025275D03*
D490*
X004328Y024950D03*
D491*
X004330Y024948D03*
D492*
X004332Y024947D03*
D493*
X004334Y024946D03*
D494*
X004336Y024945D03*
D495*
X004352Y025292D03*
X004378Y026051D03*
X004368Y026502D03*
X004590Y026500D03*
X004590Y027746D03*
X004344Y028167D03*
X004386Y024276D03*
X004378Y024272D03*
X004574Y024274D03*
X004590Y023374D03*
X004368Y023374D03*
X004638Y023133D03*
X004638Y022515D03*
D496*
X004344Y024942D03*
D497*
X004622Y024871D03*
X004344Y023387D03*
X004882Y027453D03*
X004890Y027453D03*
X004906Y027453D03*
D498*
X004382Y026388D03*
X004346Y024941D03*
D499*
X004348Y024940D03*
D500*
X004350Y024939D03*
D501*
X004368Y025493D03*
X004646Y025849D03*
X004598Y028172D03*
X004352Y028172D03*
X004630Y023136D03*
D502*
X004352Y024938D03*
D503*
X004354Y024937D03*
D504*
X004368Y025300D03*
X004411Y026041D03*
X004403Y026043D03*
X004386Y026510D03*
X004574Y026508D03*
X004547Y024284D03*
X004555Y024282D03*
X004403Y024282D03*
X004564Y023364D03*
X004622Y023139D03*
X004622Y022509D03*
D505*
X004380Y026389D03*
D506*
X004471Y026525D03*
X004473Y026525D03*
X004477Y026525D03*
X004479Y026525D03*
X004481Y026525D03*
X004485Y026525D03*
X004409Y025316D03*
X004570Y024847D03*
X004576Y024849D03*
X004578Y024849D03*
X004560Y028188D03*
X004384Y028188D03*
D507*
X004386Y028188D03*
X004475Y026525D03*
X004483Y026525D03*
D508*
X004386Y026386D03*
D509*
X004413Y025317D03*
X004415Y025317D03*
X004407Y025315D03*
X004405Y025315D03*
X004566Y024846D03*
X004568Y024846D03*
X004388Y028189D03*
D510*
X004388Y026384D03*
D511*
X004396Y026380D03*
D512*
X004399Y026378D03*
D513*
X004403Y026375D03*
D514*
X004662Y026440D03*
X004662Y026120D03*
X004403Y025522D03*
X004662Y023757D03*
X004662Y023435D03*
X004662Y027804D03*
D515*
X004952Y027453D03*
X004409Y026372D03*
D516*
X004411Y025317D03*
X004564Y024846D03*
X004574Y024848D03*
D517*
X004413Y025538D03*
X004761Y022992D03*
D518*
X004417Y026367D03*
D519*
X004419Y026365D03*
D520*
X004421Y026364D03*
X004775Y022993D03*
D521*
X004423Y025557D03*
D522*
X004431Y025573D03*
D523*
X004433Y025577D03*
X004761Y025076D03*
D524*
X004443Y026349D03*
D525*
X004443Y025597D03*
D526*
X004445Y025601D03*
X004521Y025744D03*
D527*
X004447Y025605D03*
D528*
X004451Y026344D03*
D529*
X004451Y026053D03*
D530*
X004453Y025617D03*
X004729Y022993D03*
X004729Y022655D03*
D531*
X004457Y026076D03*
D532*
X004459Y026339D03*
D533*
X004459Y026084D03*
D534*
X004582Y026124D03*
X004590Y026110D03*
X004547Y026186D03*
X004539Y026200D03*
X004531Y026214D03*
X004499Y026273D03*
X004491Y026287D03*
X004483Y026301D03*
X004467Y026331D03*
X004547Y025798D03*
D535*
X004578Y026132D03*
X004570Y026146D03*
X004560Y026164D03*
X004551Y026178D03*
X004541Y026196D03*
X004497Y026277D03*
X004489Y026291D03*
X004479Y026309D03*
X004471Y026323D03*
D536*
X004473Y025655D03*
D537*
X004574Y026139D03*
X004564Y026157D03*
X004555Y026171D03*
X004475Y026316D03*
X004751Y024056D03*
D538*
X004475Y025659D03*
D539*
X004481Y025670D03*
X004745Y025076D03*
X004715Y022993D03*
X004715Y022655D03*
D540*
X004483Y025674D03*
D541*
X004491Y025687D03*
D542*
X004499Y025701D03*
X004686Y024109D03*
D543*
X004674Y024937D03*
X004586Y026117D03*
X004543Y026193D03*
X004533Y026211D03*
X004525Y026225D03*
X004505Y026262D03*
D544*
X004507Y026259D03*
D545*
X004507Y025716D03*
X004694Y024104D03*
X004743Y027958D03*
D546*
X004527Y025757D03*
D547*
X004537Y025778D03*
D548*
X004539Y025783D03*
D549*
X004564Y025826D03*
D550*
X004572Y026894D03*
X004580Y026894D03*
X004588Y026894D03*
X004596Y026894D03*
X004604Y026894D03*
X004612Y026894D03*
X004620Y026894D03*
X004628Y026894D03*
X004636Y026894D03*
X004644Y026894D03*
X004652Y026894D03*
X004660Y026894D03*
X004773Y026894D03*
X004781Y026894D03*
X004789Y026894D03*
X004797Y026894D03*
X004805Y026894D03*
X004813Y026894D03*
X004821Y026894D03*
X004829Y026894D03*
X004837Y026894D03*
X004845Y026894D03*
X004853Y026894D03*
X004861Y026894D03*
X004869Y026894D03*
X004878Y026894D03*
X004886Y026894D03*
X004894Y026894D03*
X004902Y026894D03*
X004910Y026894D03*
X004934Y027453D03*
X004861Y027453D03*
X004765Y027453D03*
X004757Y027453D03*
X004749Y027453D03*
X004741Y027453D03*
X004733Y027453D03*
X004725Y027453D03*
X004717Y027453D03*
X004708Y027453D03*
X004700Y027453D03*
X004692Y027453D03*
X004684Y027453D03*
X004676Y027453D03*
X004668Y027453D03*
X004660Y027453D03*
X004652Y027453D03*
X004644Y027453D03*
X004636Y027453D03*
X004628Y027453D03*
X004620Y027453D03*
X004612Y027453D03*
X004604Y027453D03*
X004596Y027453D03*
X004588Y027453D03*
X004580Y027453D03*
X004572Y027453D03*
X004572Y022500D03*
D551*
X004773Y022654D03*
X004773Y022992D03*
X004628Y023137D03*
X004572Y026508D03*
D552*
X004572Y026142D03*
X004580Y026128D03*
X004765Y027957D03*
X004676Y028088D03*
D553*
X004572Y025836D03*
D554*
X004580Y024849D03*
X004572Y024847D03*
D555*
X004580Y025305D03*
X004572Y024275D03*
X004580Y023822D03*
X004588Y023818D03*
X004580Y023371D03*
X004572Y023367D03*
X004596Y022824D03*
X004580Y026505D03*
D556*
X004612Y025855D03*
X004620Y025855D03*
X004596Y023146D03*
X004604Y023144D03*
X004588Y023146D03*
X004572Y022824D03*
X004604Y022504D03*
X004596Y022502D03*
D557*
X004596Y023814D03*
X004588Y024267D03*
X004580Y024271D03*
X004588Y025849D03*
X004604Y026493D03*
X004596Y026497D03*
D558*
X004588Y026114D03*
X004596Y026100D03*
D559*
X004652Y025846D03*
X004588Y025302D03*
X004596Y025298D03*
X004612Y024864D03*
X004596Y023378D03*
X004596Y027750D03*
X004604Y028169D03*
D560*
X004596Y028174D03*
D561*
X004628Y028154D03*
X004612Y026487D03*
X004612Y025289D03*
X004596Y024263D03*
X004612Y023804D03*
X004652Y022524D03*
D562*
X004759Y022656D03*
X004759Y022992D03*
X004598Y026098D03*
D563*
X004602Y026094D03*
X004674Y026143D03*
D564*
X004660Y025839D03*
X004620Y025283D03*
X004628Y024875D03*
X004604Y024257D03*
X004620Y023393D03*
D565*
X004644Y023129D03*
X004604Y023809D03*
X004620Y024870D03*
D566*
X004604Y022824D03*
X004878Y027453D03*
X004918Y027453D03*
X004612Y028164D03*
D567*
X004670Y027818D03*
X004670Y026426D03*
X004606Y026091D03*
X004654Y024201D03*
X004670Y023743D03*
X004670Y023449D03*
D568*
X004612Y023387D03*
X004612Y022824D03*
X004886Y027453D03*
X004910Y027453D03*
X004612Y027759D03*
D569*
X004612Y026088D03*
X004660Y024909D03*
X004644Y024217D03*
X004644Y022824D03*
D570*
X004660Y023118D03*
X004612Y024251D03*
X004636Y024881D03*
D571*
X004614Y027760D03*
D572*
X004652Y028131D03*
X004773Y026278D03*
X004620Y026082D03*
X004644Y024889D03*
X004644Y023778D03*
X004644Y023413D03*
X004628Y022824D03*
D573*
X004636Y023405D03*
X004636Y023786D03*
X004620Y024243D03*
X004636Y025271D03*
X004773Y027956D03*
D574*
X004628Y025277D03*
X004620Y022824D03*
X004660Y022530D03*
D575*
X004620Y022508D03*
D576*
X004624Y024872D03*
D577*
X004628Y026085D03*
X004636Y026470D03*
X004636Y027776D03*
X004773Y023596D03*
D578*
X004636Y028148D03*
D579*
X004636Y026091D03*
D580*
X004652Y025256D03*
X004636Y024228D03*
D581*
X004652Y023422D03*
X004636Y022824D03*
X004652Y026453D03*
X004652Y027791D03*
D582*
X004638Y024225D03*
X004638Y022824D03*
D583*
X004640Y022824D03*
X004658Y024905D03*
X004658Y026115D03*
X004664Y028115D03*
D584*
X004642Y022823D03*
D585*
X004644Y027783D03*
D586*
X004644Y026099D03*
D587*
X004662Y024912D03*
X004646Y024214D03*
D588*
X004646Y022824D03*
D589*
X004648Y024211D03*
X004664Y027807D03*
D590*
X004660Y028122D03*
X004652Y026108D03*
X004652Y024898D03*
D591*
X004668Y025233D03*
X004652Y024205D03*
D592*
X004652Y023769D03*
D593*
X004652Y022824D03*
D594*
X004654Y023425D03*
X004654Y023767D03*
X004654Y026110D03*
D595*
X004656Y022824D03*
D596*
X004660Y025246D03*
D597*
X004660Y024188D03*
D598*
X004660Y022824D03*
X004676Y026149D03*
X004765Y026278D03*
D599*
X004662Y025243D03*
D600*
X004662Y022824D03*
D601*
X004765Y022655D03*
X004668Y028109D03*
D602*
X004668Y027814D03*
X004668Y026430D03*
X004668Y023445D03*
D603*
X004676Y024114D03*
X004676Y026789D03*
X004668Y026789D03*
X004684Y026789D03*
X004692Y026789D03*
X004700Y026789D03*
X004708Y026789D03*
X004717Y026789D03*
X004725Y026789D03*
X004733Y026789D03*
X004741Y026789D03*
X004749Y026789D03*
X004757Y026789D03*
X004765Y026789D03*
D604*
X004668Y026129D03*
D605*
X004668Y025682D03*
D606*
X004668Y024922D03*
D607*
X004668Y024117D03*
X004708Y022992D03*
D608*
X004668Y023747D03*
D609*
X004668Y022823D03*
D610*
X004670Y025682D03*
X004686Y026280D03*
D611*
X004670Y024926D03*
D612*
X004743Y025076D03*
X004670Y024116D03*
X004710Y022993D03*
X004710Y022655D03*
D613*
X004670Y023106D03*
D614*
X004670Y022824D03*
D615*
X004672Y026137D03*
D616*
X004674Y022824D03*
D617*
X004676Y027834D03*
D618*
X004676Y026410D03*
X004757Y022992D03*
X004757Y022656D03*
D619*
X004676Y025681D03*
X004684Y027959D03*
D620*
X004676Y025212D03*
D621*
X004676Y024945D03*
D622*
X004676Y023724D03*
X004676Y023467D03*
D623*
X004676Y023094D03*
X004765Y022992D03*
X004676Y022553D03*
D624*
X004676Y022823D03*
D625*
X004678Y027960D03*
D626*
X004678Y025680D03*
D627*
X004678Y025076D03*
D628*
X004678Y024113D03*
D629*
X004678Y023596D03*
D630*
X004678Y022824D03*
D631*
X004680Y022823D03*
D632*
X004682Y022824D03*
D633*
X004684Y026280D03*
D634*
X004684Y025679D03*
D635*
X004684Y025077D03*
D636*
X004684Y024110D03*
X004717Y022993D03*
X004717Y022655D03*
X004741Y026278D03*
D637*
X004684Y023596D03*
D638*
X004684Y022824D03*
D639*
X004686Y025678D03*
D640*
X004686Y025077D03*
D641*
X004686Y023596D03*
D642*
X004686Y022824D03*
D643*
X004688Y027959D03*
D644*
X004688Y022824D03*
D645*
X004696Y025675D03*
X004698Y025675D03*
X004690Y027959D03*
D646*
X004690Y022824D03*
D647*
X004692Y027959D03*
D648*
X004692Y026280D03*
D649*
X004692Y025677D03*
X004692Y023596D03*
D650*
X004692Y025076D03*
D651*
X004692Y024105D03*
D652*
X004692Y022824D03*
D653*
X004694Y026280D03*
D654*
X004694Y025676D03*
D655*
X004694Y023596D03*
D656*
X004694Y022824D03*
D657*
X004706Y025076D03*
X004706Y025672D03*
X004696Y026280D03*
D658*
X004696Y025076D03*
D659*
X004696Y022824D03*
D660*
X004698Y022823D03*
D661*
X004700Y027959D03*
D662*
X004700Y026280D03*
D663*
X004700Y025674D03*
D664*
X004700Y025076D03*
D665*
X004700Y024101D03*
D666*
X004700Y023596D03*
D667*
X004700Y022993D03*
D668*
X004700Y022655D03*
D669*
X004702Y027959D03*
D670*
X004702Y025673D03*
D671*
X004702Y025076D03*
D672*
X004702Y024099D03*
D673*
X004702Y023596D03*
D674*
X004702Y022993D03*
X004702Y022655D03*
D675*
X004704Y027959D03*
D676*
X004704Y022993D03*
X004704Y022655D03*
D677*
X004731Y025659D03*
X004706Y027959D03*
D678*
X004708Y027959D03*
D679*
X004708Y026280D03*
D680*
X004708Y025671D03*
D681*
X004708Y025076D03*
D682*
X004708Y024095D03*
X004749Y026279D03*
D683*
X004708Y023596D03*
D684*
X004708Y022655D03*
D685*
X004710Y027959D03*
D686*
X004710Y025670D03*
D687*
X004710Y025076D03*
D688*
X004710Y024094D03*
D689*
X004710Y023596D03*
D690*
X004739Y025653D03*
X004715Y026279D03*
X004712Y027959D03*
D691*
X004737Y027958D03*
X004763Y025619D03*
X004712Y022993D03*
X004712Y022655D03*
D692*
X004715Y025668D03*
D693*
X004717Y027958D03*
D694*
X004717Y025076D03*
D695*
X004717Y024090D03*
D696*
X004717Y023597D03*
D697*
X004719Y023596D03*
X004727Y025075D03*
D698*
X004719Y022993D03*
D699*
X004723Y025076D03*
D700*
X004733Y025076D03*
X004725Y027958D03*
D701*
X004725Y026280D03*
D702*
X004725Y025663D03*
D703*
X004725Y025076D03*
D704*
X004725Y024084D03*
D705*
X004725Y023596D03*
D706*
X004725Y022992D03*
D707*
X004725Y022655D03*
D708*
X004727Y026279D03*
D709*
X004727Y023596D03*
D710*
X004727Y022993D03*
X004727Y022655D03*
X004751Y025076D03*
D711*
X004729Y026279D03*
D712*
X004729Y025076D03*
D713*
X004739Y025075D03*
X004731Y027959D03*
D714*
X004753Y025076D03*
X004731Y022993D03*
X004731Y022655D03*
D715*
X004733Y027958D03*
D716*
X004733Y026279D03*
D717*
X004733Y024077D03*
D718*
X004733Y023596D03*
D719*
X004733Y022992D03*
D720*
X004733Y022655D03*
D721*
X004735Y025656D03*
D722*
X004735Y024075D03*
D723*
X004735Y022992D03*
D724*
X004735Y022656D03*
X004751Y026279D03*
D725*
X004737Y022655D03*
D726*
X004741Y023597D03*
X004765Y025613D03*
X004741Y027958D03*
D727*
X004741Y025652D03*
D728*
X004741Y025075D03*
D729*
X004741Y024069D03*
D730*
X004741Y022992D03*
X004741Y022656D03*
D731*
X004743Y026278D03*
D732*
X004743Y023596D03*
D733*
X004743Y022992D03*
X004759Y025075D03*
D734*
X004743Y022655D03*
D735*
X004745Y022655D03*
D736*
X004749Y023596D03*
X004749Y027957D03*
D737*
X004749Y025643D03*
D738*
X004749Y025076D03*
D739*
X004749Y024059D03*
D740*
X004749Y022992D03*
D741*
X004749Y022655D03*
D742*
X004751Y023596D03*
X004751Y027957D03*
D743*
X004751Y025641D03*
D744*
X004751Y022993D03*
X004751Y022655D03*
D745*
X004753Y022655D03*
D746*
X004755Y022656D03*
X004755Y022992D03*
X004763Y027957D03*
D747*
X004757Y027958D03*
D748*
X004757Y026278D03*
D749*
X004757Y025632D03*
D750*
X004757Y025075D03*
D751*
X004757Y023596D03*
D752*
X004759Y027957D03*
D753*
X004759Y026278D03*
D754*
X004759Y023596D03*
D755*
X004761Y027958D03*
D756*
X004761Y026278D03*
D757*
X004761Y022655D03*
D758*
X004765Y025076D03*
D759*
X004765Y023597D03*
D760*
X004767Y025076D03*
D761*
X004769Y025076D03*
D762*
X004769Y023596D03*
D763*
X004769Y022993D03*
D764*
X004773Y025076D03*
D765*
X004777Y023597D03*
D766*
X004777Y022993D03*
D767*
X004777Y022654D03*
D768*
X004779Y025077D03*
D769*
X004833Y027454D03*
D770*
X004837Y027453D03*
D771*
X004839Y027454D03*
D772*
X004841Y027453D03*
D773*
X004845Y027453D03*
D774*
X004849Y027454D03*
D775*
X004851Y027453D03*
X004944Y027453D03*
D776*
X004942Y027453D03*
X004853Y027453D03*
D777*
X004855Y027453D03*
X004940Y027453D03*
D778*
X004857Y027453D03*
D779*
X004938Y027454D03*
D780*
X004946Y027453D03*
D781*
X004950Y027453D03*
D782*
X004954Y027453D03*
D783*
X004956Y027453D03*
D784*
X004958Y027454D03*
D785*
X004960Y027453D03*
D786*
X005369Y028979D02*
X005369Y029805D01*
X005369Y028979D02*
X005293Y028979D01*
X005293Y029805D01*
X005369Y029805D01*
X005369Y029653D02*
X005293Y029653D01*
X006869Y029805D02*
X006869Y028979D01*
X006793Y028979D01*
X006793Y029805D01*
X006869Y029805D01*
X006869Y029653D02*
X006793Y029653D01*
X008369Y029805D02*
X008369Y028979D01*
X008293Y028979D01*
X008293Y029805D01*
X008369Y029805D01*
X008369Y029653D02*
X008293Y029653D01*
D787*
X012181Y025706D02*
X012831Y026356D01*
X012831Y031242D01*
X013475Y031886D01*
X013916Y031886D01*
X012617Y026142D02*
X012181Y025706D01*
X012617Y026142D02*
X015331Y026142D01*
X014572Y023246D02*
X012475Y021148D01*
X010188Y021148D01*
X010188Y018944D02*
X009180Y018944D01*
X008048Y020076D01*
X008048Y020741D01*
X004969Y016414D02*
X002459Y014039D01*
X002881Y008746D02*
X002881Y008592D01*
X002831Y008492D01*
X002831Y008493D02*
X002906Y008507D01*
X002982Y008518D01*
X003058Y008525D01*
X003135Y008528D01*
X003211Y008527D01*
X003288Y008523D01*
X003364Y008514D01*
X003440Y008502D01*
X003515Y008486D01*
X003589Y008467D01*
X003662Y008443D01*
X003734Y008417D01*
X003804Y008386D01*
X003873Y008352D01*
X003940Y008315D01*
X004005Y008274D01*
X004068Y008231D01*
X004128Y008184D01*
X004187Y008134D01*
X004242Y008081D01*
X004295Y008026D01*
X004345Y007968D01*
X004393Y007908D01*
X004437Y007845D01*
X004478Y007780D01*
X004516Y007714D01*
X004550Y007645D01*
X004581Y007575D01*
X004608Y007503D01*
X004632Y007430D01*
X004652Y007357D01*
X004668Y007282D01*
X004681Y007206D01*
X004690Y007130D01*
X004695Y007053D01*
X004696Y006977D01*
X004693Y006900D01*
X004687Y006824D01*
X004677Y006748D01*
X004663Y006673D01*
X004645Y006598D01*
X004623Y006524D01*
X004598Y006452D01*
X004570Y006381D01*
X004538Y006311D01*
X004502Y006244D01*
X004463Y006177D01*
X004421Y006114D01*
X004376Y006052D01*
X004327Y005992D01*
X004276Y005935D01*
X004222Y005881D01*
X004165Y005829D01*
X004106Y005781D01*
X004045Y005735D01*
X003981Y005692D01*
X004219Y005553D01*
X009267Y002392D02*
X013431Y002392D01*
X015331Y001492D02*
X016431Y001992D01*
X017831Y002892D01*
X019031Y003992D01*
X020131Y005292D01*
X020831Y006492D01*
X021531Y008192D01*
X021831Y009492D01*
X022031Y010792D01*
X022031Y012092D01*
X021831Y013492D01*
X021431Y014992D01*
X020731Y016492D01*
X020031Y017592D01*
X019231Y018592D01*
X018731Y019192D01*
X018731Y027142D01*
X018731Y029061D01*
X018247Y029445D01*
X016431Y023246D02*
X014572Y023246D01*
X014463Y020624D02*
X014463Y019924D01*
X013431Y018892D01*
X012526Y018892D01*
X017845Y016531D02*
X020013Y014047D01*
X019972Y008738D02*
X019931Y008492D01*
X019857Y008512D01*
X019783Y008529D01*
X019707Y008541D01*
X019631Y008550D01*
X019555Y008555D01*
X019479Y008556D01*
X019402Y008553D01*
X019326Y008547D01*
X019250Y008536D01*
X019175Y008522D01*
X019101Y008505D01*
X019027Y008483D01*
X018955Y008458D01*
X018884Y008430D01*
X018815Y008397D01*
X018747Y008362D01*
X018681Y008323D01*
X018618Y008281D01*
X018556Y008236D01*
X018497Y008187D01*
X018440Y008136D01*
X018386Y008082D01*
X018334Y008026D01*
X018286Y007967D01*
X018240Y007905D01*
X018198Y007842D01*
X018159Y007776D01*
X018123Y007709D01*
X018090Y007639D01*
X018061Y007569D01*
X018036Y007497D01*
X018014Y007423D01*
X017996Y007349D01*
X017982Y007274D01*
X017971Y007198D01*
X017964Y007122D01*
X017961Y007046D01*
X017962Y006969D01*
X017967Y006893D01*
X017975Y006817D01*
X017987Y006742D01*
X018003Y006667D01*
X018023Y006593D01*
X018046Y006520D01*
X018073Y006449D01*
X018103Y006378D01*
X018137Y006310D01*
X018174Y006243D01*
X018215Y006178D01*
X018258Y006116D01*
X018305Y006055D01*
X018355Y005997D01*
X018407Y005942D01*
X018463Y005889D01*
X018520Y005839D01*
X018581Y005792D01*
X018341Y005714D01*
X014122Y002701D02*
X014145Y002623D01*
X014172Y002546D01*
X014202Y002471D01*
X014236Y002397D01*
X014273Y002324D01*
X014314Y002254D01*
X014358Y002186D01*
X014405Y002119D01*
X014455Y002055D01*
X014509Y001994D01*
X014565Y001935D01*
X014624Y001879D01*
X014685Y001825D01*
X014749Y001775D01*
X014816Y001728D01*
X014884Y001684D01*
X014954Y001643D01*
X015027Y001606D01*
X015101Y001572D01*
X015176Y001542D01*
X015253Y001515D01*
X015331Y001492D01*
D788*
X011031Y022736D02*
X005631Y022736D01*
X005381Y022986D01*
X005381Y027286D01*
X006381Y028286D01*
X008031Y028286D01*
X008231Y028086D01*
X008231Y027586D01*
X008381Y027436D01*
X009431Y027436D01*
X009931Y026936D01*
X009931Y026589D01*
X009431Y026589D02*
X009431Y026986D01*
X009231Y027186D01*
X008181Y027186D01*
X007981Y027386D01*
X007981Y027936D01*
X007881Y028036D01*
X006981Y028036D01*
X006981Y027692D01*
X006930Y027641D01*
X006881Y027641D01*
X006877Y027636D01*
X006981Y027692D02*
X006981Y026596D01*
X007481Y026596D02*
X007489Y026589D01*
X008431Y026589D01*
X008431Y026236D01*
X008881Y025786D01*
X010331Y025786D01*
X010531Y025986D01*
X010531Y027336D01*
X010281Y027586D01*
X010281Y027882D01*
X010286Y027886D01*
X010281Y027891D01*
X010281Y028186D01*
X010381Y028286D01*
X011531Y028286D01*
X011581Y028236D01*
X011936Y027886D02*
X011936Y029382D01*
X011831Y029486D01*
X011831Y029692D01*
X010631Y030892D01*
X006431Y030892D01*
X005331Y029792D01*
X005331Y029392D01*
X006481Y028036D02*
X005631Y027186D01*
X005631Y025986D01*
X006481Y025136D01*
X006481Y024176D01*
X006481Y023786D01*
X005977Y023282D01*
X005977Y023186D01*
X006686Y023186D02*
X006981Y023186D01*
X006981Y024176D01*
X007481Y024176D02*
X007481Y024036D01*
X008236Y023282D01*
X008236Y023186D01*
X009927Y023186D01*
X009931Y023191D01*
X009931Y023686D01*
X011081Y023686D01*
X011591Y024196D01*
X011591Y024556D01*
X011591Y024626D01*
X011281Y024936D01*
X011281Y027832D01*
X011227Y027886D01*
X011581Y027536D02*
X011581Y026186D01*
X011731Y026036D01*
X011831Y025986D01*
X012111Y025706D01*
X012181Y025706D01*
X012181Y024656D01*
X012181Y024286D01*
X011081Y023186D01*
X010636Y023186D01*
X011031Y022736D02*
X012331Y024036D01*
X013075Y024036D01*
X013875Y024836D01*
X016575Y024836D01*
X017329Y025590D01*
X017329Y026120D01*
X017331Y025724D01*
X017331Y025592D01*
X010831Y029242D02*
X010831Y029486D01*
X010831Y029692D01*
X009931Y030592D01*
X007231Y030592D01*
X006831Y030192D01*
X006831Y029392D01*
X006981Y028036D02*
X006481Y028036D01*
X005981Y026596D02*
X005981Y026086D01*
X007481Y024586D01*
X007481Y024176D01*
X007527Y023186D02*
X006981Y023186D01*
X009081Y026036D02*
X008931Y026186D01*
X008931Y026589D01*
X009081Y026036D02*
X010181Y026036D01*
X010281Y026136D01*
X010281Y027186D01*
X009931Y027536D01*
X009577Y027886D02*
X009577Y028438D01*
X009831Y028692D01*
X009831Y029486D01*
X009831Y029992D01*
X009531Y030292D01*
X008531Y030292D01*
X008331Y030092D01*
X008331Y029392D01*
X007586Y027636D02*
X007481Y027532D01*
X007481Y026596D01*
X009931Y028236D02*
X009931Y028342D01*
X010831Y029242D01*
X009931Y024184D02*
X009931Y023686D01*
D789*
X009931Y027536D02*
X009931Y028236D01*
X011581Y028236D02*
X011581Y027536D01*
D790*
X013385Y025170D02*
X012771Y024556D01*
X013385Y025170D02*
X016359Y025170D01*
X016781Y025592D01*
X016781Y027542D01*
X016581Y027742D01*
X014031Y027742D01*
X013831Y027542D01*
X013831Y027100D01*
X013845Y027086D01*
X014927Y027086D02*
X015847Y027086D01*
X015534Y026120D02*
X015354Y026120D01*
X015331Y026142D01*
X017417Y027086D02*
X018631Y027086D01*
D791*
X012475Y018944D02*
X012526Y018892D01*
X008797Y002862D02*
X009267Y002392D01*
X013431Y002392D02*
X013968Y002701D01*
X014122Y002701D01*
D792*
X018631Y027086D02*
X018731Y027142D01*
M02*
