G75*
G70*
%OFA0B0*%
%FSLAX24Y24*%
%IPPOS*%
%LPD*%
%AMOC8*
5,1,8,0,0,1.08239X$1,22.5*
%
%ADD10C,0.0080*%
%ADD11C,0.0060*%
%ADD12C,0.0000*%
%ADD13C,0.0070*%
%ADD14C,0.0040*%
%ADD15C,0.0118*%
%ADD16R,0.0374X0.0276*%
%ADD17R,0.0463X0.0276*%
%ADD18C,0.0039*%
%ADD19R,0.0062X0.0002*%
%ADD20R,0.0105X0.0002*%
%ADD21R,0.0133X0.0002*%
%ADD22R,0.0159X0.0002*%
%ADD23R,0.0179X0.0002*%
%ADD24R,0.0199X0.0002*%
%ADD25R,0.0215X0.0002*%
%ADD26R,0.0229X0.0002*%
%ADD27R,0.0246X0.0002*%
%ADD28R,0.0258X0.0002*%
%ADD29R,0.0272X0.0002*%
%ADD30R,0.0284X0.0002*%
%ADD31R,0.0296X0.0002*%
%ADD32R,0.0308X0.0002*%
%ADD33R,0.0320X0.0002*%
%ADD34R,0.0330X0.0002*%
%ADD35R,0.0340X0.0002*%
%ADD36R,0.0346X0.0002*%
%ADD37R,0.0350X0.0002*%
%ADD38R,0.0350X0.0002*%
%ADD39R,0.0354X0.0002*%
%ADD40R,0.0358X0.0002*%
%ADD41R,0.0360X0.0002*%
%ADD42R,0.0362X0.0002*%
%ADD43R,0.0366X0.0002*%
%ADD44R,0.0368X0.0002*%
%ADD45R,0.0368X0.0002*%
%ADD46R,0.0372X0.0002*%
%ADD47R,0.0374X0.0002*%
%ADD48R,0.0378X0.0002*%
%ADD49R,0.0378X0.0002*%
%ADD50R,0.0380X0.0002*%
%ADD51R,0.0382X0.0002*%
%ADD52R,0.0386X0.0002*%
%ADD53R,0.0386X0.0002*%
%ADD54R,0.0388X0.0002*%
%ADD55R,0.0390X0.0002*%
%ADD56R,0.0392X0.0002*%
%ADD57R,0.0392X0.0002*%
%ADD58R,0.0395X0.0002*%
%ADD59R,0.0397X0.0002*%
%ADD60R,0.0399X0.0002*%
%ADD61R,0.0399X0.0002*%
%ADD62R,0.0401X0.0002*%
%ADD63R,0.0403X0.0002*%
%ADD64R,0.0405X0.0002*%
%ADD65R,0.0405X0.0002*%
%ADD66R,0.0407X0.0002*%
%ADD67R,0.0409X0.0002*%
%ADD68R,0.0409X0.0002*%
%ADD69R,0.0411X0.0002*%
%ADD70R,0.0137X0.0002*%
%ADD71R,0.0213X0.0002*%
%ADD72R,0.0119X0.0002*%
%ADD73R,0.0197X0.0002*%
%ADD74R,0.0105X0.0002*%
%ADD75R,0.0189X0.0002*%
%ADD76R,0.0093X0.0002*%
%ADD77R,0.0181X0.0002*%
%ADD78R,0.0085X0.0002*%
%ADD79R,0.0175X0.0002*%
%ADD80R,0.0074X0.0002*%
%ADD81R,0.0167X0.0002*%
%ADD82R,0.0064X0.0002*%
%ADD83R,0.0163X0.0002*%
%ADD84R,0.0056X0.0002*%
%ADD85R,0.0159X0.0002*%
%ADD86R,0.0048X0.0002*%
%ADD87R,0.0155X0.0002*%
%ADD88R,0.0040X0.0002*%
%ADD89R,0.0151X0.0002*%
%ADD90R,0.0030X0.0002*%
%ADD91R,0.0149X0.0002*%
%ADD92R,0.0022X0.0002*%
%ADD93R,0.0145X0.0002*%
%ADD94R,0.0014X0.0002*%
%ADD95R,0.0143X0.0002*%
%ADD96R,0.0006X0.0002*%
%ADD97R,0.0139X0.0002*%
%ADD98R,0.0137X0.0002*%
%ADD99R,0.0133X0.0002*%
%ADD100R,0.0133X0.0002*%
%ADD101R,0.0129X0.0002*%
%ADD102R,0.0129X0.0002*%
%ADD103R,0.0127X0.0002*%
%ADD104R,0.0127X0.0002*%
%ADD105R,0.0125X0.0002*%
%ADD106R,0.0125X0.0002*%
%ADD107R,0.0123X0.0002*%
%ADD108R,0.0123X0.0002*%
%ADD109R,0.0121X0.0002*%
%ADD110R,0.0121X0.0002*%
%ADD111R,0.0119X0.0002*%
%ADD112R,0.0117X0.0002*%
%ADD113R,0.0115X0.0002*%
%ADD114R,0.0117X0.0002*%
%ADD115R,0.0115X0.0002*%
%ADD116R,0.0115X0.0002*%
%ADD117R,0.0113X0.0002*%
%ADD118R,0.0113X0.0002*%
%ADD119R,0.0113X0.0002*%
%ADD120R,0.0111X0.0002*%
%ADD121R,0.0111X0.0002*%
%ADD122R,0.0109X0.0002*%
%ADD123R,0.0109X0.0002*%
%ADD124R,0.0109X0.0002*%
%ADD125R,0.0107X0.0002*%
%ADD126R,0.0107X0.0002*%
%ADD127R,0.0107X0.0002*%
%ADD128R,0.0107X0.0002*%
%ADD129R,0.0105X0.0002*%
%ADD130R,0.0105X0.0002*%
%ADD131R,0.0105X0.0002*%
%ADD132R,0.0054X0.0002*%
%ADD133R,0.0062X0.0002*%
%ADD134R,0.0062X0.0002*%
%ADD135R,0.0085X0.0002*%
%ADD136R,0.0097X0.0002*%
%ADD137R,0.0093X0.0002*%
%ADD138R,0.0095X0.0002*%
%ADD139R,0.0020X0.0002*%
%ADD140R,0.0125X0.0002*%
%ADD141R,0.0107X0.0002*%
%ADD142R,0.0141X0.0002*%
%ADD143R,0.0133X0.0002*%
%ADD144R,0.0038X0.0002*%
%ADD145R,0.0137X0.0002*%
%ADD146R,0.0141X0.0002*%
%ADD147R,0.0157X0.0002*%
%ADD148R,0.0147X0.0002*%
%ADD149R,0.0050X0.0002*%
%ADD150R,0.0153X0.0002*%
%ADD151R,0.0173X0.0002*%
%ADD152R,0.0169X0.0002*%
%ADD153R,0.0169X0.0002*%
%ADD154R,0.0171X0.0002*%
%ADD155R,0.0185X0.0002*%
%ADD156R,0.0326X0.0002*%
%ADD157R,0.0171X0.0002*%
%ADD158R,0.0070X0.0002*%
%ADD159R,0.0131X0.0002*%
%ADD160R,0.0183X0.0002*%
%ADD161R,0.0183X0.0002*%
%ADD162R,0.0183X0.0002*%
%ADD163R,0.0199X0.0002*%
%ADD164R,0.0181X0.0002*%
%ADD165R,0.0074X0.0002*%
%ADD166R,0.0145X0.0002*%
%ADD167R,0.0195X0.0002*%
%ADD168R,0.0195X0.0002*%
%ADD169R,0.0193X0.0002*%
%ADD170R,0.0211X0.0002*%
%ADD171R,0.0352X0.0002*%
%ADD172R,0.0193X0.0002*%
%ADD173R,0.0083X0.0002*%
%ADD174R,0.0157X0.0002*%
%ADD175R,0.0207X0.0002*%
%ADD176R,0.0205X0.0002*%
%ADD177R,0.0201X0.0002*%
%ADD178R,0.0221X0.0002*%
%ADD179R,0.0360X0.0002*%
%ADD180R,0.0203X0.0002*%
%ADD181R,0.0087X0.0002*%
%ADD182R,0.0165X0.0002*%
%ADD183R,0.0217X0.0002*%
%ADD184R,0.0217X0.0002*%
%ADD185R,0.0207X0.0002*%
%ADD186R,0.0231X0.0002*%
%ADD187R,0.0366X0.0002*%
%ADD188R,0.0091X0.0002*%
%ADD189R,0.0175X0.0002*%
%ADD190R,0.0229X0.0002*%
%ADD191R,0.0225X0.0002*%
%ADD192R,0.0213X0.0002*%
%ADD193R,0.0242X0.0002*%
%ADD194R,0.0372X0.0002*%
%ADD195R,0.0221X0.0002*%
%ADD196R,0.0097X0.0002*%
%ADD197R,0.0238X0.0002*%
%ADD198R,0.0237X0.0002*%
%ADD199R,0.0252X0.0002*%
%ADD200R,0.0378X0.0002*%
%ADD201R,0.0101X0.0002*%
%ADD202R,0.0187X0.0002*%
%ADD203R,0.0248X0.0002*%
%ADD204R,0.0246X0.0002*%
%ADD205R,0.0223X0.0002*%
%ADD206R,0.0260X0.0002*%
%ADD207R,0.0384X0.0002*%
%ADD208R,0.0238X0.0002*%
%ADD209R,0.0254X0.0002*%
%ADD210R,0.0227X0.0002*%
%ADD211R,0.0270X0.0002*%
%ADD212R,0.0246X0.0002*%
%ADD213R,0.0266X0.0002*%
%ADD214R,0.0262X0.0002*%
%ADD215R,0.0231X0.0002*%
%ADD216R,0.0280X0.0002*%
%ADD217R,0.0252X0.0002*%
%ADD218R,0.0205X0.0002*%
%ADD219R,0.0274X0.0002*%
%ADD220R,0.0270X0.0002*%
%ADD221R,0.0235X0.0002*%
%ADD222R,0.0288X0.0002*%
%ADD223R,0.0399X0.0002*%
%ADD224R,0.0260X0.0002*%
%ADD225R,0.0282X0.0002*%
%ADD226R,0.0278X0.0002*%
%ADD227R,0.0296X0.0002*%
%ADD228R,0.0215X0.0002*%
%ADD229R,0.0290X0.0002*%
%ADD230R,0.0286X0.0002*%
%ADD231R,0.0241X0.0002*%
%ADD232R,0.0300X0.0002*%
%ADD233R,0.0405X0.0002*%
%ADD234R,0.0272X0.0002*%
%ADD235R,0.0121X0.0002*%
%ADD236R,0.0221X0.0002*%
%ADD237R,0.0298X0.0002*%
%ADD238R,0.0292X0.0002*%
%ADD239R,0.0244X0.0002*%
%ADD240R,0.0308X0.0002*%
%ADD241R,0.0123X0.0002*%
%ADD242R,0.0304X0.0002*%
%ADD243R,0.0294X0.0002*%
%ADD244R,0.0316X0.0002*%
%ADD245R,0.0411X0.0002*%
%ADD246R,0.0312X0.0002*%
%ADD247R,0.0250X0.0002*%
%ADD248R,0.0324X0.0002*%
%ADD249R,0.0415X0.0002*%
%ADD250R,0.0292X0.0002*%
%ADD251R,0.0233X0.0002*%
%ADD252R,0.0318X0.0002*%
%ADD253R,0.0302X0.0002*%
%ADD254R,0.0328X0.0002*%
%ADD255R,0.0417X0.0002*%
%ADD256R,0.0324X0.0002*%
%ADD257R,0.0256X0.0002*%
%ADD258R,0.0336X0.0002*%
%ADD259R,0.0421X0.0002*%
%ADD260R,0.0131X0.0002*%
%ADD261R,0.0330X0.0002*%
%ADD262R,0.0258X0.0002*%
%ADD263R,0.0340X0.0002*%
%ADD264R,0.0423X0.0002*%
%ADD265R,0.0135X0.0002*%
%ADD266R,0.0338X0.0002*%
%ADD267R,0.0310X0.0002*%
%ADD268R,0.0348X0.0002*%
%ADD269R,0.0425X0.0002*%
%ADD270R,0.0342X0.0002*%
%ADD271R,0.0314X0.0002*%
%ADD272R,0.0262X0.0002*%
%ADD273R,0.0429X0.0002*%
%ADD274R,0.0320X0.0002*%
%ADD275R,0.0316X0.0002*%
%ADD276R,0.0264X0.0002*%
%ADD277R,0.0360X0.0002*%
%ADD278R,0.0431X0.0002*%
%ADD279R,0.0324X0.0002*%
%ADD280R,0.0139X0.0002*%
%ADD281R,0.0256X0.0002*%
%ADD282R,0.0318X0.0002*%
%ADD283R,0.0266X0.0002*%
%ADD284R,0.0364X0.0002*%
%ADD285R,0.0433X0.0002*%
%ADD286R,0.0139X0.0002*%
%ADD287R,0.0360X0.0002*%
%ADD288R,0.0322X0.0002*%
%ADD289R,0.0268X0.0002*%
%ADD290R,0.0370X0.0002*%
%ADD291R,0.0435X0.0002*%
%ADD292R,0.0330X0.0002*%
%ADD293R,0.0376X0.0002*%
%ADD294R,0.0437X0.0002*%
%ADD295R,0.0332X0.0002*%
%ADD296R,0.0141X0.0002*%
%ADD297R,0.0326X0.0002*%
%ADD298R,0.0272X0.0002*%
%ADD299R,0.0380X0.0002*%
%ADD300R,0.0439X0.0002*%
%ADD301R,0.0334X0.0002*%
%ADD302R,0.0143X0.0002*%
%ADD303R,0.0268X0.0002*%
%ADD304R,0.0376X0.0002*%
%ADD305R,0.0274X0.0002*%
%ADD306R,0.0441X0.0002*%
%ADD307R,0.0382X0.0002*%
%ADD308R,0.0276X0.0002*%
%ADD309R,0.0391X0.0002*%
%ADD310R,0.0443X0.0002*%
%ADD311R,0.0340X0.0002*%
%ADD312R,0.0274X0.0002*%
%ADD313R,0.0334X0.0002*%
%ADD314R,0.0445X0.0002*%
%ADD315R,0.0342X0.0002*%
%ADD316R,0.0278X0.0002*%
%ADD317R,0.0401X0.0002*%
%ADD318R,0.0445X0.0002*%
%ADD319R,0.0344X0.0002*%
%ADD320R,0.0395X0.0002*%
%ADD321R,0.0280X0.0002*%
%ADD322R,0.0447X0.0002*%
%ADD323R,0.0409X0.0002*%
%ADD324R,0.0449X0.0002*%
%ADD325R,0.0348X0.0002*%
%ADD326R,0.0407X0.0002*%
%ADD327R,0.0344X0.0002*%
%ADD328R,0.0415X0.0002*%
%ADD329R,0.0451X0.0002*%
%ADD330R,0.0350X0.0002*%
%ADD331R,0.0411X0.0002*%
%ADD332R,0.0346X0.0002*%
%ADD333R,0.0284X0.0002*%
%ADD334R,0.0419X0.0002*%
%ADD335R,0.0451X0.0002*%
%ADD336R,0.0352X0.0002*%
%ADD337R,0.0290X0.0002*%
%ADD338R,0.0415X0.0002*%
%ADD339R,0.0286X0.0002*%
%ADD340R,0.0423X0.0002*%
%ADD341R,0.0453X0.0002*%
%ADD342R,0.0354X0.0002*%
%ADD343R,0.0292X0.0002*%
%ADD344R,0.0419X0.0002*%
%ADD345R,0.0427X0.0002*%
%ADD346R,0.0455X0.0002*%
%ADD347R,0.0356X0.0002*%
%ADD348R,0.0288X0.0002*%
%ADD349R,0.0431X0.0002*%
%ADD350R,0.0358X0.0002*%
%ADD351R,0.0296X0.0002*%
%ADD352R,0.0290X0.0002*%
%ADD353R,0.0435X0.0002*%
%ADD354R,0.0457X0.0002*%
%ADD355R,0.0300X0.0002*%
%ADD356R,0.0356X0.0002*%
%ADD357R,0.0290X0.0002*%
%ADD358R,0.0439X0.0002*%
%ADD359R,0.0457X0.0002*%
%ADD360R,0.0362X0.0002*%
%ADD361R,0.0302X0.0002*%
%ADD362R,0.0443X0.0002*%
%ADD363R,0.0459X0.0002*%
%ADD364R,0.0304X0.0002*%
%ADD365R,0.0447X0.0002*%
%ADD366R,0.0461X0.0002*%
%ADD367R,0.0306X0.0002*%
%ADD368R,0.0360X0.0002*%
%ADD369R,0.0294X0.0002*%
%ADD370R,0.0461X0.0002*%
%ADD371R,0.0368X0.0002*%
%ADD372R,0.0447X0.0002*%
%ADD373R,0.0463X0.0002*%
%ADD374R,0.0368X0.0002*%
%ADD375R,0.0457X0.0002*%
%ADD376R,0.0455X0.0002*%
%ADD377R,0.0372X0.0002*%
%ADD378R,0.0314X0.0002*%
%ADD379R,0.0203X0.0002*%
%ADD380R,0.0298X0.0002*%
%ADD381R,0.0201X0.0002*%
%ADD382R,0.0201X0.0002*%
%ADD383R,0.0465X0.0002*%
%ADD384R,0.0121X0.0002*%
%ADD385R,0.0316X0.0002*%
%ADD386R,0.0191X0.0002*%
%ADD387R,0.0298X0.0002*%
%ADD388R,0.0189X0.0002*%
%ADD389R,0.0465X0.0002*%
%ADD390R,0.0300X0.0002*%
%ADD391R,0.0181X0.0002*%
%ADD392R,0.0467X0.0002*%
%ADD393R,0.0103X0.0002*%
%ADD394R,0.0320X0.0002*%
%ADD395R,0.0177X0.0002*%
%ADD396R,0.0171X0.0002*%
%ADD397R,0.0079X0.0002*%
%ADD398R,0.0173X0.0002*%
%ADD399R,0.0169X0.0002*%
%ADD400R,0.0467X0.0002*%
%ADD401R,0.0171X0.0002*%
%ADD402R,0.0091X0.0002*%
%ADD403R,0.0324X0.0002*%
%ADD404R,0.0173X0.0002*%
%ADD405R,0.0072X0.0002*%
%ADD406R,0.0469X0.0002*%
%ADD407R,0.0163X0.0002*%
%ADD408R,0.0066X0.0002*%
%ADD409R,0.0165X0.0002*%
%ADD410R,0.0161X0.0002*%
%ADD411R,0.0149X0.0002*%
%ADD412R,0.0163X0.0002*%
%ADD413R,0.0081X0.0002*%
%ADD414R,0.0139X0.0002*%
%ADD415R,0.0076X0.0002*%
%ADD416R,0.0157X0.0002*%
%ADD417R,0.0058X0.0002*%
%ADD418R,0.0159X0.0002*%
%ADD419R,0.0155X0.0002*%
%ADD420R,0.0137X0.0002*%
%ADD421R,0.0159X0.0002*%
%ADD422R,0.0072X0.0002*%
%ADD423R,0.0195X0.0002*%
%ADD424R,0.0052X0.0002*%
%ADD425R,0.0127X0.0002*%
%ADD426R,0.0153X0.0002*%
%ADD427R,0.0155X0.0002*%
%ADD428R,0.0068X0.0002*%
%ADD429R,0.0189X0.0002*%
%ADD430R,0.0125X0.0002*%
%ADD431R,0.0151X0.0002*%
%ADD432R,0.0064X0.0002*%
%ADD433R,0.0044X0.0002*%
%ADD434R,0.0123X0.0002*%
%ADD435R,0.0103X0.0002*%
%ADD436R,0.0179X0.0002*%
%ADD437R,0.0147X0.0002*%
%ADD438R,0.0040X0.0002*%
%ADD439R,0.0151X0.0002*%
%ADD440R,0.0125X0.0002*%
%ADD441R,0.0099X0.0002*%
%ADD442R,0.0175X0.0002*%
%ADD443R,0.0145X0.0002*%
%ADD444R,0.0036X0.0002*%
%ADD445R,0.0056X0.0002*%
%ADD446R,0.0095X0.0002*%
%ADD447R,0.0032X0.0002*%
%ADD448R,0.0117X0.0002*%
%ADD449R,0.0052X0.0002*%
%ADD450R,0.0028X0.0002*%
%ADD451R,0.0115X0.0002*%
%ADD452R,0.0050X0.0002*%
%ADD453R,0.0141X0.0002*%
%ADD454R,0.0024X0.0002*%
%ADD455R,0.0117X0.0002*%
%ADD456R,0.0046X0.0002*%
%ADD457R,0.0119X0.0002*%
%ADD458R,0.0074X0.0002*%
%ADD459R,0.0143X0.0002*%
%ADD460R,0.0137X0.0002*%
%ADD461R,0.0016X0.0002*%
%ADD462R,0.0042X0.0002*%
%ADD463R,0.0135X0.0002*%
%ADD464R,0.0012X0.0002*%
%ADD465R,0.0038X0.0002*%
%ADD466R,0.0058X0.0002*%
%ADD467R,0.0010X0.0002*%
%ADD468R,0.0135X0.0002*%
%ADD469R,0.0115X0.0002*%
%ADD470R,0.0135X0.0002*%
%ADD471R,0.0036X0.0002*%
%ADD472R,0.0153X0.0002*%
%ADD473R,0.0034X0.0002*%
%ADD474R,0.0034X0.0002*%
%ADD475R,0.0002X0.0002*%
%ADD476R,0.0133X0.0002*%
%ADD477R,0.0030X0.0002*%
%ADD478R,0.0149X0.0002*%
%ADD479R,0.0129X0.0002*%
%ADD480R,0.0131X0.0002*%
%ADD481R,0.0028X0.0002*%
%ADD482R,0.0024X0.0002*%
%ADD483R,0.0022X0.0002*%
%ADD484R,0.0020X0.0002*%
%ADD485R,0.0018X0.0002*%
%ADD486R,0.0121X0.0002*%
%ADD487R,0.0012X0.0002*%
%ADD488R,0.0127X0.0002*%
%ADD489R,0.0010X0.0002*%
%ADD490R,0.0008X0.0002*%
%ADD491R,0.0006X0.0002*%
%ADD492R,0.0119X0.0002*%
%ADD493R,0.0004X0.0002*%
%ADD494R,0.0002X0.0002*%
%ADD495R,0.0117X0.0002*%
%ADD496R,0.0004X0.0002*%
%ADD497R,0.0111X0.0002*%
%ADD498R,0.0111X0.0002*%
%ADD499R,0.0018X0.0002*%
%ADD500R,0.0109X0.0002*%
%ADD501R,0.0022X0.0002*%
%ADD502R,0.0042X0.0002*%
%ADD503R,0.0046X0.0002*%
%ADD504R,0.0056X0.0002*%
%ADD505R,0.0161X0.0002*%
%ADD506R,0.0070X0.0002*%
%ADD507R,0.0109X0.0002*%
%ADD508R,0.0185X0.0002*%
%ADD509R,0.0089X0.0002*%
%ADD510R,0.0093X0.0002*%
%ADD511R,0.0099X0.0002*%
%ADD512R,0.0211X0.0002*%
%ADD513R,0.0231X0.0002*%
%ADD514R,0.0240X0.0002*%
%ADD515R,0.0149X0.0002*%
%ADD516R,0.0264X0.0002*%
%ADD517R,0.0268X0.0002*%
%ADD518R,0.0272X0.0002*%
%ADD519R,0.0167X0.0002*%
%ADD520R,0.0068X0.0002*%
%ADD521R,0.0284X0.0002*%
%ADD522R,0.0018X0.0002*%
%ADD523R,0.0185X0.0002*%
%ADD524R,0.0002X0.0002*%
%ADD525R,0.0197X0.0002*%
%ADD526R,0.0197X0.0002*%
%ADD527R,0.0310X0.0002*%
%ADD528R,0.0199X0.0002*%
%ADD529R,0.0310X0.0002*%
%ADD530R,0.0312X0.0002*%
%ADD531R,0.0312X0.0002*%
%ADD532R,0.0310X0.0002*%
%ADD533R,0.0306X0.0002*%
%ADD534R,0.0199X0.0002*%
%ADD535R,0.0197X0.0002*%
%ADD536R,0.0296X0.0002*%
%ADD537R,0.0254X0.0002*%
%ADD538R,0.0225X0.0002*%
%ADD539R,0.0219X0.0002*%
%ADD540R,0.0157X0.0002*%
%ADD541R,0.0107X0.0002*%
%ADD542R,0.0117X0.0002*%
%ADD543R,0.0197X0.0002*%
%ADD544R,0.0141X0.0002*%
%ADD545R,0.0111X0.0002*%
%ADD546R,0.0119X0.0002*%
%ADD547R,0.0111X0.0002*%
%ADD548R,0.0123X0.0002*%
%ADD549R,0.0197X0.0002*%
%ADD550R,0.0121X0.0002*%
%ADD551R,0.0119X0.0002*%
%ADD552R,0.0127X0.0002*%
%ADD553R,0.0193X0.0002*%
%ADD554R,0.0187X0.0002*%
%ADD555R,0.0131X0.0002*%
%ADD556R,0.0125X0.0002*%
%ADD557R,0.0123X0.0002*%
%ADD558R,0.0177X0.0002*%
%ADD559R,0.0127X0.0002*%
%ADD560R,0.0163X0.0002*%
%ADD561R,0.0135X0.0002*%
%ADD562R,0.0129X0.0002*%
%ADD563R,0.0143X0.0002*%
%ADD564R,0.0139X0.0002*%
%ADD565R,0.0135X0.0002*%
%ADD566R,0.0115X0.0002*%
%ADD567R,0.0129X0.0002*%
%ADD568R,0.0137X0.0002*%
%ADD569R,0.0131X0.0002*%
%ADD570R,0.0141X0.0002*%
%ADD571R,0.0153X0.0002*%
%ADD572R,0.0151X0.0002*%
%ADD573R,0.0155X0.0002*%
%ADD574R,0.0159X0.0002*%
%ADD575R,0.0161X0.0002*%
%ADD576R,0.0143X0.0002*%
%ADD577R,0.0147X0.0002*%
%ADD578R,0.0165X0.0002*%
%ADD579R,0.0167X0.0002*%
%ADD580R,0.0167X0.0002*%
%ADD581R,0.0153X0.0002*%
%ADD582R,0.0175X0.0002*%
%ADD583R,0.0149X0.0002*%
%ADD584R,0.0179X0.0002*%
%ADD585R,0.0153X0.0002*%
%ADD586R,0.0191X0.0002*%
%ADD587R,0.0161X0.0002*%
%ADD588R,0.0195X0.0002*%
%ADD589R,0.0199X0.0002*%
%ADD590R,0.0163X0.0002*%
%ADD591R,0.0207X0.0002*%
%ADD592R,0.0167X0.0002*%
%ADD593R,0.0173X0.0002*%
%ADD594R,0.0316X0.0002*%
%ADD595R,0.0171X0.0002*%
%ADD596R,0.0441X0.0002*%
%ADD597R,0.0177X0.0002*%
%ADD598R,0.0322X0.0002*%
%ADD599R,0.0173X0.0002*%
%ADD600R,0.0229X0.0002*%
%ADD601R,0.0441X0.0002*%
%ADD602R,0.0185X0.0002*%
%ADD603R,0.0320X0.0002*%
%ADD604R,0.0147X0.0002*%
%ADD605R,0.0240X0.0002*%
%ADD606R,0.0179X0.0002*%
%ADD607R,0.0264X0.0002*%
%ADD608R,0.0199X0.0002*%
%ADD609R,0.0201X0.0002*%
%ADD610R,0.0439X0.0002*%
%ADD611R,0.0205X0.0002*%
%ADD612R,0.0211X0.0002*%
%ADD613R,0.0201X0.0002*%
%ADD614R,0.0165X0.0002*%
%ADD615R,0.0286X0.0002*%
%ADD616R,0.0449X0.0002*%
%ADD617R,0.0437X0.0002*%
%ADD618R,0.0473X0.0002*%
%ADD619R,0.0314X0.0002*%
%ADD620R,0.0455X0.0002*%
%ADD621R,0.0702X0.0002*%
%ADD622R,0.0700X0.0002*%
%ADD623R,0.0698X0.0002*%
%ADD624R,0.0445X0.0002*%
%ADD625R,0.0435X0.0002*%
%ADD626R,0.0463X0.0002*%
%ADD627R,0.0308X0.0002*%
%ADD628R,0.0447X0.0002*%
%ADD629R,0.0694X0.0002*%
%ADD630R,0.0433X0.0002*%
%ADD631R,0.0459X0.0002*%
%ADD632R,0.0443X0.0002*%
%ADD633R,0.0694X0.0002*%
%ADD634R,0.0431X0.0002*%
%ADD635R,0.0690X0.0002*%
%ADD636R,0.0427X0.0002*%
%ADD637R,0.0686X0.0002*%
%ADD638R,0.0423X0.0002*%
%ADD639R,0.0429X0.0002*%
%ADD640R,0.0431X0.0002*%
%ADD641R,0.0449X0.0002*%
%ADD642R,0.0298X0.0002*%
%ADD643R,0.0686X0.0002*%
%ADD644R,0.0425X0.0002*%
%ADD645R,0.0429X0.0002*%
%ADD646R,0.0427X0.0002*%
%ADD647R,0.0682X0.0002*%
%ADD648R,0.0421X0.0002*%
%ADD649R,0.0441X0.0002*%
%ADD650R,0.0678X0.0002*%
%ADD651R,0.0676X0.0002*%
%ADD652R,0.0407X0.0002*%
%ADD653R,0.0413X0.0002*%
%ADD654R,0.0425X0.0002*%
%ADD655R,0.0433X0.0002*%
%ADD656R,0.0290X0.0002*%
%ADD657R,0.0415X0.0002*%
%ADD658R,0.0336X0.0002*%
%ADD659R,0.0336X0.0002*%
%ADD660R,0.0403X0.0002*%
%ADD661R,0.0423X0.0002*%
%ADD662R,0.0429X0.0002*%
%ADD663R,0.0286X0.0002*%
%ADD664R,0.0411X0.0002*%
%ADD665R,0.0332X0.0002*%
%ADD666R,0.0399X0.0002*%
%ADD667R,0.0328X0.0002*%
%ADD668R,0.0394X0.0002*%
%ADD669R,0.0390X0.0002*%
%ADD670R,0.0397X0.0002*%
%ADD671R,0.0419X0.0002*%
%ADD672R,0.0417X0.0002*%
%ADD673R,0.0278X0.0002*%
%ADD674R,0.0395X0.0002*%
%ADD675R,0.0324X0.0002*%
%ADD676R,0.0386X0.0002*%
%ADD677R,0.0417X0.0002*%
%ADD678R,0.0413X0.0002*%
%ADD679R,0.0276X0.0002*%
%ADD680R,0.0391X0.0002*%
%ADD681R,0.0382X0.0002*%
%ADD682R,0.0316X0.0002*%
%ADD683R,0.0413X0.0002*%
%ADD684R,0.0372X0.0002*%
%ADD685R,0.0396X0.0002*%
%ADD686R,0.0268X0.0002*%
%ADD687R,0.0376X0.0002*%
%ADD688R,0.0370X0.0002*%
%ADD689R,0.0304X0.0002*%
%ADD690R,0.0380X0.0002*%
%ADD691R,0.0352X0.0002*%
%ADD692R,0.0356X0.0002*%
%ADD693R,0.0403X0.0002*%
%ADD694R,0.0376X0.0002*%
%ADD695R,0.0256X0.0002*%
%ADD696R,0.0354X0.0002*%
%ADD697R,0.0294X0.0002*%
%ADD698R,0.0292X0.0002*%
%ADD699R,0.0350X0.0002*%
%ADD700R,0.0350X0.0002*%
%ADD701R,0.0288X0.0002*%
%ADD702R,0.0346X0.0002*%
%ADD703R,0.0364X0.0002*%
%ADD704R,0.0334X0.0002*%
%ADD705R,0.0280X0.0002*%
%ADD706R,0.0328X0.0002*%
%ADD707R,0.0334X0.0002*%
%ADD708R,0.0242X0.0002*%
%ADD709R,0.0330X0.0002*%
%ADD710R,0.0274X0.0002*%
%ADD711R,0.0276X0.0002*%
%ADD712R,0.0388X0.0002*%
%ADD713R,0.0237X0.0002*%
%ADD714R,0.0270X0.0002*%
%ADD715R,0.0270X0.0002*%
%ADD716R,0.0264X0.0002*%
%ADD717R,0.0304X0.0002*%
%ADD718R,0.0380X0.0002*%
%ADD719R,0.0326X0.0002*%
%ADD720R,0.0225X0.0002*%
%ADD721R,0.0254X0.0002*%
%ADD722R,0.0300X0.0002*%
%ADD723R,0.0298X0.0002*%
%ADD724R,0.0250X0.0002*%
%ADD725R,0.0248X0.0002*%
%ADD726R,0.0244X0.0002*%
%ADD727R,0.0274X0.0002*%
%ADD728R,0.0362X0.0002*%
%ADD729R,0.0296X0.0002*%
%ADD730R,0.0205X0.0002*%
%ADD731R,0.0229X0.0002*%
%ADD732R,0.0231X0.0002*%
%ADD733R,0.0266X0.0002*%
%ADD734R,0.0358X0.0002*%
%ADD735R,0.0223X0.0002*%
%ADD736R,0.0215X0.0002*%
%ADD737R,0.0209X0.0002*%
%ADD738R,0.0240X0.0002*%
%ADD739R,0.0244X0.0002*%
%ADD740R,0.0340X0.0002*%
%ADD741R,0.0262X0.0002*%
%ADD742R,0.0238X0.0002*%
%ADD743R,0.0229X0.0002*%
%ADD744R,0.0231X0.0002*%
%ADD745R,0.0229X0.0002*%
%ADD746R,0.0219X0.0002*%
%ADD747R,0.0223X0.0002*%
%ADD748R,0.0183X0.0002*%
%ADD749R,0.0215X0.0002*%
%ADD750R,0.0195X0.0002*%
%ADD751R,0.0203X0.0002*%
%ADD752R,0.0187X0.0002*%
%ADD753R,0.0169X0.0002*%
%ADD754R,0.0143X0.0002*%
%ADD755R,0.0155X0.0002*%
%ADD756R,0.0095X0.0002*%
%ADD757R,0.0078X0.0002*%
%ADD758R,0.0081X0.0002*%
%ADD759R,0.0072X0.0002*%
%ADD760R,0.0020X0.0002*%
%ADD761R,0.0050X0.0002*%
%ADD762R,0.0060X0.0002*%
%ADD763R,0.0066X0.0002*%
%ADD764R,0.0079X0.0002*%
%ADD765R,0.0089X0.0002*%
%ADD766R,0.0091X0.0002*%
%ADD767R,0.0095X0.0002*%
%ADD768R,0.0099X0.0002*%
%ADD769R,0.0103X0.0002*%
%ADD770R,0.0101X0.0002*%
%ADD771R,0.0087X0.0002*%
%ADD772R,0.0074X0.0002*%
%ADD773R,0.0062X0.0002*%
%ADD774R,0.0054X0.0002*%
%ADD775R,0.0044X0.0002*%
%ADD776R,0.0030X0.0002*%
%ADD777C,0.0020*%
%ADD778C,0.0100*%
%ADD779R,0.0059X0.0827*%
%ADD780C,0.0050*%
%ADD781R,0.0340X0.0300*%
%ADD782C,0.0001*%
%ADD783C,0.0030*%
D10*
X019244Y003479D02*
X019612Y003864D01*
X019961Y004267D01*
X020290Y004685D01*
X020599Y005119D01*
X020887Y005567D01*
X021153Y006029D01*
X021397Y006502D01*
X021618Y006987D01*
X021816Y007481D01*
X021991Y007984D01*
X022141Y008496D01*
X022266Y009013D01*
X022367Y009536D01*
X022443Y010063D01*
X022493Y010594D01*
X022519Y011126D01*
X022519Y011658D01*
X022493Y012190D01*
X022443Y012721D01*
X022367Y013248D01*
X022266Y013771D01*
X022141Y014288D01*
X021991Y014800D01*
X021816Y015303D01*
X021618Y015797D01*
X021397Y016282D01*
X021153Y016755D01*
X020887Y017217D01*
X020599Y017665D01*
X020290Y018099D01*
X019961Y018517D01*
X019612Y018920D01*
X019244Y019305D01*
X019245Y019306D02*
X019231Y033842D01*
X003431Y033842D01*
X003418Y019306D01*
X008111Y024770D02*
X008111Y026002D01*
X008110Y026023D01*
X008112Y026044D01*
X008117Y026064D01*
X008125Y026083D01*
X008136Y026100D01*
X008149Y026116D01*
X008165Y026129D01*
X008183Y026140D01*
X008202Y026148D01*
X008222Y026153D01*
X008222Y026152D02*
X010101Y026152D01*
X010101Y026153D02*
X010122Y026154D01*
X010143Y026152D01*
X010163Y026147D01*
X010182Y026139D01*
X010199Y026128D01*
X010215Y026115D01*
X010228Y026099D01*
X010239Y026081D01*
X010247Y026062D01*
X010252Y026042D01*
X010251Y026042D02*
X010251Y025646D01*
X010231Y025646D02*
X010201Y025644D01*
X010171Y025639D01*
X010142Y025630D01*
X010115Y025617D01*
X010089Y025602D01*
X010065Y025583D01*
X010044Y025562D01*
X010025Y025538D01*
X010010Y025512D01*
X009997Y025485D01*
X009988Y025456D01*
X009983Y025426D01*
X009981Y025396D01*
X009983Y025366D01*
X009988Y025336D01*
X009997Y025307D01*
X010010Y025280D01*
X010025Y025254D01*
X010044Y025230D01*
X010065Y025209D01*
X010089Y025190D01*
X010115Y025175D01*
X010142Y025162D01*
X010171Y025153D01*
X010201Y025148D01*
X010231Y025146D01*
X010251Y025146D02*
X010251Y024814D01*
X010252Y024810D02*
X010253Y024785D01*
X010251Y024761D01*
X010245Y024737D01*
X010236Y024715D01*
X010223Y024694D01*
X010208Y024675D01*
X010190Y024658D01*
X010170Y024644D01*
X010149Y024633D01*
X010126Y024625D01*
X010102Y024620D01*
X010101Y024620D02*
X008261Y024620D01*
X008238Y024622D01*
X008215Y024627D01*
X008193Y024636D01*
X008173Y024649D01*
X008155Y024664D01*
X008140Y024682D01*
X008127Y024702D01*
X008118Y024724D01*
X008113Y024747D01*
X008111Y024770D01*
X009381Y029042D02*
X009381Y029942D01*
X011281Y029942D01*
X011281Y029042D01*
X009381Y029042D01*
X011431Y029042D02*
X011481Y029042D01*
X011681Y029042D02*
X011731Y029042D01*
X011931Y029042D02*
X011981Y029042D01*
X012181Y029042D02*
X012231Y029042D01*
X012281Y029192D02*
X012281Y029242D01*
X012281Y029442D02*
X012281Y029542D01*
X012281Y029742D02*
X012281Y029792D01*
X012231Y029942D02*
X012181Y029942D01*
X011981Y029942D02*
X011931Y029942D01*
X011731Y029942D02*
X011681Y029942D01*
X011481Y029942D02*
X011431Y029942D01*
X015141Y025080D02*
X017721Y025080D01*
X017721Y022720D01*
X015141Y022720D02*
X015141Y025080D01*
X019244Y003479D02*
X018859Y003111D01*
X018456Y002762D01*
X018038Y002433D01*
X017604Y002124D01*
X017156Y001836D01*
X016694Y001570D01*
X016221Y001326D01*
X015736Y001105D01*
X015242Y000907D01*
X014739Y000732D01*
X014227Y000582D01*
X013710Y000457D01*
X013187Y000356D01*
X012660Y000280D01*
X012129Y000230D01*
X011597Y000204D01*
X011065Y000204D01*
X010533Y000230D01*
X010002Y000280D01*
X009475Y000356D01*
X008952Y000457D01*
X008435Y000582D01*
X007923Y000732D01*
X007420Y000907D01*
X006926Y001105D01*
X006441Y001326D01*
X005968Y001570D01*
X005506Y001836D01*
X005058Y002124D01*
X004624Y002433D01*
X004206Y002762D01*
X003803Y003111D01*
X003418Y003479D01*
X003050Y003864D01*
X002701Y004267D01*
X002372Y004685D01*
X002063Y005119D01*
X001775Y005567D01*
X001509Y006029D01*
X001265Y006502D01*
X001044Y006987D01*
X000846Y007481D01*
X000671Y007984D01*
X000521Y008496D01*
X000396Y009013D01*
X000295Y009536D01*
X000219Y010063D01*
X000169Y010594D01*
X000143Y011126D01*
X000143Y011658D01*
X000169Y012190D01*
X000219Y012721D01*
X000295Y013248D01*
X000396Y013771D01*
X000521Y014288D01*
X000671Y014800D01*
X000846Y015303D01*
X001044Y015797D01*
X001265Y016282D01*
X001509Y016755D01*
X001775Y017217D01*
X002063Y017665D01*
X002372Y018099D01*
X002701Y018517D01*
X003050Y018920D01*
X003418Y019305D01*
X007158Y015565D02*
X007362Y015758D01*
X007574Y015942D01*
X007795Y016116D01*
X008023Y016279D01*
X008260Y016431D01*
X008503Y016571D01*
X008753Y016700D01*
X009008Y016817D01*
X009269Y016921D01*
X009534Y017013D01*
X009804Y017092D01*
X010077Y017158D01*
X010352Y017211D01*
X010630Y017251D01*
X010910Y017278D01*
X011191Y017291D01*
X011471Y017291D01*
X011752Y017278D01*
X012032Y017251D01*
X012310Y017211D01*
X012585Y017158D01*
X012858Y017092D01*
X013128Y017013D01*
X013393Y016921D01*
X013654Y016817D01*
X013909Y016700D01*
X014159Y016571D01*
X014402Y016431D01*
X014639Y016279D01*
X014867Y016116D01*
X015088Y015942D01*
X015300Y015758D01*
X015504Y015565D01*
X015697Y015361D01*
X015881Y015149D01*
X016055Y014928D01*
X016218Y014700D01*
X016370Y014463D01*
X016510Y014220D01*
X016639Y013970D01*
X016756Y013715D01*
X016860Y013454D01*
X016952Y013189D01*
X017031Y012919D01*
X017097Y012646D01*
X017150Y012371D01*
X017190Y012093D01*
X017217Y011813D01*
X017230Y011532D01*
X017230Y011252D01*
X017217Y010971D01*
X017190Y010691D01*
X017150Y010413D01*
X017097Y010138D01*
X017031Y009865D01*
X016952Y009595D01*
X016860Y009330D01*
X016756Y009069D01*
X016639Y008814D01*
X016510Y008564D01*
X016370Y008321D01*
X016218Y008084D01*
X016055Y007856D01*
X015881Y007635D01*
X015697Y007423D01*
X015504Y007219D01*
X015300Y007026D01*
X015088Y006842D01*
X014867Y006668D01*
X014639Y006505D01*
X014402Y006353D01*
X014159Y006213D01*
X013909Y006084D01*
X013654Y005967D01*
X013393Y005863D01*
X013128Y005771D01*
X012858Y005692D01*
X012585Y005626D01*
X012310Y005573D01*
X012032Y005533D01*
X011752Y005506D01*
X011471Y005493D01*
X011191Y005493D01*
X010910Y005506D01*
X010630Y005533D01*
X010352Y005573D01*
X010077Y005626D01*
X009804Y005692D01*
X009534Y005771D01*
X009269Y005863D01*
X009008Y005967D01*
X008753Y006084D01*
X008503Y006213D01*
X008260Y006353D01*
X008023Y006505D01*
X007795Y006668D01*
X007574Y006842D01*
X007362Y007026D01*
X007158Y007219D01*
X006965Y007423D01*
X006781Y007635D01*
X006607Y007856D01*
X006444Y008084D01*
X006292Y008321D01*
X006152Y008564D01*
X006023Y008814D01*
X005906Y009069D01*
X005802Y009330D01*
X005710Y009595D01*
X005631Y009865D01*
X005565Y010138D01*
X005512Y010413D01*
X005472Y010691D01*
X005445Y010971D01*
X005432Y011252D01*
X005432Y011532D01*
X005445Y011813D01*
X005472Y012093D01*
X005512Y012371D01*
X005565Y012646D01*
X005631Y012919D01*
X005710Y013189D01*
X005802Y013454D01*
X005906Y013715D01*
X006023Y013970D01*
X006152Y014220D01*
X006292Y014463D01*
X006444Y014700D01*
X006607Y014928D01*
X006781Y015149D01*
X006965Y015361D01*
X007158Y015565D01*
D11*
X009608Y019466D02*
X009608Y020636D01*
X010767Y020636D02*
X010767Y019466D01*
X011895Y019466D02*
X011895Y020636D01*
X013055Y020636D02*
X013055Y019466D01*
X010902Y022900D02*
X010902Y023473D01*
X009661Y023473D01*
X009661Y022900D01*
X010902Y022900D01*
X008503Y022898D02*
X008503Y023473D01*
X007260Y023473D01*
X007260Y022898D01*
X008503Y022898D01*
X007581Y024616D02*
X005881Y024616D01*
X005858Y024618D01*
X005835Y024623D01*
X005813Y024632D01*
X005793Y024645D01*
X005775Y024660D01*
X005760Y024678D01*
X005747Y024698D01*
X005738Y024720D01*
X005733Y024743D01*
X005731Y024766D01*
X005731Y026006D01*
X005733Y026029D01*
X005738Y026052D01*
X005747Y026074D01*
X005760Y026094D01*
X005775Y026112D01*
X005793Y026127D01*
X005813Y026140D01*
X005835Y026149D01*
X005858Y026154D01*
X005881Y026156D01*
X007581Y026156D01*
X007604Y026154D01*
X007627Y026149D01*
X007649Y026140D01*
X007669Y026127D01*
X007687Y026112D01*
X007702Y026094D01*
X007715Y026074D01*
X007724Y026052D01*
X007729Y026029D01*
X007731Y026006D01*
X007731Y024766D01*
X007729Y024743D01*
X007724Y024720D01*
X007715Y024698D01*
X007702Y024678D01*
X007687Y024660D01*
X007669Y024645D01*
X007649Y024632D01*
X007627Y024623D01*
X007604Y024618D01*
X007581Y024616D01*
X007731Y025186D02*
X007704Y025188D01*
X007677Y025193D01*
X007651Y025203D01*
X007627Y025215D01*
X007605Y025231D01*
X007585Y025249D01*
X007568Y025271D01*
X007553Y025294D01*
X007543Y025319D01*
X007535Y025345D01*
X007531Y025372D01*
X007531Y025400D01*
X007535Y025427D01*
X007543Y025453D01*
X007553Y025478D01*
X007568Y025501D01*
X007585Y025523D01*
X007605Y025541D01*
X007627Y025557D01*
X007651Y025569D01*
X007677Y025579D01*
X007704Y025584D01*
X007731Y025586D01*
X007851Y027349D02*
X006610Y027349D01*
X006610Y027922D01*
X007851Y027922D01*
X007851Y027349D01*
X009310Y027598D02*
X010553Y027598D01*
X010553Y028173D01*
X009310Y028173D01*
X009310Y027598D01*
X010960Y027598D02*
X012203Y027598D01*
X012203Y028173D01*
X010960Y028173D01*
X010960Y027598D01*
X013460Y027511D02*
X013460Y026664D01*
X015311Y026664D01*
X015311Y027511D01*
X013460Y027511D01*
X018018Y032962D02*
X018018Y033202D01*
X018138Y033322D01*
X018258Y033202D01*
X018258Y032962D01*
X018404Y033022D02*
X018464Y032962D01*
X018585Y032962D01*
X018645Y033022D01*
X018404Y033022D02*
X018404Y033082D01*
X018645Y033322D01*
X018404Y033322D01*
X018791Y033322D02*
X019031Y033322D01*
X018911Y033322D02*
X018911Y032962D01*
X019031Y033082D01*
X006953Y023473D02*
X006953Y022898D01*
X005710Y022898D01*
X005710Y023473D01*
X006953Y023473D01*
X011221Y004642D02*
X011411Y004642D01*
X011461Y004402D01*
X011431Y004392D02*
X011631Y004292D01*
X011831Y004442D01*
X011931Y004342D01*
X011831Y004142D01*
X011931Y003892D01*
X012131Y003892D01*
X012131Y003742D01*
X011881Y003692D01*
X011831Y003442D01*
X011931Y003292D01*
X011831Y003192D01*
X011681Y003292D01*
X011581Y003242D01*
X011481Y003542D01*
X011631Y003742D01*
X011581Y003992D01*
X011381Y004092D01*
X011181Y004092D01*
X011031Y003942D01*
X011031Y003642D01*
X011181Y003542D01*
X011031Y003292D01*
X010981Y003292D01*
X010831Y003192D01*
X010731Y003292D01*
X010831Y003442D01*
X010731Y003692D01*
X010531Y003742D01*
X010531Y003892D01*
X010731Y003892D01*
X010831Y004142D01*
X010681Y004342D01*
X010831Y004442D01*
X010981Y004292D01*
X011181Y004392D01*
X011231Y004592D01*
X011381Y004592D01*
X011431Y004392D01*
X011422Y004431D02*
X011191Y004431D01*
X011171Y004402D02*
X011221Y004642D01*
X011220Y004548D02*
X011392Y004548D01*
X011407Y004489D02*
X011205Y004489D01*
X011141Y004372D02*
X011471Y004372D01*
X011588Y004314D02*
X011024Y004314D01*
X010991Y004332D02*
X010801Y004462D01*
X010661Y004322D01*
X010791Y004132D01*
X010830Y004138D02*
X011833Y004138D01*
X011841Y004132D02*
X011981Y004322D01*
X011841Y004462D01*
X011641Y004332D01*
X011660Y004314D02*
X011917Y004314D01*
X011901Y004372D02*
X011738Y004372D01*
X011816Y004431D02*
X011843Y004431D01*
X011888Y004255D02*
X010746Y004255D01*
X010790Y004197D02*
X011858Y004197D01*
X011856Y004080D02*
X011406Y004080D01*
X011523Y004021D02*
X011880Y004021D01*
X011903Y003963D02*
X011587Y003963D01*
X011599Y003904D02*
X011926Y003904D01*
X011931Y003942D02*
X012151Y003902D01*
X012151Y003702D01*
X011931Y003662D01*
X011877Y003670D02*
X011577Y003670D01*
X011533Y003612D02*
X011865Y003612D01*
X011853Y003553D02*
X011489Y003553D01*
X011441Y003562D02*
X011581Y003222D01*
X011661Y003262D01*
X011841Y003142D01*
X011981Y003282D01*
X011851Y003462D01*
X011835Y003436D02*
X011517Y003436D01*
X011536Y003378D02*
X011874Y003378D01*
X011913Y003319D02*
X011556Y003319D01*
X011575Y003261D02*
X011618Y003261D01*
X011729Y003261D02*
X011900Y003261D01*
X011841Y003202D02*
X011816Y003202D01*
X011817Y003000D02*
X011703Y003000D01*
X011647Y002943D01*
X011647Y002717D01*
X011873Y002943D01*
X011873Y002717D01*
X011817Y002660D01*
X011703Y002660D01*
X011647Y002717D01*
X011519Y002717D02*
X011519Y002660D01*
X011462Y002660D01*
X011462Y002717D01*
X011519Y002717D01*
X011321Y002660D02*
X011094Y002660D01*
X011207Y002660D02*
X011207Y003000D01*
X011094Y002887D01*
X010953Y003000D02*
X010953Y002773D01*
X010839Y002660D01*
X010726Y002773D01*
X010726Y003000D01*
X010801Y003142D02*
X010661Y003282D01*
X010781Y003462D01*
X010810Y003495D02*
X011153Y003495D01*
X011165Y003553D02*
X010787Y003553D01*
X010763Y003612D02*
X011077Y003612D01*
X011031Y003670D02*
X010740Y003670D01*
X010701Y003662D02*
X010481Y003702D01*
X010481Y003902D01*
X010711Y003942D01*
X010736Y003904D02*
X011031Y003904D01*
X011031Y003846D02*
X010531Y003846D01*
X010531Y003787D02*
X011031Y003787D01*
X011031Y003729D02*
X010585Y003729D01*
X010759Y003963D02*
X011052Y003963D01*
X011110Y004021D02*
X010783Y004021D01*
X010806Y004080D02*
X011169Y004080D01*
X010703Y003646D02*
X010718Y003599D01*
X010736Y003553D01*
X010758Y003509D01*
X010783Y003467D01*
X010827Y003436D02*
X011118Y003436D01*
X011082Y003378D02*
X010788Y003378D01*
X010749Y003319D02*
X011047Y003319D01*
X010981Y003262D02*
X010801Y003142D01*
X010821Y003202D02*
X010846Y003202D01*
X010763Y003261D02*
X010934Y003261D01*
X010981Y003262D02*
X011051Y003222D01*
X011201Y003562D01*
X010994Y004328D02*
X011036Y004351D01*
X011079Y004370D01*
X011124Y004387D01*
X011170Y004399D01*
X010960Y004314D02*
X010703Y004314D01*
X010726Y004372D02*
X010901Y004372D01*
X010843Y004431D02*
X010814Y004431D01*
X011201Y003562D02*
X011173Y003578D01*
X011146Y003597D01*
X011123Y003619D01*
X011102Y003644D01*
X011084Y003672D01*
X011069Y003701D01*
X011059Y003732D01*
X011051Y003763D01*
X011048Y003796D01*
X011049Y003828D01*
X011053Y003861D01*
X011062Y003892D01*
X011074Y003922D01*
X011089Y003951D01*
X011108Y003978D01*
X011130Y004002D01*
X011154Y004023D01*
X011181Y004042D01*
X011210Y004057D01*
X011241Y004068D01*
X011272Y004076D01*
X011305Y004080D01*
X011337Y004080D01*
X011370Y004076D01*
X011401Y004068D01*
X011432Y004057D01*
X011461Y004042D01*
X011488Y004023D01*
X011512Y004002D01*
X011534Y003978D01*
X011553Y003951D01*
X011568Y003922D01*
X011580Y003892D01*
X011589Y003861D01*
X011593Y003828D01*
X011594Y003796D01*
X011591Y003763D01*
X011583Y003732D01*
X011573Y003701D01*
X011558Y003672D01*
X011540Y003644D01*
X011519Y003619D01*
X011496Y003597D01*
X011469Y003578D01*
X011441Y003562D01*
X011497Y003495D02*
X011842Y003495D01*
X011621Y003729D02*
X012064Y003729D01*
X012131Y003787D02*
X011622Y003787D01*
X011611Y003846D02*
X012131Y003846D01*
X011817Y003000D02*
X011873Y002943D01*
X011781Y002400D02*
X011554Y002060D01*
X011413Y002117D02*
X011356Y002060D01*
X011243Y002060D01*
X011186Y002117D01*
X011186Y002173D01*
X011243Y002230D01*
X011356Y002230D01*
X011413Y002173D01*
X011413Y002117D01*
X011356Y002230D02*
X011413Y002287D01*
X011413Y002343D01*
X011356Y002400D01*
X011243Y002400D01*
X011186Y002343D01*
X011186Y002287D01*
X011243Y002230D01*
X011045Y002060D02*
X010818Y002060D01*
X010931Y002060D02*
X010931Y002400D01*
X010818Y002287D01*
X010676Y002343D02*
X010449Y002117D01*
X010506Y002060D01*
X010620Y002060D01*
X010676Y002117D01*
X010676Y002343D01*
X010620Y002400D01*
X010506Y002400D01*
X010449Y002343D01*
X010449Y002117D01*
X010308Y002060D02*
X010081Y002060D01*
X010308Y002287D01*
X010308Y002343D01*
X010251Y002400D01*
X010138Y002400D01*
X010081Y002343D01*
X010709Y003944D02*
X010720Y003984D01*
X010734Y004023D01*
X010750Y004060D01*
X010769Y004097D01*
X010790Y004132D01*
X011930Y003663D02*
X011920Y003621D01*
X011907Y003580D01*
X011891Y003540D01*
X011872Y003501D01*
X011850Y003464D01*
X011933Y003943D02*
X011921Y003983D01*
X011906Y004022D01*
X011888Y004060D01*
X011868Y004096D01*
X011846Y004131D01*
X011641Y004333D02*
X011598Y004356D01*
X011554Y004376D01*
X011508Y004392D01*
X011462Y004404D01*
X011979Y002400D02*
X012093Y002400D01*
X012150Y002343D01*
X011923Y002117D01*
X011979Y002060D01*
X012093Y002060D01*
X012150Y002117D01*
X012150Y002343D01*
X011979Y002400D02*
X011923Y002343D01*
X011923Y002117D01*
X012291Y002117D02*
X012348Y002060D01*
X012461Y002060D01*
X012518Y002117D01*
X012518Y002173D01*
X012461Y002230D01*
X012291Y002230D01*
X012291Y002117D01*
X012291Y002230D02*
X012404Y002343D01*
X012518Y002400D01*
D12*
X018831Y007142D02*
X018833Y007186D01*
X018839Y007230D01*
X018849Y007273D01*
X018862Y007315D01*
X018879Y007356D01*
X018900Y007395D01*
X018924Y007432D01*
X018951Y007467D01*
X018981Y007499D01*
X019014Y007529D01*
X019050Y007555D01*
X019087Y007579D01*
X019127Y007598D01*
X019168Y007615D01*
X019211Y007627D01*
X019254Y007636D01*
X019298Y007641D01*
X019342Y007642D01*
X019386Y007639D01*
X019430Y007632D01*
X019473Y007621D01*
X019515Y007607D01*
X019555Y007589D01*
X019594Y007567D01*
X019630Y007543D01*
X019664Y007515D01*
X019696Y007484D01*
X019725Y007450D01*
X019751Y007414D01*
X019773Y007376D01*
X019792Y007336D01*
X019807Y007294D01*
X019819Y007252D01*
X019827Y007208D01*
X019831Y007164D01*
X019831Y007120D01*
X019827Y007076D01*
X019819Y007032D01*
X019807Y006990D01*
X019792Y006948D01*
X019773Y006908D01*
X019751Y006870D01*
X019725Y006834D01*
X019696Y006800D01*
X019664Y006769D01*
X019630Y006741D01*
X019594Y006717D01*
X019555Y006695D01*
X019515Y006677D01*
X019473Y006663D01*
X019430Y006652D01*
X019386Y006645D01*
X019342Y006642D01*
X019298Y006643D01*
X019254Y006648D01*
X019211Y006657D01*
X019168Y006669D01*
X019127Y006686D01*
X019087Y006705D01*
X019050Y006729D01*
X019014Y006755D01*
X018981Y006785D01*
X018951Y006817D01*
X018924Y006852D01*
X018900Y006889D01*
X018879Y006928D01*
X018862Y006969D01*
X018849Y007011D01*
X018839Y007054D01*
X018833Y007098D01*
X018831Y007142D01*
X017081Y021036D02*
X017083Y021080D01*
X017089Y021124D01*
X017099Y021167D01*
X017112Y021209D01*
X017129Y021250D01*
X017150Y021289D01*
X017174Y021326D01*
X017201Y021361D01*
X017231Y021393D01*
X017264Y021423D01*
X017300Y021449D01*
X017337Y021473D01*
X017377Y021492D01*
X017418Y021509D01*
X017461Y021521D01*
X017504Y021530D01*
X017548Y021535D01*
X017592Y021536D01*
X017636Y021533D01*
X017680Y021526D01*
X017723Y021515D01*
X017765Y021501D01*
X017805Y021483D01*
X017844Y021461D01*
X017880Y021437D01*
X017914Y021409D01*
X017946Y021378D01*
X017975Y021344D01*
X018001Y021308D01*
X018023Y021270D01*
X018042Y021230D01*
X018057Y021188D01*
X018069Y021146D01*
X018077Y021102D01*
X018081Y021058D01*
X018081Y021014D01*
X018077Y020970D01*
X018069Y020926D01*
X018057Y020884D01*
X018042Y020842D01*
X018023Y020802D01*
X018001Y020764D01*
X017975Y020728D01*
X017946Y020694D01*
X017914Y020663D01*
X017880Y020635D01*
X017844Y020611D01*
X017805Y020589D01*
X017765Y020571D01*
X017723Y020557D01*
X017680Y020546D01*
X017636Y020539D01*
X017592Y020536D01*
X017548Y020537D01*
X017504Y020542D01*
X017461Y020551D01*
X017418Y020563D01*
X017377Y020580D01*
X017337Y020599D01*
X017300Y020623D01*
X017264Y020649D01*
X017231Y020679D01*
X017201Y020711D01*
X017174Y020746D01*
X017150Y020783D01*
X017129Y020822D01*
X017112Y020863D01*
X017099Y020905D01*
X017089Y020948D01*
X017083Y020992D01*
X017081Y021036D01*
X015727Y030115D02*
X015729Y030152D01*
X015735Y030189D01*
X015744Y030224D01*
X015758Y030259D01*
X015774Y030292D01*
X015795Y030323D01*
X015818Y030352D01*
X015844Y030378D01*
X015873Y030401D01*
X015904Y030422D01*
X015937Y030438D01*
X015972Y030452D01*
X016007Y030461D01*
X016044Y030467D01*
X016081Y030469D01*
X016118Y030467D01*
X016155Y030461D01*
X016190Y030452D01*
X016225Y030438D01*
X016258Y030422D01*
X016289Y030401D01*
X016318Y030378D01*
X016344Y030352D01*
X016367Y030323D01*
X016388Y030292D01*
X016404Y030259D01*
X016418Y030224D01*
X016427Y030189D01*
X016433Y030152D01*
X016435Y030115D01*
X016433Y030078D01*
X016427Y030041D01*
X016418Y030006D01*
X016404Y029971D01*
X016388Y029938D01*
X016367Y029907D01*
X016344Y029878D01*
X016318Y029852D01*
X016289Y029829D01*
X016258Y029808D01*
X016225Y029792D01*
X016190Y029778D01*
X016155Y029769D01*
X016118Y029763D01*
X016081Y029761D01*
X016044Y029763D01*
X016007Y029769D01*
X015972Y029778D01*
X015937Y029792D01*
X015904Y029808D01*
X015873Y029829D01*
X015844Y029852D01*
X015818Y029878D01*
X015795Y029907D01*
X015774Y029938D01*
X015758Y029971D01*
X015744Y030006D01*
X015735Y030041D01*
X015729Y030078D01*
X015727Y030115D01*
X015766Y031886D02*
X015768Y031921D01*
X015774Y031956D01*
X015784Y031990D01*
X015797Y032023D01*
X015814Y032054D01*
X015835Y032082D01*
X015858Y032109D01*
X015885Y032132D01*
X015913Y032153D01*
X015944Y032170D01*
X015977Y032183D01*
X016011Y032193D01*
X016046Y032199D01*
X016081Y032201D01*
X016116Y032199D01*
X016151Y032193D01*
X016185Y032183D01*
X016218Y032170D01*
X016249Y032153D01*
X016277Y032132D01*
X016304Y032109D01*
X016327Y032082D01*
X016348Y032054D01*
X016365Y032023D01*
X016378Y031990D01*
X016388Y031956D01*
X016394Y031921D01*
X016396Y031886D01*
X016394Y031851D01*
X016388Y031816D01*
X016378Y031782D01*
X016365Y031749D01*
X016348Y031718D01*
X016327Y031690D01*
X016304Y031663D01*
X016277Y031640D01*
X016249Y031619D01*
X016218Y031602D01*
X016185Y031589D01*
X016151Y031579D01*
X016116Y031573D01*
X016081Y031571D01*
X016046Y031573D01*
X016011Y031579D01*
X015977Y031589D01*
X015944Y031602D01*
X015913Y031619D01*
X015885Y031640D01*
X015858Y031663D01*
X015835Y031690D01*
X015814Y031718D01*
X015797Y031749D01*
X015784Y031782D01*
X015774Y031816D01*
X015768Y031851D01*
X015766Y031886D01*
X010831Y032642D02*
X010833Y032686D01*
X010839Y032730D01*
X010849Y032773D01*
X010862Y032815D01*
X010879Y032856D01*
X010900Y032895D01*
X010924Y032932D01*
X010951Y032967D01*
X010981Y032999D01*
X011014Y033029D01*
X011050Y033055D01*
X011087Y033079D01*
X011127Y033098D01*
X011168Y033115D01*
X011211Y033127D01*
X011254Y033136D01*
X011298Y033141D01*
X011342Y033142D01*
X011386Y033139D01*
X011430Y033132D01*
X011473Y033121D01*
X011515Y033107D01*
X011555Y033089D01*
X011594Y033067D01*
X011630Y033043D01*
X011664Y033015D01*
X011696Y032984D01*
X011725Y032950D01*
X011751Y032914D01*
X011773Y032876D01*
X011792Y032836D01*
X011807Y032794D01*
X011819Y032752D01*
X011827Y032708D01*
X011831Y032664D01*
X011831Y032620D01*
X011827Y032576D01*
X011819Y032532D01*
X011807Y032490D01*
X011792Y032448D01*
X011773Y032408D01*
X011751Y032370D01*
X011725Y032334D01*
X011696Y032300D01*
X011664Y032269D01*
X011630Y032241D01*
X011594Y032217D01*
X011555Y032195D01*
X011515Y032177D01*
X011473Y032163D01*
X011430Y032152D01*
X011386Y032145D01*
X011342Y032142D01*
X011298Y032143D01*
X011254Y032148D01*
X011211Y032157D01*
X011168Y032169D01*
X011127Y032186D01*
X011087Y032205D01*
X011050Y032229D01*
X011014Y032255D01*
X010981Y032285D01*
X010951Y032317D01*
X010924Y032352D01*
X010900Y032389D01*
X010879Y032428D01*
X010862Y032469D01*
X010849Y032511D01*
X010839Y032554D01*
X010833Y032598D01*
X010831Y032642D01*
X004581Y021036D02*
X004583Y021080D01*
X004589Y021124D01*
X004599Y021167D01*
X004612Y021209D01*
X004629Y021250D01*
X004650Y021289D01*
X004674Y021326D01*
X004701Y021361D01*
X004731Y021393D01*
X004764Y021423D01*
X004800Y021449D01*
X004837Y021473D01*
X004877Y021492D01*
X004918Y021509D01*
X004961Y021521D01*
X005004Y021530D01*
X005048Y021535D01*
X005092Y021536D01*
X005136Y021533D01*
X005180Y021526D01*
X005223Y021515D01*
X005265Y021501D01*
X005305Y021483D01*
X005344Y021461D01*
X005380Y021437D01*
X005414Y021409D01*
X005446Y021378D01*
X005475Y021344D01*
X005501Y021308D01*
X005523Y021270D01*
X005542Y021230D01*
X005557Y021188D01*
X005569Y021146D01*
X005577Y021102D01*
X005581Y021058D01*
X005581Y021014D01*
X005577Y020970D01*
X005569Y020926D01*
X005557Y020884D01*
X005542Y020842D01*
X005523Y020802D01*
X005501Y020764D01*
X005475Y020728D01*
X005446Y020694D01*
X005414Y020663D01*
X005380Y020635D01*
X005344Y020611D01*
X005305Y020589D01*
X005265Y020571D01*
X005223Y020557D01*
X005180Y020546D01*
X005136Y020539D01*
X005092Y020536D01*
X005048Y020537D01*
X005004Y020542D01*
X004961Y020551D01*
X004918Y020563D01*
X004877Y020580D01*
X004837Y020599D01*
X004800Y020623D01*
X004764Y020649D01*
X004731Y020679D01*
X004701Y020711D01*
X004674Y020746D01*
X004650Y020783D01*
X004629Y020822D01*
X004612Y020863D01*
X004599Y020905D01*
X004589Y020948D01*
X004583Y020992D01*
X004581Y021036D01*
X002831Y007142D02*
X002833Y007186D01*
X002839Y007230D01*
X002849Y007273D01*
X002862Y007315D01*
X002879Y007356D01*
X002900Y007395D01*
X002924Y007432D01*
X002951Y007467D01*
X002981Y007499D01*
X003014Y007529D01*
X003050Y007555D01*
X003087Y007579D01*
X003127Y007598D01*
X003168Y007615D01*
X003211Y007627D01*
X003254Y007636D01*
X003298Y007641D01*
X003342Y007642D01*
X003386Y007639D01*
X003430Y007632D01*
X003473Y007621D01*
X003515Y007607D01*
X003555Y007589D01*
X003594Y007567D01*
X003630Y007543D01*
X003664Y007515D01*
X003696Y007484D01*
X003725Y007450D01*
X003751Y007414D01*
X003773Y007376D01*
X003792Y007336D01*
X003807Y007294D01*
X003819Y007252D01*
X003827Y007208D01*
X003831Y007164D01*
X003831Y007120D01*
X003827Y007076D01*
X003819Y007032D01*
X003807Y006990D01*
X003792Y006948D01*
X003773Y006908D01*
X003751Y006870D01*
X003725Y006834D01*
X003696Y006800D01*
X003664Y006769D01*
X003630Y006741D01*
X003594Y006717D01*
X003555Y006695D01*
X003515Y006677D01*
X003473Y006663D01*
X003430Y006652D01*
X003386Y006645D01*
X003342Y006642D01*
X003298Y006643D01*
X003254Y006648D01*
X003211Y006657D01*
X003168Y006669D01*
X003127Y006686D01*
X003087Y006705D01*
X003050Y006729D01*
X003014Y006755D01*
X002981Y006785D01*
X002951Y006817D01*
X002924Y006852D01*
X002900Y006889D01*
X002879Y006928D01*
X002862Y006969D01*
X002849Y007011D01*
X002839Y007054D01*
X002833Y007098D01*
X002831Y007142D01*
D13*
X018526Y018667D02*
X018937Y018667D01*
X018800Y018804D01*
X018937Y018940D01*
X018526Y018940D01*
X018526Y019109D02*
X018937Y019109D01*
X018800Y019246D01*
X018937Y019382D01*
X018526Y019382D01*
X018595Y019551D02*
X018526Y019619D01*
X018526Y019756D01*
X018595Y019824D01*
X018868Y019551D01*
X018595Y019551D01*
X018868Y019551D02*
X018937Y019619D01*
X018937Y019756D01*
X018868Y019824D01*
X018595Y019824D01*
X018595Y019993D02*
X018526Y020061D01*
X018526Y020198D01*
X018595Y020266D01*
X018731Y020130D02*
X018731Y020061D01*
X018663Y019993D01*
X018595Y019993D01*
X018731Y020061D02*
X018800Y019993D01*
X018868Y019993D01*
X018937Y020061D01*
X018937Y020198D01*
X018868Y020266D01*
X018868Y020877D02*
X018937Y020945D01*
X018937Y021082D01*
X018868Y021150D01*
X018595Y021150D01*
X018526Y021082D01*
X018526Y020945D01*
X018595Y020877D01*
X018731Y020877D01*
X018731Y021013D01*
X018526Y021319D02*
X018937Y021319D01*
X018937Y021592D02*
X018526Y021319D01*
X018526Y021592D02*
X018937Y021592D01*
X018937Y021750D02*
X018937Y021887D01*
X018937Y021818D02*
X018526Y021818D01*
X018526Y021750D02*
X018526Y021887D01*
X018526Y022055D02*
X018663Y022192D01*
X018663Y022124D02*
X018663Y022329D01*
X018526Y022329D02*
X018937Y022329D01*
X018937Y022124D01*
X018868Y022055D01*
X018731Y022055D01*
X018663Y022124D01*
X018595Y022939D02*
X018526Y023008D01*
X018526Y023213D01*
X018937Y023213D01*
X018937Y023008D01*
X018868Y022939D01*
X018595Y022939D01*
X018526Y023381D02*
X018526Y023655D01*
X018937Y023655D01*
X018937Y023381D01*
X018731Y023518D02*
X018731Y023655D01*
X018526Y023823D02*
X018526Y024097D01*
X018937Y024097D01*
X018868Y024707D02*
X018731Y024707D01*
X018663Y024776D01*
X018663Y024981D01*
X018526Y024981D02*
X018937Y024981D01*
X018937Y024776D01*
X018868Y024707D01*
X018663Y024844D02*
X018526Y024707D01*
X018526Y025149D02*
X018800Y025149D01*
X018937Y025286D01*
X018800Y025423D01*
X018526Y025423D01*
X018731Y025423D02*
X018731Y025149D01*
X018937Y025591D02*
X018937Y025865D01*
X018937Y025728D02*
X018526Y025728D01*
X018595Y026033D02*
X018526Y026101D01*
X018526Y026238D01*
X018595Y026307D01*
X018731Y026238D02*
X018731Y026101D01*
X018663Y026033D01*
X018595Y026033D01*
X018731Y026238D02*
X018800Y026307D01*
X018868Y026307D01*
X018937Y026238D01*
X018937Y026101D01*
X018868Y026033D01*
X018937Y026475D02*
X018526Y026475D01*
X018937Y026749D01*
X018526Y026749D01*
X018595Y026917D02*
X018526Y026985D01*
X018526Y027122D01*
X018595Y027191D01*
X018868Y027191D01*
X018937Y027122D01*
X018937Y026985D01*
X018868Y026917D01*
X018595Y026917D01*
X018595Y027359D02*
X018526Y027427D01*
X018526Y027633D01*
X018937Y027633D01*
X018937Y027427D01*
X018868Y027359D01*
X018595Y027359D01*
X018526Y027801D02*
X018937Y027801D01*
X018937Y028075D02*
X018526Y027801D01*
X018526Y028075D02*
X018937Y028075D01*
X018800Y028243D02*
X018937Y028380D01*
X018800Y028517D01*
X018526Y028517D01*
X018731Y028517D02*
X018731Y028243D01*
X018800Y028243D02*
X018526Y028243D01*
X017380Y031703D02*
X017380Y032030D01*
X017216Y031866D02*
X017543Y031866D01*
D14*
X003738Y004710D02*
X003902Y004573D01*
X003992Y004497D02*
X004156Y004360D01*
X004074Y004428D02*
X004280Y004674D01*
X004130Y004660D01*
X003944Y004955D02*
X003738Y004710D01*
X001703Y013442D02*
X001761Y013491D01*
X001770Y013597D01*
X001721Y013655D01*
X001703Y013442D02*
X001650Y013447D01*
X001456Y013678D01*
X001437Y013466D01*
X001466Y013796D02*
X001484Y014008D01*
X001804Y013981D01*
X006999Y020853D02*
X006962Y020891D01*
X006962Y020966D01*
X007037Y021042D01*
X007113Y021042D01*
X007158Y021163D02*
X007309Y021314D01*
X007536Y021088D01*
X007264Y020891D02*
X007264Y020815D01*
X007188Y020740D01*
X007113Y020740D01*
X007075Y020778D01*
X007075Y020853D01*
X006999Y020853D01*
X007075Y020853D02*
X007113Y020891D01*
X006730Y022426D02*
X006570Y022586D01*
X006517Y022533D02*
X006730Y022746D01*
X006517Y022746D02*
X006517Y022426D01*
X006399Y022480D02*
X006346Y022426D01*
X006239Y022426D01*
X006185Y022480D01*
X006399Y022693D01*
X006399Y022480D01*
X006399Y022693D02*
X006346Y022746D01*
X006239Y022746D01*
X006185Y022693D01*
X006185Y022480D01*
X006068Y022426D02*
X005854Y022426D01*
X005961Y022426D02*
X005961Y022746D01*
X005854Y022640D01*
X005541Y024655D02*
X005541Y024869D01*
X005381Y024869D01*
X005435Y024762D01*
X005435Y024709D01*
X005381Y024655D01*
X005275Y024655D01*
X005221Y024709D01*
X005221Y024816D01*
X005275Y024869D01*
X005275Y024987D02*
X005221Y025040D01*
X005221Y025147D01*
X005275Y025200D01*
X005381Y025200D02*
X005435Y025094D01*
X005435Y025040D01*
X005381Y024987D01*
X005275Y024987D01*
X005381Y025200D02*
X005541Y025200D01*
X005541Y024987D01*
X005541Y025318D02*
X005541Y025532D01*
X005381Y025532D01*
X005435Y025425D01*
X005435Y025372D01*
X005381Y025318D01*
X005275Y025318D01*
X005221Y025372D01*
X005221Y025479D01*
X005275Y025532D01*
X005221Y025650D02*
X005221Y025863D01*
X005541Y025863D01*
X005541Y025650D01*
X005381Y025757D02*
X005381Y025863D01*
X005221Y025981D02*
X005541Y025981D01*
X005541Y026195D02*
X005221Y025981D01*
X005221Y026195D02*
X005541Y026195D01*
X006573Y028076D02*
X006786Y028076D01*
X006679Y028076D02*
X006679Y028396D01*
X006573Y028290D01*
X006904Y028343D02*
X006957Y028396D01*
X007064Y028396D01*
X007118Y028343D01*
X006904Y028130D01*
X006957Y028076D01*
X007064Y028076D01*
X007118Y028130D01*
X007118Y028343D01*
X007235Y028343D02*
X007289Y028396D01*
X007396Y028396D01*
X007449Y028343D01*
X007235Y028130D01*
X007289Y028076D01*
X007396Y028076D01*
X007449Y028130D01*
X007449Y028343D01*
X007567Y028290D02*
X007727Y028290D01*
X007780Y028236D01*
X007780Y028076D01*
X007898Y028076D02*
X007898Y028396D01*
X008112Y028396D01*
X008005Y028236D02*
X007898Y028236D01*
X007567Y028290D02*
X007567Y028076D01*
X007235Y028130D02*
X007235Y028343D01*
X006904Y028343D02*
X006904Y028130D01*
X006988Y030732D02*
X007202Y030732D01*
X007095Y030732D02*
X007095Y031053D01*
X006988Y030946D01*
X007320Y030999D02*
X007320Y030786D01*
X007533Y030999D01*
X007533Y030786D01*
X007480Y030732D01*
X007373Y030732D01*
X007320Y030786D01*
X007320Y030999D02*
X007373Y031053D01*
X007480Y031053D01*
X007533Y030999D01*
X007651Y031053D02*
X007651Y030732D01*
X007651Y030839D02*
X007865Y031053D01*
X007983Y030999D02*
X008196Y030786D01*
X008089Y030786D02*
X008089Y030999D01*
X008196Y030999D02*
X007983Y030786D01*
X007983Y030893D02*
X008196Y030893D01*
X007865Y030732D02*
X007705Y030893D01*
X006565Y030946D02*
X006511Y030893D01*
X006405Y030893D01*
X006351Y030946D01*
X006351Y030999D01*
X006405Y031053D01*
X006511Y031053D01*
X006565Y030999D01*
X006565Y030946D01*
X006511Y030893D02*
X006565Y030839D01*
X006565Y030786D01*
X006511Y030732D01*
X006405Y030732D01*
X006351Y030786D01*
X006351Y030839D01*
X006405Y030893D01*
X006233Y030893D02*
X006180Y030839D01*
X006020Y030839D01*
X006126Y030839D02*
X006233Y030732D01*
X006233Y030893D02*
X006233Y030999D01*
X006180Y031053D01*
X006020Y031053D01*
X006020Y030732D01*
X009288Y028593D02*
X009288Y028540D01*
X009342Y028486D01*
X009502Y028486D01*
X009502Y028380D02*
X009502Y028593D01*
X009448Y028646D01*
X009342Y028646D01*
X009288Y028593D01*
X009288Y028380D02*
X009342Y028326D01*
X009448Y028326D01*
X009502Y028380D01*
X009620Y028326D02*
X009833Y028326D01*
X009726Y028326D02*
X009726Y028646D01*
X009620Y028540D01*
X009951Y028593D02*
X010005Y028646D01*
X010111Y028646D01*
X010165Y028593D01*
X009951Y028380D01*
X010005Y028326D01*
X010111Y028326D01*
X010165Y028380D01*
X010165Y028593D01*
X010283Y028646D02*
X010283Y028326D01*
X010283Y028433D02*
X010443Y028433D01*
X010496Y028486D01*
X010496Y028593D01*
X010443Y028646D01*
X010283Y028646D01*
X010389Y028433D02*
X010496Y028326D01*
X010938Y028380D02*
X010992Y028326D01*
X011098Y028326D01*
X011152Y028380D01*
X011152Y028593D01*
X011098Y028646D01*
X010992Y028646D01*
X010938Y028593D01*
X010938Y028540D01*
X010992Y028486D01*
X011152Y028486D01*
X011270Y028540D02*
X011376Y028646D01*
X011376Y028326D01*
X011270Y028326D02*
X011483Y028326D01*
X011601Y028380D02*
X011815Y028593D01*
X011815Y028380D01*
X011761Y028326D01*
X011655Y028326D01*
X011601Y028380D01*
X011601Y028593D01*
X011655Y028646D01*
X011761Y028646D01*
X011815Y028593D01*
X011933Y028646D02*
X012093Y028646D01*
X012146Y028593D01*
X012146Y028486D01*
X012093Y028433D01*
X011933Y028433D01*
X012039Y028433D02*
X012146Y028326D01*
X011933Y028326D02*
X011933Y028646D01*
X011628Y030186D02*
X011414Y030399D01*
X011414Y030293D02*
X011628Y030293D01*
X011628Y030399D02*
X011414Y030186D01*
X011521Y030186D02*
X011521Y030399D01*
X011296Y030132D02*
X011083Y030132D01*
X011083Y030453D01*
X010858Y030453D02*
X010858Y030132D01*
X010751Y030132D02*
X010965Y030132D01*
X010751Y030346D02*
X010858Y030453D01*
X010302Y030453D02*
X010088Y030453D01*
X010195Y030453D02*
X010195Y030132D01*
X009970Y030132D02*
X009864Y030239D01*
X009917Y030239D02*
X009757Y030239D01*
X009757Y030132D02*
X009757Y030453D01*
X009917Y030453D01*
X009970Y030399D01*
X009970Y030293D01*
X009917Y030239D01*
X009951Y028593D02*
X009951Y028380D01*
X010421Y026195D02*
X010421Y025981D01*
X010421Y025863D02*
X010741Y025863D01*
X010635Y025757D01*
X010741Y025650D01*
X010421Y025650D01*
X010475Y025532D02*
X010421Y025479D01*
X010421Y025372D01*
X010475Y025318D01*
X010528Y025318D01*
X010581Y025372D01*
X010581Y025425D01*
X010581Y025372D02*
X010635Y025318D01*
X010688Y025318D01*
X010741Y025372D01*
X010741Y025479D01*
X010688Y025532D01*
X010741Y025200D02*
X010581Y025200D01*
X010635Y025094D01*
X010635Y025040D01*
X010581Y024987D01*
X010475Y024987D01*
X010421Y025040D01*
X010421Y025147D01*
X010475Y025200D01*
X010741Y025200D02*
X010741Y024987D01*
X010688Y024869D02*
X010635Y024869D01*
X010581Y024816D01*
X010581Y024709D01*
X010528Y024655D01*
X010475Y024655D01*
X010421Y024709D01*
X010421Y024816D01*
X010475Y024869D01*
X010528Y024869D01*
X010581Y024816D01*
X010581Y024709D02*
X010635Y024655D01*
X010688Y024655D01*
X010741Y024709D01*
X010741Y024816D01*
X010688Y024869D01*
X010741Y026195D02*
X010421Y026195D01*
X010296Y022746D02*
X010189Y022746D01*
X010135Y022693D01*
X010135Y022480D01*
X010349Y022693D01*
X010349Y022480D01*
X010296Y022426D01*
X010189Y022426D01*
X010135Y022480D01*
X010018Y022480D02*
X009964Y022426D01*
X009857Y022426D01*
X009804Y022480D01*
X010018Y022693D01*
X010018Y022480D01*
X010018Y022693D02*
X009964Y022746D01*
X009857Y022746D01*
X009804Y022693D01*
X009804Y022480D01*
X009686Y022693D02*
X009473Y022480D01*
X009473Y022426D01*
X009473Y022746D02*
X009686Y022746D01*
X009686Y022693D01*
X010296Y022746D02*
X010349Y022693D01*
X010467Y022640D02*
X010627Y022640D01*
X010680Y022586D01*
X010680Y022426D01*
X010798Y022426D02*
X010798Y022746D01*
X011012Y022746D01*
X010905Y022586D02*
X010798Y022586D01*
X010467Y022640D02*
X010467Y022426D01*
X009394Y020280D02*
X009341Y020280D01*
X009287Y020226D01*
X009287Y020066D01*
X009394Y020066D01*
X009448Y020119D01*
X009448Y020226D01*
X009394Y020280D01*
X009181Y020173D02*
X009287Y020066D01*
X009287Y019948D02*
X009341Y019895D01*
X009341Y019735D01*
X009341Y019841D02*
X009448Y019948D01*
X009287Y019948D02*
X009181Y019948D01*
X009127Y019895D01*
X009127Y019735D01*
X009448Y019735D01*
X009181Y020173D02*
X009127Y020280D01*
X008115Y022426D02*
X007955Y022586D01*
X007901Y022533D02*
X008115Y022746D01*
X007901Y022746D02*
X007901Y022426D01*
X007783Y022426D02*
X007570Y022426D01*
X007676Y022426D02*
X007676Y022746D01*
X007570Y022640D01*
X013188Y024363D02*
X013508Y024363D01*
X013508Y024149D01*
X013348Y024256D02*
X013348Y024363D01*
X013348Y024481D02*
X013241Y024481D01*
X013188Y024534D01*
X013188Y024641D01*
X013241Y024694D01*
X013348Y024694D02*
X013402Y024587D01*
X013402Y024534D01*
X013348Y024481D01*
X013508Y024481D02*
X013508Y024694D01*
X013348Y024694D01*
X013241Y024812D02*
X013188Y024865D01*
X013188Y024972D01*
X013241Y025026D01*
X013455Y024812D01*
X013241Y024812D01*
X013241Y025026D02*
X013455Y025026D01*
X013508Y024972D01*
X013508Y024865D01*
X013455Y024812D01*
X013188Y025144D02*
X013188Y025357D01*
X013508Y025357D01*
X013455Y025475D02*
X013402Y025475D01*
X013348Y025528D01*
X013348Y025635D01*
X013402Y025689D01*
X013455Y025689D01*
X013508Y025635D01*
X013508Y025528D01*
X013455Y025475D01*
X013348Y025528D02*
X013295Y025475D01*
X013241Y025475D01*
X013188Y025528D01*
X013188Y025635D01*
X013241Y025689D01*
X013295Y025689D01*
X013348Y025635D01*
X013455Y025807D02*
X013241Y026020D01*
X013188Y026020D01*
X013508Y026020D02*
X013508Y025807D01*
X013455Y025807D01*
X013738Y026176D02*
X013952Y026176D01*
X013845Y026176D02*
X013845Y026496D01*
X013738Y026390D01*
X014070Y026443D02*
X014123Y026496D01*
X014230Y026496D01*
X014283Y026443D01*
X014070Y026230D01*
X014123Y026176D01*
X014230Y026176D01*
X014283Y026230D01*
X014283Y026443D01*
X014401Y026443D02*
X014455Y026496D01*
X014561Y026496D01*
X014615Y026443D01*
X014401Y026230D01*
X014455Y026176D01*
X014561Y026176D01*
X014615Y026230D01*
X014615Y026443D01*
X014733Y026496D02*
X014733Y026176D01*
X014733Y026283D02*
X014893Y026283D01*
X014946Y026336D01*
X014946Y026443D01*
X014893Y026496D01*
X014733Y026496D01*
X014839Y026283D02*
X014946Y026176D01*
X014401Y026230D02*
X014401Y026443D01*
X014070Y026443D02*
X014070Y026230D01*
X014621Y025204D02*
X014941Y025204D01*
X014621Y024991D01*
X014941Y024991D01*
X014888Y024873D02*
X014941Y024819D01*
X014941Y024713D01*
X014888Y024659D01*
X014835Y024659D01*
X014781Y024713D01*
X014728Y024659D01*
X014675Y024659D01*
X014621Y024713D01*
X014621Y024819D01*
X014675Y024873D01*
X014781Y024766D02*
X014781Y024713D01*
X014835Y024541D02*
X014941Y024435D01*
X014621Y024435D01*
X014621Y024541D02*
X014621Y024328D01*
X014675Y024210D02*
X014888Y023996D01*
X014675Y023996D01*
X014621Y024050D01*
X014621Y024156D01*
X014675Y024210D01*
X014888Y024210D01*
X014941Y024156D01*
X014941Y024050D01*
X014888Y023996D01*
X014835Y023878D02*
X014941Y023772D01*
X014835Y023665D01*
X014621Y023665D01*
X014621Y023547D02*
X014621Y023387D01*
X014675Y023333D01*
X014888Y023333D01*
X014941Y023387D01*
X014941Y023547D01*
X014621Y023547D01*
X014781Y023665D02*
X014781Y023878D01*
X014835Y023878D02*
X014621Y023878D01*
X016370Y026076D02*
X016530Y026076D01*
X016583Y026130D01*
X016583Y026343D01*
X016530Y026396D01*
X016370Y026396D01*
X016370Y026076D01*
X016701Y026076D02*
X016915Y026076D01*
X016808Y026076D02*
X016808Y026396D01*
X016701Y026290D01*
X015364Y020909D02*
X015318Y020882D01*
X015298Y020809D01*
X015378Y020671D01*
X015471Y020724D01*
X015490Y020797D01*
X015437Y020889D01*
X015364Y020909D01*
X015233Y020710D02*
X015133Y020776D01*
X015233Y020710D02*
X015378Y020671D01*
X015576Y020649D02*
X015683Y020464D01*
X015405Y020304D01*
X013535Y020066D02*
X013482Y020066D01*
X013268Y020280D01*
X013215Y020280D01*
X013215Y020066D01*
X013268Y019948D02*
X013375Y019948D01*
X013428Y019895D01*
X013428Y019735D01*
X013428Y019841D02*
X013535Y019948D01*
X013535Y019735D02*
X013215Y019735D01*
X013215Y019895D01*
X013268Y019948D01*
X020641Y013727D02*
X020604Y013517D01*
X020762Y013489D01*
X020728Y013603D01*
X020737Y013656D01*
X020799Y013699D01*
X020904Y013681D01*
X020948Y013619D01*
X020929Y013514D01*
X020867Y013470D01*
X020899Y013345D02*
X020862Y013135D01*
X020547Y013190D01*
X018351Y005031D02*
X018273Y004818D01*
X018467Y004908D01*
X018486Y004741D02*
X018351Y005031D01*
X018234Y004623D02*
X018040Y004533D01*
X017905Y004823D01*
D15*
X017666Y004272D02*
X017175Y005324D01*
X017175Y005325D02*
X017118Y005374D01*
X017058Y005421D01*
X016996Y005465D01*
X016932Y005506D01*
X016866Y005544D01*
X016799Y005578D01*
X016729Y005608D01*
X016658Y005636D01*
X016586Y005659D01*
X016513Y005679D01*
X016439Y005696D01*
X016364Y005708D01*
X016289Y005717D01*
X016213Y005722D01*
X016137Y005723D01*
X016061Y005720D01*
X015986Y005714D01*
X015911Y005704D01*
X015836Y005690D01*
X015762Y005672D01*
X015689Y005651D01*
X015618Y005626D01*
X015548Y005597D01*
X015479Y005565D01*
X015412Y005529D01*
X015347Y005491D01*
X015283Y005449D01*
X015222Y005403D01*
X015164Y005355D01*
X015108Y005304D01*
X015054Y005251D01*
X015003Y005194D01*
X014955Y005135D01*
X014911Y005074D01*
X014869Y005011D01*
X014830Y004945D01*
X014795Y004878D01*
X014763Y004809D01*
X014735Y004739D01*
X014710Y004667D01*
X014689Y004594D01*
X014672Y004520D01*
X014658Y004446D01*
X014648Y004371D01*
X014642Y004295D01*
X014640Y004219D01*
X014642Y004143D01*
X015133Y003090D01*
X015190Y003041D01*
X015250Y002994D01*
X015312Y002950D01*
X015376Y002909D01*
X015442Y002871D01*
X015509Y002837D01*
X015579Y002806D01*
X015650Y002779D01*
X015722Y002756D01*
X015795Y002736D01*
X015869Y002719D01*
X015944Y002707D01*
X016019Y002698D01*
X016095Y002693D01*
X016171Y002692D01*
X016247Y002695D01*
X016322Y002701D01*
X016397Y002711D01*
X016472Y002725D01*
X016546Y002743D01*
X016619Y002764D01*
X016690Y002789D01*
X016760Y002818D01*
X016829Y002850D01*
X016896Y002886D01*
X016961Y002924D01*
X017025Y002966D01*
X017086Y003012D01*
X017144Y003060D01*
X017200Y003111D01*
X017254Y003164D01*
X017305Y003221D01*
X017353Y003280D01*
X017397Y003341D01*
X017439Y003404D01*
X017478Y003470D01*
X017513Y003537D01*
X017545Y003606D01*
X017573Y003676D01*
X017598Y003748D01*
X017619Y003821D01*
X017636Y003895D01*
X017650Y003969D01*
X017660Y004044D01*
X017666Y004120D01*
X017668Y004196D01*
X017666Y004272D01*
X019178Y010117D02*
X020322Y009915D01*
X020395Y009934D01*
X020468Y009956D01*
X020539Y009981D01*
X020609Y010010D01*
X020678Y010043D01*
X020745Y010078D01*
X020810Y010118D01*
X020873Y010160D01*
X020933Y010206D01*
X020992Y010254D01*
X021047Y010305D01*
X021101Y010360D01*
X021151Y010416D01*
X021199Y010475D01*
X021243Y010537D01*
X021284Y010601D01*
X021322Y010666D01*
X021357Y010734D01*
X021388Y010803D01*
X021416Y010873D01*
X021440Y010945D01*
X021461Y011018D01*
X021478Y011092D01*
X021491Y011167D01*
X021501Y011242D01*
X021506Y011318D01*
X021508Y011394D01*
X021506Y011470D01*
X021500Y011545D01*
X021491Y011620D01*
X021477Y011695D01*
X021460Y011769D01*
X021439Y011842D01*
X021415Y011914D01*
X021387Y011984D01*
X021356Y012053D01*
X021321Y012121D01*
X021283Y012186D01*
X021241Y012250D01*
X021197Y012311D01*
X021149Y012370D01*
X021098Y012427D01*
X021045Y012481D01*
X020989Y012532D01*
X020931Y012580D01*
X020870Y012626D01*
X020807Y012668D01*
X019663Y012870D01*
X019664Y012870D02*
X019590Y012851D01*
X019517Y012830D01*
X019446Y012804D01*
X019376Y012775D01*
X019307Y012742D01*
X019240Y012707D01*
X019175Y012667D01*
X019112Y012625D01*
X019052Y012579D01*
X018993Y012531D01*
X018938Y012480D01*
X018884Y012425D01*
X018834Y012369D01*
X018786Y012310D01*
X018742Y012248D01*
X018701Y012184D01*
X018663Y012119D01*
X018628Y012051D01*
X018597Y011982D01*
X018569Y011912D01*
X018545Y011840D01*
X018524Y011767D01*
X018507Y011693D01*
X018494Y011618D01*
X018484Y011543D01*
X018479Y011467D01*
X018477Y011391D01*
X018479Y011315D01*
X018485Y011240D01*
X018494Y011165D01*
X018508Y011090D01*
X018525Y011016D01*
X018546Y010943D01*
X018570Y010871D01*
X018598Y010801D01*
X018629Y010732D01*
X018664Y010664D01*
X018702Y010599D01*
X018744Y010535D01*
X018789Y010474D01*
X018836Y010415D01*
X018887Y010358D01*
X018940Y010304D01*
X018996Y010253D01*
X019054Y010204D01*
X019115Y010159D01*
X019178Y010117D01*
X016350Y017077D02*
X017356Y017657D01*
X017355Y017657D02*
X017400Y017718D01*
X017442Y017782D01*
X017480Y017847D01*
X017515Y017915D01*
X017547Y017984D01*
X017575Y018054D01*
X017599Y018126D01*
X017620Y018199D01*
X017638Y018273D01*
X017651Y018347D01*
X017661Y018423D01*
X017667Y018498D01*
X017669Y018574D01*
X017667Y018650D01*
X017662Y018726D01*
X017653Y018801D01*
X017640Y018876D01*
X017623Y018950D01*
X017602Y019023D01*
X017578Y019095D01*
X017551Y019165D01*
X017520Y019234D01*
X017485Y019302D01*
X017447Y019368D01*
X017406Y019431D01*
X017362Y019493D01*
X017314Y019552D01*
X017264Y019609D01*
X017211Y019663D01*
X017155Y019715D01*
X017097Y019763D01*
X017036Y019809D01*
X016974Y019852D01*
X016909Y019891D01*
X016842Y019927D01*
X016773Y019960D01*
X016703Y019989D01*
X016632Y020014D01*
X016559Y020036D01*
X016486Y020055D01*
X016411Y020069D01*
X016336Y020080D01*
X016261Y020087D01*
X016185Y020091D01*
X016109Y020090D01*
X016033Y020086D01*
X015958Y020078D01*
X014952Y019498D01*
X014953Y019498D02*
X014908Y019437D01*
X014866Y019373D01*
X014828Y019308D01*
X014793Y019240D01*
X014761Y019171D01*
X014733Y019101D01*
X014709Y019029D01*
X014688Y018956D01*
X014670Y018882D01*
X014657Y018808D01*
X014647Y018732D01*
X014641Y018657D01*
X014639Y018581D01*
X014641Y018505D01*
X014646Y018429D01*
X014655Y018354D01*
X014668Y018279D01*
X014685Y018205D01*
X014706Y018132D01*
X014730Y018060D01*
X014757Y017990D01*
X014788Y017921D01*
X014823Y017853D01*
X014861Y017787D01*
X014902Y017724D01*
X014946Y017662D01*
X014994Y017603D01*
X015044Y017546D01*
X015097Y017492D01*
X015153Y017440D01*
X015211Y017392D01*
X015272Y017346D01*
X015334Y017303D01*
X015399Y017264D01*
X015466Y017228D01*
X015535Y017195D01*
X015605Y017166D01*
X015676Y017141D01*
X015749Y017119D01*
X015822Y017100D01*
X015897Y017086D01*
X015972Y017075D01*
X016047Y017068D01*
X016123Y017064D01*
X016199Y017065D01*
X016275Y017069D01*
X016350Y017077D01*
X007907Y019155D02*
X007086Y019976D01*
X007016Y020004D01*
X006943Y020027D01*
X006870Y020047D01*
X006796Y020064D01*
X006721Y020077D01*
X006646Y020085D01*
X006570Y020091D01*
X006495Y020092D01*
X006419Y020089D01*
X006343Y020083D01*
X006268Y020073D01*
X006193Y020059D01*
X006120Y020042D01*
X006047Y020021D01*
X005975Y019996D01*
X005905Y019967D01*
X005836Y019935D01*
X005769Y019900D01*
X005703Y019861D01*
X005640Y019820D01*
X005579Y019775D01*
X005520Y019727D01*
X005464Y019676D01*
X005410Y019622D01*
X005359Y019566D01*
X005311Y019507D01*
X005266Y019446D01*
X005225Y019383D01*
X005186Y019317D01*
X005151Y019250D01*
X005119Y019181D01*
X005090Y019111D01*
X005065Y019039D01*
X005044Y018966D01*
X005027Y018893D01*
X005013Y018818D01*
X005003Y018743D01*
X004997Y018667D01*
X004994Y018591D01*
X004995Y018516D01*
X005001Y018440D01*
X005009Y018365D01*
X005022Y018290D01*
X005039Y018216D01*
X005059Y018143D01*
X005082Y018070D01*
X005110Y018000D01*
X005109Y018000D02*
X005931Y017179D01*
X006002Y017151D01*
X006074Y017128D01*
X006147Y017108D01*
X006221Y017091D01*
X006296Y017078D01*
X006371Y017070D01*
X006447Y017064D01*
X006522Y017063D01*
X006598Y017066D01*
X006674Y017072D01*
X006749Y017082D01*
X006824Y017096D01*
X006898Y017113D01*
X006970Y017134D01*
X007042Y017159D01*
X007112Y017188D01*
X007181Y017220D01*
X007248Y017255D01*
X007314Y017294D01*
X007377Y017335D01*
X007438Y017380D01*
X007497Y017428D01*
X007553Y017479D01*
X007607Y017533D01*
X007658Y017589D01*
X007706Y017648D01*
X007751Y017709D01*
X007792Y017772D01*
X007831Y017838D01*
X007866Y017905D01*
X007898Y017974D01*
X007927Y018044D01*
X007952Y018116D01*
X007973Y018188D01*
X007990Y018262D01*
X008004Y018337D01*
X008014Y018412D01*
X008020Y018488D01*
X008023Y018564D01*
X008022Y018639D01*
X008016Y018715D01*
X008008Y018790D01*
X007995Y018865D01*
X007978Y018939D01*
X007958Y019012D01*
X007935Y019084D01*
X007907Y019155D01*
X003370Y012734D02*
X002213Y012835D01*
X002213Y012836D02*
X002141Y012811D01*
X002071Y012783D01*
X002002Y012751D01*
X001935Y012716D01*
X001869Y012678D01*
X001806Y012636D01*
X001744Y012592D01*
X001685Y012544D01*
X001629Y012493D01*
X001575Y012440D01*
X001524Y012384D01*
X001476Y012325D01*
X001430Y012264D01*
X001388Y012201D01*
X001349Y012136D01*
X001314Y012069D01*
X001281Y012000D01*
X001253Y011930D01*
X001228Y011859D01*
X001206Y011786D01*
X001188Y011712D01*
X001174Y011638D01*
X001164Y011563D01*
X001157Y011487D01*
X001154Y011411D01*
X001155Y011335D01*
X001160Y011260D01*
X001168Y011184D01*
X001181Y011109D01*
X001197Y011035D01*
X001217Y010962D01*
X001240Y010890D01*
X001267Y010819D01*
X001298Y010749D01*
X001332Y010682D01*
X001369Y010616D01*
X001410Y010552D01*
X001454Y010490D01*
X001500Y010430D01*
X001550Y010373D01*
X001603Y010318D01*
X001658Y010266D01*
X001716Y010217D01*
X001776Y010171D01*
X001838Y010128D01*
X001903Y010088D01*
X001969Y010051D01*
X003126Y009950D01*
X003126Y009949D02*
X003198Y009974D01*
X003268Y010002D01*
X003337Y010034D01*
X003405Y010069D01*
X003470Y010107D01*
X003533Y010149D01*
X003595Y010193D01*
X003654Y010241D01*
X003710Y010292D01*
X003764Y010345D01*
X003815Y010401D01*
X003863Y010460D01*
X003909Y010521D01*
X003951Y010584D01*
X003990Y010649D01*
X004025Y010716D01*
X004058Y010785D01*
X004086Y010855D01*
X004112Y010926D01*
X004133Y010999D01*
X004151Y011073D01*
X004165Y011147D01*
X004175Y011222D01*
X004182Y011298D01*
X004185Y011374D01*
X004184Y011450D01*
X004179Y011525D01*
X004171Y011601D01*
X004158Y011676D01*
X004142Y011750D01*
X004122Y011823D01*
X004099Y011895D01*
X004072Y011966D01*
X004041Y012036D01*
X004007Y012103D01*
X003970Y012169D01*
X003929Y012233D01*
X003885Y012295D01*
X003839Y012355D01*
X003789Y012412D01*
X003736Y012467D01*
X003681Y012519D01*
X003623Y012568D01*
X003563Y012614D01*
X003501Y012657D01*
X003436Y012697D01*
X003370Y012734D01*
X005811Y005551D02*
X005064Y004661D01*
X005065Y004661D02*
X005043Y004589D01*
X005026Y004515D01*
X005012Y004440D01*
X005002Y004365D01*
X004996Y004289D01*
X004994Y004213D01*
X004996Y004138D01*
X005001Y004062D01*
X005010Y003987D01*
X005023Y003912D01*
X005039Y003838D01*
X005060Y003765D01*
X005083Y003693D01*
X005111Y003622D01*
X005142Y003553D01*
X005176Y003485D01*
X005214Y003419D01*
X005255Y003355D01*
X005299Y003294D01*
X005347Y003234D01*
X005397Y003177D01*
X005450Y003123D01*
X005505Y003071D01*
X005563Y003023D01*
X005624Y002977D01*
X005687Y002934D01*
X005751Y002895D01*
X005818Y002859D01*
X005887Y002826D01*
X005956Y002796D01*
X006028Y002771D01*
X006100Y002748D01*
X006174Y002730D01*
X006248Y002715D01*
X006323Y002704D01*
X006399Y002697D01*
X006475Y002693D01*
X006551Y002694D01*
X006626Y002698D01*
X006702Y002706D01*
X006777Y002717D01*
X006851Y002733D01*
X006924Y002752D01*
X006997Y002775D01*
X007068Y002801D01*
X007138Y002831D01*
X007206Y002865D01*
X007206Y002864D02*
X007952Y003754D01*
X007974Y003827D01*
X007991Y003900D01*
X008005Y003975D01*
X008015Y004050D01*
X008021Y004126D01*
X008023Y004202D01*
X008021Y004278D01*
X008016Y004353D01*
X008007Y004429D01*
X007994Y004503D01*
X007978Y004577D01*
X007957Y004650D01*
X007934Y004722D01*
X007906Y004793D01*
X007875Y004862D01*
X007841Y004930D01*
X007803Y004996D01*
X007762Y005060D01*
X007718Y005121D01*
X007670Y005181D01*
X007620Y005238D01*
X007567Y005292D01*
X007512Y005344D01*
X007454Y005392D01*
X007393Y005438D01*
X007330Y005481D01*
X007266Y005520D01*
X007199Y005556D01*
X007130Y005589D01*
X007061Y005619D01*
X006989Y005644D01*
X006917Y005667D01*
X006843Y005685D01*
X006769Y005700D01*
X006694Y005711D01*
X006618Y005718D01*
X006542Y005722D01*
X006466Y005721D01*
X006391Y005717D01*
X006315Y005709D01*
X006240Y005698D01*
X006166Y005682D01*
X006093Y005663D01*
X006020Y005640D01*
X005949Y005614D01*
X005879Y005584D01*
X005811Y005550D01*
D16*
G36*
X007390Y003082D02*
X007675Y002843D01*
X007498Y002632D01*
X007213Y002871D01*
X007390Y003082D01*
G37*
G36*
X002253Y010026D02*
X002221Y009654D01*
X001947Y009678D01*
X001979Y010050D01*
X002253Y010026D01*
G37*
G36*
X005311Y017797D02*
X005048Y017534D01*
X004853Y017729D01*
X005116Y017992D01*
X005311Y017797D01*
G37*
G36*
X014762Y003884D02*
X014424Y003726D01*
X014308Y003976D01*
X014646Y004134D01*
X014762Y003884D01*
G37*
G36*
X019459Y010067D02*
X019394Y009699D01*
X019123Y009747D01*
X019188Y010115D01*
X019459Y010067D01*
G37*
G36*
X016597Y017219D02*
X016784Y016897D01*
X016545Y016759D01*
X016358Y017081D01*
X016597Y017219D01*
G37*
D17*
G36*
X017343Y017661D02*
X017574Y017261D01*
X017335Y017123D01*
X017104Y017523D01*
X017343Y017661D01*
G37*
G36*
X014978Y020024D02*
X015209Y019624D01*
X014970Y019486D01*
X014739Y019886D01*
X014978Y020024D01*
G37*
G36*
X020022Y013255D02*
X019941Y012801D01*
X019670Y012849D01*
X019751Y013303D01*
X020022Y013255D01*
G37*
G36*
X020314Y009926D02*
X020233Y009472D01*
X019962Y009520D01*
X020043Y009974D01*
X020314Y009926D01*
G37*
G36*
X017697Y005253D02*
X017279Y005058D01*
X017163Y005307D01*
X017581Y005502D01*
X017697Y005253D01*
G37*
G36*
X015137Y003104D02*
X014719Y002909D01*
X014603Y003158D01*
X015021Y003353D01*
X015137Y003104D01*
G37*
G36*
X007939Y003752D02*
X008292Y003456D01*
X008115Y003244D01*
X007762Y003540D01*
X007939Y003752D01*
G37*
G36*
X004909Y005164D02*
X005262Y004868D01*
X005085Y004656D01*
X004732Y004952D01*
X004909Y005164D01*
G37*
G36*
X003117Y009960D02*
X003077Y009500D01*
X002803Y009524D01*
X002843Y009984D01*
X003117Y009960D01*
G37*
G36*
X002536Y013251D02*
X002496Y012791D01*
X002222Y012815D01*
X002262Y013275D01*
X002536Y013251D01*
G37*
G36*
X005930Y017191D02*
X005605Y016866D01*
X005410Y017061D01*
X005735Y017386D01*
X005930Y017191D01*
G37*
G36*
X007600Y020087D02*
X007275Y019762D01*
X007080Y019957D01*
X007405Y020282D01*
X007600Y020087D01*
G37*
D18*
X007911Y019535D02*
X007956Y019535D01*
X007957Y019537D02*
X007953Y019513D01*
X007956Y019487D01*
X007965Y019464D01*
X007980Y019444D01*
X008000Y019429D01*
X008024Y019419D01*
X008049Y019417D01*
X008074Y019421D01*
X008097Y019431D01*
X008116Y019447D01*
X008137Y019427D01*
X007914Y019204D01*
X007747Y019371D01*
X007970Y019594D01*
X007984Y019580D01*
X007968Y019560D01*
X007957Y019537D01*
X007949Y019572D02*
X007978Y019572D01*
X007955Y019497D02*
X007873Y019497D01*
X007835Y019459D02*
X007969Y019459D01*
X008020Y019421D02*
X007797Y019421D01*
X007759Y019383D02*
X008093Y019383D01*
X008075Y019421D02*
X008131Y019421D01*
X008056Y019345D02*
X007773Y019345D01*
X007811Y019307D02*
X008018Y019307D01*
X007980Y019269D02*
X007849Y019269D01*
X007886Y019232D02*
X007942Y019232D01*
X003372Y013090D02*
X003344Y012776D01*
X003109Y012797D01*
X003136Y013110D01*
X003156Y013109D01*
X003156Y013083D01*
X003162Y013059D01*
X003175Y013037D01*
X003194Y013020D01*
X003216Y013008D01*
X003240Y013002D01*
X003266Y013003D01*
X003290Y013011D01*
X003311Y013025D01*
X003327Y013045D01*
X003338Y013067D01*
X003342Y013092D01*
X003372Y013090D01*
X003369Y013059D02*
X003334Y013059D01*
X003304Y013021D02*
X003366Y013021D01*
X003362Y012983D02*
X003125Y012983D01*
X003122Y012945D02*
X003359Y012945D01*
X003356Y012907D02*
X003118Y012907D01*
X003115Y012869D02*
X003352Y012869D01*
X003349Y012832D02*
X003112Y012832D01*
X003142Y012794D02*
X003346Y012794D01*
X003192Y013021D02*
X003128Y013021D01*
X003132Y013059D02*
X003163Y013059D01*
X003156Y013097D02*
X003135Y013097D01*
X005521Y005756D02*
X005762Y005553D01*
X005610Y005372D01*
X005369Y005575D01*
X005381Y005590D01*
X005402Y005575D01*
X005426Y005567D01*
X005451Y005565D01*
X005476Y005570D01*
X005498Y005581D01*
X005517Y005598D01*
X005530Y005620D01*
X005538Y005644D01*
X005538Y005669D01*
X005532Y005693D01*
X005520Y005715D01*
X005502Y005733D01*
X005521Y005756D01*
X005516Y005750D02*
X005528Y005750D01*
X005522Y005712D02*
X005573Y005712D01*
X005537Y005674D02*
X005618Y005674D01*
X005663Y005636D02*
X005535Y005636D01*
X005517Y005598D02*
X005708Y005598D01*
X005753Y005560D02*
X005386Y005560D01*
X005431Y005523D02*
X005736Y005523D01*
X005704Y005485D02*
X005476Y005485D01*
X005521Y005447D02*
X005672Y005447D01*
X005641Y005409D02*
X005566Y005409D01*
X015708Y019979D02*
X015551Y020252D01*
X015568Y020262D01*
X015582Y020241D01*
X015602Y020225D01*
X015625Y020215D01*
X015650Y020211D01*
X015675Y020214D01*
X015698Y020223D01*
X015718Y020239D01*
X015733Y020259D01*
X015742Y020283D01*
X015745Y020308D01*
X015741Y020333D01*
X015730Y020356D01*
X015755Y020370D01*
X015913Y020098D01*
X015708Y019979D01*
X015703Y019989D02*
X015725Y019989D01*
X015681Y020027D02*
X015790Y020027D01*
X015856Y020065D02*
X015659Y020065D01*
X015637Y020103D02*
X015910Y020103D01*
X015888Y020141D02*
X015615Y020141D01*
X015593Y020178D02*
X015866Y020178D01*
X015844Y020216D02*
X015680Y020216D01*
X015621Y020216D02*
X015572Y020216D01*
X015573Y020254D02*
X015554Y020254D01*
X015729Y020254D02*
X015823Y020254D01*
X015801Y020292D02*
X015743Y020292D01*
X015741Y020330D02*
X015779Y020330D01*
X015757Y020368D02*
X015751Y020368D01*
X020607Y013063D02*
X020626Y013060D01*
X020624Y013035D01*
X020629Y013010D01*
X020640Y012987D01*
X020656Y012968D01*
X020677Y012954D01*
X020701Y012946D01*
X020727Y012945D01*
X020751Y012951D01*
X020773Y012963D01*
X020791Y012981D01*
X020804Y013003D01*
X020811Y013027D01*
X020840Y013022D01*
X020785Y012712D01*
X020552Y012753D01*
X020607Y013063D01*
X020606Y013059D02*
X020626Y013059D01*
X020627Y013021D02*
X020600Y013021D01*
X020593Y012983D02*
X020643Y012983D01*
X020586Y012945D02*
X020826Y012945D01*
X020819Y012907D02*
X020580Y012907D01*
X020573Y012869D02*
X020813Y012869D01*
X020806Y012832D02*
X020566Y012832D01*
X020560Y012794D02*
X020799Y012794D01*
X020793Y012756D02*
X020553Y012756D01*
X020751Y012718D02*
X020786Y012718D01*
X020793Y012983D02*
X020833Y012983D01*
X020839Y013021D02*
X020809Y013021D01*
X017875Y004662D02*
X017883Y004645D01*
X017861Y004632D01*
X017844Y004614D01*
X017831Y004592D01*
X017825Y004568D01*
X017826Y004542D01*
X017833Y004518D01*
X017847Y004497D01*
X017866Y004480D01*
X017889Y004469D01*
X017913Y004464D01*
X017939Y004466D01*
X017962Y004475D01*
X017975Y004448D01*
X017689Y004315D01*
X017590Y004529D01*
X017875Y004662D01*
X017880Y004652D02*
X017852Y004652D01*
X017843Y004614D02*
X017771Y004614D01*
X017827Y004576D02*
X017689Y004576D01*
X017608Y004538D02*
X017827Y004538D01*
X017845Y004500D02*
X017603Y004500D01*
X017621Y004462D02*
X017968Y004462D01*
X017923Y004424D02*
X017638Y004424D01*
X017656Y004386D02*
X017842Y004386D01*
X017761Y004349D02*
X017674Y004349D01*
D19*
X008899Y000675D03*
D20*
X008898Y000677D03*
X009140Y000890D03*
X009140Y000892D03*
X009142Y000898D03*
X009142Y000900D03*
X012304Y000965D03*
D21*
X013081Y001389D03*
X013475Y001389D03*
X010398Y001389D03*
X009104Y001389D03*
X008896Y000679D03*
D22*
X008895Y000681D03*
X008756Y001055D03*
X010596Y001532D03*
X010761Y001055D03*
X011625Y001419D03*
X011780Y000948D03*
X012651Y001077D03*
D23*
X011645Y001431D03*
X011339Y001172D03*
X008893Y000683D03*
D24*
X008893Y000685D03*
X010540Y001226D03*
X010576Y001246D03*
X010594Y001256D03*
X010626Y001274D03*
X010666Y001297D03*
X010685Y001307D03*
X010699Y001315D03*
X010721Y001327D03*
X010739Y001337D03*
X010753Y001345D03*
X010771Y001355D03*
X012818Y000967D03*
D25*
X008891Y000687D03*
D26*
X008890Y000689D03*
X011100Y001297D03*
X012803Y001500D03*
X012803Y000979D03*
D27*
X008890Y000691D03*
D28*
X008888Y000693D03*
X008916Y001514D03*
X011120Y001287D03*
X011279Y001202D03*
X012789Y000995D03*
X012789Y001484D03*
X013278Y001514D03*
X013278Y000965D03*
D29*
X008887Y000695D03*
D30*
X008887Y000697D03*
X011146Y001274D03*
X011776Y000979D03*
X012776Y001013D03*
X012776Y001466D03*
D31*
X011244Y001220D03*
X008885Y000699D03*
D32*
X008885Y000701D03*
X008901Y000987D03*
X008915Y001500D03*
X011176Y001258D03*
X011180Y001256D03*
X011222Y001232D03*
X011776Y000987D03*
D33*
X008883Y000703D03*
D34*
X008882Y000705D03*
D35*
X008881Y000707D03*
X011133Y000952D03*
D36*
X011239Y001516D03*
X011764Y001011D03*
X008882Y000709D03*
D37*
X008884Y000711D03*
D38*
X008886Y000713D03*
X013278Y000991D03*
D39*
X013278Y000993D03*
X008888Y000715D03*
X008878Y001025D03*
D40*
X008876Y001029D03*
X008890Y000717D03*
X011799Y001492D03*
D41*
X008891Y000719D03*
D42*
X008894Y000721D03*
X008914Y001482D03*
D43*
X008914Y001480D03*
X008896Y000723D03*
D44*
X008897Y000725D03*
D45*
X008899Y000727D03*
D46*
X008901Y000729D03*
X011226Y001506D03*
D47*
X008902Y000731D03*
D48*
X008904Y000733D03*
D49*
X008906Y000735D03*
X010595Y001478D03*
D50*
X008907Y000737D03*
D51*
X008908Y000739D03*
D52*
X008910Y000741D03*
X010597Y001003D03*
X010595Y001474D03*
X011219Y001498D03*
X011799Y001482D03*
X013278Y001474D03*
X013278Y001005D03*
D53*
X008912Y000743D03*
D54*
X008913Y000745D03*
X011158Y000967D03*
D55*
X008914Y000747D03*
D56*
X008915Y000749D03*
X010594Y001472D03*
X011160Y000969D03*
X011798Y001480D03*
D57*
X011216Y001494D03*
X008917Y000751D03*
D58*
X008918Y000753D03*
D59*
X008919Y000755D03*
X010596Y001007D03*
D60*
X008920Y000757D03*
D61*
X008922Y000759D03*
D62*
X008923Y000761D03*
X010594Y001468D03*
X011164Y000973D03*
X011798Y001476D03*
X013277Y001468D03*
X013277Y001011D03*
D63*
X008924Y000763D03*
D64*
X008925Y000765D03*
D65*
X008927Y000767D03*
D66*
X008928Y000769D03*
D67*
X008929Y000771D03*
D68*
X008931Y000773D03*
X010594Y001464D03*
X011208Y001480D03*
X011168Y000977D03*
D69*
X011207Y001478D03*
X008932Y000775D03*
D70*
X008796Y000777D03*
X008731Y001075D03*
X008731Y001403D03*
X009093Y000810D03*
X010786Y001077D03*
X012304Y001035D03*
X012626Y001101D03*
X012626Y001377D03*
D71*
X012698Y001425D03*
X012698Y001053D03*
X011088Y001303D03*
X009031Y000777D03*
D72*
X009115Y000836D03*
X009129Y001347D03*
X008917Y001536D03*
X009421Y001633D03*
X009421Y001685D03*
X008787Y000779D03*
X010369Y001136D03*
X010369Y001138D03*
X010371Y001134D03*
X010371Y001345D03*
X010827Y001154D03*
X010827Y001152D03*
X011023Y001353D03*
X011377Y001071D03*
X011578Y001119D03*
X011566Y001337D03*
X011570Y001345D03*
X011570Y001347D03*
X012305Y001053D03*
X012305Y000973D03*
X012599Y001146D03*
X012597Y001150D03*
X012597Y001152D03*
X012595Y001323D03*
X012597Y001327D03*
X012597Y001329D03*
X012599Y001331D03*
X012601Y001337D03*
X013052Y001339D03*
X013054Y001345D03*
X013050Y001144D03*
X013052Y001138D03*
X013054Y001136D03*
X013054Y001134D03*
X013500Y001132D03*
X013502Y001136D03*
X013502Y001138D03*
X013504Y001142D03*
X013506Y001146D03*
X013504Y001337D03*
X013504Y001339D03*
X013500Y001347D03*
X013740Y001395D03*
X014050Y001361D03*
X014050Y001355D03*
X014360Y001395D03*
X014362Y001393D03*
D73*
X010768Y001353D03*
X010724Y001329D03*
X010714Y001323D03*
X010706Y001319D03*
X010692Y001311D03*
X010669Y001299D03*
X010655Y001291D03*
X010651Y001289D03*
X010641Y001283D03*
X010637Y001281D03*
X010633Y001279D03*
X010623Y001272D03*
X010619Y001270D03*
X010609Y001264D03*
X010605Y001262D03*
X010591Y001254D03*
X010579Y001248D03*
X010569Y001242D03*
X010561Y001238D03*
X010555Y001234D03*
X010547Y001230D03*
X009041Y000779D03*
D74*
X009142Y000902D03*
X008781Y000781D03*
D75*
X009047Y000781D03*
D76*
X008775Y000783D03*
D77*
X009053Y000783D03*
X010780Y001365D03*
X012827Y001518D03*
D78*
X010828Y001210D03*
X010506Y001176D03*
X009013Y001047D03*
X008771Y000785D03*
D79*
X009058Y000785D03*
X013881Y001524D03*
D80*
X008766Y000787D03*
D81*
X008762Y001051D03*
X009062Y000787D03*
X010749Y001427D03*
X011055Y001321D03*
X011635Y001425D03*
X013124Y001427D03*
X013432Y001427D03*
X013432Y001051D03*
X013124Y001051D03*
D82*
X008763Y000789D03*
D83*
X009066Y000789D03*
X012657Y001073D03*
D84*
X008759Y000791D03*
D85*
X009070Y000791D03*
X009072Y001421D03*
X010431Y001421D03*
X010757Y001421D03*
X013114Y001421D03*
X013442Y001421D03*
D86*
X009031Y001061D03*
X008755Y000793D03*
D87*
X008750Y001059D03*
X009072Y000793D03*
X009076Y001417D03*
X010425Y001417D03*
X010526Y001206D03*
X010425Y001061D03*
X011623Y001417D03*
X013112Y001419D03*
X013444Y001419D03*
X013444Y001059D03*
X013112Y001059D03*
X013881Y001528D03*
X014219Y001528D03*
D88*
X008751Y000795D03*
D89*
X009076Y000795D03*
X010423Y001063D03*
X011357Y001160D03*
X012645Y001395D03*
X014050Y001395D03*
X014330Y001433D03*
D90*
X008748Y000797D03*
D91*
X009079Y000797D03*
X010772Y001407D03*
D92*
X008744Y000799D03*
D93*
X009081Y000799D03*
X010412Y001405D03*
X011609Y001405D03*
X012638Y001389D03*
X012845Y001526D03*
X013765Y001429D03*
X014335Y001429D03*
D94*
X011931Y001103D03*
X011931Y001101D03*
X010487Y001146D03*
X008740Y000801D03*
D95*
X008738Y001069D03*
X009084Y000801D03*
X009086Y000803D03*
X009092Y001403D03*
X011614Y001071D03*
X012305Y001023D03*
X012305Y001021D03*
X012305Y001019D03*
X012305Y001015D03*
X012305Y001013D03*
X012305Y001011D03*
X012305Y001007D03*
X012305Y001005D03*
X012305Y001003D03*
X012633Y001093D03*
X013094Y001075D03*
X013094Y001403D03*
D96*
X009052Y001083D03*
X008736Y000803D03*
D97*
X008736Y001407D03*
X009088Y000805D03*
X013090Y001399D03*
D98*
X009091Y000808D03*
X008733Y001405D03*
D99*
X008723Y001083D03*
X009095Y000812D03*
X009106Y001387D03*
X010396Y001387D03*
X010396Y001091D03*
X010794Y001087D03*
X011032Y001339D03*
X011368Y001059D03*
X011601Y001085D03*
X011593Y001385D03*
X011797Y001536D03*
X011994Y001395D03*
X011996Y001393D03*
X012620Y001369D03*
X012622Y001371D03*
X012620Y001109D03*
X012622Y001107D03*
X013473Y001087D03*
X013755Y001419D03*
X014345Y001419D03*
X014347Y001417D03*
D100*
X013083Y001391D03*
X009097Y000814D03*
X008725Y001081D03*
D101*
X009100Y000816D03*
X009110Y001381D03*
X009420Y001655D03*
X009420Y001663D03*
X010392Y001381D03*
X011030Y001341D03*
X013075Y001381D03*
X013751Y001413D03*
D102*
X013483Y001377D03*
X013485Y001103D03*
X013483Y001101D03*
X013073Y001101D03*
X013071Y001103D03*
X013073Y001377D03*
X012616Y001363D03*
X012614Y001361D03*
X012614Y001117D03*
X012616Y001115D03*
X012000Y001387D03*
X011587Y001377D03*
X011583Y001371D03*
X011593Y001095D03*
X011595Y001093D03*
X011370Y001061D03*
X011372Y001146D03*
X011032Y001419D03*
X010804Y001103D03*
X010802Y001099D03*
X010390Y001099D03*
X010390Y001379D03*
X009420Y001653D03*
X009420Y001657D03*
X009420Y001661D03*
X009112Y001379D03*
X009112Y001377D03*
X009102Y000818D03*
X008717Y001091D03*
X008723Y001393D03*
D103*
X008718Y001387D03*
X009117Y001371D03*
X009103Y000820D03*
X010385Y001107D03*
X010387Y001103D03*
X010385Y001371D03*
X010811Y001115D03*
X010809Y001111D03*
X010803Y001101D03*
X011031Y001417D03*
X011375Y001142D03*
X011590Y001099D03*
X012305Y001047D03*
X012305Y000981D03*
X012305Y000979D03*
X012611Y001124D03*
X012613Y001119D03*
X012611Y001355D03*
X013748Y001409D03*
X013748Y001411D03*
X014352Y001411D03*
D104*
X013070Y001105D03*
X012611Y001122D03*
X012613Y001359D03*
X011592Y001097D03*
X011029Y001343D03*
X010805Y001105D03*
X010387Y001105D03*
X010387Y001375D03*
X009119Y001367D03*
X009105Y000822D03*
X008716Y001383D03*
D105*
X008715Y001381D03*
X009120Y001365D03*
X009106Y000824D03*
X011579Y001365D03*
X013491Y001365D03*
X014355Y001405D03*
D106*
X014353Y001409D03*
X013493Y001361D03*
X013489Y001369D03*
X013493Y001117D03*
X013489Y001111D03*
X013489Y001109D03*
X012610Y001126D03*
X012608Y001128D03*
X012606Y001132D03*
X012606Y001347D03*
X012610Y001353D03*
X012006Y001379D03*
X011579Y001363D03*
X011577Y001361D03*
X011585Y001107D03*
X011587Y001103D03*
X011589Y001101D03*
X011028Y001345D03*
X010816Y001126D03*
X010812Y001117D03*
X010384Y001109D03*
X010382Y001111D03*
X010380Y001115D03*
X010380Y001363D03*
X010384Y001369D03*
X009118Y001369D03*
X009108Y000826D03*
X008715Y001093D03*
X008713Y001095D03*
X008713Y001379D03*
X008717Y001385D03*
D107*
X009121Y001363D03*
X009123Y001361D03*
X009109Y000828D03*
X010377Y001119D03*
X010379Y001117D03*
X010379Y001361D03*
X010819Y001134D03*
X010819Y001132D03*
X010817Y001128D03*
X010815Y001124D03*
X010813Y001119D03*
X011377Y001138D03*
X011574Y001355D03*
X012007Y001377D03*
X012305Y001051D03*
X012603Y001138D03*
X012605Y001134D03*
X012605Y001345D03*
X013062Y001361D03*
X013062Y001119D03*
X013062Y001117D03*
X013492Y001115D03*
X013494Y001119D03*
X013496Y001124D03*
X013496Y001355D03*
X013492Y001363D03*
D108*
X014050Y001367D03*
X009111Y000830D03*
X008712Y001097D03*
X008710Y001375D03*
D109*
X009128Y001349D03*
X009112Y000832D03*
X010372Y001349D03*
X013499Y001349D03*
X013741Y001397D03*
X014359Y001397D03*
D110*
X013743Y001401D03*
X013501Y001345D03*
X013501Y001134D03*
X013499Y001128D03*
X013055Y001132D03*
X013055Y001347D03*
X012602Y001339D03*
X012600Y001144D03*
X012600Y001142D03*
X011581Y001115D03*
X011579Y001117D03*
X011376Y001069D03*
X010826Y001150D03*
X010824Y001146D03*
X010824Y001144D03*
X010822Y001142D03*
X010820Y001136D03*
X010595Y000942D03*
X010517Y001192D03*
X010376Y001124D03*
X010374Y001126D03*
X010374Y001128D03*
X010372Y001132D03*
X010372Y001347D03*
X010374Y001353D03*
X010376Y001355D03*
X009420Y001681D03*
X009126Y001355D03*
X009126Y001353D03*
X009130Y001345D03*
X009114Y000834D03*
X008707Y001369D03*
D111*
X009131Y001343D03*
X009421Y001635D03*
X009421Y001683D03*
X009117Y000838D03*
X009996Y001065D03*
X010369Y001343D03*
X010827Y001156D03*
X010825Y001148D03*
X011578Y001122D03*
X011568Y001343D03*
X012013Y001367D03*
X012595Y001156D03*
X013052Y001140D03*
X013056Y001130D03*
X013050Y001335D03*
X013054Y001343D03*
X013502Y001343D03*
X013504Y001140D03*
X014050Y001359D03*
X014362Y001391D03*
D112*
X014363Y001389D03*
X013049Y001333D03*
X012018Y001357D03*
X012014Y001365D03*
X011565Y001333D03*
X011022Y001357D03*
X011024Y001405D03*
X009420Y001631D03*
X009132Y001341D03*
X009118Y000840D03*
X008693Y001341D03*
X008697Y001349D03*
D113*
X008692Y001339D03*
X008692Y001337D03*
X008692Y001132D03*
X008694Y001128D03*
X008696Y001126D03*
X008696Y001124D03*
X008698Y001119D03*
X009141Y001313D03*
X009141Y001315D03*
X009137Y001327D03*
X009421Y001629D03*
X009421Y001689D03*
X009119Y000842D03*
X010356Y001170D03*
X010359Y001168D03*
X010359Y001166D03*
X010361Y001160D03*
X010361Y001158D03*
X010363Y001154D03*
X010356Y001174D03*
X010354Y001182D03*
X010352Y001192D03*
X010352Y001287D03*
X010354Y001297D03*
X010354Y001299D03*
X010356Y001305D03*
X010356Y001307D03*
X010359Y001311D03*
X010359Y001313D03*
X010359Y001315D03*
X010361Y001319D03*
X010361Y001321D03*
X010838Y001192D03*
X010838Y001190D03*
X010836Y001184D03*
X010836Y001182D03*
X010834Y001174D03*
X011021Y001361D03*
X011021Y001393D03*
X011021Y001395D03*
X011023Y001401D03*
X011383Y001124D03*
X011566Y001146D03*
X011568Y001142D03*
X011570Y001138D03*
X011570Y001136D03*
X011572Y001132D03*
X011560Y001319D03*
X011560Y001321D03*
X011562Y001327D03*
X011564Y001331D03*
X011782Y000942D03*
X012019Y001355D03*
X012305Y000971D03*
X012589Y001174D03*
X012589Y001176D03*
X012587Y001182D03*
X012587Y001184D03*
X012585Y001190D03*
X012585Y001192D03*
X012585Y001287D03*
X012585Y001289D03*
X012587Y001295D03*
X012587Y001297D03*
X012587Y001299D03*
X012589Y001303D03*
X012589Y001305D03*
X012589Y001307D03*
X013038Y001295D03*
X013040Y001303D03*
X013040Y001305D03*
X013042Y001311D03*
X013042Y001313D03*
X013044Y001315D03*
X013044Y001319D03*
X013046Y001323D03*
X013048Y001329D03*
X013038Y001186D03*
X013038Y001184D03*
X013040Y001178D03*
X013040Y001176D03*
X013040Y001174D03*
X013042Y001170D03*
X013042Y001168D03*
X013042Y001166D03*
X013044Y001162D03*
X013044Y001160D03*
X013048Y001150D03*
X013513Y001162D03*
X013513Y001166D03*
X013515Y001168D03*
X013515Y001170D03*
X013517Y001178D03*
X013519Y001190D03*
X013519Y001289D03*
X013517Y001299D03*
X013515Y001307D03*
X013515Y001311D03*
X013513Y001313D03*
X013513Y001315D03*
X013734Y001379D03*
X014050Y001347D03*
X014050Y001345D03*
X014368Y001377D03*
D114*
X014363Y001387D03*
X014051Y001353D03*
X013507Y001331D03*
X013507Y001329D03*
X013507Y001150D03*
X013505Y001144D03*
X013278Y000942D03*
X013051Y001142D03*
X013049Y001146D03*
X013047Y001152D03*
X013047Y001154D03*
X013045Y001158D03*
X013045Y001321D03*
X013047Y001327D03*
X013049Y001331D03*
X013051Y001337D03*
X013278Y001536D03*
X012594Y001321D03*
X012594Y001319D03*
X012594Y001160D03*
X012594Y001158D03*
X012596Y001154D03*
X012304Y001055D03*
X012016Y001361D03*
X012016Y001363D03*
X011567Y001339D03*
X011563Y001329D03*
X011571Y001134D03*
X011022Y001355D03*
X011024Y001403D03*
X010835Y001178D03*
X010835Y001176D03*
X010515Y001190D03*
X010360Y001162D03*
X010362Y001323D03*
X010368Y001339D03*
X009995Y001067D03*
X009136Y001329D03*
X009136Y001331D03*
X009134Y001337D03*
X009132Y001339D03*
X009120Y000844D03*
X008699Y001117D03*
X008695Y001345D03*
X008695Y001347D03*
X008699Y001353D03*
D115*
X008694Y001343D03*
X009137Y001325D03*
X009121Y000846D03*
X010359Y001164D03*
X010356Y001172D03*
X010354Y001180D03*
X010356Y001309D03*
X010363Y001325D03*
X010838Y001188D03*
X010836Y001180D03*
X011021Y001359D03*
X011383Y001122D03*
X011383Y001089D03*
X011568Y001140D03*
X011562Y001325D03*
X012017Y001359D03*
X012021Y001351D03*
X012305Y001057D03*
X012589Y001172D03*
X012587Y001180D03*
X013044Y001164D03*
X013046Y001156D03*
X013038Y001293D03*
X013040Y001301D03*
X013042Y001309D03*
X013044Y001317D03*
X013513Y001317D03*
X013515Y001309D03*
X013517Y001301D03*
X013517Y001180D03*
X013515Y001172D03*
X013513Y001164D03*
X014050Y001351D03*
X014368Y001375D03*
D116*
X014050Y001349D03*
X013734Y001381D03*
X013732Y001373D03*
X011021Y001397D03*
X009421Y001687D03*
X009135Y001333D03*
X009123Y000848D03*
X008690Y001333D03*
D117*
X008689Y001331D03*
X008689Y001329D03*
X008687Y001327D03*
X008687Y001323D03*
X008685Y001319D03*
X008687Y001144D03*
X008689Y001138D03*
X008691Y001136D03*
X008691Y001134D03*
X009146Y001291D03*
X009144Y001303D03*
X009144Y001305D03*
X009142Y001307D03*
X009142Y001311D03*
X009124Y000852D03*
X009124Y000850D03*
X009989Y001077D03*
X010355Y001176D03*
X010355Y001178D03*
X010353Y001184D03*
X010353Y001186D03*
X010353Y001190D03*
X010351Y001194D03*
X010351Y001198D03*
X010351Y001200D03*
X010351Y001202D03*
X010349Y001208D03*
X010349Y001210D03*
X010349Y001214D03*
X010349Y001216D03*
X010349Y001218D03*
X010349Y001222D03*
X010349Y001224D03*
X010349Y001226D03*
X010349Y001230D03*
X010349Y001248D03*
X010349Y001250D03*
X010349Y001254D03*
X010349Y001256D03*
X010349Y001258D03*
X010349Y001262D03*
X010349Y001264D03*
X010349Y001266D03*
X010349Y001270D03*
X010351Y001274D03*
X010351Y001279D03*
X010351Y001281D03*
X010351Y001283D03*
X010353Y001289D03*
X010353Y001291D03*
X010353Y001295D03*
X010355Y001303D03*
X010839Y001198D03*
X010839Y001194D03*
X010837Y001186D03*
X010841Y001206D03*
X011020Y001363D03*
X011020Y001369D03*
X011020Y001385D03*
X011020Y001387D03*
X011384Y001119D03*
X011384Y001117D03*
X011384Y001115D03*
X011384Y001111D03*
X011384Y001109D03*
X011384Y001107D03*
X011384Y001103D03*
X011384Y001101D03*
X011384Y001099D03*
X011384Y001095D03*
X011384Y001093D03*
X011384Y001091D03*
X011382Y001087D03*
X011382Y001085D03*
X011563Y001154D03*
X011565Y001150D03*
X011567Y001144D03*
X011557Y001307D03*
X011557Y001311D03*
X011559Y001313D03*
X011559Y001315D03*
X011561Y001323D03*
X012020Y001353D03*
X012022Y001347D03*
X012582Y001272D03*
X012582Y001270D03*
X012582Y001266D03*
X012582Y001264D03*
X012582Y001262D03*
X012582Y001258D03*
X012582Y001256D03*
X012584Y001279D03*
X012584Y001281D03*
X012584Y001283D03*
X012586Y001291D03*
X012582Y001222D03*
X012582Y001218D03*
X012582Y001216D03*
X012582Y001214D03*
X012582Y001210D03*
X012582Y001208D03*
X012582Y001206D03*
X012584Y001202D03*
X012584Y001200D03*
X012584Y001198D03*
X012584Y001194D03*
X012586Y001186D03*
X012588Y001178D03*
X013032Y001218D03*
X013032Y001222D03*
X013032Y001224D03*
X013032Y001226D03*
X013032Y001230D03*
X013032Y001232D03*
X013032Y001234D03*
X013032Y001238D03*
X013032Y001240D03*
X013032Y001242D03*
X013032Y001246D03*
X013032Y001248D03*
X013032Y001250D03*
X013032Y001254D03*
X013032Y001256D03*
X013032Y001258D03*
X013035Y001270D03*
X013035Y001272D03*
X013035Y001274D03*
X013035Y001279D03*
X013035Y001281D03*
X013037Y001283D03*
X013037Y001287D03*
X013037Y001289D03*
X013037Y001291D03*
X013039Y001297D03*
X013039Y001299D03*
X013041Y001307D03*
X013035Y001210D03*
X013035Y001208D03*
X013035Y001206D03*
X013035Y001202D03*
X013035Y001200D03*
X013035Y001198D03*
X013037Y001194D03*
X013037Y001192D03*
X013037Y001190D03*
X013039Y001182D03*
X013516Y001176D03*
X013516Y001174D03*
X013518Y001182D03*
X013518Y001184D03*
X013518Y001186D03*
X013520Y001192D03*
X013520Y001194D03*
X013520Y001198D03*
X013520Y001200D03*
X013522Y001206D03*
X013522Y001208D03*
X013522Y001210D03*
X013522Y001214D03*
X013522Y001216D03*
X013522Y001218D03*
X013522Y001258D03*
X013522Y001262D03*
X013522Y001264D03*
X013522Y001266D03*
X013522Y001270D03*
X013522Y001272D03*
X013522Y001274D03*
X013520Y001279D03*
X013520Y001281D03*
X013520Y001283D03*
X013520Y001287D03*
X013518Y001291D03*
X013518Y001295D03*
X013518Y001297D03*
X013516Y001303D03*
X013516Y001305D03*
X013731Y001369D03*
X013731Y001371D03*
X013733Y001377D03*
X014369Y001371D03*
X014369Y001369D03*
X014371Y001363D03*
X014371Y001361D03*
D118*
X014051Y001343D03*
X013733Y001375D03*
X013731Y001367D03*
X013729Y001359D03*
X013518Y001293D03*
X013520Y001285D03*
X013522Y001268D03*
X013522Y001260D03*
X013522Y001220D03*
X013522Y001212D03*
X013522Y001204D03*
X013520Y001196D03*
X013518Y001188D03*
X013041Y001172D03*
X013039Y001180D03*
X013037Y001188D03*
X013037Y001196D03*
X013035Y001204D03*
X013032Y001220D03*
X013032Y001228D03*
X013032Y001236D03*
X013032Y001244D03*
X013032Y001252D03*
X013032Y001260D03*
X013035Y001268D03*
X013035Y001276D03*
X013037Y001285D03*
X012588Y001301D03*
X012586Y001293D03*
X012584Y001285D03*
X012584Y001276D03*
X012582Y001268D03*
X012582Y001260D03*
X012582Y001220D03*
X012582Y001212D03*
X012584Y001196D03*
X012586Y001188D03*
X012024Y001343D03*
X011559Y001317D03*
X011557Y001309D03*
X011565Y001148D03*
X011384Y001113D03*
X011384Y001105D03*
X011384Y001097D03*
X011020Y001367D03*
X011020Y001383D03*
X011020Y001391D03*
X010841Y001204D03*
X010839Y001196D03*
X010353Y001188D03*
X010351Y001196D03*
X010351Y001204D03*
X010349Y001212D03*
X010349Y001220D03*
X010349Y001228D03*
X010349Y001252D03*
X010349Y001260D03*
X010349Y001268D03*
X010351Y001276D03*
X010351Y001285D03*
X010353Y001293D03*
X010355Y001301D03*
X009991Y001073D03*
X009420Y001627D03*
X009140Y001317D03*
X009142Y001309D03*
X009144Y001301D03*
X009146Y001293D03*
X009126Y000854D03*
X008693Y001130D03*
X008689Y001140D03*
X008685Y001317D03*
X008687Y001325D03*
X008691Y001335D03*
D119*
X009126Y000856D03*
X011020Y001365D03*
X011020Y001389D03*
X012022Y001349D03*
X014051Y001341D03*
X014369Y001373D03*
D120*
X014372Y001355D03*
X014372Y001353D03*
X014050Y001339D03*
X014050Y001337D03*
X014050Y001331D03*
X014050Y001329D03*
X014050Y001327D03*
X013730Y001361D03*
X013730Y001363D03*
X013728Y001355D03*
X013728Y001353D03*
X013523Y001256D03*
X013523Y001254D03*
X013523Y001250D03*
X013523Y001248D03*
X013523Y001246D03*
X013523Y001242D03*
X013523Y001240D03*
X013523Y001238D03*
X013523Y001234D03*
X013523Y001232D03*
X013523Y001230D03*
X013523Y001226D03*
X013523Y001224D03*
X013523Y001222D03*
X013521Y001202D03*
X013034Y001214D03*
X013034Y001216D03*
X013034Y001262D03*
X013034Y001264D03*
X013034Y001266D03*
X012583Y001274D03*
X012581Y001254D03*
X012581Y001250D03*
X012581Y001248D03*
X012581Y001246D03*
X012581Y001242D03*
X012581Y001240D03*
X012581Y001238D03*
X012581Y001234D03*
X012581Y001232D03*
X012581Y001230D03*
X012581Y001226D03*
X012581Y001224D03*
X012305Y001059D03*
X012023Y001345D03*
X011882Y001043D03*
X011564Y001152D03*
X011562Y001158D03*
X011560Y001162D03*
X011552Y001283D03*
X011554Y001295D03*
X011554Y001297D03*
X011554Y001299D03*
X011556Y001303D03*
X011556Y001305D03*
X011019Y001371D03*
X011019Y001377D03*
X011019Y001379D03*
X010840Y001202D03*
X010840Y001200D03*
X010350Y001206D03*
X010350Y001272D03*
X009988Y001079D03*
X009990Y001075D03*
X009421Y001625D03*
X009145Y001299D03*
X009145Y001297D03*
X009145Y001295D03*
X009147Y001289D03*
X009147Y001287D03*
X009147Y001283D03*
X009147Y001281D03*
X009149Y001272D03*
X009149Y001270D03*
X009131Y000866D03*
X009129Y000860D03*
X009127Y000858D03*
X008688Y001142D03*
X008684Y001152D03*
X008682Y001158D03*
X008678Y001291D03*
X008680Y001299D03*
X008680Y001303D03*
X008682Y001305D03*
X008682Y001307D03*
X008682Y001311D03*
X008684Y001313D03*
X008684Y001315D03*
D121*
X008682Y001309D03*
X008680Y001301D03*
X008678Y001293D03*
X009000Y001041D03*
X009129Y000862D03*
X009149Y001268D03*
X009147Y001285D03*
X009421Y001691D03*
X010514Y001188D03*
X011019Y001375D03*
X011552Y001285D03*
X011554Y001293D03*
X011556Y001301D03*
X011560Y001164D03*
X011562Y001156D03*
X012305Y000969D03*
X012583Y001204D03*
X012581Y001228D03*
X012581Y001236D03*
X012581Y001244D03*
X012581Y001252D03*
X013034Y001212D03*
X013523Y001228D03*
X013523Y001236D03*
X013523Y001244D03*
X013523Y001252D03*
X013521Y001276D03*
X013728Y001351D03*
X014050Y001335D03*
X014370Y001367D03*
X014372Y001359D03*
X014372Y001351D03*
D122*
X014373Y001349D03*
X014373Y001341D03*
X013727Y001341D03*
X013727Y001333D03*
X009134Y000872D03*
X009130Y000864D03*
D123*
X009132Y000868D03*
X009134Y000874D03*
X009150Y001238D03*
X009150Y001240D03*
X009150Y001242D03*
X009150Y001246D03*
X009150Y001248D03*
X009150Y001250D03*
X009150Y001254D03*
X009150Y001256D03*
X009150Y001258D03*
X009150Y001262D03*
X009150Y001264D03*
X009150Y001266D03*
X009148Y001274D03*
X009148Y001279D03*
X009420Y001693D03*
X009985Y001087D03*
X009985Y001085D03*
X009987Y001083D03*
X010512Y001186D03*
X011549Y001232D03*
X011549Y001234D03*
X011549Y001238D03*
X011549Y001240D03*
X011549Y001242D03*
X011549Y001246D03*
X011549Y001248D03*
X011549Y001250D03*
X011549Y001254D03*
X011549Y001256D03*
X011549Y001258D03*
X011551Y001270D03*
X011551Y001272D03*
X011551Y001274D03*
X011551Y001279D03*
X011551Y001281D03*
X011553Y001287D03*
X011553Y001289D03*
X011553Y001291D03*
X011551Y001206D03*
X011553Y001194D03*
X011553Y001192D03*
X011553Y001190D03*
X011555Y001184D03*
X011555Y001182D03*
X011561Y001160D03*
X012034Y001283D03*
X012034Y001287D03*
X012032Y001307D03*
X012030Y001319D03*
X012030Y001321D03*
X012030Y001323D03*
X012304Y000967D03*
X013727Y001327D03*
X013727Y001329D03*
X013727Y001331D03*
X013727Y001337D03*
X013727Y001339D03*
X013727Y001345D03*
X013727Y001347D03*
X014051Y001323D03*
X014051Y001321D03*
X014373Y001337D03*
X014373Y001339D03*
X014373Y001345D03*
X014373Y001347D03*
X008683Y001154D03*
X008681Y001160D03*
X008681Y001162D03*
X008679Y001168D03*
X008679Y001170D03*
X008677Y001178D03*
X008675Y001190D03*
X008673Y001206D03*
X008673Y001208D03*
X008673Y001246D03*
X008673Y001248D03*
X008673Y001250D03*
X008673Y001254D03*
X008673Y001256D03*
X008673Y001258D03*
X008675Y001266D03*
X008675Y001270D03*
X008675Y001272D03*
X008675Y001274D03*
X008675Y001279D03*
X008677Y001281D03*
X008677Y001283D03*
X008677Y001287D03*
X008677Y001289D03*
X008679Y001295D03*
X008679Y001297D03*
D124*
X008677Y001285D03*
X008675Y001276D03*
X008675Y001268D03*
X008673Y001252D03*
X008677Y001180D03*
X008679Y001172D03*
X008681Y001164D03*
X008683Y001156D03*
X009150Y001244D03*
X009150Y001252D03*
X009150Y001260D03*
X009148Y001276D03*
X009136Y000878D03*
X009132Y000870D03*
X009987Y001081D03*
X009985Y001089D03*
X009983Y001097D03*
X011549Y001236D03*
X011549Y001244D03*
X011549Y001252D03*
X011551Y001268D03*
X011551Y001276D03*
X011555Y001180D03*
X012034Y001285D03*
X012032Y001309D03*
X012030Y001317D03*
X013727Y001335D03*
X013727Y001343D03*
X014051Y001325D03*
X014373Y001335D03*
X014373Y001343D03*
D125*
X014374Y001331D03*
X014374Y001329D03*
X014374Y001327D03*
X014374Y001323D03*
X014374Y001321D03*
X014374Y001319D03*
X014374Y001315D03*
X014374Y001313D03*
X014374Y001311D03*
X014374Y001307D03*
X014374Y001305D03*
X014374Y001303D03*
X014374Y001299D03*
X014374Y001297D03*
X014374Y001295D03*
X014374Y001291D03*
X014374Y001289D03*
X014374Y001287D03*
X014374Y001283D03*
X014374Y001281D03*
X014374Y001279D03*
X014374Y001274D03*
X014374Y001272D03*
X014374Y001270D03*
X014374Y001266D03*
X014374Y001264D03*
X014374Y001262D03*
X014374Y001258D03*
X014374Y001256D03*
X014374Y001254D03*
X014374Y001250D03*
X014374Y001248D03*
X014374Y001246D03*
X014374Y001242D03*
X014374Y001240D03*
X014374Y001238D03*
X014374Y001234D03*
X014374Y001232D03*
X014374Y001230D03*
X014374Y001226D03*
X014374Y001224D03*
X014374Y001222D03*
X014374Y001218D03*
X014374Y001216D03*
X014374Y001214D03*
X014374Y001210D03*
X014374Y001208D03*
X014374Y001206D03*
X014374Y001202D03*
X014374Y001200D03*
X014374Y001198D03*
X014374Y001194D03*
X014374Y001192D03*
X014374Y001190D03*
X014374Y001186D03*
X014374Y001184D03*
X014374Y001182D03*
X014374Y001178D03*
X014374Y001176D03*
X014374Y001174D03*
X014374Y001170D03*
X014374Y001168D03*
X014374Y001166D03*
X014374Y001162D03*
X014374Y001160D03*
X014374Y001158D03*
X014374Y001154D03*
X014374Y001152D03*
X014374Y001150D03*
X014374Y001146D03*
X014374Y001144D03*
X014374Y001142D03*
X014374Y001138D03*
X014374Y001136D03*
X014374Y001134D03*
X014374Y001132D03*
X014374Y001128D03*
X014374Y001126D03*
X014374Y001124D03*
X014374Y001119D03*
X014374Y001117D03*
X014374Y001115D03*
X014374Y001111D03*
X014374Y001109D03*
X014374Y001107D03*
X014374Y001103D03*
X014374Y001101D03*
X014374Y001099D03*
X014374Y001095D03*
X014374Y001093D03*
X014374Y001091D03*
X014374Y001087D03*
X014374Y001085D03*
X014374Y001083D03*
X014374Y001079D03*
X014374Y001077D03*
X014374Y001075D03*
X014374Y001071D03*
X014374Y001069D03*
X014374Y001067D03*
X014374Y001063D03*
X014374Y001061D03*
X014374Y001059D03*
X014374Y001055D03*
X014374Y001053D03*
X014374Y001051D03*
X014374Y001047D03*
X014374Y001045D03*
X014374Y001043D03*
X014374Y001039D03*
X014374Y001037D03*
X014374Y001035D03*
X014374Y001031D03*
X014374Y001029D03*
X014374Y001027D03*
X014374Y001023D03*
X014374Y001021D03*
X014374Y001019D03*
X014374Y001015D03*
X014374Y001013D03*
X014374Y001011D03*
X014374Y001007D03*
X014374Y001005D03*
X014374Y001003D03*
X014374Y000999D03*
X014374Y000997D03*
X014374Y000995D03*
X014374Y000991D03*
X014374Y000989D03*
X014374Y000987D03*
X014374Y000983D03*
X014374Y000981D03*
X014374Y000979D03*
X014374Y000975D03*
X014374Y000973D03*
X014374Y000971D03*
X014374Y000967D03*
X014374Y000965D03*
X014374Y000962D03*
X014374Y000958D03*
X014374Y000956D03*
X014374Y000954D03*
X014374Y000950D03*
X014050Y000950D03*
X014050Y000954D03*
X014050Y000956D03*
X014050Y000958D03*
X014050Y000962D03*
X014050Y000965D03*
X014050Y000967D03*
X014050Y000971D03*
X014050Y000973D03*
X014050Y000975D03*
X014050Y000979D03*
X014050Y000981D03*
X014050Y000983D03*
X014050Y000987D03*
X014050Y000989D03*
X014050Y000991D03*
X014050Y000995D03*
X014050Y000997D03*
X014050Y000999D03*
X014050Y001003D03*
X014050Y001005D03*
X014050Y001007D03*
X014050Y001011D03*
X014050Y001013D03*
X014050Y001015D03*
X014050Y001019D03*
X014050Y001021D03*
X014050Y001023D03*
X014050Y001027D03*
X014050Y001029D03*
X014050Y001031D03*
X014050Y001035D03*
X014050Y001037D03*
X014050Y001039D03*
X014050Y001043D03*
X014050Y001045D03*
X014050Y001047D03*
X014050Y001051D03*
X014050Y001053D03*
X014050Y001055D03*
X014050Y001059D03*
X014050Y001061D03*
X014050Y001063D03*
X014050Y001067D03*
X014050Y001069D03*
X014050Y001071D03*
X014050Y001075D03*
X014050Y001077D03*
X014050Y001079D03*
X014050Y001083D03*
X014050Y001085D03*
X014050Y001087D03*
X014050Y001091D03*
X014050Y001093D03*
X014050Y001095D03*
X014050Y001099D03*
X014050Y001101D03*
X014050Y001103D03*
X014050Y001107D03*
X014050Y001109D03*
X014050Y001111D03*
X014050Y001115D03*
X014050Y001117D03*
X014050Y001119D03*
X014050Y001124D03*
X014050Y001126D03*
X014050Y001128D03*
X014050Y001132D03*
X014050Y001134D03*
X014050Y001136D03*
X014050Y001138D03*
X014050Y001142D03*
X014050Y001144D03*
X014050Y001146D03*
X014050Y001150D03*
X014050Y001152D03*
X014050Y001154D03*
X014050Y001158D03*
X014050Y001160D03*
X014050Y001162D03*
X014050Y001166D03*
X014050Y001168D03*
X014050Y001170D03*
X014050Y001174D03*
X014050Y001176D03*
X014050Y001178D03*
X014050Y001182D03*
X014050Y001184D03*
X014050Y001186D03*
X014050Y001190D03*
X014050Y001192D03*
X014050Y001194D03*
X014050Y001198D03*
X014050Y001200D03*
X014050Y001202D03*
X014050Y001206D03*
X014050Y001208D03*
X014050Y001210D03*
X014050Y001214D03*
X014050Y001216D03*
X014050Y001218D03*
X014050Y001222D03*
X014050Y001224D03*
X014050Y001226D03*
X014050Y001230D03*
X014050Y001232D03*
X014050Y001234D03*
X014050Y001238D03*
X014050Y001240D03*
X014050Y001242D03*
X014050Y001246D03*
X014050Y001248D03*
X014050Y001250D03*
X014050Y001254D03*
X014050Y001256D03*
X014050Y001258D03*
X014050Y001262D03*
X014050Y001264D03*
X014050Y001266D03*
X014050Y001270D03*
X014050Y001272D03*
X014050Y001274D03*
X014050Y001279D03*
X014050Y001281D03*
X014050Y001283D03*
X014050Y001287D03*
X014050Y001289D03*
X014050Y001291D03*
X014050Y001295D03*
X014050Y001297D03*
X014050Y001299D03*
X014050Y001303D03*
X014050Y001305D03*
X014050Y001307D03*
X014050Y001311D03*
X014050Y001313D03*
X014050Y001315D03*
X014050Y001319D03*
X013726Y001319D03*
X013726Y001321D03*
X013726Y001323D03*
X013726Y001315D03*
X013726Y001313D03*
X013726Y001311D03*
X013726Y001307D03*
X013726Y001305D03*
X013726Y001303D03*
X013726Y001299D03*
X013726Y001297D03*
X013726Y001295D03*
X013726Y001291D03*
X013726Y001289D03*
X013726Y001287D03*
X013726Y001283D03*
X013726Y001281D03*
X013726Y001279D03*
X013726Y001274D03*
X013726Y001272D03*
X013726Y001270D03*
X013726Y001266D03*
X013726Y001264D03*
X013726Y001262D03*
X013726Y001258D03*
X013726Y001256D03*
X013726Y001254D03*
X013726Y001250D03*
X013726Y001248D03*
X013726Y001246D03*
X013726Y001242D03*
X013726Y001240D03*
X013726Y001238D03*
X013726Y001234D03*
X013726Y001232D03*
X013726Y001230D03*
X013726Y001226D03*
X013726Y001224D03*
X013726Y001222D03*
X013726Y001218D03*
X013726Y001216D03*
X013726Y001214D03*
X013726Y001210D03*
X013726Y001208D03*
X013726Y001206D03*
X013726Y001202D03*
X013726Y001200D03*
X013726Y001198D03*
X013726Y001194D03*
X013726Y001192D03*
X013726Y001190D03*
X013726Y001186D03*
X013726Y001184D03*
X013726Y001182D03*
X013726Y001178D03*
X013726Y001176D03*
X013726Y001174D03*
X013726Y001170D03*
X013726Y001168D03*
X013726Y001166D03*
X013726Y001162D03*
X013726Y001160D03*
X013726Y001158D03*
X013726Y001154D03*
X013726Y001152D03*
X013726Y001150D03*
X013726Y001146D03*
X013726Y001144D03*
X013726Y001142D03*
X013726Y001138D03*
X013726Y001136D03*
X013726Y001134D03*
X013726Y001132D03*
X013726Y001128D03*
X013726Y001126D03*
X013726Y001124D03*
X013726Y001119D03*
X013726Y001117D03*
X013726Y001115D03*
X013726Y001111D03*
X013726Y001109D03*
X013726Y001107D03*
X013726Y001103D03*
X013726Y001101D03*
X013726Y001099D03*
X013726Y001095D03*
X013726Y001093D03*
X013726Y001091D03*
X013726Y001087D03*
X013726Y001085D03*
X013726Y001083D03*
X013726Y001079D03*
X013726Y001077D03*
X013726Y001075D03*
X013726Y001071D03*
X013726Y001069D03*
X013726Y001067D03*
X013726Y001063D03*
X013726Y001061D03*
X013726Y001059D03*
X013726Y001055D03*
X013726Y001053D03*
X013726Y001051D03*
X013726Y001047D03*
X013726Y001045D03*
X013726Y001043D03*
X013726Y001039D03*
X013726Y001037D03*
X013726Y001035D03*
X013726Y001031D03*
X013726Y001029D03*
X013726Y001027D03*
X013726Y001023D03*
X013726Y001021D03*
X013726Y001019D03*
X013726Y001015D03*
X013726Y001013D03*
X013726Y001011D03*
X013726Y001007D03*
X013726Y001005D03*
X013726Y001003D03*
X013726Y000999D03*
X013726Y000997D03*
X013726Y000995D03*
X013726Y000991D03*
X013726Y000989D03*
X013726Y000987D03*
X013726Y000983D03*
X013726Y000981D03*
X013726Y000979D03*
X013726Y000975D03*
X013726Y000973D03*
X013726Y000971D03*
X013726Y000967D03*
X013726Y000965D03*
X013726Y000962D03*
X013726Y000958D03*
X013726Y000956D03*
X013726Y000954D03*
X013726Y000950D03*
X012305Y001061D03*
X012035Y001061D03*
X012035Y001059D03*
X012035Y001055D03*
X012035Y001053D03*
X012035Y001051D03*
X012035Y001047D03*
X012035Y001045D03*
X012035Y001043D03*
X012035Y001039D03*
X012035Y001037D03*
X012035Y001035D03*
X012035Y001031D03*
X012035Y001029D03*
X012035Y001027D03*
X012035Y001023D03*
X012035Y001021D03*
X012035Y001019D03*
X012035Y001015D03*
X012035Y001013D03*
X012035Y001011D03*
X012035Y001007D03*
X012035Y001005D03*
X012035Y001003D03*
X012035Y000999D03*
X012035Y000997D03*
X012035Y000995D03*
X012035Y000991D03*
X012035Y000989D03*
X012035Y000987D03*
X012035Y000983D03*
X012035Y000981D03*
X012035Y000979D03*
X012035Y000975D03*
X012035Y000973D03*
X012035Y000971D03*
X012035Y000967D03*
X012035Y000965D03*
X012035Y000962D03*
X012035Y000958D03*
X012035Y000956D03*
X012035Y000954D03*
X012035Y000950D03*
X012035Y001063D03*
X012035Y001067D03*
X012035Y001069D03*
X012035Y001071D03*
X012035Y001075D03*
X012035Y001077D03*
X012035Y001079D03*
X012035Y001083D03*
X012035Y001085D03*
X012035Y001087D03*
X012035Y001091D03*
X012035Y001093D03*
X012035Y001095D03*
X012035Y001099D03*
X012035Y001101D03*
X012035Y001103D03*
X012035Y001107D03*
X012035Y001109D03*
X012035Y001111D03*
X012035Y001115D03*
X012035Y001117D03*
X012035Y001119D03*
X012035Y001124D03*
X012035Y001126D03*
X012035Y001128D03*
X012035Y001132D03*
X012035Y001134D03*
X012035Y001136D03*
X012035Y001138D03*
X012035Y001142D03*
X012035Y001144D03*
X012035Y001146D03*
X012035Y001150D03*
X012035Y001152D03*
X012035Y001154D03*
X012035Y001158D03*
X012035Y001160D03*
X012035Y001162D03*
X012035Y001166D03*
X012035Y001168D03*
X012035Y001170D03*
X012035Y001174D03*
X012035Y001176D03*
X012035Y001178D03*
X012035Y001182D03*
X012035Y001184D03*
X012035Y001186D03*
X012035Y001190D03*
X012035Y001192D03*
X012035Y001194D03*
X012035Y001198D03*
X012035Y001200D03*
X012035Y001202D03*
X012035Y001206D03*
X012035Y001208D03*
X012035Y001210D03*
X012035Y001214D03*
X012035Y001216D03*
X012035Y001218D03*
X012035Y001222D03*
X012035Y001224D03*
X012035Y001226D03*
X012035Y001230D03*
X012035Y001232D03*
X012035Y001234D03*
X012035Y001238D03*
X012035Y001240D03*
X012035Y001242D03*
X012035Y001246D03*
X012035Y001248D03*
X012035Y001250D03*
X012035Y001254D03*
X012035Y001256D03*
X012035Y001258D03*
X012035Y001262D03*
X012035Y001264D03*
X012035Y001266D03*
X012035Y001270D03*
X012035Y001272D03*
X012035Y001274D03*
X012035Y001279D03*
X012035Y001281D03*
X012033Y001289D03*
X012033Y001291D03*
X012033Y001295D03*
X012033Y001297D03*
X012033Y001299D03*
X012033Y001303D03*
X012033Y001305D03*
X012031Y001311D03*
X012031Y001313D03*
X012031Y001315D03*
X011550Y001266D03*
X011550Y001264D03*
X011550Y001262D03*
X011550Y001230D03*
X011550Y001226D03*
X011550Y001224D03*
X011550Y001222D03*
X011550Y001218D03*
X011550Y001216D03*
X011550Y001214D03*
X011550Y001210D03*
X011550Y001208D03*
X011552Y001202D03*
X011552Y001200D03*
X011552Y001198D03*
X011554Y001186D03*
X009984Y001095D03*
X009984Y001093D03*
X009984Y001091D03*
X009982Y001099D03*
X009982Y001101D03*
X009982Y001103D03*
X009982Y001107D03*
X009982Y001109D03*
X009982Y001111D03*
X009982Y001115D03*
X009980Y001117D03*
X009980Y001119D03*
X009980Y001124D03*
X009980Y001126D03*
X009980Y001128D03*
X009980Y001132D03*
X009980Y001134D03*
X009980Y001136D03*
X009980Y001138D03*
X009980Y001142D03*
X009980Y001144D03*
X009980Y001146D03*
X009980Y001150D03*
X009980Y001152D03*
X009980Y001154D03*
X009980Y001158D03*
X009980Y001160D03*
X009980Y001162D03*
X009980Y001166D03*
X009980Y001168D03*
X009980Y001170D03*
X009980Y001174D03*
X009980Y001176D03*
X009980Y001178D03*
X009980Y001182D03*
X009980Y001184D03*
X009980Y001186D03*
X009980Y001190D03*
X009980Y001192D03*
X009980Y001194D03*
X009980Y001198D03*
X009980Y001200D03*
X009980Y001202D03*
X009980Y001206D03*
X009980Y001208D03*
X009980Y001210D03*
X009980Y001214D03*
X009980Y001216D03*
X009980Y001218D03*
X009980Y001222D03*
X009980Y001224D03*
X009980Y001226D03*
X009980Y001230D03*
X009980Y001232D03*
X009980Y001234D03*
X009980Y001238D03*
X009980Y001240D03*
X009980Y001242D03*
X009980Y001246D03*
X009980Y001248D03*
X009980Y001250D03*
X009980Y001254D03*
X009980Y001256D03*
X009980Y001258D03*
X009980Y001262D03*
X009980Y001264D03*
X009980Y001266D03*
X009980Y001270D03*
X009980Y001272D03*
X009980Y001274D03*
X009980Y001279D03*
X009980Y001281D03*
X009980Y001283D03*
X009980Y001287D03*
X009980Y001289D03*
X009980Y001291D03*
X009980Y001295D03*
X009980Y001297D03*
X009980Y001299D03*
X009980Y001303D03*
X009980Y001305D03*
X009980Y001307D03*
X009980Y001311D03*
X009980Y001313D03*
X009980Y001315D03*
X009980Y001319D03*
X009980Y001321D03*
X009980Y001323D03*
X009980Y001327D03*
X009980Y001329D03*
X009980Y001331D03*
X009980Y001337D03*
X009980Y001339D03*
X009980Y001345D03*
X009980Y001347D03*
X009980Y001353D03*
X009980Y001355D03*
X009980Y001361D03*
X009980Y001363D03*
X009980Y001369D03*
X009980Y001371D03*
X009980Y001377D03*
X009980Y001379D03*
X009980Y001385D03*
X009980Y001387D03*
X009980Y001393D03*
X009980Y001395D03*
X009980Y001401D03*
X009980Y001403D03*
X009980Y001409D03*
X009980Y001411D03*
X009980Y001417D03*
X009980Y001419D03*
X009980Y001425D03*
X009980Y001532D03*
X009980Y001536D03*
X009980Y001540D03*
X009980Y001544D03*
X009980Y001548D03*
X009980Y001552D03*
X009980Y001556D03*
X009980Y001560D03*
X009980Y001564D03*
X009980Y001568D03*
X009980Y001572D03*
X009980Y001576D03*
X009980Y001580D03*
X009980Y001584D03*
X009980Y001588D03*
X009980Y001592D03*
X009980Y001597D03*
X009980Y001601D03*
X009980Y001605D03*
X009980Y001609D03*
X009980Y001613D03*
X009980Y001617D03*
X009980Y001621D03*
X009980Y001625D03*
X009980Y001629D03*
X009980Y001633D03*
X009980Y001637D03*
X009980Y001641D03*
X009980Y001645D03*
X009980Y001649D03*
X009980Y001653D03*
X009980Y001657D03*
X009980Y001661D03*
X009980Y001665D03*
X009980Y001669D03*
X009980Y001673D03*
X009421Y001621D03*
X009421Y001528D03*
X009421Y001524D03*
X009421Y001522D03*
X009421Y001516D03*
X009421Y001514D03*
X009421Y001508D03*
X009421Y001506D03*
X009421Y001500D03*
X009421Y001498D03*
X009421Y001492D03*
X009421Y001490D03*
X009421Y001484D03*
X009421Y001482D03*
X009421Y001476D03*
X009421Y001474D03*
X009421Y001468D03*
X009421Y001466D03*
X009421Y001460D03*
X009421Y001458D03*
X009421Y001452D03*
X009421Y001450D03*
X009421Y001444D03*
X009421Y001442D03*
X009421Y001435D03*
X009421Y001433D03*
X009421Y001427D03*
X009421Y001425D03*
X009421Y001419D03*
X009421Y001417D03*
X009421Y001411D03*
X009421Y001409D03*
X009421Y001403D03*
X009421Y001401D03*
X009421Y001395D03*
X009421Y001393D03*
X009421Y001387D03*
X009421Y001385D03*
X009421Y001379D03*
X009421Y001377D03*
X009421Y001371D03*
X009421Y001369D03*
X009421Y001363D03*
X009421Y001361D03*
X009421Y001355D03*
X009421Y001353D03*
X009421Y001347D03*
X009421Y001345D03*
X009421Y001339D03*
X009421Y001337D03*
X009421Y001331D03*
X009421Y001329D03*
X009421Y001327D03*
X009421Y001323D03*
X009421Y001321D03*
X009421Y001319D03*
X009421Y001315D03*
X009421Y001313D03*
X009421Y001311D03*
X009421Y001307D03*
X009421Y001305D03*
X009421Y001303D03*
X009421Y001299D03*
X009421Y001297D03*
X009421Y001295D03*
X009421Y001291D03*
X009421Y001289D03*
X009421Y001287D03*
X009421Y001283D03*
X009421Y001281D03*
X009421Y001279D03*
X009421Y001274D03*
X009421Y001272D03*
X009421Y001270D03*
X009421Y001266D03*
X009421Y001264D03*
X009421Y001262D03*
X009421Y001258D03*
X009421Y001256D03*
X009421Y001254D03*
X009421Y001250D03*
X009421Y001248D03*
X009421Y001246D03*
X009421Y001242D03*
X009421Y001240D03*
X009421Y001238D03*
X009421Y001234D03*
X009421Y001232D03*
X009421Y001230D03*
X009421Y001226D03*
X009421Y001224D03*
X009421Y001222D03*
X009421Y001218D03*
X009421Y001216D03*
X009421Y001214D03*
X009421Y001210D03*
X009421Y001208D03*
X009421Y001206D03*
X009421Y001202D03*
X009421Y001200D03*
X009421Y001198D03*
X009421Y001194D03*
X009421Y001192D03*
X009421Y001190D03*
X009421Y001186D03*
X009421Y001184D03*
X009421Y001182D03*
X009421Y001178D03*
X009421Y001176D03*
X009421Y001174D03*
X009421Y001170D03*
X009421Y001168D03*
X009421Y001166D03*
X009421Y001162D03*
X009421Y001160D03*
X009421Y001158D03*
X009421Y001154D03*
X009421Y001152D03*
X009421Y001150D03*
X009421Y001146D03*
X009421Y001144D03*
X009421Y001142D03*
X009421Y001138D03*
X009421Y001136D03*
X009421Y001134D03*
X009421Y001132D03*
X009421Y001128D03*
X009421Y001126D03*
X009421Y001124D03*
X009421Y001119D03*
X009421Y001117D03*
X009421Y001115D03*
X009421Y001111D03*
X009421Y001109D03*
X009421Y001107D03*
X009421Y001103D03*
X009421Y001101D03*
X009421Y001099D03*
X009421Y001095D03*
X009421Y001093D03*
X009421Y001091D03*
X009421Y001087D03*
X009421Y001085D03*
X009421Y001083D03*
X009421Y001079D03*
X009421Y001077D03*
X009421Y001075D03*
X009421Y001071D03*
X009421Y001069D03*
X009421Y001067D03*
X009421Y001063D03*
X009421Y001061D03*
X009421Y001059D03*
X009421Y001055D03*
X009421Y001053D03*
X009421Y001051D03*
X009421Y001047D03*
X009421Y001045D03*
X009421Y001043D03*
X009421Y001039D03*
X009421Y001037D03*
X009421Y001035D03*
X009421Y001031D03*
X009421Y001029D03*
X009421Y001027D03*
X009421Y001023D03*
X009421Y001021D03*
X009421Y001019D03*
X009421Y001015D03*
X009421Y001013D03*
X009421Y001011D03*
X009421Y001007D03*
X009421Y001005D03*
X009421Y001003D03*
X009421Y000999D03*
X009421Y000997D03*
X009421Y000995D03*
X009421Y000991D03*
X009421Y000989D03*
X009421Y000987D03*
X009421Y000983D03*
X009421Y000981D03*
X009421Y000979D03*
X009421Y000975D03*
X009421Y000973D03*
X009421Y000971D03*
X009421Y000967D03*
X009421Y000965D03*
X009421Y000962D03*
X009421Y000958D03*
X009421Y000956D03*
X009421Y000954D03*
X009421Y000950D03*
X009151Y000971D03*
X009151Y000973D03*
X009151Y000975D03*
X009151Y000979D03*
X009151Y000981D03*
X009151Y000983D03*
X009151Y000987D03*
X009151Y000989D03*
X009151Y000991D03*
X009151Y000995D03*
X009151Y000997D03*
X009151Y000999D03*
X009151Y001003D03*
X009151Y001005D03*
X009151Y001007D03*
X009151Y001011D03*
X009151Y001013D03*
X009151Y001015D03*
X009151Y001019D03*
X009151Y001021D03*
X009151Y001023D03*
X009151Y001027D03*
X009151Y001029D03*
X009151Y001031D03*
X009151Y001035D03*
X009151Y001037D03*
X009151Y001039D03*
X009151Y001043D03*
X009151Y001045D03*
X009151Y001047D03*
X009151Y001051D03*
X009151Y001053D03*
X009151Y001055D03*
X009151Y001059D03*
X009151Y001061D03*
X009151Y001063D03*
X009151Y001067D03*
X009151Y001069D03*
X009151Y001071D03*
X009151Y001075D03*
X009151Y001077D03*
X009151Y001079D03*
X009151Y001083D03*
X009151Y001085D03*
X009151Y001087D03*
X009151Y001091D03*
X009151Y001093D03*
X009151Y001095D03*
X009151Y001099D03*
X009151Y001101D03*
X009151Y001103D03*
X009151Y001107D03*
X009151Y001109D03*
X009151Y001111D03*
X009151Y001115D03*
X009151Y001117D03*
X009151Y001119D03*
X009151Y001124D03*
X009151Y001126D03*
X009151Y001128D03*
X009151Y001132D03*
X009151Y001134D03*
X009151Y001136D03*
X009151Y001138D03*
X009151Y001142D03*
X009151Y001144D03*
X009151Y001146D03*
X009151Y001150D03*
X009151Y001152D03*
X009151Y001154D03*
X009151Y001158D03*
X009151Y001160D03*
X009151Y001162D03*
X009151Y001166D03*
X009151Y001168D03*
X009151Y001170D03*
X009151Y001174D03*
X009151Y001176D03*
X009151Y001178D03*
X009151Y001182D03*
X009151Y001184D03*
X009151Y001186D03*
X009151Y001190D03*
X009151Y001192D03*
X009151Y001194D03*
X009151Y001198D03*
X009151Y001200D03*
X009151Y001202D03*
X009151Y001206D03*
X009151Y001208D03*
X009151Y001210D03*
X009151Y001214D03*
X009151Y001216D03*
X009151Y001218D03*
X009151Y001222D03*
X009151Y001224D03*
X009151Y001226D03*
X009151Y001230D03*
X009151Y001232D03*
X009151Y001234D03*
X009149Y000950D03*
X009149Y000948D03*
X009149Y000946D03*
X009149Y000942D03*
X009135Y000876D03*
X008680Y001166D03*
X008678Y001174D03*
X008678Y001176D03*
X008676Y001182D03*
X008676Y001184D03*
X008676Y001186D03*
X008674Y001192D03*
X008674Y001194D03*
X008674Y001198D03*
X008674Y001200D03*
X008674Y001202D03*
X008674Y001262D03*
X008674Y001264D03*
D126*
X009141Y000896D03*
X009139Y000888D03*
X009137Y000880D03*
X009720Y001333D03*
X009720Y001341D03*
X009720Y001349D03*
X009720Y001357D03*
X009720Y001365D03*
X009720Y001373D03*
X009720Y001381D03*
X009720Y001389D03*
X009720Y001397D03*
X009720Y001405D03*
X009720Y001413D03*
X009720Y001421D03*
X009720Y001429D03*
X009720Y001438D03*
X009720Y001446D03*
X009720Y001454D03*
X009720Y001462D03*
X009720Y001470D03*
X009720Y001478D03*
X009720Y001486D03*
X009720Y001494D03*
X009720Y001502D03*
X009720Y001510D03*
X009720Y001518D03*
X009720Y001526D03*
X009720Y001534D03*
X009720Y001542D03*
X009720Y001550D03*
X009720Y001558D03*
X009720Y001566D03*
X009720Y001574D03*
X009720Y001582D03*
X009720Y001590D03*
X009720Y001599D03*
X009720Y001607D03*
X009720Y001615D03*
X009720Y001623D03*
X009720Y001631D03*
X009720Y001639D03*
X009720Y001647D03*
X009720Y001655D03*
X009720Y001663D03*
X009720Y001671D03*
X009720Y001679D03*
X009720Y001687D03*
X009720Y001695D03*
X009720Y001703D03*
X009720Y001711D03*
X009720Y001719D03*
X009720Y001727D03*
X009720Y001735D03*
X009720Y001743D03*
X009720Y001752D03*
X009720Y001760D03*
X009720Y001768D03*
X009720Y001776D03*
X009720Y001784D03*
X009720Y001792D03*
D127*
X009720Y001794D03*
X009720Y001788D03*
X009720Y001786D03*
X009720Y001780D03*
X009720Y001778D03*
X009720Y001772D03*
X009720Y001770D03*
X009720Y001764D03*
X009720Y001762D03*
X009720Y001756D03*
X009720Y001754D03*
X009720Y001747D03*
X009720Y001745D03*
X009720Y001739D03*
X009720Y001737D03*
X009720Y001731D03*
X009720Y001729D03*
X009720Y001725D03*
X009720Y001721D03*
X009720Y001717D03*
X009720Y001713D03*
X009720Y001709D03*
X009720Y001705D03*
X009720Y001701D03*
X009720Y001697D03*
X009720Y001693D03*
X009720Y001689D03*
X009720Y001685D03*
X009720Y001681D03*
X009720Y001677D03*
X009720Y001673D03*
X009720Y001669D03*
X009720Y001665D03*
X009720Y001661D03*
X009720Y001657D03*
X009720Y001653D03*
X009720Y001649D03*
X009720Y001645D03*
X009720Y001641D03*
X009720Y001637D03*
X009720Y001633D03*
X009720Y001629D03*
X009720Y001625D03*
X009720Y001621D03*
X009720Y001617D03*
X009720Y001613D03*
X009720Y001609D03*
X009720Y001605D03*
X009720Y001601D03*
X009720Y001597D03*
X009720Y001592D03*
X009720Y001588D03*
X009720Y001584D03*
X009720Y001580D03*
X009720Y001576D03*
X009720Y001572D03*
X009720Y001568D03*
X009720Y001564D03*
X009720Y001560D03*
X009720Y001556D03*
X009720Y001552D03*
X009720Y001548D03*
X009720Y001544D03*
X009720Y001540D03*
X009720Y001536D03*
X009720Y001532D03*
X009720Y001528D03*
X009720Y001524D03*
X009720Y001522D03*
X009720Y001516D03*
X009720Y001514D03*
X009720Y001508D03*
X009720Y001506D03*
X009720Y001500D03*
X009720Y001498D03*
X009720Y001492D03*
X009720Y001490D03*
X009720Y001484D03*
X009720Y001482D03*
X009720Y001476D03*
X009720Y001474D03*
X009720Y001468D03*
X009720Y001466D03*
X009720Y001460D03*
X009720Y001458D03*
X009720Y001452D03*
X009720Y001450D03*
X009720Y001444D03*
X009720Y001442D03*
X009720Y001435D03*
X009720Y001433D03*
X009720Y001427D03*
X009720Y001425D03*
X009720Y001419D03*
X009720Y001417D03*
X009720Y001411D03*
X009720Y001409D03*
X009720Y001403D03*
X009720Y001401D03*
X009720Y001395D03*
X009720Y001393D03*
X009720Y001387D03*
X009720Y001385D03*
X009720Y001379D03*
X009720Y001377D03*
X009720Y001371D03*
X009720Y001369D03*
X009720Y001363D03*
X009720Y001361D03*
X009720Y001355D03*
X009720Y001353D03*
X009720Y001347D03*
X009720Y001345D03*
X009720Y001339D03*
X009720Y001337D03*
X009720Y001331D03*
X009720Y001329D03*
X009720Y001327D03*
X009720Y001323D03*
X009720Y001321D03*
X009720Y001319D03*
X009720Y001315D03*
X009720Y001313D03*
X009720Y001311D03*
X009720Y001307D03*
X009720Y001305D03*
X009720Y001303D03*
X009720Y001299D03*
X009720Y001297D03*
X009720Y001295D03*
X009720Y001291D03*
X009720Y001289D03*
X009720Y001287D03*
X009720Y001283D03*
X009720Y001281D03*
X009720Y001279D03*
X009720Y001274D03*
X009720Y001272D03*
X009720Y001270D03*
X009720Y001266D03*
X009720Y001264D03*
X009720Y001262D03*
X009720Y001258D03*
X009720Y001256D03*
X009720Y001254D03*
X009720Y001250D03*
X009720Y001248D03*
X009720Y001246D03*
X009720Y001242D03*
X009720Y001240D03*
X009720Y001238D03*
X009720Y001234D03*
X009720Y001232D03*
X009720Y001230D03*
X009720Y001226D03*
X009720Y001224D03*
X009720Y001222D03*
X009720Y001218D03*
X009720Y001216D03*
X009720Y001214D03*
X009720Y001210D03*
X009720Y001208D03*
X009720Y001206D03*
X009720Y001202D03*
X009720Y001200D03*
X009720Y001198D03*
X009720Y001194D03*
X009720Y001192D03*
X009720Y001190D03*
X009720Y001186D03*
X009720Y001184D03*
X009720Y001182D03*
X009720Y001178D03*
X009720Y001176D03*
X009720Y001174D03*
X009720Y001170D03*
X009720Y001168D03*
X009720Y001166D03*
X009720Y001162D03*
X009720Y001160D03*
X009720Y001158D03*
X009720Y001154D03*
X009720Y001152D03*
X009720Y001150D03*
X009720Y001146D03*
X009720Y001144D03*
X009720Y001142D03*
X009720Y001138D03*
X009720Y001136D03*
X009720Y001134D03*
X009720Y001132D03*
X009720Y001128D03*
X009720Y001126D03*
X009720Y001124D03*
X009720Y001119D03*
X009720Y001117D03*
X009720Y001115D03*
X009720Y001111D03*
X009720Y001109D03*
X009720Y001107D03*
X009720Y001103D03*
X009720Y001101D03*
X009720Y001099D03*
X009720Y001095D03*
X009720Y001093D03*
X009720Y001091D03*
X009720Y001087D03*
X009720Y001085D03*
X009720Y001083D03*
X009720Y001079D03*
X009720Y001077D03*
X009720Y001075D03*
X009720Y001071D03*
X009720Y001069D03*
X009720Y001067D03*
X009720Y001063D03*
X009720Y001061D03*
X009720Y001059D03*
X009720Y001055D03*
X009720Y001053D03*
X009720Y001051D03*
X009720Y001047D03*
X009720Y001045D03*
X009720Y001043D03*
X009720Y001039D03*
X009720Y001037D03*
X009720Y001035D03*
X009720Y001031D03*
X009720Y001029D03*
X009720Y001027D03*
X009720Y001023D03*
X009720Y001021D03*
X009720Y001019D03*
X009720Y001015D03*
X009720Y001013D03*
X009720Y001011D03*
X009720Y001007D03*
X009720Y001005D03*
X009720Y001003D03*
X009720Y000999D03*
X009720Y000997D03*
X009720Y000995D03*
X009720Y000991D03*
X009720Y000989D03*
X009720Y000987D03*
X009720Y000983D03*
X009720Y000981D03*
X009720Y000979D03*
X009720Y000975D03*
X009720Y000973D03*
X009720Y000971D03*
X009720Y000967D03*
X009720Y000965D03*
X009720Y000962D03*
X009720Y000958D03*
X009720Y000956D03*
X009720Y000954D03*
X009720Y000950D03*
X009137Y000884D03*
X009137Y000882D03*
X008911Y000942D03*
X008672Y001210D03*
X008672Y001214D03*
X008672Y001216D03*
X008672Y001218D03*
X008672Y001222D03*
X008672Y001224D03*
X008672Y001226D03*
X008672Y001230D03*
X008672Y001232D03*
X008672Y001234D03*
X008672Y001238D03*
X008672Y001240D03*
X008672Y001242D03*
X011556Y001178D03*
D128*
X011798Y001538D03*
X009720Y001538D03*
X009720Y001530D03*
X009720Y001520D03*
X009720Y001512D03*
X009720Y001504D03*
X009720Y001496D03*
X009720Y001488D03*
X009720Y001480D03*
X009720Y001472D03*
X009720Y001464D03*
X009720Y001456D03*
X009720Y001448D03*
X009720Y001440D03*
X009720Y001431D03*
X009720Y001423D03*
X009720Y001415D03*
X009720Y001407D03*
X009720Y001399D03*
X009720Y001391D03*
X009720Y001383D03*
X009720Y001375D03*
X009720Y001367D03*
X009720Y001359D03*
X009720Y001351D03*
X009720Y001343D03*
X009720Y001335D03*
X009720Y001325D03*
X009720Y001317D03*
X009720Y001309D03*
X009720Y001301D03*
X009720Y001293D03*
X009720Y001285D03*
X009720Y001276D03*
X009720Y001268D03*
X009720Y001260D03*
X009720Y001252D03*
X009720Y001244D03*
X009720Y001236D03*
X009720Y001228D03*
X009720Y001220D03*
X009720Y001212D03*
X009720Y001204D03*
X009720Y001196D03*
X009720Y001188D03*
X009720Y001180D03*
X009720Y001172D03*
X009720Y001164D03*
X009720Y001156D03*
X009720Y001148D03*
X009720Y001140D03*
X009720Y001130D03*
X009720Y001122D03*
X009720Y001113D03*
X009720Y001105D03*
X009720Y001097D03*
X009720Y001089D03*
X009720Y001081D03*
X009720Y001073D03*
X009720Y001065D03*
X009720Y001057D03*
X009720Y001049D03*
X009720Y001041D03*
X009720Y001033D03*
X009720Y001025D03*
X009720Y001017D03*
X009720Y001009D03*
X009720Y001001D03*
X009720Y000993D03*
X009720Y000985D03*
X009720Y000977D03*
X009720Y000969D03*
X009720Y000960D03*
X009720Y000952D03*
X009141Y000894D03*
X009139Y000886D03*
X008672Y001212D03*
X008672Y001220D03*
X008672Y001228D03*
X008672Y001236D03*
X008672Y001244D03*
X009720Y001546D03*
X009720Y001554D03*
X009720Y001562D03*
X009720Y001570D03*
X009720Y001578D03*
X009720Y001586D03*
X009720Y001595D03*
X009720Y001603D03*
X009720Y001611D03*
X009720Y001619D03*
X009720Y001627D03*
X009720Y001635D03*
X009720Y001643D03*
X009720Y001651D03*
X009720Y001659D03*
X009720Y001667D03*
X009720Y001675D03*
X009720Y001683D03*
X009720Y001691D03*
X009720Y001699D03*
X009720Y001707D03*
X009720Y001715D03*
X009720Y001723D03*
X009720Y001733D03*
X009720Y001741D03*
X009720Y001749D03*
X009720Y001758D03*
X009720Y001766D03*
X009720Y001774D03*
X009720Y001782D03*
X009720Y001790D03*
D129*
X009148Y000936D03*
X009148Y000928D03*
X009146Y000920D03*
X009144Y000912D03*
X009144Y000904D03*
D130*
X009144Y000906D03*
X009144Y000908D03*
X009146Y000914D03*
X009146Y000916D03*
X009146Y000922D03*
X009146Y000924D03*
X009148Y000930D03*
X009148Y000932D03*
X009148Y000938D03*
X009148Y000940D03*
X009150Y000954D03*
X009150Y000956D03*
X009150Y000958D03*
X009150Y000962D03*
X009150Y000965D03*
X009150Y000967D03*
D131*
X009150Y000960D03*
X009150Y000952D03*
X009148Y000934D03*
X009148Y000926D03*
X009146Y000918D03*
X009144Y000910D03*
D132*
X008913Y000938D03*
X013881Y001540D03*
D133*
X012305Y000948D03*
X011906Y001063D03*
X011782Y000938D03*
X010594Y000938D03*
X010499Y001166D03*
X009024Y001055D03*
X008917Y001540D03*
D134*
X013277Y001540D03*
X013277Y000938D03*
D135*
X011895Y001051D03*
X008912Y000940D03*
D136*
X010595Y000940D03*
X011889Y001047D03*
D137*
X011781Y000940D03*
D138*
X013277Y000940D03*
D139*
X012304Y000942D03*
X009045Y001075D03*
D140*
X008910Y000944D03*
X010382Y001367D03*
X010814Y001122D03*
X010810Y001113D03*
X011376Y001140D03*
X011587Y001105D03*
X012304Y001049D03*
X012608Y001351D03*
X013489Y001367D03*
X013491Y001113D03*
X013747Y001407D03*
X014355Y001407D03*
D141*
X014374Y001325D03*
X014374Y001317D03*
X014374Y001309D03*
X014374Y001301D03*
X014374Y001293D03*
X014374Y001285D03*
X014374Y001276D03*
X014374Y001268D03*
X014374Y001260D03*
X014374Y001252D03*
X014374Y001244D03*
X014374Y001236D03*
X014374Y001228D03*
X014374Y001220D03*
X014374Y001212D03*
X014374Y001204D03*
X014374Y001196D03*
X014374Y001188D03*
X014374Y001180D03*
X014374Y001172D03*
X014374Y001164D03*
X014374Y001156D03*
X014374Y001148D03*
X014374Y001140D03*
X014374Y001130D03*
X014374Y001122D03*
X014374Y001113D03*
X014374Y001105D03*
X014374Y001097D03*
X014374Y001089D03*
X014374Y001081D03*
X014374Y001073D03*
X014374Y001065D03*
X014374Y001057D03*
X014374Y001049D03*
X014374Y001041D03*
X014374Y001033D03*
X014374Y001025D03*
X014374Y001017D03*
X014374Y001009D03*
X014374Y001001D03*
X014374Y000993D03*
X014374Y000985D03*
X014374Y000977D03*
X014374Y000969D03*
X014374Y000960D03*
X014374Y000952D03*
X014050Y000952D03*
X014050Y000960D03*
X014050Y000969D03*
X014050Y000977D03*
X014050Y000985D03*
X014050Y000993D03*
X014050Y001001D03*
X014050Y001009D03*
X014050Y001017D03*
X014050Y001025D03*
X014050Y001033D03*
X014050Y001041D03*
X014050Y001049D03*
X014050Y001057D03*
X014050Y001065D03*
X014050Y001073D03*
X014050Y001081D03*
X014050Y001089D03*
X014050Y001097D03*
X014050Y001105D03*
X014050Y001113D03*
X014050Y001122D03*
X014050Y001130D03*
X014050Y001140D03*
X014050Y001148D03*
X014050Y001156D03*
X014050Y001164D03*
X014050Y001172D03*
X014050Y001180D03*
X014050Y001188D03*
X014050Y001196D03*
X014050Y001204D03*
X014050Y001212D03*
X014050Y001220D03*
X014050Y001228D03*
X014050Y001236D03*
X014050Y001244D03*
X014050Y001252D03*
X014050Y001260D03*
X014050Y001268D03*
X014050Y001276D03*
X014050Y001285D03*
X014050Y001293D03*
X014050Y001301D03*
X014050Y001309D03*
X014050Y001317D03*
X013726Y001317D03*
X013726Y001325D03*
X013726Y001309D03*
X013726Y001301D03*
X013726Y001293D03*
X013726Y001285D03*
X013726Y001276D03*
X013726Y001268D03*
X013726Y001260D03*
X013726Y001252D03*
X013726Y001244D03*
X013726Y001236D03*
X013726Y001228D03*
X013726Y001220D03*
X013726Y001212D03*
X013726Y001204D03*
X013726Y001196D03*
X013726Y001188D03*
X013726Y001180D03*
X013726Y001172D03*
X013726Y001164D03*
X013726Y001156D03*
X013726Y001148D03*
X013726Y001140D03*
X013726Y001130D03*
X013726Y001122D03*
X013726Y001113D03*
X013726Y001105D03*
X013726Y001097D03*
X013726Y001089D03*
X013726Y001081D03*
X013726Y001073D03*
X013726Y001065D03*
X013726Y001057D03*
X013726Y001049D03*
X013726Y001041D03*
X013726Y001033D03*
X013726Y001025D03*
X013726Y001017D03*
X013726Y001009D03*
X013726Y001001D03*
X013726Y000993D03*
X013726Y000985D03*
X013726Y000977D03*
X013726Y000969D03*
X013726Y000960D03*
X013726Y000952D03*
X012035Y000952D03*
X012035Y000960D03*
X012035Y000969D03*
X012035Y000977D03*
X012035Y000985D03*
X012035Y000993D03*
X012035Y001001D03*
X012035Y001009D03*
X012035Y001017D03*
X012035Y001025D03*
X012035Y001033D03*
X012035Y001041D03*
X012035Y001049D03*
X012035Y001057D03*
X012035Y001065D03*
X012035Y001073D03*
X012035Y001081D03*
X012035Y001089D03*
X012035Y001097D03*
X012035Y001105D03*
X012035Y001113D03*
X012035Y001122D03*
X012035Y001130D03*
X012035Y001140D03*
X012035Y001148D03*
X012035Y001156D03*
X012035Y001164D03*
X012035Y001172D03*
X012035Y001180D03*
X012035Y001188D03*
X012035Y001196D03*
X012035Y001204D03*
X012035Y001212D03*
X012035Y001220D03*
X012035Y001228D03*
X012035Y001236D03*
X012035Y001244D03*
X012035Y001252D03*
X012035Y001260D03*
X012035Y001268D03*
X012035Y001276D03*
X012033Y001293D03*
X012033Y001301D03*
X011550Y001260D03*
X011550Y001228D03*
X011550Y001220D03*
X011550Y001212D03*
X011552Y001204D03*
X011552Y001196D03*
X011554Y001188D03*
X009982Y001113D03*
X009982Y001105D03*
X009980Y001122D03*
X009980Y001130D03*
X009980Y001140D03*
X009980Y001148D03*
X009980Y001156D03*
X009980Y001164D03*
X009980Y001172D03*
X009980Y001180D03*
X009980Y001188D03*
X009980Y001196D03*
X009980Y001204D03*
X009980Y001212D03*
X009980Y001220D03*
X009980Y001228D03*
X009980Y001236D03*
X009980Y001244D03*
X009980Y001252D03*
X009980Y001260D03*
X009980Y001268D03*
X009980Y001276D03*
X009980Y001285D03*
X009980Y001293D03*
X009980Y001301D03*
X009980Y001309D03*
X009980Y001317D03*
X009980Y001325D03*
X009980Y001335D03*
X009980Y001343D03*
X009980Y001351D03*
X009980Y001359D03*
X009980Y001367D03*
X009980Y001375D03*
X009980Y001383D03*
X009980Y001391D03*
X009980Y001399D03*
X009980Y001407D03*
X009980Y001415D03*
X009980Y001423D03*
X009980Y001530D03*
X009980Y001538D03*
X009980Y001546D03*
X009980Y001554D03*
X009980Y001562D03*
X009980Y001570D03*
X009980Y001578D03*
X009980Y001586D03*
X009980Y001595D03*
X009980Y001603D03*
X009980Y001611D03*
X009980Y001619D03*
X009980Y001627D03*
X009980Y001635D03*
X009980Y001643D03*
X009980Y001651D03*
X009980Y001659D03*
X009980Y001667D03*
X009421Y001520D03*
X009421Y001512D03*
X009421Y001504D03*
X009421Y001496D03*
X009421Y001488D03*
X009421Y001480D03*
X009421Y001472D03*
X009421Y001464D03*
X009421Y001456D03*
X009421Y001448D03*
X009421Y001440D03*
X009421Y001431D03*
X009421Y001423D03*
X009421Y001415D03*
X009421Y001407D03*
X009421Y001399D03*
X009421Y001391D03*
X009421Y001383D03*
X009421Y001375D03*
X009421Y001367D03*
X009421Y001359D03*
X009421Y001351D03*
X009421Y001343D03*
X009421Y001335D03*
X009421Y001325D03*
X009421Y001317D03*
X009421Y001309D03*
X009421Y001301D03*
X009421Y001293D03*
X009421Y001285D03*
X009421Y001276D03*
X009421Y001268D03*
X009421Y001260D03*
X009421Y001252D03*
X009421Y001244D03*
X009421Y001236D03*
X009421Y001228D03*
X009421Y001220D03*
X009421Y001212D03*
X009421Y001204D03*
X009421Y001196D03*
X009421Y001188D03*
X009421Y001180D03*
X009421Y001172D03*
X009421Y001164D03*
X009421Y001156D03*
X009421Y001148D03*
X009421Y001140D03*
X009421Y001130D03*
X009421Y001122D03*
X009421Y001113D03*
X009421Y001105D03*
X009421Y001097D03*
X009421Y001089D03*
X009421Y001081D03*
X009421Y001073D03*
X009421Y001065D03*
X009421Y001057D03*
X009421Y001049D03*
X009421Y001041D03*
X009421Y001033D03*
X009421Y001025D03*
X009421Y001017D03*
X009421Y001009D03*
X009421Y001001D03*
X009421Y000993D03*
X009421Y000985D03*
X009421Y000977D03*
X009421Y000969D03*
X009421Y000960D03*
X009421Y000952D03*
X009151Y000969D03*
X009151Y000977D03*
X009151Y000985D03*
X009151Y000993D03*
X009151Y001001D03*
X009151Y001009D03*
X009151Y001017D03*
X009151Y001025D03*
X009151Y001033D03*
X009151Y001041D03*
X009151Y001049D03*
X009151Y001057D03*
X009151Y001065D03*
X009151Y001073D03*
X009151Y001081D03*
X009151Y001089D03*
X009151Y001097D03*
X009151Y001105D03*
X009151Y001113D03*
X009151Y001122D03*
X009151Y001130D03*
X009151Y001140D03*
X009151Y001148D03*
X009151Y001156D03*
X009151Y001164D03*
X009151Y001172D03*
X009151Y001180D03*
X009151Y001188D03*
X009151Y001196D03*
X009151Y001204D03*
X009151Y001212D03*
X009151Y001220D03*
X009151Y001228D03*
X009151Y001236D03*
X009149Y000944D03*
X008676Y001188D03*
X008674Y001196D03*
X008674Y001204D03*
X008674Y001260D03*
D142*
X009095Y001399D03*
X010595Y000944D03*
X011611Y001073D03*
X011603Y001399D03*
X012632Y001383D03*
X012630Y001097D03*
D143*
X012304Y001041D03*
X011781Y000944D03*
X011370Y001148D03*
X011591Y001383D03*
X010398Y001089D03*
X010005Y001057D03*
X013081Y001089D03*
X013475Y001089D03*
X013473Y001391D03*
D144*
X012305Y000944D03*
X010493Y001156D03*
D145*
X010404Y001081D03*
X011036Y001335D03*
X011597Y001391D03*
X013278Y000944D03*
X013759Y001423D03*
X014341Y001423D03*
D146*
X011605Y001401D03*
X011364Y001154D03*
X010784Y001395D03*
X008910Y000946D03*
X008735Y001071D03*
D147*
X008910Y000948D03*
X009075Y001419D03*
X008916Y001532D03*
X010428Y001419D03*
X010527Y001208D03*
X010428Y001059D03*
X010595Y000946D03*
X011354Y001162D03*
X012652Y001401D03*
D148*
X013100Y001409D03*
X013102Y001411D03*
X013100Y001069D03*
X013102Y001067D03*
X013454Y001067D03*
X013456Y001069D03*
X013456Y001409D03*
X013454Y001411D03*
X014050Y001393D03*
X011981Y001409D03*
X011619Y001067D03*
X011780Y000946D03*
X011043Y001329D03*
X011043Y001425D03*
X010789Y001379D03*
X010771Y001063D03*
X010014Y001053D03*
X009086Y001409D03*
X008746Y001417D03*
D149*
X012305Y000946D03*
D150*
X012644Y001083D03*
X013278Y000946D03*
X013278Y001532D03*
X011046Y001327D03*
X010788Y001377D03*
D151*
X010531Y001214D03*
X010595Y000948D03*
X011342Y001170D03*
X011956Y001427D03*
D152*
X012662Y001069D03*
X013278Y000948D03*
X010440Y001051D03*
X010440Y001427D03*
X009063Y001427D03*
D153*
X008910Y000950D03*
X011058Y001319D03*
X011346Y001168D03*
X011640Y001051D03*
X011960Y001425D03*
D154*
X011798Y001532D03*
X011637Y001427D03*
X010783Y001369D03*
X010157Y000950D03*
D155*
X010595Y000950D03*
X011068Y001313D03*
X008916Y001528D03*
D156*
X011126Y000950D03*
X011249Y001522D03*
X012755Y001051D03*
X013882Y001468D03*
D157*
X014050Y001409D03*
X012665Y001411D03*
X012665Y001067D03*
X011780Y000950D03*
D158*
X012305Y000950D03*
D159*
X012305Y000983D03*
X012305Y001043D03*
X012305Y001045D03*
X012619Y001111D03*
X012852Y000950D03*
X013076Y001095D03*
X013078Y001093D03*
X013080Y001091D03*
X013074Y001099D03*
X013074Y001379D03*
X013078Y001385D03*
X013080Y001387D03*
X012852Y001528D03*
X013476Y001387D03*
X013478Y001385D03*
X013482Y001379D03*
X013754Y001417D03*
X013881Y001532D03*
X014050Y001377D03*
X014219Y001532D03*
X013482Y001099D03*
X013480Y001095D03*
X013478Y001093D03*
X013476Y001091D03*
X011596Y001091D03*
X011588Y001379D03*
X010799Y001095D03*
X010797Y001093D03*
X010797Y001091D03*
X010395Y001093D03*
X010393Y001095D03*
X010395Y001385D03*
X009107Y001385D03*
X008724Y001395D03*
X008720Y001087D03*
X008722Y001085D03*
D160*
X008774Y001045D03*
X008778Y001435D03*
X009052Y001433D03*
X010453Y001433D03*
X010453Y001045D03*
X012675Y001061D03*
X013136Y001045D03*
X013277Y000950D03*
X013420Y001045D03*
X013420Y001433D03*
X013277Y001528D03*
X013136Y001433D03*
D161*
X008909Y000952D03*
D162*
X010151Y000952D03*
X014050Y001415D03*
D163*
X011325Y001180D03*
X010644Y001285D03*
X010630Y001276D03*
X010596Y000952D03*
D164*
X011779Y000952D03*
X012827Y000960D03*
D165*
X012305Y000952D03*
X010503Y001172D03*
D166*
X010412Y001073D03*
X010414Y001407D03*
X010774Y001065D03*
X011362Y001156D03*
X011611Y001407D03*
X011982Y001407D03*
X012638Y001089D03*
X012845Y000952D03*
X013459Y001407D03*
X014051Y001391D03*
X009087Y001407D03*
D167*
X013277Y000952D03*
D168*
X014050Y001419D03*
X011655Y001435D03*
X011329Y001178D03*
X010538Y001224D03*
X008909Y000954D03*
D169*
X010146Y000954D03*
D170*
X010596Y000954D03*
X010596Y001524D03*
X011778Y000958D03*
X012812Y000971D03*
X012812Y001508D03*
D171*
X011236Y001514D03*
X011139Y000954D03*
X010596Y000991D03*
X008879Y001023D03*
D172*
X011779Y000954D03*
X012821Y000965D03*
X012821Y001514D03*
D173*
X012305Y000954D03*
X009421Y001609D03*
X009421Y001709D03*
D174*
X012839Y001524D03*
X012839Y000954D03*
X013775Y001435D03*
X014325Y001435D03*
D175*
X013277Y001524D03*
X013277Y000954D03*
X011083Y001305D03*
D176*
X008910Y000956D03*
D177*
X010142Y000956D03*
D178*
X010595Y000956D03*
D179*
X011143Y000956D03*
X008875Y001031D03*
D180*
X011079Y001307D03*
X011321Y001182D03*
X011778Y000956D03*
X012691Y001055D03*
D181*
X012305Y001071D03*
X012305Y000956D03*
D182*
X012660Y001071D03*
X012835Y000956D03*
X013121Y001053D03*
X013435Y001053D03*
X013435Y001425D03*
X013121Y001425D03*
X012835Y001522D03*
X011348Y001166D03*
X010784Y001371D03*
X010754Y001051D03*
D183*
X010134Y000962D03*
X013278Y000956D03*
X013278Y001522D03*
D184*
X013882Y001514D03*
X008910Y000958D03*
D185*
X010139Y000958D03*
D186*
X010596Y000958D03*
D187*
X010595Y001482D03*
X011147Y000958D03*
X011754Y001031D03*
X013278Y000997D03*
X013278Y001482D03*
X008872Y001039D03*
D188*
X009010Y001045D03*
X012305Y001069D03*
X012305Y000958D03*
D189*
X012830Y000958D03*
X011647Y001047D03*
X010747Y001047D03*
X008770Y001047D03*
X014050Y001411D03*
X014219Y001524D03*
D190*
X013278Y000958D03*
X011777Y000962D03*
D191*
X012805Y000977D03*
X008910Y000960D03*
D192*
X010136Y000960D03*
D193*
X010595Y000960D03*
X011108Y001293D03*
X012797Y000985D03*
D194*
X011150Y000960D03*
X010594Y001480D03*
D195*
X011310Y001188D03*
X011777Y000960D03*
X012807Y001504D03*
D196*
X012304Y000960D03*
X008918Y001538D03*
D197*
X013278Y000960D03*
D198*
X012799Y000983D03*
X013882Y001508D03*
X011104Y001295D03*
X010124Y000973D03*
X008910Y000962D03*
D199*
X010117Y000983D03*
X010596Y000962D03*
X010596Y001516D03*
X012792Y000991D03*
X014050Y001433D03*
D200*
X011153Y000962D03*
X008914Y001476D03*
D201*
X009005Y001043D03*
X010837Y001208D03*
X012304Y000962D03*
X014220Y001536D03*
D202*
X012824Y001516D03*
X012824Y000962D03*
X011649Y001433D03*
X010596Y001528D03*
D203*
X010119Y000979D03*
X011113Y001291D03*
X011288Y001198D03*
X012794Y000989D03*
X013277Y000962D03*
X013277Y001516D03*
X012794Y001490D03*
X008915Y001516D03*
D204*
X008910Y000965D03*
D205*
X010131Y000965D03*
D206*
X010113Y000989D03*
X010596Y000965D03*
X010596Y001514D03*
X013881Y001500D03*
X014219Y001500D03*
D207*
X011156Y000965D03*
D208*
X011777Y000965D03*
D209*
X011283Y001200D03*
X008910Y000967D03*
D210*
X010129Y000967D03*
X011305Y001190D03*
X011798Y001524D03*
D211*
X010595Y000967D03*
D212*
X011777Y000967D03*
X012795Y000987D03*
X012795Y001492D03*
D213*
X013278Y000967D03*
X011777Y000973D03*
D214*
X008910Y000969D03*
D215*
X010127Y000969D03*
D216*
X010596Y000969D03*
X011141Y001276D03*
X011260Y001212D03*
X011776Y000977D03*
X012778Y001009D03*
D217*
X012792Y001488D03*
X011776Y000969D03*
D218*
X012815Y000969D03*
D219*
X013278Y000969D03*
D220*
X012783Y001476D03*
X011799Y001516D03*
X010108Y000999D03*
X008910Y000971D03*
D221*
X010125Y000971D03*
X014219Y001508D03*
D222*
X012774Y001015D03*
X011252Y001216D03*
X011150Y001272D03*
X010596Y000971D03*
X008915Y001506D03*
D223*
X011213Y001490D03*
X011163Y000971D03*
D224*
X011776Y000971D03*
D225*
X012777Y001011D03*
X012777Y001468D03*
X013278Y001508D03*
X013278Y000971D03*
X010102Y001013D03*
X010102Y001015D03*
D226*
X008910Y000973D03*
D227*
X010596Y000973D03*
D228*
X011313Y001186D03*
X012810Y000973D03*
X012810Y001506D03*
X014050Y001425D03*
D229*
X013278Y001506D03*
X013278Y000973D03*
D230*
X011269Y001528D03*
X010595Y001508D03*
X008910Y000975D03*
D231*
X010122Y000975D03*
X013882Y001506D03*
D232*
X010596Y000975D03*
D233*
X010596Y001011D03*
X010594Y001466D03*
X011210Y001484D03*
X011166Y000975D03*
X011798Y001474D03*
D234*
X011776Y000975D03*
X011133Y001281D03*
X012782Y001003D03*
D235*
X012604Y001136D03*
X012304Y000975D03*
X012012Y001369D03*
X011573Y001353D03*
X011378Y001136D03*
X011026Y001347D03*
X011026Y001411D03*
X013059Y001355D03*
X013059Y001353D03*
X013057Y001128D03*
X013059Y001126D03*
X013059Y001124D03*
X013497Y001126D03*
X013497Y001353D03*
X008703Y001363D03*
X008705Y001107D03*
D236*
X012807Y000975D03*
X014051Y001427D03*
D237*
X013278Y000975D03*
X011775Y000983D03*
X011241Y001222D03*
X011161Y001266D03*
X008906Y000981D03*
D238*
X008909Y000977D03*
D239*
X010121Y000977D03*
X011292Y001196D03*
D240*
X010596Y000977D03*
X012764Y001033D03*
D241*
X012607Y001130D03*
X012305Y000977D03*
X012009Y001375D03*
X011576Y001359D03*
X011029Y001415D03*
X010817Y001130D03*
X010381Y001113D03*
X010377Y001122D03*
X010377Y001359D03*
X009123Y001359D03*
X013062Y001359D03*
X013060Y001122D03*
X013494Y001359D03*
D242*
X013277Y000977D03*
X014219Y001480D03*
X011776Y000985D03*
X011230Y001228D03*
X008903Y000985D03*
D243*
X008908Y000979D03*
X010096Y001035D03*
X010595Y001506D03*
X012771Y001458D03*
X012771Y001021D03*
D244*
X011776Y000989D03*
X010596Y000979D03*
X010085Y001433D03*
X010085Y001435D03*
X010085Y001442D03*
X010085Y001444D03*
X010085Y001450D03*
X010085Y001452D03*
X010085Y001458D03*
X010085Y001460D03*
X010085Y001466D03*
X010085Y001468D03*
X010085Y001474D03*
X010085Y001476D03*
X010085Y001482D03*
X010085Y001484D03*
X010085Y001490D03*
X010085Y001492D03*
X010085Y001498D03*
X010085Y001500D03*
X010085Y001506D03*
X010085Y001508D03*
X010085Y001514D03*
X010085Y001516D03*
X010085Y001522D03*
X010085Y001524D03*
X010085Y001528D03*
D245*
X008914Y001460D03*
X011169Y000979D03*
D246*
X011208Y001240D03*
X011198Y001246D03*
X011194Y001248D03*
X011190Y001250D03*
X012762Y001442D03*
X012762Y001037D03*
X013277Y000979D03*
D247*
X010118Y000981D03*
D248*
X010596Y000981D03*
X008893Y000999D03*
X012756Y001427D03*
X014219Y001468D03*
D249*
X011205Y001474D03*
X011171Y000981D03*
X008914Y001458D03*
D250*
X011776Y000981D03*
D251*
X012801Y000981D03*
X012801Y001498D03*
D252*
X012759Y001435D03*
X012759Y001043D03*
X013278Y000981D03*
X013278Y001498D03*
D253*
X011233Y001226D03*
X011165Y001264D03*
X008904Y000983D03*
D254*
X010596Y000983D03*
X011774Y000995D03*
D255*
X011172Y000983D03*
X010594Y001460D03*
D256*
X013277Y000983D03*
D257*
X010115Y000985D03*
D258*
X010596Y000985D03*
X008887Y001009D03*
D259*
X011174Y000985D03*
D260*
X010801Y001097D03*
X010795Y001089D03*
X010520Y001196D03*
X010393Y001383D03*
X009109Y001383D03*
X011997Y001391D03*
X012305Y000985D03*
X012617Y001113D03*
X012619Y001367D03*
X013076Y001383D03*
X013480Y001383D03*
X013752Y001415D03*
X014050Y001375D03*
X013480Y001097D03*
D261*
X013278Y000985D03*
D262*
X010114Y000987D03*
D263*
X010596Y000987D03*
X011798Y001498D03*
X008915Y001490D03*
X008885Y001013D03*
D264*
X011175Y000987D03*
X011201Y001466D03*
D265*
X011369Y001150D03*
X011602Y001083D03*
X011594Y001387D03*
X012305Y001039D03*
X012305Y001037D03*
X012305Y000991D03*
X012305Y000989D03*
X012305Y000987D03*
X012625Y001103D03*
X010401Y001085D03*
X010399Y001087D03*
X010401Y001393D03*
X009101Y001393D03*
X008730Y001401D03*
D266*
X008886Y001011D03*
X010595Y001492D03*
X011768Y001003D03*
X013278Y000987D03*
X013278Y001492D03*
D267*
X013278Y001500D03*
X012763Y001444D03*
X012763Y001035D03*
X011211Y001238D03*
X011183Y001254D03*
X008900Y000989D03*
D268*
X010596Y000989D03*
D269*
X011176Y000989D03*
X011798Y001466D03*
D270*
X013278Y001490D03*
X013278Y000989D03*
D271*
X008898Y000991D03*
D272*
X010112Y000991D03*
X012787Y000997D03*
X012787Y001482D03*
D273*
X011178Y000991D03*
D274*
X011776Y000991D03*
D275*
X008897Y000993D03*
D276*
X010111Y000993D03*
X011125Y001285D03*
X012786Y001480D03*
D277*
X011757Y001025D03*
X010596Y000993D03*
D278*
X011179Y000993D03*
X013278Y001025D03*
D279*
X013277Y001496D03*
X011776Y000993D03*
D280*
X012305Y000993D03*
X012305Y001033D03*
X013088Y001081D03*
X013468Y001081D03*
X013466Y001399D03*
X010791Y001383D03*
X010787Y001391D03*
X010407Y001399D03*
D281*
X012790Y000993D03*
D282*
X008896Y000995D03*
D283*
X010110Y000995D03*
X012785Y000999D03*
X013882Y001498D03*
D284*
X011755Y001029D03*
X010596Y000995D03*
X008873Y001037D03*
D285*
X010594Y001452D03*
X011196Y001450D03*
X011180Y000995D03*
D286*
X011600Y001395D03*
X011989Y001401D03*
X012305Y001031D03*
X012305Y001029D03*
X012305Y000997D03*
X012305Y000995D03*
X012629Y001099D03*
X012629Y001379D03*
X013466Y001079D03*
X013760Y001425D03*
X014050Y001387D03*
X014050Y001385D03*
X014340Y001425D03*
X010522Y001200D03*
X010407Y001079D03*
D287*
X013277Y000995D03*
X013277Y001484D03*
D288*
X012757Y001047D03*
X010595Y001498D03*
X008894Y000997D03*
D289*
X010109Y000997D03*
D290*
X010597Y000997D03*
X011752Y001037D03*
X013278Y000999D03*
D291*
X013278Y001027D03*
X013278Y001452D03*
X011195Y001444D03*
X011181Y000997D03*
D292*
X011772Y000997D03*
X008890Y001003D03*
D293*
X010596Y000999D03*
D294*
X010594Y001450D03*
X011194Y001442D03*
X011182Y000999D03*
X011798Y001460D03*
D295*
X011771Y000999D03*
X008889Y001005D03*
D296*
X008737Y001409D03*
X008739Y001411D03*
X009093Y001401D03*
X010408Y001401D03*
X010410Y001403D03*
X010408Y001077D03*
X010410Y001075D03*
X010778Y001069D03*
X010780Y001071D03*
X011362Y001055D03*
X011609Y001075D03*
X011986Y001403D03*
X012304Y001027D03*
X012304Y000999D03*
X012632Y001095D03*
X012634Y001385D03*
X013763Y001427D03*
X014337Y001427D03*
D297*
X010595Y001496D03*
X008892Y001001D03*
D298*
X010107Y001001D03*
D299*
X010596Y001001D03*
D300*
X011183Y001001D03*
D301*
X011245Y001520D03*
X011770Y001001D03*
D302*
X012305Y001001D03*
X012305Y001009D03*
X012305Y001017D03*
X012305Y001025D03*
X013096Y001073D03*
X013098Y001407D03*
X013460Y001073D03*
X014219Y001530D03*
X010779Y001399D03*
D303*
X012784Y001001D03*
D304*
X013277Y001001D03*
X011224Y001504D03*
D305*
X010106Y001003D03*
D306*
X011184Y001003D03*
D307*
X013278Y001003D03*
X013278Y001476D03*
D308*
X012780Y001007D03*
X011264Y001210D03*
X011137Y001279D03*
X010105Y001007D03*
X010105Y001005D03*
D309*
X010597Y001005D03*
X013278Y001007D03*
D310*
X011185Y001005D03*
X008914Y001444D03*
D311*
X011767Y001005D03*
D312*
X012781Y001005D03*
X012781Y001474D03*
D313*
X008888Y001007D03*
D314*
X008913Y001442D03*
X011186Y001007D03*
D315*
X011766Y001007D03*
D316*
X010104Y001009D03*
D317*
X010596Y001009D03*
X011212Y001488D03*
D318*
X011186Y001009D03*
X011798Y001456D03*
D319*
X011765Y001009D03*
D320*
X013278Y001009D03*
D321*
X010103Y001011D03*
X008915Y001508D03*
D322*
X011187Y001011D03*
D323*
X010596Y001013D03*
D324*
X010594Y001444D03*
X011188Y001013D03*
D325*
X011763Y001013D03*
X008881Y001019D03*
D326*
X011209Y001482D03*
X013278Y001466D03*
X013278Y001013D03*
D327*
X008883Y001015D03*
D328*
X010597Y001015D03*
D329*
X011189Y001015D03*
X013278Y001035D03*
X013278Y001444D03*
D330*
X011762Y001015D03*
X008880Y001021D03*
D331*
X013278Y001015D03*
D332*
X011799Y001496D03*
X008914Y001488D03*
X008882Y001017D03*
D333*
X010101Y001017D03*
D334*
X010597Y001017D03*
X008914Y001456D03*
D335*
X010597Y001033D03*
X011189Y001017D03*
D336*
X011761Y001017D03*
D337*
X012773Y001017D03*
D338*
X013278Y001017D03*
D339*
X010100Y001019D03*
X010100Y001021D03*
D340*
X010597Y001019D03*
X013278Y001021D03*
X013278Y001458D03*
D341*
X011798Y001452D03*
X011190Y001019D03*
X010596Y001035D03*
X010594Y001442D03*
D342*
X011760Y001019D03*
D343*
X011248Y001218D03*
X011154Y001270D03*
X010097Y001031D03*
X010097Y001029D03*
X012772Y001019D03*
X012772Y001460D03*
D344*
X013278Y001460D03*
X013278Y001019D03*
D345*
X013278Y001023D03*
X010597Y001021D03*
D346*
X011191Y001021D03*
X011191Y001023D03*
D347*
X011759Y001021D03*
D348*
X010099Y001023D03*
D349*
X010597Y001023D03*
X011197Y001452D03*
D350*
X011758Y001023D03*
D351*
X012770Y001023D03*
X014219Y001484D03*
X010095Y001039D03*
X010095Y001037D03*
D352*
X010098Y001025D03*
D353*
X010597Y001025D03*
X008914Y001448D03*
D354*
X010594Y001440D03*
X011192Y001025D03*
D355*
X010093Y001049D03*
X012768Y001025D03*
D356*
X008915Y001484D03*
X008877Y001027D03*
D357*
X010098Y001027D03*
D358*
X010597Y001027D03*
X011191Y001427D03*
X011193Y001433D03*
X011193Y001435D03*
X013278Y001450D03*
X013278Y001029D03*
D359*
X011798Y001450D03*
X011192Y001027D03*
D360*
X011756Y001027D03*
X010595Y001484D03*
X008874Y001035D03*
D361*
X011169Y001262D03*
X012767Y001027D03*
X013882Y001482D03*
D362*
X013278Y001031D03*
X010597Y001029D03*
D363*
X011193Y001029D03*
D364*
X011798Y001508D03*
X012766Y001450D03*
X012766Y001029D03*
D365*
X010597Y001031D03*
D366*
X010596Y001039D03*
X011194Y001031D03*
D367*
X011225Y001230D03*
X012765Y001031D03*
D368*
X008875Y001033D03*
D369*
X010096Y001033D03*
D370*
X011194Y001033D03*
D371*
X011753Y001033D03*
D372*
X013278Y001033D03*
D373*
X011195Y001035D03*
X011195Y001037D03*
X011195Y001039D03*
D374*
X011228Y001508D03*
X011753Y001035D03*
D375*
X010596Y001037D03*
D376*
X013278Y001039D03*
X013278Y001037D03*
X013278Y001442D03*
D377*
X011751Y001039D03*
D378*
X012761Y001039D03*
X010595Y001500D03*
X010084Y001427D03*
D379*
X008789Y001041D03*
X012691Y001423D03*
D380*
X010094Y001041D03*
D381*
X010464Y001041D03*
D382*
X010728Y001041D03*
X011664Y001041D03*
X013149Y001041D03*
X013407Y001041D03*
D383*
X011196Y001041D03*
D384*
X011024Y001351D03*
X011573Y001351D03*
X011877Y001041D03*
X012604Y001343D03*
X013057Y001351D03*
X013495Y001122D03*
X008705Y001367D03*
D385*
X010085Y001431D03*
X010085Y001440D03*
X010085Y001448D03*
X010085Y001456D03*
X010085Y001464D03*
X010085Y001472D03*
X010085Y001480D03*
X010085Y001488D03*
X010085Y001496D03*
X010085Y001504D03*
X010085Y001512D03*
X010085Y001520D03*
X012760Y001041D03*
D386*
X013142Y001043D03*
X013414Y001043D03*
X013414Y001435D03*
X013142Y001435D03*
X011943Y001433D03*
X011657Y001043D03*
X011071Y001311D03*
X010536Y001222D03*
X010457Y001043D03*
X010457Y001435D03*
X008780Y001043D03*
D387*
X010094Y001043D03*
X013882Y001484D03*
D388*
X011332Y001176D03*
X010778Y001361D03*
X010736Y001043D03*
D389*
X011196Y001043D03*
X011798Y001444D03*
D390*
X011236Y001224D03*
X010093Y001047D03*
X010093Y001045D03*
X010091Y001051D03*
X012768Y001452D03*
X014219Y001482D03*
D391*
X012676Y001417D03*
X011652Y001045D03*
X011064Y001315D03*
X010742Y001045D03*
X010533Y001218D03*
D392*
X011197Y001047D03*
X011197Y001045D03*
D393*
X011886Y001045D03*
X009421Y001697D03*
D394*
X012758Y001433D03*
X012758Y001045D03*
D395*
X013131Y001047D03*
X013425Y001047D03*
X010533Y001216D03*
X010448Y001047D03*
X008773Y001433D03*
D396*
X008768Y001431D03*
X008766Y001049D03*
D397*
X009016Y001049D03*
X012305Y001073D03*
D398*
X012831Y001520D03*
X013429Y001049D03*
X010444Y001049D03*
D399*
X010750Y001049D03*
D400*
X011197Y001049D03*
D401*
X011643Y001049D03*
X008917Y001530D03*
D402*
X011892Y001049D03*
D403*
X012756Y001049D03*
X008915Y001496D03*
D404*
X013127Y001049D03*
D405*
X009019Y001051D03*
D406*
X011198Y001051D03*
X011798Y001442D03*
D407*
X008758Y001053D03*
D408*
X009022Y001053D03*
X012305Y001077D03*
D409*
X010436Y001053D03*
X010436Y001425D03*
D410*
X010434Y001055D03*
X010758Y001053D03*
X011052Y001323D03*
X011634Y001055D03*
X012654Y001075D03*
X012654Y001403D03*
X013117Y001055D03*
X013439Y001055D03*
X008761Y001427D03*
D411*
X008745Y001063D03*
X009083Y001411D03*
X010418Y001411D03*
X010418Y001067D03*
X010770Y001409D03*
X011360Y001158D03*
X011358Y001053D03*
X011613Y001409D03*
X011615Y001411D03*
X012642Y001393D03*
X012642Y001085D03*
D412*
X011637Y001053D03*
X010751Y001425D03*
X010528Y001210D03*
D413*
X010504Y001174D03*
X011897Y001053D03*
D414*
X011608Y001077D03*
X011606Y001079D03*
X011367Y001152D03*
X010783Y001075D03*
X010785Y001393D03*
X010008Y001055D03*
X013090Y001079D03*
X013092Y001077D03*
X013092Y001401D03*
X013464Y001401D03*
X013464Y001077D03*
D415*
X011899Y001055D03*
D416*
X010786Y001375D03*
X008753Y001057D03*
D417*
X009026Y001057D03*
X011908Y001065D03*
D418*
X013114Y001057D03*
X013442Y001057D03*
X010431Y001057D03*
D419*
X010763Y001057D03*
X011621Y001415D03*
X008754Y001423D03*
D420*
X011038Y001423D03*
X011366Y001057D03*
X011990Y001399D03*
D421*
X011631Y001057D03*
D422*
X011901Y001057D03*
D423*
X012685Y001057D03*
D424*
X010812Y001214D03*
X010496Y001162D03*
X009029Y001059D03*
D425*
X009421Y001645D03*
X009421Y001649D03*
X009421Y001665D03*
X009421Y001669D03*
X009421Y001673D03*
X010002Y001059D03*
X010389Y001101D03*
X010518Y001194D03*
X010389Y001377D03*
X010807Y001109D03*
X010807Y001107D03*
X011373Y001144D03*
X011582Y001369D03*
X014050Y001371D03*
D426*
X013771Y001433D03*
X013447Y001417D03*
X013449Y001063D03*
X013447Y001061D03*
X013109Y001061D03*
X013107Y001063D03*
X013109Y001417D03*
X011626Y001061D03*
X010766Y001059D03*
X008747Y001061D03*
D427*
X010761Y001417D03*
X011629Y001059D03*
X011971Y001417D03*
X012649Y001079D03*
D428*
X011903Y001059D03*
D429*
X012680Y001059D03*
X012680Y001419D03*
X009047Y001435D03*
D430*
X008711Y001099D03*
X009999Y001061D03*
X011372Y001063D03*
X013067Y001109D03*
X013069Y001107D03*
X013067Y001111D03*
X013067Y001369D03*
X013069Y001371D03*
X013487Y001371D03*
X013487Y001107D03*
X014051Y001369D03*
D431*
X011623Y001063D03*
X010769Y001061D03*
D432*
X010500Y001168D03*
X010595Y001540D03*
X011905Y001061D03*
D433*
X011915Y001075D03*
X009033Y001063D03*
D434*
X008710Y001101D03*
X008708Y001103D03*
X008708Y001371D03*
X008712Y001377D03*
X009421Y001637D03*
X009421Y001641D03*
X009421Y001677D03*
X009998Y001063D03*
X010596Y001536D03*
X010821Y001138D03*
X011375Y001067D03*
X011582Y001111D03*
X011584Y001109D03*
X013064Y001115D03*
X013064Y001363D03*
X013744Y001403D03*
X014050Y001363D03*
X014356Y001403D03*
X014358Y001401D03*
D435*
X012305Y001063D03*
X010511Y001184D03*
D436*
X012671Y001063D03*
D437*
X012641Y001391D03*
X011621Y001065D03*
X014332Y001431D03*
X008744Y001415D03*
X008742Y001065D03*
D438*
X009035Y001065D03*
D439*
X010421Y001065D03*
X010423Y001415D03*
X013104Y001065D03*
X013452Y001065D03*
D440*
X013065Y001113D03*
X013067Y001367D03*
X011581Y001367D03*
X011374Y001065D03*
X009420Y001675D03*
D441*
X010596Y001538D03*
X012305Y001065D03*
D442*
X012669Y001065D03*
X011061Y001317D03*
X010741Y001431D03*
X010596Y001530D03*
D443*
X010416Y001409D03*
X010523Y001202D03*
X010414Y001071D03*
X010416Y001069D03*
X010776Y001067D03*
X010778Y001401D03*
X010776Y001403D03*
X011040Y001331D03*
X011607Y001403D03*
X011615Y001069D03*
X012636Y001091D03*
X012636Y001387D03*
X013097Y001071D03*
X013459Y001071D03*
X008739Y001067D03*
D444*
X009037Y001067D03*
X010804Y001216D03*
D445*
X011909Y001067D03*
D446*
X012305Y001067D03*
D447*
X011921Y001085D03*
X010492Y001154D03*
X009039Y001069D03*
D448*
X008701Y001115D03*
X009993Y001069D03*
X010364Y001150D03*
X010364Y001152D03*
X010366Y001146D03*
X010366Y001144D03*
X010364Y001327D03*
X010364Y001329D03*
X010364Y001331D03*
X010833Y001170D03*
X010833Y001168D03*
X010831Y001162D03*
X011380Y001132D03*
X011382Y001128D03*
X011382Y001126D03*
X011380Y001077D03*
X011575Y001126D03*
X012590Y001170D03*
X012592Y001162D03*
X012592Y001315D03*
X013510Y001327D03*
X013512Y001319D03*
X013512Y001160D03*
X013510Y001154D03*
X013510Y001152D03*
X013735Y001385D03*
X013737Y001387D03*
X014365Y001385D03*
D449*
X014220Y001540D03*
X011911Y001069D03*
D450*
X010490Y001152D03*
X009041Y001071D03*
D451*
X009139Y001319D03*
X009139Y001321D03*
X009139Y001323D03*
X009992Y001071D03*
X011381Y001079D03*
X011381Y001083D03*
X012591Y001166D03*
X012591Y001168D03*
X012591Y001311D03*
X012591Y001313D03*
X013511Y001321D03*
X013511Y001323D03*
X013511Y001158D03*
X014366Y001379D03*
D452*
X011912Y001071D03*
D453*
X010782Y001073D03*
X008733Y001073D03*
D454*
X009043Y001073D03*
D455*
X009134Y001335D03*
X008697Y001351D03*
X008697Y001122D03*
X010362Y001156D03*
X010368Y001140D03*
X010360Y001317D03*
X011022Y001399D03*
X011378Y001073D03*
X011565Y001335D03*
X012596Y001325D03*
X013047Y001325D03*
X013049Y001148D03*
X013507Y001148D03*
X013505Y001335D03*
D456*
X012305Y001081D03*
X011914Y001073D03*
D457*
X012011Y001371D03*
X011574Y001128D03*
X011576Y001124D03*
X011379Y001134D03*
X011379Y001075D03*
X011025Y001409D03*
X010832Y001166D03*
X010830Y001160D03*
X010830Y001158D03*
X010367Y001142D03*
X010367Y001337D03*
X008702Y001361D03*
X008700Y001355D03*
X008702Y001111D03*
X008704Y001109D03*
X013738Y001393D03*
D458*
X012305Y001075D03*
X009421Y001605D03*
D459*
X013462Y001403D03*
X013462Y001075D03*
D460*
X013469Y001083D03*
X013471Y001085D03*
X013471Y001393D03*
X013469Y001395D03*
X013087Y001395D03*
X013085Y001393D03*
X013085Y001085D03*
X013087Y001083D03*
X011599Y001393D03*
X010792Y001385D03*
X010790Y001387D03*
X010788Y001079D03*
X010402Y001083D03*
X010402Y001395D03*
X009100Y001395D03*
X008729Y001077D03*
D461*
X009047Y001077D03*
X011930Y001099D03*
D462*
X011916Y001077D03*
D463*
X010791Y001083D03*
X010520Y001198D03*
X008728Y001079D03*
D464*
X009049Y001079D03*
D465*
X009421Y001597D03*
X011918Y001079D03*
D466*
X012305Y001079D03*
D467*
X009050Y001081D03*
D468*
X008728Y001399D03*
X010789Y001081D03*
X014050Y001383D03*
D469*
X013511Y001156D03*
X011381Y001081D03*
D470*
X011604Y001081D03*
X012623Y001105D03*
X012625Y001375D03*
X010399Y001391D03*
X009103Y001391D03*
D471*
X011919Y001081D03*
D472*
X011974Y001415D03*
X012646Y001081D03*
X009079Y001415D03*
D473*
X011920Y001083D03*
D474*
X012305Y001083D03*
D475*
X009054Y001085D03*
D476*
X010792Y001085D03*
X011034Y001337D03*
X011599Y001087D03*
X013083Y001087D03*
X014051Y001379D03*
D477*
X011922Y001087D03*
D478*
X011978Y001411D03*
X012640Y001087D03*
X010768Y001411D03*
X008749Y001419D03*
D479*
X008721Y001391D03*
X008719Y001089D03*
X009420Y001659D03*
X010392Y001097D03*
X011585Y001375D03*
X013071Y001375D03*
X013075Y001097D03*
X013485Y001375D03*
X014349Y001415D03*
D480*
X011598Y001089D03*
D481*
X011923Y001089D03*
D482*
X011925Y001091D03*
D483*
X011926Y001093D03*
D484*
X011927Y001095D03*
D485*
X011928Y001097D03*
D486*
X011581Y001113D03*
X010822Y001140D03*
X010372Y001130D03*
X010374Y001351D03*
X009128Y001351D03*
X008707Y001105D03*
X012598Y001148D03*
X012602Y001140D03*
X012600Y001335D03*
X013499Y001351D03*
X013499Y001130D03*
X013741Y001399D03*
X014359Y001399D03*
D487*
X011932Y001105D03*
D488*
X012003Y001383D03*
X013486Y001105D03*
X009421Y001643D03*
X009421Y001651D03*
X009421Y001667D03*
D489*
X010485Y001144D03*
X011933Y001107D03*
D490*
X011934Y001109D03*
D491*
X011935Y001111D03*
D492*
X011381Y001130D03*
X011025Y001407D03*
X008702Y001359D03*
X008702Y001113D03*
X013738Y001391D03*
D493*
X011936Y001113D03*
D494*
X011937Y001115D03*
D495*
X011573Y001130D03*
X010833Y001172D03*
X010831Y001164D03*
X010364Y001148D03*
X010366Y001335D03*
X012590Y001309D03*
X012592Y001317D03*
X012592Y001164D03*
X013510Y001325D03*
X013735Y001383D03*
X014365Y001383D03*
D496*
X010484Y001142D03*
D497*
X010348Y001232D03*
X010348Y001234D03*
X010348Y001238D03*
X010348Y001240D03*
X010348Y001242D03*
X010348Y001246D03*
X011558Y001170D03*
X012027Y001331D03*
X012025Y001337D03*
X012025Y001339D03*
X008686Y001321D03*
X008686Y001146D03*
D498*
X008686Y001148D03*
X010348Y001236D03*
X010348Y001244D03*
D499*
X010487Y001148D03*
D500*
X011557Y001174D03*
X011557Y001176D03*
X011559Y001168D03*
X011559Y001166D03*
X012028Y001327D03*
X012028Y001329D03*
X008685Y001150D03*
D501*
X010489Y001150D03*
D502*
X010493Y001158D03*
D503*
X010495Y001160D03*
D504*
X010498Y001164D03*
D505*
X010434Y001423D03*
X010754Y001423D03*
X011352Y001164D03*
X013117Y001423D03*
X013439Y001423D03*
X009069Y001423D03*
D506*
X009421Y001713D03*
X010501Y001170D03*
D507*
X011557Y001172D03*
X012028Y001325D03*
X012026Y001335D03*
D508*
X011336Y001174D03*
X013882Y001522D03*
D509*
X010506Y001178D03*
D510*
X010508Y001180D03*
D511*
X010509Y001182D03*
X013881Y001536D03*
D512*
X011317Y001184D03*
D513*
X011300Y001192D03*
D514*
X011296Y001194D03*
X011798Y001522D03*
D515*
X010525Y001204D03*
D516*
X011276Y001204D03*
D517*
X011272Y001206D03*
X011129Y001283D03*
D518*
X011268Y001208D03*
D519*
X010530Y001212D03*
D520*
X010820Y001212D03*
D521*
X011256Y001214D03*
X013881Y001490D03*
X014219Y001490D03*
D522*
X010797Y001218D03*
D523*
X010535Y001220D03*
D524*
X010789Y001220D03*
D525*
X010750Y001343D03*
X010764Y001351D03*
X010688Y001309D03*
X010674Y001301D03*
X010659Y001293D03*
X010601Y001260D03*
X010587Y001252D03*
X010573Y001244D03*
X010543Y001228D03*
X011076Y001309D03*
D526*
X010742Y001339D03*
X010728Y001331D03*
X010710Y001321D03*
X010696Y001313D03*
X010678Y001303D03*
X010597Y001258D03*
X010583Y001250D03*
X010565Y001240D03*
X010551Y001232D03*
D527*
X011219Y001234D03*
D528*
X010735Y001335D03*
X010717Y001325D03*
X010703Y001317D03*
X010558Y001236D03*
X012818Y001512D03*
D529*
X011215Y001236D03*
D530*
X011204Y001242D03*
X011798Y001506D03*
X013881Y001476D03*
X014219Y001476D03*
D531*
X011200Y001244D03*
D532*
X011187Y001252D03*
D533*
X011173Y001260D03*
X012765Y001448D03*
D534*
X011937Y001435D03*
X010757Y001347D03*
X010681Y001305D03*
X010662Y001295D03*
X010648Y001287D03*
X010612Y001266D03*
D535*
X010615Y001268D03*
D536*
X011158Y001268D03*
X012770Y001456D03*
X008915Y001504D03*
D537*
X011116Y001289D03*
D538*
X011096Y001299D03*
D539*
X011091Y001301D03*
D540*
X011048Y001325D03*
D541*
X009980Y001333D03*
X009980Y001341D03*
X009980Y001349D03*
X009980Y001357D03*
X009980Y001365D03*
X009980Y001373D03*
X009980Y001381D03*
X009980Y001389D03*
X009980Y001397D03*
X009980Y001405D03*
X009980Y001413D03*
X009980Y001421D03*
X009980Y001534D03*
X009980Y001542D03*
X009980Y001550D03*
X009980Y001558D03*
X009980Y001566D03*
X009980Y001574D03*
X009980Y001582D03*
X009980Y001590D03*
X009980Y001599D03*
X009980Y001607D03*
X009980Y001615D03*
X009980Y001623D03*
X009980Y001631D03*
X009980Y001639D03*
X009980Y001647D03*
X009980Y001655D03*
X009980Y001663D03*
X009980Y001671D03*
X009421Y001695D03*
X009421Y001623D03*
X009421Y001526D03*
X009421Y001518D03*
X009421Y001510D03*
X009421Y001502D03*
X009421Y001494D03*
X009421Y001486D03*
X009421Y001478D03*
X009421Y001470D03*
X009421Y001462D03*
X009421Y001454D03*
X009421Y001446D03*
X009421Y001438D03*
X009421Y001429D03*
X009421Y001421D03*
X009421Y001413D03*
X009421Y001405D03*
X009421Y001397D03*
X009421Y001389D03*
X009421Y001381D03*
X009421Y001373D03*
X009421Y001365D03*
X009421Y001357D03*
X009421Y001349D03*
X009421Y001341D03*
X009421Y001333D03*
X014374Y001333D03*
D542*
X014220Y001534D03*
X013882Y001534D03*
X013737Y001389D03*
X010366Y001333D03*
D543*
X010732Y001333D03*
X010746Y001341D03*
X008916Y001526D03*
X008786Y001438D03*
D544*
X011038Y001333D03*
D545*
X012025Y001341D03*
X012027Y001333D03*
D546*
X011568Y001341D03*
X012599Y001333D03*
X013052Y001341D03*
X013056Y001349D03*
X013502Y001341D03*
X013506Y001333D03*
X014050Y001357D03*
X010369Y001341D03*
D547*
X011019Y001373D03*
X011019Y001381D03*
X013728Y001357D03*
X013728Y001349D03*
X013730Y001365D03*
X014050Y001333D03*
X014370Y001365D03*
X014372Y001357D03*
D548*
X013060Y001357D03*
X012607Y001349D03*
X012603Y001341D03*
X011025Y001349D03*
X010381Y001365D03*
X010377Y001357D03*
D549*
X010760Y001349D03*
X010774Y001357D03*
D550*
X011028Y001413D03*
X011571Y001349D03*
X011575Y001357D03*
X012010Y001373D03*
X013495Y001357D03*
X009124Y001357D03*
X008705Y001365D03*
D551*
X008700Y001357D03*
D552*
X008720Y001389D03*
X010387Y001373D03*
X011584Y001373D03*
X012611Y001357D03*
X013070Y001373D03*
X014350Y001413D03*
D553*
X014218Y001520D03*
X013882Y001520D03*
X010776Y001359D03*
D554*
X010779Y001363D03*
X010731Y001435D03*
D555*
X011035Y001421D03*
X011590Y001381D03*
X011999Y001389D03*
X012617Y001365D03*
X013480Y001381D03*
D556*
X013745Y001405D03*
X013065Y001365D03*
X012004Y001381D03*
D557*
X014050Y001365D03*
X009421Y001639D03*
X009421Y001679D03*
X008710Y001373D03*
D558*
X009055Y001431D03*
X010448Y001431D03*
X010782Y001367D03*
X012672Y001415D03*
X013131Y001431D03*
X013425Y001431D03*
D559*
X013486Y001373D03*
X014050Y001373D03*
X009421Y001647D03*
X009421Y001671D03*
X009115Y001373D03*
D560*
X010785Y001373D03*
X011965Y001421D03*
X012657Y001405D03*
X014050Y001405D03*
D561*
X013756Y001421D03*
X012623Y001373D03*
X011993Y001397D03*
D562*
X009114Y001375D03*
D563*
X008742Y001413D03*
X010596Y001534D03*
X010791Y001381D03*
X011985Y001405D03*
X013096Y001405D03*
X013460Y001405D03*
X014050Y001389D03*
D564*
X013468Y001397D03*
X013088Y001397D03*
X012631Y001381D03*
X011602Y001397D03*
X008917Y001534D03*
D565*
X011596Y001389D03*
X014050Y001381D03*
X014344Y001421D03*
D566*
X014366Y001381D03*
D567*
X012002Y001385D03*
D568*
X010788Y001389D03*
X010404Y001397D03*
X009097Y001397D03*
X013278Y001534D03*
D569*
X008726Y001397D03*
D570*
X010782Y001397D03*
D571*
X011617Y001413D03*
X012646Y001397D03*
D572*
X013452Y001413D03*
X014050Y001397D03*
X010421Y001413D03*
X009082Y001413D03*
D573*
X012649Y001399D03*
X014050Y001399D03*
D574*
X014050Y001401D03*
X011969Y001419D03*
X010759Y001419D03*
X008758Y001425D03*
D575*
X014051Y001403D03*
D576*
X009090Y001405D03*
D577*
X010775Y001405D03*
D578*
X011962Y001423D03*
X012660Y001407D03*
D579*
X014050Y001407D03*
D580*
X012663Y001409D03*
X009066Y001425D03*
D581*
X008751Y001421D03*
X010766Y001413D03*
X011976Y001413D03*
D582*
X011641Y001429D03*
X012669Y001413D03*
D583*
X013105Y001413D03*
D584*
X014050Y001413D03*
D585*
X013449Y001415D03*
X013107Y001415D03*
X010764Y001415D03*
D586*
X014050Y001417D03*
D587*
X011628Y001421D03*
D588*
X012685Y001421D03*
D589*
X014050Y001421D03*
X010725Y001438D03*
X010596Y001526D03*
D590*
X011631Y001423D03*
D591*
X014050Y001423D03*
D592*
X014219Y001526D03*
X008764Y001429D03*
D593*
X009059Y001429D03*
X010444Y001429D03*
X013429Y001429D03*
D594*
X012760Y001438D03*
X010085Y001438D03*
X010085Y001446D03*
X010085Y001454D03*
X010085Y001462D03*
X010085Y001470D03*
X010085Y001478D03*
X010085Y001486D03*
X010085Y001494D03*
X010085Y001502D03*
X010085Y001510D03*
X010085Y001518D03*
X010085Y001526D03*
X010085Y001429D03*
D595*
X010745Y001429D03*
D596*
X011192Y001429D03*
D597*
X011952Y001429D03*
D598*
X012757Y001429D03*
X013882Y001470D03*
D599*
X013127Y001429D03*
D600*
X014051Y001429D03*
D601*
X011192Y001431D03*
X010594Y001448D03*
D602*
X011948Y001431D03*
D603*
X011798Y001504D03*
X012758Y001431D03*
X013881Y001472D03*
X014219Y001472D03*
D604*
X013768Y001431D03*
D605*
X014050Y001431D03*
D606*
X010737Y001433D03*
D607*
X014050Y001435D03*
D608*
X009040Y001438D03*
D609*
X010464Y001438D03*
X013882Y001518D03*
X014218Y001518D03*
D610*
X011193Y001438D03*
X008914Y001446D03*
D611*
X011662Y001438D03*
D612*
X011928Y001438D03*
D613*
X013149Y001438D03*
X013407Y001438D03*
D614*
X013779Y001438D03*
X013882Y001526D03*
X014321Y001438D03*
D615*
X014051Y001438D03*
D616*
X008913Y001440D03*
D617*
X011194Y001440D03*
D618*
X011798Y001440D03*
D619*
X012761Y001440D03*
D620*
X013278Y001440D03*
D621*
X014050Y001440D03*
D622*
X014051Y001442D03*
D623*
X014050Y001444D03*
D624*
X010594Y001446D03*
D625*
X011195Y001446D03*
D626*
X011797Y001446D03*
D627*
X012764Y001446D03*
X013881Y001478D03*
X014219Y001478D03*
X010596Y001502D03*
D628*
X013278Y001446D03*
D629*
X014050Y001446D03*
D630*
X011196Y001448D03*
D631*
X011797Y001448D03*
D632*
X013278Y001448D03*
D633*
X014050Y001448D03*
D634*
X008914Y001450D03*
D635*
X014050Y001450D03*
D636*
X011199Y001458D03*
X011199Y001460D03*
X008914Y001452D03*
D637*
X014050Y001452D03*
D638*
X008914Y001454D03*
D639*
X010594Y001454D03*
D640*
X011197Y001454D03*
X013278Y001454D03*
D641*
X011798Y001454D03*
D642*
X012769Y001454D03*
D643*
X014050Y001454D03*
D644*
X010594Y001456D03*
D645*
X011198Y001456D03*
D646*
X013278Y001456D03*
D647*
X014050Y001456D03*
D648*
X011798Y001468D03*
X011202Y001468D03*
X010594Y001458D03*
D649*
X011798Y001458D03*
D650*
X014050Y001458D03*
D651*
X014051Y001460D03*
D652*
X008914Y001462D03*
D653*
X010594Y001462D03*
D654*
X011200Y001462D03*
D655*
X011798Y001462D03*
D656*
X012773Y001462D03*
D657*
X013278Y001462D03*
D658*
X013881Y001462D03*
D659*
X014219Y001462D03*
D660*
X008914Y001464D03*
D661*
X011201Y001464D03*
D662*
X011798Y001464D03*
D663*
X012775Y001464D03*
D664*
X013278Y001464D03*
D665*
X013881Y001464D03*
X014219Y001464D03*
D666*
X008914Y001466D03*
D667*
X013881Y001466D03*
X014219Y001466D03*
D668*
X011215Y001492D03*
X008914Y001468D03*
D669*
X008914Y001470D03*
D670*
X010594Y001470D03*
D671*
X011203Y001470D03*
D672*
X011798Y001470D03*
D673*
X012779Y001470D03*
X010595Y001510D03*
D674*
X013278Y001470D03*
D675*
X014219Y001470D03*
D676*
X008914Y001472D03*
D677*
X011204Y001472D03*
D678*
X011798Y001472D03*
D679*
X012780Y001472D03*
D680*
X013278Y001472D03*
D681*
X011221Y001500D03*
X010595Y001476D03*
X008914Y001474D03*
D682*
X008915Y001498D03*
X011254Y001524D03*
X013881Y001474D03*
X014219Y001474D03*
D683*
X011206Y001476D03*
D684*
X008915Y001478D03*
D685*
X011798Y001478D03*
D686*
X012784Y001478D03*
D687*
X013277Y001478D03*
D688*
X013278Y001480D03*
X011799Y001488D03*
D689*
X013881Y001480D03*
D690*
X011798Y001484D03*
D691*
X011798Y001494D03*
X008915Y001486D03*
D692*
X010594Y001486D03*
D693*
X011211Y001486D03*
D694*
X011798Y001486D03*
D695*
X012790Y001486D03*
D696*
X013278Y001486D03*
D697*
X013882Y001486D03*
D698*
X014219Y001486D03*
D699*
X010595Y001488D03*
D700*
X013278Y001488D03*
D701*
X013881Y001488D03*
X014219Y001488D03*
X011798Y001512D03*
D702*
X010595Y001490D03*
D703*
X011798Y001490D03*
D704*
X011799Y001500D03*
X008914Y001492D03*
D705*
X011798Y001514D03*
X013881Y001492D03*
X014219Y001492D03*
D706*
X008915Y001494D03*
D707*
X010595Y001494D03*
D708*
X012797Y001494D03*
D709*
X013278Y001494D03*
D710*
X013882Y001494D03*
D711*
X014219Y001494D03*
D712*
X011218Y001496D03*
D713*
X012799Y001496D03*
D714*
X013882Y001496D03*
D715*
X014218Y001496D03*
X010595Y001512D03*
D716*
X014219Y001498D03*
D717*
X013277Y001502D03*
X011260Y001526D03*
X008915Y001502D03*
D718*
X011222Y001502D03*
D719*
X011799Y001502D03*
D720*
X012805Y001502D03*
D721*
X013882Y001502D03*
X014218Y001502D03*
D722*
X010596Y001504D03*
D723*
X013278Y001504D03*
D724*
X013882Y001504D03*
X011799Y001520D03*
D725*
X014219Y001504D03*
D726*
X014219Y001506D03*
D727*
X013278Y001510D03*
X008916Y001510D03*
D728*
X011231Y001510D03*
D729*
X011798Y001510D03*
D730*
X012815Y001510D03*
D731*
X013882Y001510D03*
D732*
X014219Y001510D03*
D733*
X013278Y001512D03*
X008916Y001512D03*
D734*
X011233Y001512D03*
D735*
X013881Y001512D03*
X014219Y001512D03*
D736*
X014219Y001514D03*
D737*
X014218Y001516D03*
X013882Y001516D03*
X008916Y001524D03*
D738*
X008915Y001518D03*
D739*
X010596Y001518D03*
D740*
X011242Y001518D03*
D741*
X011799Y001518D03*
D742*
X013278Y001518D03*
D743*
X008916Y001520D03*
D744*
X010596Y001520D03*
D745*
X013278Y001520D03*
D746*
X008915Y001522D03*
D747*
X010596Y001522D03*
D748*
X014219Y001522D03*
D749*
X011798Y001526D03*
D750*
X013277Y001526D03*
D751*
X011798Y001528D03*
D752*
X011798Y001530D03*
D753*
X013278Y001530D03*
D754*
X013881Y001530D03*
D755*
X011798Y001534D03*
D756*
X013277Y001538D03*
D757*
X013881Y001538D03*
D758*
X014220Y001538D03*
D759*
X011797Y001540D03*
D760*
X009420Y001595D03*
D761*
X009421Y001599D03*
D762*
X009420Y001601D03*
D763*
X009421Y001603D03*
D764*
X009421Y001607D03*
D765*
X009420Y001611D03*
D766*
X009421Y001613D03*
X009421Y001705D03*
D767*
X009421Y001703D03*
X009421Y001615D03*
D768*
X009421Y001617D03*
X009421Y001701D03*
D769*
X009421Y001619D03*
D770*
X009420Y001699D03*
D771*
X009421Y001707D03*
D772*
X009421Y001711D03*
D773*
X009421Y001715D03*
D774*
X009421Y001717D03*
D775*
X009420Y001719D03*
D776*
X009421Y001721D03*
D777*
X007731Y026016D02*
X005731Y026016D01*
D778*
X015799Y026566D02*
X015799Y027606D01*
X017563Y027606D01*
X017563Y026566D01*
X015799Y026566D01*
D779*
X016160Y027086D03*
D780*
X015494Y027849D02*
X015494Y028343D01*
X017853Y028343D01*
X017853Y028761D01*
X017853Y030043D02*
X017853Y031261D01*
X017853Y032543D02*
X017853Y033461D01*
X017851Y033500D01*
X017845Y033538D01*
X017836Y033575D01*
X017823Y033612D01*
X017806Y033647D01*
X017787Y033680D01*
X017764Y033711D01*
X017738Y033740D01*
X017709Y033766D01*
X017678Y033789D01*
X017645Y033808D01*
X017610Y033825D01*
X017573Y033838D01*
X017536Y033847D01*
X017498Y033853D01*
X017459Y033855D01*
X014703Y033855D01*
X014664Y033853D01*
X014626Y033847D01*
X014589Y033838D01*
X014552Y033825D01*
X014517Y033808D01*
X014484Y033789D01*
X014453Y033766D01*
X014424Y033740D01*
X014398Y033711D01*
X014375Y033680D01*
X014356Y033647D01*
X014339Y033612D01*
X014326Y033575D01*
X014317Y033538D01*
X014311Y033500D01*
X014309Y033461D01*
X014310Y033461D02*
X014310Y032549D01*
X014310Y031261D02*
X014310Y030049D01*
X014310Y028761D02*
X014310Y027849D01*
X015494Y027849D01*
X013061Y025816D02*
X013061Y024846D01*
X011301Y024846D02*
X011301Y025816D01*
X009781Y028986D02*
X009783Y028999D01*
X009788Y029012D01*
X009797Y029023D01*
X009808Y029030D01*
X009821Y029035D01*
X009834Y029036D01*
X009848Y029033D01*
X009860Y029027D01*
X009870Y029018D01*
X009877Y029006D01*
X009881Y028993D01*
X009881Y028979D01*
X009877Y028966D01*
X009870Y028954D01*
X009860Y028945D01*
X009848Y028939D01*
X009834Y028936D01*
X009821Y028937D01*
X009808Y028942D01*
X009797Y028949D01*
X009788Y028960D01*
X009783Y028973D01*
X009781Y028986D01*
X009831Y028986D01*
X003681Y032142D02*
X003685Y032297D01*
X003696Y032451D01*
X003715Y032604D01*
X003742Y032757D01*
X003775Y032907D01*
X003817Y033056D01*
X003865Y033203D01*
X003921Y033347D01*
X003983Y033489D01*
X004053Y033627D01*
X004129Y033761D01*
X004212Y033892D01*
X004301Y034018D01*
X004396Y034140D01*
X004497Y034257D01*
X004604Y034369D01*
X004716Y034476D01*
X004833Y034577D01*
X004955Y034672D01*
X005081Y034761D01*
X005212Y034844D01*
X005346Y034920D01*
X005484Y034990D01*
X005626Y035052D01*
X005770Y035108D01*
X005917Y035156D01*
X006066Y035198D01*
X006216Y035231D01*
X006369Y035258D01*
X006522Y035277D01*
X006676Y035288D01*
X006831Y035292D01*
X006986Y035288D01*
X007140Y035277D01*
X007293Y035258D01*
X007446Y035231D01*
X007596Y035198D01*
X007745Y035156D01*
X007892Y035108D01*
X008036Y035052D01*
X008178Y034990D01*
X008316Y034920D01*
X008450Y034844D01*
X008581Y034761D01*
X008707Y034672D01*
X008829Y034577D01*
X008946Y034476D01*
X009058Y034369D01*
X009165Y034257D01*
X009266Y034140D01*
X009361Y034018D01*
X009450Y033892D01*
X009533Y033761D01*
X009609Y033627D01*
X009679Y033489D01*
X009741Y033347D01*
X009797Y033203D01*
X009845Y033056D01*
X009887Y032907D01*
X009920Y032757D01*
X009947Y032604D01*
X009966Y032451D01*
X009977Y032297D01*
X009981Y032142D01*
X009977Y031987D01*
X009966Y031833D01*
X009947Y031680D01*
X009920Y031527D01*
X009887Y031377D01*
X009845Y031228D01*
X009797Y031081D01*
X009741Y030937D01*
X009679Y030795D01*
X009609Y030657D01*
X009533Y030523D01*
X009450Y030392D01*
X009361Y030266D01*
X009266Y030144D01*
X009165Y030027D01*
X009058Y029915D01*
X008946Y029808D01*
X008829Y029707D01*
X008707Y029612D01*
X008581Y029523D01*
X008450Y029440D01*
X008316Y029364D01*
X008178Y029294D01*
X008036Y029232D01*
X007892Y029176D01*
X007745Y029128D01*
X007596Y029086D01*
X007446Y029053D01*
X007293Y029026D01*
X007140Y029007D01*
X006986Y028996D01*
X006831Y028992D01*
X006676Y028996D01*
X006522Y029007D01*
X006369Y029026D01*
X006216Y029053D01*
X006066Y029086D01*
X005917Y029128D01*
X005770Y029176D01*
X005626Y029232D01*
X005484Y029294D01*
X005346Y029364D01*
X005212Y029440D01*
X005081Y029523D01*
X004955Y029612D01*
X004833Y029707D01*
X004716Y029808D01*
X004604Y029915D01*
X004497Y030027D01*
X004396Y030144D01*
X004301Y030266D01*
X004212Y030392D01*
X004129Y030523D01*
X004053Y030657D01*
X003983Y030795D01*
X003921Y030937D01*
X003865Y031081D01*
X003817Y031228D01*
X003775Y031377D01*
X003742Y031527D01*
X003715Y031680D01*
X003696Y031833D01*
X003685Y031987D01*
X003681Y032142D01*
D781*
X016431Y025270D03*
D782*
X010491Y026296D02*
X010494Y026324D01*
X010244Y026324D01*
X010247Y026351D01*
X010491Y026351D01*
X010247Y026351D01*
X010256Y026378D01*
X010271Y026402D01*
X010291Y026421D01*
X010314Y026436D01*
X010423Y026436D01*
X010397Y026446D01*
X010369Y026449D01*
X010369Y026449D01*
X010341Y026446D01*
X010314Y026436D01*
X010313Y026436D02*
X010424Y026436D01*
X010423Y026436D02*
X010447Y026421D01*
X010291Y026421D01*
X010291Y026422D02*
X010446Y026422D01*
X010445Y026422D02*
X010292Y026422D01*
X010293Y026423D02*
X010445Y026423D01*
X010444Y026423D02*
X010294Y026423D01*
X010294Y026424D02*
X010443Y026424D01*
X010442Y026424D02*
X010295Y026424D01*
X010296Y026425D02*
X010442Y026425D01*
X010441Y026425D02*
X010297Y026425D01*
X010298Y026426D02*
X010440Y026426D01*
X010439Y026426D02*
X010298Y026426D01*
X010299Y026427D02*
X010438Y026427D01*
X010300Y026427D01*
X010301Y026428D02*
X010437Y026428D01*
X010436Y026428D02*
X010302Y026428D01*
X010302Y026429D02*
X010435Y026429D01*
X010434Y026429D02*
X010303Y026429D01*
X010304Y026430D02*
X010434Y026430D01*
X010433Y026430D02*
X010305Y026430D01*
X010305Y026431D02*
X010432Y026431D01*
X010431Y026431D02*
X010306Y026431D01*
X010307Y026432D02*
X010430Y026432D01*
X010308Y026432D01*
X010309Y026433D02*
X010429Y026433D01*
X010428Y026433D02*
X010309Y026433D01*
X010310Y026434D02*
X010427Y026434D01*
X010426Y026434D02*
X010311Y026434D01*
X010312Y026435D02*
X010426Y026435D01*
X010425Y026435D02*
X010313Y026435D01*
X010316Y026437D02*
X010422Y026437D01*
X010421Y026437D02*
X010317Y026437D01*
X010318Y026438D02*
X010419Y026438D01*
X010418Y026438D02*
X010320Y026438D01*
X010321Y026439D02*
X010416Y026439D01*
X010415Y026439D02*
X010323Y026439D01*
X010324Y026440D02*
X010413Y026440D01*
X010412Y026440D02*
X010326Y026440D01*
X010327Y026441D02*
X010410Y026441D01*
X010409Y026441D02*
X010328Y026441D01*
X010330Y026442D02*
X010408Y026442D01*
X010406Y026442D02*
X010331Y026442D01*
X010333Y026443D02*
X010405Y026443D01*
X010403Y026443D02*
X010334Y026443D01*
X010336Y026444D02*
X010402Y026444D01*
X010400Y026444D02*
X010337Y026444D01*
X010338Y026445D02*
X010399Y026445D01*
X010398Y026445D02*
X010340Y026445D01*
X010342Y026446D02*
X010395Y026446D01*
X010391Y026446D02*
X010346Y026446D01*
X010351Y026447D02*
X010387Y026447D01*
X010382Y026447D02*
X010355Y026447D01*
X010360Y026448D02*
X010378Y026448D01*
X010373Y026448D02*
X010364Y026448D01*
X010290Y026421D02*
X010447Y026421D01*
X010466Y026402D01*
X010271Y026402D01*
X010466Y026402D01*
X010481Y026378D01*
X010256Y026378D01*
X010481Y026378D01*
X010491Y026351D01*
X010494Y026324D01*
X010244Y026324D01*
X010247Y026296D01*
X010491Y026296D01*
X010481Y026269D01*
X010256Y026269D01*
X010481Y026269D01*
X010466Y026246D01*
X010447Y026226D01*
X010290Y026226D01*
X010291Y026226D02*
X010314Y026211D01*
X010423Y026211D01*
X010447Y026226D01*
X010446Y026226D02*
X010291Y026226D01*
X010271Y026246D01*
X010467Y026246D01*
X010271Y026246D01*
X010256Y026269D01*
X010247Y026296D01*
X010491Y026296D01*
X010490Y026295D02*
X010247Y026295D01*
X010490Y026295D01*
X010490Y026294D02*
X010247Y026294D01*
X010248Y026294D02*
X010490Y026294D01*
X010490Y026293D02*
X010248Y026293D01*
X010490Y026293D01*
X010489Y026292D02*
X010248Y026292D01*
X010489Y026292D01*
X010489Y026291D02*
X010248Y026291D01*
X010249Y026291D02*
X010489Y026291D01*
X010489Y026290D02*
X010249Y026290D01*
X010489Y026290D01*
X010488Y026289D02*
X010249Y026289D01*
X010488Y026289D01*
X010488Y026288D02*
X010249Y026288D01*
X010250Y026288D02*
X010488Y026288D01*
X010488Y026287D02*
X010250Y026287D01*
X010487Y026287D01*
X010487Y026286D02*
X010250Y026286D01*
X010487Y026286D01*
X010487Y026285D02*
X010250Y026285D01*
X010251Y026285D02*
X010487Y026285D01*
X010487Y026284D02*
X010251Y026284D01*
X010486Y026284D01*
X010486Y026283D02*
X010251Y026283D01*
X010486Y026283D01*
X010486Y026282D02*
X010252Y026282D01*
X010486Y026282D01*
X010486Y026281D02*
X010252Y026281D01*
X010485Y026281D01*
X010485Y026280D02*
X010252Y026280D01*
X010485Y026280D01*
X010485Y026279D02*
X010253Y026279D01*
X010485Y026279D01*
X010484Y026278D02*
X010253Y026278D01*
X010484Y026278D01*
X010484Y026277D02*
X010253Y026277D01*
X010484Y026277D01*
X010484Y026276D02*
X010254Y026276D01*
X010484Y026276D01*
X010483Y026275D02*
X010254Y026275D01*
X010483Y026275D01*
X010483Y026274D02*
X010254Y026274D01*
X010255Y026274D02*
X010483Y026274D01*
X010483Y026273D02*
X010255Y026273D01*
X010483Y026273D01*
X010482Y026272D02*
X010255Y026272D01*
X010482Y026272D01*
X010482Y026271D02*
X010255Y026271D01*
X010256Y026271D02*
X010482Y026271D01*
X010482Y026270D02*
X010256Y026270D01*
X010481Y026270D01*
X010481Y026268D02*
X010257Y026268D01*
X010480Y026268D01*
X010480Y026267D02*
X010257Y026267D01*
X010258Y026267D02*
X010480Y026267D01*
X010479Y026266D02*
X010258Y026266D01*
X010479Y026266D01*
X010479Y026265D02*
X010259Y026265D01*
X010478Y026265D01*
X010478Y026264D02*
X010259Y026264D01*
X010260Y026264D02*
X010478Y026264D01*
X010478Y026263D02*
X010260Y026263D01*
X010477Y026263D01*
X010477Y026262D02*
X010261Y026262D01*
X010477Y026262D01*
X010476Y026261D02*
X010261Y026261D01*
X010476Y026261D01*
X010476Y026260D02*
X010262Y026260D01*
X010475Y026260D01*
X010475Y026259D02*
X010262Y026259D01*
X010263Y026259D02*
X010475Y026259D01*
X010474Y026258D02*
X010263Y026258D01*
X010474Y026258D01*
X010474Y026257D02*
X010264Y026257D01*
X010473Y026257D01*
X010473Y026256D02*
X010264Y026256D01*
X010265Y026256D02*
X010473Y026256D01*
X010473Y026255D02*
X010265Y026255D01*
X010472Y026255D01*
X010472Y026254D02*
X010266Y026254D01*
X010472Y026254D01*
X010471Y026253D02*
X010266Y026253D01*
X010471Y026253D01*
X010471Y026252D02*
X010267Y026252D01*
X010470Y026252D01*
X010470Y026251D02*
X010267Y026251D01*
X010268Y026251D02*
X010470Y026251D01*
X010469Y026250D02*
X010268Y026250D01*
X010469Y026250D01*
X010469Y026249D02*
X010269Y026249D01*
X010468Y026249D01*
X010468Y026248D02*
X010269Y026248D01*
X010270Y026248D02*
X010468Y026248D01*
X010467Y026247D02*
X010270Y026247D01*
X010467Y026247D01*
X010466Y026245D02*
X010271Y026245D01*
X010272Y026245D02*
X010466Y026245D01*
X010465Y026244D02*
X010272Y026244D01*
X010273Y026244D02*
X010465Y026244D01*
X010464Y026243D02*
X010273Y026243D01*
X010274Y026243D02*
X010464Y026243D01*
X010463Y026242D02*
X010274Y026242D01*
X010275Y026242D02*
X010463Y026242D01*
X010462Y026241D02*
X010275Y026241D01*
X010276Y026241D02*
X010462Y026241D01*
X010461Y026240D02*
X010276Y026240D01*
X010277Y026240D02*
X010461Y026240D01*
X010460Y026239D02*
X010277Y026239D01*
X010278Y026239D02*
X010460Y026239D01*
X010459Y026238D02*
X010278Y026238D01*
X010279Y026238D02*
X010459Y026238D01*
X010458Y026237D02*
X010279Y026237D01*
X010280Y026237D02*
X010458Y026237D01*
X010457Y026236D02*
X010280Y026236D01*
X010281Y026236D02*
X010457Y026236D01*
X010456Y026235D02*
X010281Y026235D01*
X010282Y026235D02*
X010456Y026235D01*
X010455Y026234D02*
X010282Y026234D01*
X010283Y026234D02*
X010455Y026234D01*
X010454Y026233D02*
X010283Y026233D01*
X010284Y026233D02*
X010454Y026233D01*
X010453Y026232D02*
X010284Y026232D01*
X010285Y026232D02*
X010453Y026232D01*
X010452Y026231D02*
X010285Y026231D01*
X010286Y026231D02*
X010452Y026231D01*
X010451Y026230D02*
X010286Y026230D01*
X010287Y026230D02*
X010451Y026230D01*
X010450Y026229D02*
X010287Y026229D01*
X010288Y026229D02*
X010450Y026229D01*
X010449Y026228D02*
X010288Y026228D01*
X010289Y026228D02*
X010449Y026228D01*
X010448Y026227D02*
X010289Y026227D01*
X010290Y026227D02*
X010448Y026227D01*
X010446Y026225D02*
X010292Y026225D01*
X010293Y026225D02*
X010445Y026225D01*
X010444Y026224D02*
X010293Y026224D01*
X010294Y026224D02*
X010443Y026224D01*
X010443Y026223D02*
X010295Y026223D01*
X010296Y026223D02*
X010442Y026223D01*
X010441Y026222D02*
X010297Y026222D01*
X010440Y026222D01*
X010439Y026221D02*
X010298Y026221D01*
X010299Y026221D02*
X010439Y026221D01*
X010438Y026220D02*
X010300Y026220D01*
X010301Y026220D02*
X010437Y026220D01*
X010436Y026219D02*
X010301Y026219D01*
X010302Y026219D02*
X010435Y026219D01*
X010435Y026218D02*
X010303Y026218D01*
X010304Y026218D02*
X010434Y026218D01*
X010433Y026217D02*
X010304Y026217D01*
X010305Y026217D02*
X010432Y026217D01*
X010431Y026216D02*
X010306Y026216D01*
X010307Y026216D02*
X010431Y026216D01*
X010430Y026215D02*
X010308Y026215D01*
X010429Y026215D01*
X010428Y026214D02*
X010309Y026214D01*
X010310Y026214D02*
X010427Y026214D01*
X010427Y026213D02*
X010311Y026213D01*
X010312Y026213D02*
X010426Y026213D01*
X010425Y026212D02*
X010312Y026212D01*
X010313Y026212D02*
X010424Y026212D01*
X010423Y026211D02*
X010397Y026202D01*
X010369Y026199D01*
X010341Y026202D01*
X010397Y026202D01*
X010398Y026202D02*
X010339Y026202D01*
X010338Y026203D02*
X010399Y026203D01*
X010401Y026203D02*
X010337Y026203D01*
X010335Y026204D02*
X010402Y026204D01*
X010404Y026204D02*
X010334Y026204D01*
X010332Y026205D02*
X010405Y026205D01*
X010407Y026205D02*
X010331Y026205D01*
X010329Y026206D02*
X010408Y026206D01*
X010409Y026206D02*
X010328Y026206D01*
X010327Y026207D02*
X010411Y026207D01*
X010412Y026207D02*
X010325Y026207D01*
X010324Y026208D02*
X010414Y026208D01*
X010415Y026208D02*
X010322Y026208D01*
X010321Y026209D02*
X010417Y026209D01*
X010418Y026209D02*
X010319Y026209D01*
X010318Y026210D02*
X010419Y026210D01*
X010421Y026210D02*
X010317Y026210D01*
X010315Y026211D02*
X010422Y026211D01*
X010392Y026201D02*
X010345Y026201D01*
X010341Y026202D02*
X010314Y026211D01*
X010350Y026201D02*
X010388Y026201D01*
X010383Y026200D02*
X010354Y026200D01*
X010359Y026200D02*
X010379Y026200D01*
X010374Y026199D02*
X010363Y026199D01*
X010368Y026199D02*
X010370Y026199D01*
X010491Y026297D02*
X010247Y026297D01*
X010491Y026297D01*
X010491Y026298D02*
X010247Y026298D01*
X010491Y026298D01*
X010491Y026299D02*
X010247Y026299D01*
X010246Y026299D02*
X010491Y026299D01*
X010491Y026300D02*
X010246Y026300D01*
X010491Y026300D01*
X010491Y026301D02*
X010246Y026301D01*
X010491Y026301D01*
X010491Y026302D02*
X010246Y026302D01*
X010491Y026302D01*
X010491Y026303D02*
X010246Y026303D01*
X010491Y026303D01*
X010491Y026304D02*
X010246Y026304D01*
X010492Y026304D01*
X010492Y026305D02*
X010246Y026305D01*
X010492Y026305D01*
X010492Y026306D02*
X010246Y026306D01*
X010492Y026306D01*
X010492Y026307D02*
X010246Y026307D01*
X010492Y026307D01*
X010492Y026308D02*
X010245Y026308D01*
X010492Y026308D01*
X010492Y026309D02*
X010245Y026309D01*
X010492Y026309D01*
X010492Y026310D02*
X010245Y026310D01*
X010492Y026310D01*
X010492Y026311D02*
X010245Y026311D01*
X010492Y026311D01*
X010492Y026312D02*
X010245Y026312D01*
X010492Y026312D01*
X010493Y026313D02*
X010245Y026313D01*
X010493Y026313D01*
X010493Y026314D02*
X010245Y026314D01*
X010493Y026314D01*
X010493Y026315D02*
X010245Y026315D01*
X010493Y026315D01*
X010493Y026316D02*
X010245Y026316D01*
X010493Y026316D01*
X010493Y026317D02*
X010244Y026317D01*
X010493Y026317D01*
X010493Y026318D02*
X010244Y026318D01*
X010493Y026318D01*
X010493Y026319D02*
X010244Y026319D01*
X010493Y026319D01*
X010493Y026320D02*
X010244Y026320D01*
X010493Y026320D01*
X010493Y026321D02*
X010244Y026321D01*
X010493Y026321D01*
X010494Y026322D02*
X010244Y026322D01*
X010494Y026322D01*
X010494Y026323D02*
X010244Y026323D01*
X010494Y026323D01*
X010494Y026325D02*
X010244Y026325D01*
X010494Y026325D01*
X010493Y026326D02*
X010244Y026326D01*
X010493Y026326D01*
X010493Y026327D02*
X010244Y026327D01*
X010493Y026327D01*
X010493Y026328D02*
X010244Y026328D01*
X010493Y026328D01*
X010493Y026329D02*
X010244Y026329D01*
X010493Y026329D01*
X010493Y026330D02*
X010244Y026330D01*
X010493Y026330D01*
X010493Y026331D02*
X010245Y026331D01*
X010493Y026331D01*
X010493Y026332D02*
X010245Y026332D01*
X010493Y026332D01*
X010493Y026333D02*
X010245Y026333D01*
X010493Y026333D01*
X010493Y026334D02*
X010245Y026334D01*
X010492Y026334D01*
X010492Y026335D02*
X010245Y026335D01*
X010492Y026335D01*
X010492Y026336D02*
X010245Y026336D01*
X010492Y026336D01*
X010492Y026337D02*
X010245Y026337D01*
X010492Y026337D01*
X010492Y026338D02*
X010245Y026338D01*
X010492Y026338D01*
X010492Y026339D02*
X010245Y026339D01*
X010246Y026339D02*
X010492Y026339D01*
X010492Y026340D02*
X010246Y026340D01*
X010492Y026340D01*
X010492Y026341D02*
X010246Y026341D01*
X010492Y026341D01*
X010492Y026342D02*
X010246Y026342D01*
X010246Y026343D02*
X010492Y026343D01*
X010246Y026343D01*
X010246Y026344D02*
X010491Y026344D01*
X010246Y026344D01*
X010246Y026345D02*
X010491Y026345D01*
X010246Y026345D01*
X010246Y026346D02*
X010491Y026346D01*
X010246Y026346D01*
X010246Y026347D02*
X010491Y026347D01*
X010246Y026347D01*
X010246Y026348D02*
X010491Y026348D01*
X010246Y026348D01*
X010247Y026349D02*
X010491Y026349D01*
X010247Y026349D01*
X010247Y026350D02*
X010491Y026350D01*
X010247Y026350D01*
X010247Y026352D02*
X010491Y026352D01*
X010490Y026352D02*
X010247Y026352D01*
X010247Y026353D02*
X010490Y026353D01*
X010247Y026353D01*
X010248Y026354D02*
X010490Y026354D01*
X010248Y026354D01*
X010248Y026355D02*
X010490Y026355D01*
X010489Y026355D02*
X010248Y026355D01*
X010248Y026356D02*
X010489Y026356D01*
X010248Y026356D01*
X010249Y026357D02*
X010489Y026357D01*
X010249Y026357D01*
X010249Y026358D02*
X010488Y026358D01*
X010249Y026358D01*
X010249Y026359D02*
X010488Y026359D01*
X010249Y026359D01*
X010250Y026360D02*
X010488Y026360D01*
X010250Y026360D01*
X010250Y026361D02*
X010487Y026361D01*
X010250Y026361D01*
X010250Y026362D02*
X010487Y026362D01*
X010251Y026362D01*
X010251Y026363D02*
X010487Y026363D01*
X010251Y026363D01*
X010251Y026364D02*
X010486Y026364D01*
X010251Y026364D01*
X010251Y026365D02*
X010486Y026365D01*
X010252Y026365D01*
X010252Y026366D02*
X010486Y026366D01*
X010485Y026366D02*
X010252Y026366D01*
X010252Y026367D02*
X010485Y026367D01*
X010252Y026367D01*
X010252Y026368D02*
X010485Y026368D01*
X010253Y026368D01*
X010253Y026369D02*
X010485Y026369D01*
X010484Y026369D02*
X010253Y026369D01*
X010253Y026370D02*
X010484Y026370D01*
X010253Y026370D01*
X010254Y026371D02*
X010484Y026371D01*
X010254Y026371D01*
X010254Y026372D02*
X010484Y026372D01*
X010483Y026372D02*
X010254Y026372D01*
X010254Y026373D02*
X010483Y026373D01*
X010254Y026373D01*
X010255Y026374D02*
X010483Y026374D01*
X010255Y026374D01*
X010255Y026375D02*
X010483Y026375D01*
X010482Y026375D02*
X010255Y026375D01*
X010255Y026376D02*
X010482Y026376D01*
X010255Y026376D01*
X010256Y026377D02*
X010482Y026377D01*
X010256Y026377D01*
X010257Y026379D02*
X010481Y026379D01*
X010257Y026379D01*
X010257Y026380D02*
X010480Y026380D01*
X010257Y026380D01*
X010258Y026381D02*
X010480Y026381D01*
X010479Y026381D02*
X010258Y026381D01*
X010258Y026382D02*
X010479Y026382D01*
X010259Y026382D01*
X010259Y026383D02*
X010478Y026383D01*
X010259Y026383D01*
X010260Y026384D02*
X010478Y026384D01*
X010477Y026384D02*
X010260Y026384D01*
X010260Y026385D02*
X010477Y026385D01*
X010261Y026385D01*
X010261Y026386D02*
X010477Y026386D01*
X010476Y026386D02*
X010261Y026386D01*
X010262Y026387D02*
X010476Y026387D01*
X010262Y026387D01*
X010262Y026388D02*
X010475Y026388D01*
X010262Y026388D01*
X010263Y026389D02*
X010475Y026389D01*
X010474Y026389D02*
X010263Y026389D01*
X010263Y026390D02*
X010474Y026390D01*
X010264Y026390D01*
X010264Y026391D02*
X010473Y026391D01*
X010264Y026391D01*
X010265Y026392D02*
X010473Y026392D01*
X010472Y026392D02*
X010265Y026392D01*
X010265Y026393D02*
X010472Y026393D01*
X010266Y026393D01*
X010266Y026394D02*
X010471Y026394D01*
X010266Y026394D01*
X010267Y026395D02*
X010471Y026395D01*
X010267Y026395D01*
X010267Y026396D02*
X010470Y026396D01*
X010268Y026396D01*
X010268Y026397D02*
X010470Y026397D01*
X010469Y026397D02*
X010268Y026397D01*
X010268Y026398D02*
X010469Y026398D01*
X010269Y026398D01*
X010269Y026399D02*
X010468Y026399D01*
X010269Y026399D01*
X010270Y026400D02*
X010468Y026400D01*
X010467Y026400D02*
X010270Y026400D01*
X010270Y026401D02*
X010467Y026401D01*
X010271Y026401D01*
X010272Y026403D02*
X010465Y026403D01*
X010272Y026403D01*
X010273Y026404D02*
X010464Y026404D01*
X010273Y026404D01*
X010274Y026405D02*
X010463Y026405D01*
X010274Y026405D01*
X010275Y026406D02*
X010462Y026406D01*
X010275Y026406D01*
X010276Y026407D02*
X010461Y026407D01*
X010276Y026407D01*
X010277Y026408D02*
X010460Y026408D01*
X010277Y026408D01*
X010278Y026409D02*
X010459Y026409D01*
X010278Y026409D01*
X010279Y026410D02*
X010458Y026410D01*
X010279Y026410D01*
X010280Y026411D02*
X010457Y026411D01*
X010280Y026411D01*
X010281Y026412D02*
X010456Y026412D01*
X010281Y026412D01*
X010282Y026413D02*
X010455Y026413D01*
X010282Y026413D01*
X010283Y026414D02*
X010454Y026414D01*
X010283Y026414D01*
X010284Y026415D02*
X010453Y026415D01*
X010284Y026415D01*
X010285Y026416D02*
X010452Y026416D01*
X010285Y026416D01*
X010286Y026417D02*
X010451Y026417D01*
X010286Y026417D01*
X010287Y026418D02*
X010450Y026418D01*
X010288Y026418D01*
X010288Y026419D02*
X010449Y026419D01*
X010289Y026419D01*
X010289Y026420D02*
X010448Y026420D01*
X010290Y026420D01*
D783*
X014644Y031417D02*
X014838Y031417D01*
X014886Y031466D01*
X014886Y031562D01*
X014838Y031611D01*
X014741Y031611D01*
X014741Y031514D01*
X014644Y031611D02*
X014596Y031562D01*
X014596Y031466D01*
X014644Y031417D01*
X014596Y031712D02*
X014886Y031905D01*
X014596Y031905D01*
X014596Y032007D02*
X014596Y032152D01*
X014644Y032200D01*
X014838Y032200D01*
X014886Y032152D01*
X014886Y032007D01*
X014596Y032007D01*
X014596Y031712D02*
X014886Y031712D01*
M02*
